<?xml version="1.0" encoding="UTF-8" standalone="no"?>
<svg
   xmlns:dc="http://purl.org/dc/elements/1.1/"
   xmlns:cc="http://creativecommons.org/ns#"
   xmlns:rdf="http://www.w3.org/1999/02/22-rdf-syntax-ns#"
   xmlns:svg="http://www.w3.org/2000/svg"
   xmlns="http://www.w3.org/2000/svg"
   viewBox="0 0 350.57751 174.02"
   height="174.02"
   width="350.57751"
   xml:space="preserve"
   version="1.1"
   id="svg2"><metadata
     id="metadata8"><rdf:RDF><cc:Work
         rdf:about=""><dc:format>image/svg+xml</dc:format><dc:type
           rdf:resource="http://purl.org/dc/dcmitype/StillImage" /></cc:Work></rdf:RDF></metadata><defs
     id="defs6" /><g
     transform="matrix(1.25,0,0,-1.25,0,174.02)"
     id="g10"><g
       id="g12"><path
         id="path14"
         style="fill:#fdf5ee;fill-opacity:1;fill-rule:nonzero;stroke:#000000;stroke-width:0.3985;stroke-linecap:butt;stroke-linejoin:miter;stroke-miterlimit:10;stroke-dasharray:none;stroke-opacity:1"
         d="m 74.531,133.208 -70.347,0 c -2.2,0 -3.985,-1.781 -3.985,-3.984 l 0,-6.145 c 0,-2.199 1.785,-3.984 3.985,-3.984 l 70.347,0 c 2.203,0 3.985,1.785 3.985,3.984 l 0,6.145 c 0,2.203 -1.782,3.984 -3.985,3.984 z" /><text
         id="text16"
         style="font-variant:normal;font-weight:normal;font-size:7.97009993px;font-family:FreeSans;-inkscape-font-specification:FreeSans;writing-mode:lr-tb;fill:#000000;fill-opacity:1;fill-rule:nonzero;stroke:none"
         transform="matrix(1,0,0,-1,16.740999,123.38201)"><tspan
           id="tspan18"
           y="0"
           x="0 5.6508007 10.958887 18.42687 20.419395 25.982527 31.290613 36.327717">RAW DATA</tspan></text>
<path
         id="path20"
         style="fill:#fdf5ee;fill-opacity:1;fill-rule:nonzero;stroke:#000000;stroke-width:0.3985;stroke-linecap:butt;stroke-linejoin:miter;stroke-miterlimit:10;stroke-dasharray:none;stroke-opacity:1"
         d="m 272.961,137.943 -70.348,0 c -2.203,0 -3.988,-1.786 -3.988,-3.985 l 0,-15.609 c 0,-2.203 1.785,-3.985 3.988,-3.985 l 70.348,0 c 2.199,0 3.984,1.782 3.984,3.985 l 0,15.609 c 0,2.199 -1.785,3.985 -3.984,3.985 z" /><path
         id="path22"
         style="fill:#fdf5ee;fill-opacity:1;fill-rule:nonzero;stroke:#000000;stroke-width:0.3985;stroke-linecap:butt;stroke-linejoin:miter;stroke-miterlimit:10;stroke-dasharray:none;stroke-opacity:1"
         d="m 74.531,81.978 -70.347,0 c -2.2,0 -3.985,-1.785 -3.985,-3.985 l 0,-17.07 c 0,-2.199 1.785,-3.984 3.985,-3.984 l 70.347,0 c 2.203,0 3.985,1.785 3.985,3.984 l 0,17.07 c 0,2.2 -1.782,3.985 -3.985,3.985 z" /><path
         id="path24"
         style="fill:#fdf5ee;fill-opacity:1;fill-rule:nonzero;stroke:#000000;stroke-width:0.3985;stroke-linecap:butt;stroke-linejoin:miter;stroke-miterlimit:10;stroke-dasharray:none;stroke-opacity:1"
         d="m 272.961,77.29 -70.348,0 c -2.203,0 -3.988,-1.785 -3.988,-3.984 l 0,-7.695 c 0,-2.2 1.785,-3.985 3.988,-3.985 l 70.348,0 c 2.199,0 3.984,1.785 3.984,3.985 l 0,7.695 c 0,2.199 -1.785,3.984 -3.984,3.984 z" /><path
         id="path26"
         style="fill:#fdf5ee;fill-opacity:1;fill-rule:nonzero;stroke:#000000;stroke-width:0.3985;stroke-linecap:butt;stroke-linejoin:miter;stroke-miterlimit:10;stroke-dasharray:none;stroke-opacity:1"
         d="m 74.531,20.552 -70.347,0 c -2.2,0 -3.985,-1.785 -3.985,-3.984 l 0,-7.606 c 0,-2.199 1.785,-3.984 3.985,-3.984 l 70.347,0 c 2.203,0 3.985,1.785 3.985,3.984 l 0,7.606 c 0,2.199 -1.782,3.984 -3.985,3.984 z" /><text
         id="text28"
         style="font-variant:normal;font-weight:normal;font-size:8px;font-family:FreeSans;-inkscape-font-specification:FreeSans;writing-mode:lr-tb;fill:#000000;fill-opacity:1;fill-rule:nonzero;stroke:none"
         transform="matrix(1,0,0,-1,0.959726,9.888739)"><tspan
           id="tspan30"
           y="0"
           x="0 5.336 10.392 16.063999 18.288 23.959999 29.016001 31.016001 36.688 42.959999 49.080002 54.944 60.271999 65.328003 70.391998">STRICT COGNATES</tspan></text>
<path
         id="path32"
         style="fill:#fdf5ee;fill-opacity:1;fill-rule:nonzero;stroke:#000000;stroke-width:0.3985;stroke-linecap:butt;stroke-linejoin:miter;stroke-miterlimit:10;stroke-dasharray:none;stroke-opacity:1"
         d="m 272.961,25.329 -70.348,0 c -2.203,0 -3.988,-1.785 -3.988,-3.984 l 0,-17.16 c 0,-2.199 1.785,-3.985 3.988,-3.985 l 70.348,0 c 2.199,0 3.984,1.786 3.984,3.985 l 0,17.16 c 0,2.199 -1.785,3.984 -3.984,3.984 z" /><path
         id="path34"
         style="fill:none;stroke:#000000;stroke-width:0.3985;stroke-linecap:butt;stroke-linejoin:miter;stroke-miterlimit:10;stroke-dasharray:none;stroke-opacity:1"
         d="m 78.715,126.154 119.312,0" /><path
         id="path36"
         style="fill:none;stroke:#000000;stroke-width:0.3985;stroke-linecap:round;stroke-linejoin:round;stroke-miterlimit:10;stroke-dasharray:none;stroke-opacity:1"
         d="m 196.156,128.544 c 0.379,-1.433 1.223,-2.113 2.071,-2.39 -0.848,-0.282 -1.692,-0.958 -2.071,-2.391" /><path
         id="path38"
         style="fill:none;stroke:#000000;stroke-width:0.3985;stroke-linecap:butt;stroke-linejoin:miter;stroke-miterlimit:10;stroke-dasharray:none;stroke-opacity:1"
         d="m 237.785,114.165 0,-16.359 -198.426,0 0,-15.231" /><g
         transform="matrix(0,-1,1,0,0,139.216)"
         id="g40"><path
           id="path42"
           style="fill:none;stroke:#000000;stroke-width:0.3985;stroke-linecap:round;stroke-linejoin:round;stroke-miterlimit:10;stroke-dasharray:none;stroke-opacity:1"
           d="m 54.766,41.75 c 0.379,-1.438 1.222,-2.113 2.074,-2.391 -0.852,-0.281 -1.695,-0.957 -2.074,-2.39" /></g><path
         id="path44"
         style="fill:none;stroke:#000000;stroke-width:0.3985;stroke-linecap:butt;stroke-linejoin:miter;stroke-miterlimit:10;stroke-dasharray:none;stroke-opacity:1"
         d="m 78.715,69.458 119.312,0" /><path
         id="path46"
         style="fill:none;stroke:#000000;stroke-width:0.3985;stroke-linecap:round;stroke-linejoin:round;stroke-miterlimit:10;stroke-dasharray:none;stroke-opacity:1"
         d="m 196.156,71.849 c 0.379,-1.434 1.223,-2.11 2.071,-2.391 -0.848,-0.277 -1.692,-0.957 -2.071,-2.39" /><path
         id="path48"
         style="fill:none;stroke:#000000;stroke-width:0.3985;stroke-linecap:butt;stroke-linejoin:miter;stroke-miterlimit:10;stroke-dasharray:none;stroke-opacity:1"
         d="m 237.785,61.427 0,-20.316 -198.426,0 0,-19.961" /><g
         transform="matrix(0,-1,1,0,0,139.216)"
         id="g50"><path
           id="path52"
           style="fill:none;stroke:#000000;stroke-width:0.3985;stroke-linecap:round;stroke-linejoin:round;stroke-miterlimit:10;stroke-dasharray:none;stroke-opacity:1"
           d="m 116.191,41.75 c 0.379,-1.438 1.223,-2.113 2.075,-2.391 -0.852,-0.281 -1.696,-0.957 -2.075,-2.39" /></g><path
         id="path54"
         style="fill:none;stroke:#000000;stroke-width:0.3985;stroke-linecap:butt;stroke-linejoin:miter;stroke-miterlimit:10;stroke-dasharray:none;stroke-opacity:1"
         d="m 78.715,12.767 119.312,0" /><path
         id="path56"
         style="fill:none;stroke:#000000;stroke-width:0.3985;stroke-linecap:round;stroke-linejoin:round;stroke-miterlimit:10;stroke-dasharray:none;stroke-opacity:1"
         d="m 196.156,15.157 c 0.379,-1.437 1.223,-2.113 2.071,-2.39 -0.848,-0.281 -1.692,-0.957 -2.071,-2.395" /><text
         id="text58"
         style="font-variant:normal;font-weight:normal;font-size:8px;font-family:FreeSans;-inkscape-font-specification:FreeSansOblique;writing-mode:lr-tb;fill:#000000;fill-opacity:1;fill-rule:nonzero;stroke:none"
         transform="matrix(1,0,0,-1,110.57162,129.91055)"><tspan
           id="tspan60"
           y="0"
           x="0 2.4400001 6.7360001 8.6560001 13.032 15.552 22.08 26.440001 28.559999 30.336 34.655998 39.071999 41.296001 45.655998 49.896">reformating and</tspan><tspan
           id="tspan62"
           y="10"
           x="3.75 7.75 12.126 16.542 22.997999 27.302 31.622 33.661999 38.014 40.133999 41.91 46.301998">segmentation</tspan><tspan
           id="tspan64"
           y="29.500256"
           x="-2.056056 2.4479439 6.8079438 9.3999443 11.519944 13.295944 17.727943 19.503944 21.727943 25.847944 30.319944 34.735943 39.055943 43.415943 45.463943">partial cognate</tspan><tspan
           id="tspan66"
           y="39.500256"
           x="7.9751921 12.439192 16.743193 18.791191 23.167192 27.207191 29.327192 31.103191 35.495193">detection</tspan></text>
<text
         id="text68"
         style="font-variant:normal;font-weight:normal;font-size:8px;font-family:FreeSans;-inkscape-font-specification:FreeSans;writing-mode:lr-tb;fill:#000000;fill-opacity:1;fill-rule:nonzero;stroke:none"
         transform="matrix(1,0,0,-1,218.3289,128.02382)"><tspan
           id="tspan70"
           y="0"
           x="0 6.7680001 12.096 17.768 23.535999 25.76 31.6 36.664001">MACHINE-</tspan><tspan
           id="tspan72"
           y="10"
           x="-12.906248 -7.2342482 -2.170248 3.157752 8.7417517 14.069752 19.381752 23.885752 28.949753 30.949753 36.533752 41.861752 46.917751">READABLE DATA</tspan><tspan
           id="tspan74"
           y="56.10099"
           x="-195.28824 -190.04024 -184.71223 -179.04024 -173.98424 -171.76024 -166.43224 -161.92824">PARTIAL </tspan><tspan
           id="tspan76"
           y="66.10099"
           x="-209.69447 -204.02248 -197.75047 -191.63048 -185.79048 -180.46248 -175.40648 -170.34248 -168.34248 -163.00648 -157.94247 -152.86247">COGNATE SETS</tspan><tspan
           id="tspan78"
           y="60.840488"
           x="-4.623528 0.70447201 5.2084718 7.4324722 13.552472 19.392471 26.160473 31.224472 37.064472 42.120472">ALIGNMENTS</tspan></text>
<text
         id="text80"
         style="font-variant:normal;font-weight:normal;font-size:8px;font-family:FreeSans;-inkscape-font-specification:FreeSansOblique;writing-mode:lr-tb;fill:#000000;fill-opacity:1;fill-rule:nonzero;stroke:none"
         transform="matrix(1,0,0,-1,108.7261,73.007239)"><tspan
           id="tspan82"
           y="0"
           x="0 2.0480001 6.3439999 12.8 17.304001 19.08 23.440001 25.488001 29.864 32.528 37.015999 41.375999 45.375999 49.751999">template-based</tspan><tspan
           id="tspan84"
           y="10"
           x="-5.695312 -1.191312 3.040688 7.416688 11.648688 15.944688 18.064688 19.840689 23.960688 26.184689 30.616688 32.416687 34.192688 38.608688 42.728687 49.184689 53.480686 57.80069">phonetic alignment</tspan><tspan
           id="tspan86"
           y="28.647312"
           x="-18.795712 -14.363712 -12.587712 -10.811712 -6.3717122 -2.259712 4.1882882 8.4842882 12.804288 14.924288 17.588287 22.076288 26.444288 30.444288 34.82029 39.284286 41.508289 45.972286 50.268288 52.316288 56.692287 60.740288 62.860287 64.636292 69.020287">alignment-based detection</tspan><tspan
           id="tspan88"
           y="38.647312"
           x="-20.475401 -16.0994 -14.0194 -11.7954 -7.7554002 -5.3154001 -0.93940002 2.9806001 6.9805999 9.2446003 13.2446 17.5406 24.0686 28.4366 32.756599 34.876598 36.652599 40.772598 42.996601 47.1166 51.564602 55.980598 60.300598 64.668602 66.716599 71.012604">of cross-semantic cognates</tspan><tspan
           id="tspan90"
           y="57.452"
           x="-12.62128 -8.5012798 -4.11728 -1.52528 0.91472 5.2107201 9.1307201 13.63472 18.00272 22.24272 26.70672 31.010719 35.242722 39.36272 43.73872 45.962719 50.466721 54.818722 56.818722 58.866718 63.16272 65.682716">correspondence pattern</tspan><tspan
           id="tspan92"
           y="67.452003"
           x="6.8787198 8.6547203 13.11872 17.42272 21.74272 23.86272">identi</tspan></text>
<text
         id="text94"
         style="font-variant:normal;font-weight:normal;font-size:8px;font-family:FreeSans;-inkscape-font-specification:FreeSansOblique;writing-mode:lr-tb;fill:#000000;fill-opacity:1;fill-rule:nonzero;stroke:none"
         transform="matrix(1,0,0,-1,134.36482,5.555239)"><tspan
           id="tspan96"
           y="0"
           x="0">ﬁ</tspan></text>
<text
         id="text98"
         style="font-variant:normal;font-weight:normal;font-size:8px;font-family:FreeSans;-inkscape-font-specification:FreeSansOblique;writing-mode:lr-tb;fill:#000000;fill-opacity:1;fill-rule:nonzero;stroke:none"
         transform="matrix(1,0,0,-1,138.13282,5.555239)"><tspan
           id="tspan100"
           y="0"
           x="0 4.1199999 8.4879999 10.608 12.384 16.768">cation</tspan></text>
<text
         id="text102"
         style="font-variant:normal;font-weight:normal;font-size:8px;font-family:FreeSans;-inkscape-font-specification:FreeSans;writing-mode:lr-tb;fill:#000000;fill-opacity:1;fill-rule:nonzero;stroke:none"
         transform="matrix(1,0,0,-1,211.08321,15.241239)"><tspan
           id="tspan104"
           y="0"
           x="0 5.6719999 11.944 17.615999 23.288 28.351999 33.688 38.936001 45.208 51.048">CORRESPON-</tspan><tspan
           id="tspan106"
           y="10"
           x="-9.0624962 -3.4784961 1.5855041 7.4255042 13.097504 18.161505 20.161505 25.409504 30.737503 35.793503 40.849503 45.913506 51.585503 57.425503">DENCE PATTERNS</tspan></text>
</g></g></svg>