<?xml version="1.0" encoding="UTF-8" standalone="no"?>
<svg
   xmlns:dc="http://purl.org/dc/elements/1.1/"
   xmlns:cc="http://creativecommons.org/ns#"
   xmlns:rdf="http://www.w3.org/1999/02/22-rdf-syntax-ns#"
   xmlns:svg="http://www.w3.org/2000/svg"
   xmlns="http://www.w3.org/2000/svg"
   viewBox="0 0 350.57751 174.02"
   height="174.02"
   width="350.57751"
   xml:space="preserve"
   version="1.1"
   id="svg2"><metadata
     id="metadata8"><rdf:RDF><cc:Work
         rdf:about=""><dc:format>image/svg+xml</dc:format><dc:type
           rdf:resource="http://purl.org/dc/dcmitype/StillImage" /></cc:Work></rdf:RDF></metadata><defs
     id="defs6" /><g
     transform="matrix(1.25,0,0,-1.25,0,174.02)"
     id="g10"><g
       transform="translate(39.358,-128.969)"
       id="g12"><g
         id="g14"><g
           id="g16"><g
             id="g18"><g
               id="g20"><path
                 id="path22"
                 style="fill:#fdf5ee;fill-opacity:1;fill-rule:nonzero;stroke:#000000;stroke-width:0.3985;stroke-linecap:butt;stroke-linejoin:miter;stroke-miterlimit:10;stroke-dasharray:none;stroke-opacity:1"
                 d="m 35.17413,262.17822 -70.34826,0 c -2.20095,0 -3.98511,-1.78416 -3.98511,-3.9851 l 0,-6.14367 c 0,-2.20094 1.78416,-3.9851 3.98511,-3.9851 l 70.34826,0 c 2.20095,0 3.98511,1.78416 3.98511,3.9851 l 0,6.14367 c 0,2.20094 -1.78416,3.9851 -3.98511,3.9851 z" /></g><g
               transform="translate(-34.869,252.351)"
               id="g24"><g
                 transform="translate(17.052,0)"
                 id="g26"><g
                   transform="translate(-21.541,-123.382)"
                   id="g28"><text
                     id="text30"
                     style="font-variant:normal;font-weight:normal;font-size:7.97009993px;font-family:CMR8;-inkscape-font-specification:CMR8;writing-mode:lr-tb;fill:#000000;fill-opacity:1;fill-rule:nonzero;stroke:none"
                     transform="matrix(1,0,0,-1,21.541,123.382)"><tspan
                       id="tspan32"
                       y="0"
                       x="0 6.2294302 10.224841 19.170481 23.875231 28.109745 31.40299">Rawdata</tspan></text>
<g
                     transform="translate(4.489,123.382)"
                     id="g34" /></g></g><g
                 transform="translate(34.869,-252.351)"
                 id="g36" /></g></g><g
             id="g38"><g
               id="g40"><path
                 id="path42"
                 style="fill:#fdf5ee;fill-opacity:1;fill-rule:nonzero;stroke:#000000;stroke-width:0.3985;stroke-linecap:butt;stroke-linejoin:miter;stroke-miterlimit:10;stroke-dasharray:none;stroke-opacity:1"
                 d="m 233.6018,266.91054 -70.34828,0 c -2.20094,0 -3.9851,-1.78417 -3.9851,-3.98511 l 0,-15.60829 c 0,-2.20094 1.78416,-3.98511 3.9851,-3.98511 l 70.34828,0 c 2.20095,0 3.98511,1.78417 3.98511,3.98511 l 0,15.60829 c 0,2.20094 -1.78416,3.98511 -3.98511,3.98511 z" /></g><g
               transform="translate(163.556,257.083)"
               id="g44"><g
                 transform="translate(17.937,0)"
                 id="g46"><g
                   transform="translate(-220.851,-128.114)"
                   id="g48"><text
                     id="text50"
                     style="font-variant:normal;font-weight:normal;font-size:7.97009993px;font-family:CMR8;-inkscape-font-specification:CMR8;writing-mode:lr-tb;fill:#000000;fill-opacity:1;fill-rule:nonzero;stroke:none"
                     transform="matrix(1,0,0,-1,220.851,128.114)"><tspan
                       id="tspan52"
                       y="0"
                       x="0 7.7541103 11.988625 15.513002 20.217752 22.569729 27.274479 31.03796">Machine-</tspan><tspan
                       id="tspan54"
                       y="9.4650002"
                       x="-8.2410002 -4.9405818 -1.1771004 3.0574138 7.7621636 11.996678 16.701427 19.053404 25.638302 30.343052 34.577564 37.870811">readabledata</tspan></text>
<g
                     transform="translate(202.914,128.114)"
                     id="g56" /></g></g><g
                 transform="translate(-163.556,-257.083)"
                 id="g58" /></g></g><g
             id="g60"><g
               id="g62"><path
                 id="path64"
                 style="fill:#fdf5ee;fill-opacity:1;fill-rule:nonzero;stroke:#000000;stroke-width:0.3985;stroke-linecap:butt;stroke-linejoin:miter;stroke-miterlimit:10;stroke-dasharray:none;stroke-opacity:1"
                 d="m 35.17413,210.94753 -70.34826,0 c -2.20095,0 -3.98511,-1.78417 -3.98511,-3.98511 l 0,-17.06952 c 0,-2.20093 1.78416,-3.98511 3.98511,-3.98511 l 70.34826,0 c 2.20095,0 3.98511,1.78418 3.98511,3.98511 l 0,17.06952 c 0,2.20094 -1.78416,3.98511 -3.98511,3.98511 z" /></g><g
               transform="translate(-34.869,201.209)"
               id="g66"><g
                 transform="translate(14.871,0)"
                 id="g68"><g
                   transform="translate(-19.36,-72.24)"
                   id="g70"><text
                     id="text72"
                     style="font-variant:normal;font-weight:normal;font-size:7.97009993px;font-family:CMR8;-inkscape-font-specification:CMR8;writing-mode:lr-tb;fill:#000000;fill-opacity:1;fill-rule:nonzero;stroke:none"
                     transform="matrix(1,0,0,-1,19.36,72.24)"><tspan
                       id="tspan74"
                       y="0"
                       x="0 6.1162548 10.350769 17.407495 22.112246 26.816996 30.110241 33.873722 37.174141">Computer-</tspan><tspan
                       id="tspan76"
                       y="9.4639997"
                       x="-11.436 -9.0840235 -4.3792734 -1.791382 1.9720992 5.2725177 8.5729361 12.336417 19.862583 23.626064 27.860579 32.095093 36.799843 41.034355 44.327602 48.091084">inferredcognates</tspan></text>
<g
                     transform="translate(4.489,72.24)"
                     id="g78" /></g></g><g
                 transform="translate(34.869,-201.209)"
                 id="g80" /></g></g><g
             id="g82"><g
               id="g84"><path
                 id="path86"
                 style="fill:#fdf5ee;fill-opacity:1;fill-rule:nonzero;stroke:#000000;stroke-width:0.3985;stroke-linecap:butt;stroke-linejoin:miter;stroke-miterlimit:10;stroke-dasharray:none;stroke-opacity:1"
                 d="m 233.6018,206.25949 -70.34828,0 c -2.20094,0 -3.9851,-1.78416 -3.9851,-3.98511 l 0,-7.69345 c 0,-2.20094 1.78416,-3.9851 3.9851,-3.9851 l 70.34828,0 c 2.20095,0 3.98511,1.78416 3.98511,3.9851 l 0,7.69345 c 0,2.20095 -1.78416,3.98511 -3.98511,3.98511 z" /></g><g
               transform="translate(163.556,196.433)"
               id="g88"><g
                 transform="translate(13.914,0)"
                 id="g90"><g
                   transform="translate(-216.828,-67.464)"
                   id="g92"><text
                     id="text94"
                     style="font-variant:normal;font-weight:normal;font-size:7.97009993px;font-family:CMR8;-inkscape-font-specification:CMR8;writing-mode:lr-tb;fill:#000000;fill-opacity:1;fill-rule:nonzero;stroke:none"
                     transform="matrix(1,0,0,-1,216.828,67.464)"><tspan
                       id="tspan96"
                       y="0"
                       x="0 6.3426056 8.694582 11.046558 15.281073 19.985823 27.042549 30.80603 35.279648 38.572891">Alignments</tspan></text>
<g
                     transform="translate(202.914,67.464)"
                     id="g98" /></g></g><g
                 transform="translate(-163.556,-196.433)"
                 id="g100" /></g></g><g
             id="g102"><g
               id="g104"><path
                 id="path106"
                 style="fill:#fdf5ee;fill-opacity:1;fill-rule:nonzero;stroke:#000000;stroke-width:0.3985;stroke-linecap:butt;stroke-linejoin:miter;stroke-miterlimit:10;stroke-dasharray:none;stroke-opacity:1"
                 d="m 35.17413,149.52159 -70.34826,0 c -2.20095,0 -3.98511,-1.78416 -3.98511,-3.98511 l 0,-7.60488 c 0,-2.20095 1.78416,-3.98511 3.98511,-3.98511 l 70.34826,0 c 2.20095,0 3.98511,1.78416 3.98511,3.98511 l 0,7.60488 c 0,2.20095 -1.78416,3.98511 -3.98511,3.98511 z" /></g><g
               transform="translate(-34.869,139.784)"
               id="g108"><g
                 transform="translate(7.32,0)"
                 id="g110"><g
                   transform="translate(-11.809,-10.815)"
                   id="g112"><text
                     id="text114"
                     style="font-variant:normal;font-weight:normal;font-size:7.97009993px;font-family:CMR8;-inkscape-font-specification:CMR8;writing-mode:lr-tb;fill:#000000;fill-opacity:1;fill-rule:nonzero;stroke:none"
                     transform="matrix(1,0,0,-1,11.809,10.815)"><tspan
                       id="tspan116"
                       y="0"
                       x="0 4.7047501 7.9979954 11.298414 13.650391 17.413872 23.528532 27.292013 31.526527 35.761044 40.465794 44.700306 47.993549 51.75703">Strictcognates</tspan></text>
<g
                     transform="translate(4.489,10.815)"
                     id="g118" /></g></g><g
                 transform="translate(34.869,-139.784)"
                 id="g120" /></g></g><g
             id="g122"><g
               id="g124"><path
                 id="path126"
                 style="fill:#fdf5ee;fill-opacity:1;fill-rule:nonzero;stroke:#000000;stroke-width:0.3985;stroke-linecap:butt;stroke-linejoin:miter;stroke-miterlimit:10;stroke-dasharray:none;stroke-opacity:1"
                 d="m 233.6018,154.29819 -70.34828,0 c -2.20094,0 -3.9851,-1.78417 -3.9851,-3.98511 l 0,-17.15808 c 0,-2.20094 1.78416,-3.98511 3.9851,-3.98511 l 70.34828,0 c 2.20095,0 3.98511,1.78417 3.98511,3.98511 l 0,17.15808 c 0,2.20094 -1.78416,3.98511 -3.98511,3.98511 z" /></g><g
               transform="translate(163.556,144.472)"
               id="g128"><g
                 transform="translate(5.552,0)"
                 id="g130"><g
                   transform="translate(-208.466,-15.503)"
                   id="g132"><text
                     id="text134"
                     style="font-variant:normal;font-weight:normal;font-size:7.97009993px;font-family:CMR8;-inkscape-font-specification:CMR8;writing-mode:lr-tb;fill:#000000;fill-opacity:1;fill-rule:nonzero;stroke:none"
                     transform="matrix(1,0,0,-1,208.466,15.503)"><tspan
                       id="tspan136"
                       y="0"
                       x="0 6.1162548 10.350769 13.651187 16.951605 20.715086 24.055355 28.99124 33.225754 37.930504 42.635254 46.398735 51.103485 54.866966">Correspondence</tspan><tspan
                       id="tspan138"
                       y="9.4650002"
                       x="14 18.70475 22.939264 26.23251 29.525755 33.289234 36.589653 41.294403">patterns</tspan></text>
<g
                     transform="translate(202.914,15.503)"
                     id="g140" /></g></g><g
                 transform="translate(-163.556,-144.472)"
                 id="g142" /></g></g><path
             id="path144"
             style="fill:none;stroke:#000000;stroke-width:0.3985;stroke-linecap:butt;stroke-linejoin:miter;stroke-miterlimit:10;stroke-dasharray:none;stroke-opacity:1"
             d="m 39.35849,255.12128 119.31216,0" /><g
             transform="translate(158.8699,255.12128)"
             id="g146"><g
               id="g148"><path
                 id="path150"
                 style="fill:none;stroke:#000000;stroke-width:0.3985;stroke-linecap:round;stroke-linejoin:round;stroke-miterlimit:10;stroke-dasharray:none;stroke-opacity:1"
                 d="M -2.07224,2.39104 C -1.69365,0.95639 -0.84999,0.27895 0,0 -0.84999,-0.27895 -1.69365,-0.95639 -2.07224,-2.39104" /></g></g><g
             id="g152"><g
               transform="translate(73.485,258.638)"
               id="g154"><g
                 id="g156"><g
                   transform="translate(-112.843,-129.669)"
                   id="g158"><text
                     id="text160"
                     style="font-variant:normal;font-weight:normal;font-size:8.96640015px;font-family:CMR9;-inkscape-font-specification:CMR9;writing-mode:lr-tb;fill:#000000;fill-opacity:1;fill-rule:nonzero;stroke:none"
                     transform="matrix(1,0,0,-1,112.843,129.669)"><tspan
                       id="tspan162"
                       y="0"
                       x="0 5.8846483 10.492481 15.104797 19.204235 24.324049 26.883957 30.979809 35.587643 39.171513 41.731419 46.339252">Tokenization</tspan></text>
<g
                     transform="translate(112.843,129.669)"
                     id="g164" /></g></g><g
                 transform="translate(-73.485,-258.638)"
                 id="g166" /></g></g><path
             id="path168"
             style="fill:none;stroke:#000000;stroke-width:0.3985;stroke-linecap:butt;stroke-linejoin:miter;stroke-miterlimit:10;stroke-dasharray:none;stroke-opacity:1"
             d="m 198.42766,243.13277 0,-16.35829 -198.42766,0 0,0 0,-15.22919" /><g
             transform="matrix(0,-1,1,0,0,211.34602)"
             id="g170"><g
               id="g172"><path
                 id="path174"
                 style="fill:none;stroke:#000000;stroke-width:0.3985;stroke-linecap:round;stroke-linejoin:round;stroke-miterlimit:10;stroke-dasharray:none;stroke-opacity:1"
                 d="M -2.07224,2.39104 C -1.69365,0.95639 -0.84999,0.27895 0,0 -0.84999,-0.27895 -1.69365,-0.95639 -2.07224,-2.39104" /></g></g><g
             id="g176"><g
               transform="translate(51.65,232.035)"
               id="g178"><g
                 id="g180"><g
                   transform="translate(-91.008,-103.066)"
                   id="g182"><text
                     id="text184"
                     style="font-variant:normal;font-weight:normal;font-size:8.96640015px;font-family:CMR9;-inkscape-font-specification:CMR9;writing-mode:lr-tb;fill:#000000;fill-opacity:1;fill-rule:nonzero;stroke:none"
                     transform="matrix(1,0,0,-1,91.008,103.066)"><tspan
                       id="tspan186"
                       y="0"
                       x="0 5.7591186 9.8585567 14.721932 19.841747 23.425617 28.033449 34.692795 39.812611 44.420441 48.024937 51.608807 54.159744 58.767578 64.402962 68.49881 73.106644 77.714478 82.83429 87.442123 91.025993">LexStatpartialcognate</tspan></text>
<g
                     transform="translate(91.008,103.066)"
                     id="g188" /></g></g><g
                 transform="translate(-51.65,-232.035)"
                 id="g190" /></g></g><path
             id="path192"
             style="fill:none;stroke:#000000;stroke-width:0.3985;stroke-linecap:butt;stroke-linejoin:miter;stroke-miterlimit:10;stroke-dasharray:none;stroke-opacity:1"
             d="m 39.35849,198.42766 119.31216,0" /><g
             transform="translate(158.8699,198.42766)"
             id="g194"><g
               id="g196"><path
                 id="path198"
                 style="fill:none;stroke:#000000;stroke-width:0.3985;stroke-linecap:round;stroke-linejoin:round;stroke-miterlimit:10;stroke-dasharray:none;stroke-opacity:1"
                 d="M -2.07224,2.39104 C -1.69365,0.95639 -0.84999,0.27895 0,0 -0.84999,-0.27895 -1.69365,-0.95639 -2.07224,-2.39104" /></g></g><g
             id="g200"><g
               transform="translate(46.192,203.688)"
               id="g202"><g
                 id="g204"><g
                   transform="translate(-85.55,-74.719)"
                   id="g206"><text
                     id="text208"
                     style="font-variant:normal;font-weight:normal;font-size:8.96640015px;font-family:CMR9;-inkscape-font-specification:CMR9;writing-mode:lr-tb;fill:#000000;fill-opacity:1;fill-rule:nonzero;stroke:none"
                     transform="matrix(1,0,0,-1,85.55,74.719)"><tspan
                       id="tspan210"
                       y="0"
                       x="0 5.8846483 9.984086 17.663809 22.783623 25.343529 29.951363 33.535233 37.63467 40.706558 45.826374 50.434208 54.069187 58.168625 66.363914 70.971748 73.531654 76.09156 80.699394 85.819206 93.498932 97.598366 102.45815">Template-basedalignment</tspan></text>
<g
                     transform="translate(85.55,74.719)"
                     id="g212" /></g></g><g
                 transform="translate(-46.192,-203.688)"
                 id="g214" /></g></g><path
             id="path216"
             style="fill:none;stroke:#000000;stroke-width:0.3985;stroke-linecap:butt;stroke-linejoin:miter;stroke-miterlimit:10;stroke-dasharray:none;stroke-opacity:1"
             d="m 198.42766,190.39658 0,-20.31572 -198.42766,0 0,0 0,-19.96152" /><g
             transform="matrix(0,-1,1,0,0,149.92009)"
             id="g218"><g
               id="g220"><path
                 id="path222"
                 style="fill:none;stroke:#000000;stroke-width:0.3985;stroke-linecap:round;stroke-linejoin:round;stroke-miterlimit:10;stroke-dasharray:none;stroke-opacity:1"
                 d="M -2.07224,2.39104 C -1.69365,0.95639 -0.84999,0.27895 0,0 -0.84999,-0.27895 -1.69365,-0.95639 -2.07224,-2.39104" /></g></g><g
             id="g224"><g
               transform="translate(50.332,175.342)"
               id="g226"><g
                 id="g228"><g
                   transform="translate(-89.69,-46.373)"
                   id="g230"><text
                     id="text232"
                     style="font-variant:normal;font-weight:normal;font-size:8.96640015px;font-family:CMR9;-inkscape-font-specification:CMR9;writing-mode:lr-tb;fill:#000000;fill-opacity:1;fill-rule:nonzero;stroke:none"
                     transform="matrix(1,0,0,-1,89.69,46.373)"><tspan
                       id="tspan234"
                       y="0"
                       x="0 6.6557589 10.260251 14.868085 18.503063 22.138042 25.20993 28.84491 32.944347 40.624069 45.231903 50.09169 53.67556 56.235466 63.406796 67.502647 72.110481 76.718315 81.838127 86.445961 90.029831 94.129265">Cross-semanticcognates</tspan></text>
<g
                     transform="translate(89.69,46.373)"
                     id="g236" /></g></g><g
                 transform="translate(-50.332,-175.342)"
                 id="g238" /></g></g><path
             id="path240"
             style="fill:none;stroke:#000000;stroke-width:0.3985;stroke-linecap:butt;stroke-linejoin:miter;stroke-miterlimit:10;stroke-dasharray:none;stroke-opacity:1"
             d="m 39.35849,141.73404 119.31216,0" /><g
             transform="translate(158.8699,141.73404)"
             id="g242"><g
               id="g244"><path
                 id="path246"
                 style="fill:none;stroke:#000000;stroke-width:0.3985;stroke-linecap:round;stroke-linejoin:round;stroke-miterlimit:10;stroke-dasharray:none;stroke-opacity:1"
                 d="M -2.07224,2.39104 C -1.69365,0.95639 -0.84999,0.27895 0,0 -0.84999,-0.27895 -1.69365,-0.95639 -2.07224,-2.39104" /></g></g><g
             id="g248"><g
               transform="translate(83.906,146.995)"
               id="g250"><g
                 id="g252"><g
                   transform="translate(-123.264,-18.026)"
                   id="g254"><text
                     id="text256"
                     style="font-variant:normal;font-weight:normal;font-size:8.96640015px;font-family:CMR9;-inkscape-font-specification:CMR9;writing-mode:lr-tb;fill:#000000;fill-opacity:1;fill-rule:nonzero;stroke:none"
                     transform="matrix(1,0,0,-1,123.264,18.026)"><tspan
                       id="tspan258"
                       y="0"
                       x="0 5.7591186 8.319026 13.43884 18.046673 21.651167 25.750605">Lingrex</tspan></text>
<g
                     transform="translate(123.264,18.026)"
                     id="g260" /></g></g><g
                 transform="translate(-83.906,-146.995)"
                 id="g262" /></g></g></g></g></g></g></svg>