<?xml version="1.0" encoding="UTF-8" standalone="no"?>
<svg
   xmlns:dc="http://purl.org/dc/elements/1.1/"
   xmlns:cc="http://creativecommons.org/ns#"
   xmlns:rdf="http://www.w3.org/1999/02/22-rdf-syntax-ns#"
   xmlns:svg="http://www.w3.org/2000/svg"
   xmlns="http://www.w3.org/2000/svg"
   viewBox="0 0 102.54625 191.30125"
   height="191.30125"
   width="102.54625"
   xml:space="preserve"
   version="1.1"
   id="svg2"><metadata
     id="metadata8"><rdf:RDF><cc:Work
         rdf:about=""><dc:format>image/svg+xml</dc:format><dc:type
           rdf:resource="http://purl.org/dc/dcmitype/StillImage" /></cc:Work></rdf:RDF></metadata><defs
     id="defs6" /><g
     transform="matrix(1.25,0,0,-1.25,0,191.30125)"
     id="g10"><g
       transform="translate(39.358,-114.796)"
       id="g12"><g
         id="g14"><g
           id="g16"><g
             id="g18"><g
               id="g20"><path
                 id="path22"
                 style="fill:#fdf5ee;fill-opacity:1;fill-rule:nonzero;stroke:#000000;stroke-width:0.3985;stroke-linecap:butt;stroke-linejoin:miter;stroke-miterlimit:10;stroke-dasharray:none;stroke-opacity:1"
                 d="m 35.17413,267.64114 -70.34826,0 c -2.20095,0 -3.98511,-1.78416 -3.98511,-3.9851 l 0,-17.06951 c 0,-2.20094 1.78416,-3.9851 3.98511,-3.9851 l 70.34826,0 c 2.20095,0 3.98511,1.78416 3.98511,3.9851 l 0,17.06951 c 0,2.20094 -1.78416,3.9851 -3.98511,3.9851 z" /></g><g
               transform="translate(-34.869,257.902)"
               id="g24"><g
                 transform="translate(14.871,0)"
                 id="g26"><g
                   transform="translate(-19.36,-143.106)"
                   id="g28"><text
                     id="text30"
                     style="font-variant:normal;font-weight:normal;font-size:7.97009993px;font-family:CMR8;-inkscape-font-specification:CMR8;writing-mode:lr-tb;fill:#000000;fill-opacity:1;fill-rule:nonzero;stroke:none"
                     transform="matrix(1,0,0,-1,19.36,143.106)"><tspan
                       id="tspan32"
                       y="0"
                       x="0 6.1162548 10.350769 17.407495 22.112246 26.816996 30.110241 33.873722 37.174141">Computer-</tspan><tspan
                       id="tspan34"
                       y="9.4639997"
                       x="-11.436 -9.0840235 -4.3792734 -1.791382 1.9720992 5.2725177 8.5729361 12.336417 19.862583 23.626064 27.860579 32.095093 36.799843 41.034355 44.327602 48.091084">inferredcognates</tspan></text>
<g
                     transform="translate(4.489,143.106)"
                     id="g36" /></g></g><g
                 transform="translate(34.869,-257.902)"
                 id="g38" /></g></g><g
             id="g40"><g
               id="g42"><path
                 id="path44"
                 style="fill:#fdf5ee;fill-opacity:1;fill-rule:nonzero;stroke:#000000;stroke-width:0.3985;stroke-linecap:butt;stroke-linejoin:miter;stroke-miterlimit:10;stroke-dasharray:none;stroke-opacity:1"
                 d="m 35.17413,225.12093 -70.34826,0 c -2.20095,0 -3.98511,-1.78417 -3.98511,-3.98511 l 0,-17.06952 c 0,-2.20094 1.78416,-3.98511 3.98511,-3.98511 l 70.34826,0 c 2.20095,0 3.98511,1.78417 3.98511,3.98511 l 0,17.06952 c 0,2.20094 -1.78416,3.98511 -3.98511,3.98511 z" /></g><g
               transform="translate(-34.869,215.383)"
               id="g46"><g
                 transform="translate(17.455,0)"
                 id="g48"><g
                   transform="translate(-21.944,-100.587)"
                   id="g50"><text
                     id="text52"
                     style="font-variant:normal;font-weight:normal;font-size:7.97009993px;font-family:CMR8;-inkscape-font-specification:CMR8;writing-mode:lr-tb;fill:#000000;fill-opacity:1;fill-rule:nonzero;stroke:none"
                     transform="matrix(1,0,0,-1,21.944,100.587)"><tspan
                       id="tspan54"
                       y="0"
                       x="0 4.7047501 7.9979954 11.298414 16.003164 19.766645 23.059891 27.764641 31.06506">Structure</tspan><tspan
                       id="tspan56"
                       y="9.4650002"
                       x="-2.487 1.7475141 4.0994906 6.451467 10.685982 15.390731 22.447458 26.210939 30.684557 33.977802">alignments</tspan></text>
<g
                     transform="translate(4.489,100.587)"
                     id="g58" /></g></g><g
                 transform="translate(34.869,-215.383)"
                 id="g60" /></g></g><g
             id="g62"><g
               id="g64"><path
                 id="path66"
                 style="fill:#fdf5ee;fill-opacity:1;fill-rule:nonzero;stroke:#000000;stroke-width:0.3985;stroke-linecap:butt;stroke-linejoin:miter;stroke-miterlimit:10;stroke-dasharray:none;stroke-opacity:1"
                 d="m 35.17413,182.60071 -70.34826,0 c -2.20095,0 -3.98511,-1.78417 -3.98511,-3.98511 l 0,-17.0695 c 0,-2.20095 1.78416,-3.98511 3.98511,-3.98511 l 70.34826,0 c 2.20095,0 3.98511,1.78416 3.98511,3.98511 l 0,17.0695 c 0,2.20094 -1.78416,3.98511 -3.98511,3.98511 z" /></g><g
               transform="translate(-34.869,172.863)"
               id="g68"><g
                 transform="translate(7.155,0)"
                 id="g70"><g
                   transform="translate(-11.644,-58.067)"
                   id="g72"><text
                     id="text74"
                     style="font-variant:normal;font-weight:normal;font-size:7.97009993px;font-family:CMR8;-inkscape-font-specification:CMR8;writing-mode:lr-tb;fill:#000000;fill-opacity:1;fill-rule:nonzero;stroke:none"
                     transform="matrix(1,0,0,-1,11.644,58.067)"><tspan
                       id="tspan76"
                       y="0"
                       x="0 6.1162548 9.4166727 13.651187 16.991457 20.331724 23.154734 26.495003 30.258484 37.315212 41.549725 46.015373 49.308617 51.660595">Cross-semantic</tspan><tspan
                       id="tspan78"
                       y="9.4650002"
                       x="11.93 15.693481 19.927996 24.16251 28.86726 33.101772 36.39502 40.158501">cognates</tspan></text>
<g
                     transform="translate(4.489,58.067)"
                     id="g80" /></g></g><g
                 transform="translate(34.869,-172.863)"
                 id="g82" /></g></g><g
             id="g84"><g
               id="g86"><path
                 id="path88"
                 style="fill:#fdf5ee;fill-opacity:1;fill-rule:nonzero;stroke:#000000;stroke-width:0.3985;stroke-linecap:butt;stroke-linejoin:miter;stroke-miterlimit:10;stroke-dasharray:none;stroke-opacity:1"
                 d="m 35.17413,140.12477 -70.34826,0 c -2.20095,0 -3.98511,-1.78417 -3.98511,-3.98511 l 0,-17.15808 c 0,-2.20093 1.78416,-3.9851 3.98511,-3.9851 l 70.34826,0 c 2.20095,0 3.98511,1.78417 3.98511,3.9851 l 0,17.15808 c 0,2.20094 -1.78416,3.98511 -3.98511,3.98511 z" /></g><g
               transform="translate(-34.869,130.299)"
               id="g90"><g
                 transform="translate(5.552,0)"
                 id="g92"><g
                   transform="translate(-10.041,-15.503)"
                   id="g94"><text
                     id="text96"
                     style="font-variant:normal;font-weight:normal;font-size:7.97009993px;font-family:CMR8;-inkscape-font-specification:CMR8;writing-mode:lr-tb;fill:#000000;fill-opacity:1;fill-rule:nonzero;stroke:none"
                     transform="matrix(1,0,0,-1,10.041,15.503)"><tspan
                       id="tspan98"
                       y="0"
                       x="0 6.1162548 10.350769 13.651187 16.951605 20.715086 24.055355 28.99124 33.225754 37.930504 42.635254 46.398735 51.103485 54.866966">Correspondence</tspan><tspan
                       id="tspan100"
                       y="9.4650002"
                       x="14 18.70475 22.939264 26.23251 29.525755 33.289234 36.589653 41.294403">patterns</tspan></text>
<g
                     transform="translate(4.489,15.503)"
                     id="g102" /></g></g><g
                 transform="translate(34.869,-130.299)"
                 id="g104" /></g></g><path
             id="path106"
             style="fill:none;stroke:#000000;stroke-width:0.3985;stroke-linecap:butt;stroke-linejoin:miter;stroke-miterlimit:10;stroke-dasharray:none;stroke-opacity:1"
             d="M 0,242.40216 0,225.71867" /><g
             transform="matrix(0,-1,1,0,0,225.51942)"
             id="g108"><g
               id="g110"><path
                 id="path112"
                 style="fill:none;stroke:#000000;stroke-width:0.3985;stroke-linecap:round;stroke-linejoin:round;stroke-miterlimit:10;stroke-dasharray:none;stroke-opacity:1"
                 d="M -2.07224,2.39104 C -1.69365,0.95639 -0.84999,0.27895 0,0 -0.84999,-0.27895 -1.69365,-0.95639 -2.07224,-2.39104" /></g></g><path
             id="path114"
             style="fill:none;stroke:#000000;stroke-width:0.3985;stroke-linecap:butt;stroke-linejoin:miter;stroke-miterlimit:10;stroke-dasharray:none;stroke-opacity:1"
             d="M 0,199.88194 0,183.19847" /><g
             transform="matrix(0,-1,1,0,0,182.99922)"
             id="g116"><g
               id="g118"><path
                 id="path120"
                 style="fill:none;stroke:#000000;stroke-width:0.3985;stroke-linecap:round;stroke-linejoin:round;stroke-miterlimit:10;stroke-dasharray:none;stroke-opacity:1"
                 d="M -2.07224,2.39104 C -1.69365,0.95639 -0.84999,0.27895 0,0 -0.84999,-0.27895 -1.69365,-0.95639 -2.07224,-2.39104" /></g></g><path
             id="path122"
             style="fill:none;stroke:#000000;stroke-width:0.3985;stroke-linecap:butt;stroke-linejoin:miter;stroke-miterlimit:10;stroke-dasharray:none;stroke-opacity:1"
             d="M 0,157.36174 0,140.72253" /><g
             transform="matrix(0,-1,1,0,0,140.52328)"
             id="g124"><g
               id="g126"><path
                 id="path128"
                 style="fill:none;stroke:#000000;stroke-width:0.3985;stroke-linecap:round;stroke-linejoin:round;stroke-miterlimit:10;stroke-dasharray:none;stroke-opacity:1"
                 d="M -2.07224,2.39104 C -1.69365,0.95639 -0.84999,0.27895 0,0 -0.84999,-0.27895 -1.69365,-0.95639 -2.07224,-2.39104" /></g></g></g></g></g></g></svg>