<?xml version="1.0" encoding="UTF-8" standalone="no"?>
<svg
   xmlns:dc="http://purl.org/dc/elements/1.1/"
   xmlns:cc="http://creativecommons.org/ns#"
   xmlns:rdf="http://www.w3.org/1999/02/22-rdf-syntax-ns#"
   xmlns:svg="http://www.w3.org/2000/svg"
   xmlns="http://www.w3.org/2000/svg"
   viewBox="0 0 162.07124 223.13625"
   height="223.13625"
   width="162.07124"
   xml:space="preserve"
   version="1.1"
   id="svg2"><metadata
     id="metadata8"><rdf:RDF><cc:Work
         rdf:about=""><dc:format>image/svg+xml</dc:format><dc:type
           rdf:resource="http://purl.org/dc/dcmitype/StillImage" /></cc:Work></rdf:RDF></metadata><defs
     id="defs6" /><g
     transform="matrix(1.25,0,0,-1.25,0,223.13625)"
     id="g10"><g
       transform="translate(29.395,-89.328)"
       id="g12"><g
         id="g14"><g
           id="g16"><g
             id="g18"><g
               id="g20"><path
                 id="path22"
                 style="fill:#fdf5ee;fill-opacity:1;fill-rule:nonzero;stroke:#000000;stroke-width:0.3985;stroke-linecap:butt;stroke-linejoin:miter;stroke-miterlimit:10;stroke-dasharray:none;stroke-opacity:1"
                 d="m 25.21135,267.64114 -50.4227,0 c -2.20095,0 -3.98511,-1.78416 -3.98511,-3.9851 l 0,-17.06951 c 0,-2.20094 1.78416,-3.9851 3.98511,-3.9851 l 50.4227,0 c 2.20095,0 3.98511,1.78416 3.98511,3.9851 l 0,17.06951 c 0,2.20094 -1.78416,3.9851 -3.98511,3.9851 z" /></g><g
               transform="translate(-24.906,257.902)"
               id="g24"><g
                 transform="translate(12.788,0)"
                 id="g26"><g
                   transform="translate(-17.277,-168.574)"
                   id="g28"><text
                     id="text30"
                     style="font-variant:normal;font-weight:normal;font-size:7.97009993px;font-family:CMR8;-inkscape-font-specification:CMR8;writing-mode:lr-tb;fill:#000000;fill-opacity:1;fill-rule:nonzero;stroke:none"
                     transform="matrix(1,0,0,-1,17.277,168.574)"><tspan
                       id="tspan32"
                       y="0"
                       x="0 5.4069157 9.6414299 12.941849 17.176363 20.939844">Target</tspan><tspan
                       id="tspan34"
                       y="9.4650002"
                       x="-5.783 -3.4310236 0.80349064 5.5082407 9.7427549 14.447505 18.682018 22.916533 26.680014">languages</tspan></text>
<g
                     transform="translate(4.489,168.574)"
                     id="g36" /></g></g><g
                 transform="translate(24.906,-257.902)"
                 id="g38" /></g></g><g
             id="g40"><path
               id="path42"
               style="fill:none;stroke:#000000;stroke-width:0.3985;stroke-linecap:butt;stroke-linejoin:miter;stroke-miterlimit:10;stroke-dasharray:none;stroke-opacity:1"
               d="m 21.49165,226.77448 c 0,2.75117 -9.62201,4.98138 -21.49165,4.98138 -11.86964,0 -21.49165,-2.23021 -21.49165,-4.98138 0,-2.75118 9.62201,-4.98139 21.49165,-4.98139 11.86964,0 21.49165,2.23021 21.49165,4.98139 z" /><g
               transform="translate(-15.196,225.042)"
               id="g44"><g
                 id="g46"><g
                   transform="translate(-14.199,-135.714)"
                   id="g48"><text
                     id="text50"
                     style="font-variant:normal;font-weight:normal;font-size:4.98129988px;font-family:CMR5;-inkscape-font-specification:CMR5;writing-mode:lr-tb;fill:#000000;fill-opacity:1;fill-rule:nonzero;stroke:none"
                     transform="matrix(1,0,0,-1,14.199,135.714)"><tspan
                       id="tspan52"
                       y="0"
                       x="0 4.1374679 7.18154 10.744664 12.751132 16.487106 19.87738 23.613354 27.176479">Lexibank?</tspan></text>
<g
                     transform="translate(14.199,135.714)"
                     id="g54" /></g></g><g
                 transform="translate(15.196,-225.042)"
                 id="g56" /></g></g><g
             id="g58"><g
               id="g60"><path
                 id="path62"
                 style="fill:#eee9e9;fill-opacity:1;fill-rule:nonzero;stroke:#000000;stroke-width:0.3985;stroke-linecap:butt;stroke-linejoin:miter;stroke-miterlimit:10;stroke-dasharray:none;stroke-opacity:1"
                 d="m 96.07837,238.51944 -50.42272,0 c -2.20094,0 -3.9851,-1.78416 -3.9851,-3.98511 l 0,-15.51973 c 0,-2.20094 1.78416,-3.9851 3.9851,-3.9851 l 50.42272,0 c 2.20094,0 3.98511,1.78416 3.98511,3.9851 l 0,15.51973 c 0,2.20095 -1.78417,3.98511 -3.98511,3.98511 z" /></g><g
               transform="translate(45.96,228.78)"
               id="g64"><g
                 transform="translate(10.494,0)"
                 id="g66"><g
                   transform="translate(-85.849,-139.452)"
                   id="g68"><text
                     id="text70"
                     style="font-variant:normal;font-weight:normal;font-size:7.97009993px;font-family:CMR8;-inkscape-font-specification:CMR8;writing-mode:lr-tb;fill:#000000;fill-opacity:1;fill-rule:nonzero;stroke:none"
                     transform="matrix(1,0,0,-1,85.849,139.452)"><tspan
                       id="tspan72"
                       y="0"
                       x="0 5.7591944 9.0596123 12.823093 17.527843 21.762358 25.062777">Prepare</tspan><tspan
                       id="tspan74"
                       y="9.4639997"
                       x="0.98100001 5.68575 9.9202642 13.21351 17.448023 20.788292 24.551773">dataset</tspan></text>
<g
                     transform="translate(75.355,139.452)"
                     id="g76" /></g></g><g
                 transform="translate(-45.96,-228.78)"
                 id="g78" /></g></g><g
             id="g80"><g
               id="g82"><path
                 id="path84"
                 style="fill:#fdf5ee;fill-opacity:1;fill-rule:nonzero;stroke:#000000;stroke-width:0.3985;stroke-linecap:butt;stroke-linejoin:miter;stroke-miterlimit:10;stroke-dasharray:none;stroke-opacity:1"
                 d="m 25.21135,210.21692 -50.4227,0 c -2.20095,0 -3.98511,-1.78417 -3.98511,-3.98511 l 0,-15.60829 c 0,-2.20094 1.78416,-3.98511 3.98511,-3.98511 l 50.4227,0 c 2.20095,0 3.98511,1.78417 3.98511,3.98511 l 0,15.60829 c 0,2.20094 -1.78416,3.98511 -3.98511,3.98511 z" /></g><g
               transform="translate(-24.906,200.39)"
               id="g86"><g
                 transform="translate(13.243,0)"
                 id="g88"><g
                   transform="translate(-17.732,-111.062)"
                   id="g90"><text
                     id="text92"
                     style="font-variant:normal;font-weight:normal;font-size:7.97009993px;font-family:CMR8;-inkscape-font-specification:CMR8;writing-mode:lr-tb;fill:#000000;fill-opacity:1;fill-rule:nonzero;stroke:none"
                     transform="matrix(1,0,0,-1,17.732,111.062)"><tspan
                       id="tspan94"
                       y="0"
                       x="0 3.0493603 7.7541103 11.094379 14.387625 18.622139 20.974115">Install</tspan><tspan
                       id="tspan96"
                       y="9.4650002"
                       x="-3.4389999 1.2657501 5.5002642 8.7935095 13.028024 16.368292 20.131773 23.425018">datasets</tspan></text>
<g
                     transform="translate(4.489,111.062)"
                     id="g98" /></g></g><g
                 transform="translate(24.906,-200.39)"
                 id="g100" /></g></g><g
             id="g102"><g
               id="g104"><path
                 id="path106"
                 style="fill:#fdf5ee;fill-opacity:1;fill-rule:nonzero;stroke:#000000;stroke-width:0.3985;stroke-linecap:butt;stroke-linejoin:miter;stroke-miterlimit:10;stroke-dasharray:none;stroke-opacity:1"
                 d="m 25.21135,173.32169 -50.4227,0 c -2.20095,0 -3.98511,-1.78417 -3.98511,-3.98511 l 0,-15.51973 c 0,-2.20095 1.78416,-3.98511 3.98511,-3.98511 l 50.4227,0 c 2.20095,0 3.98511,1.78416 3.98511,3.98511 l 0,15.51973 c 0,2.20094 -1.78416,3.98511 -3.98511,3.98511 z" /></g><g
               transform="translate(-24.906,163.583)"
               id="g108"><g
                 transform="translate(8.035,0)"
                 id="g110"><g
                   transform="translate(-12.524,-74.255)"
                   id="g112"><text
                     id="text114"
                     style="font-variant:normal;font-weight:normal;font-size:7.97009993px;font-family:CMR8;-inkscape-font-specification:CMR8;writing-mode:lr-tb;fill:#000000;fill-opacity:1;fill-rule:nonzero;stroke:none"
                     transform="matrix(1,0,0,-1,12.524,74.255)"><tspan
                       id="tspan116"
                       y="0"
                       x="0 6.1162548 11.405213 17.869761 26.215254 29.508499">CLDFto</tspan><tspan
                       id="tspan118"
                       y="9.4639997"
                       x="1.0880001 9.0740404 13.308555 16.608973 21.313723 23.665699 26.017675 29.357944">Wordlist</tspan></text>
<g
                     transform="translate(4.489,74.255)"
                     id="g120" /></g></g><g
                 transform="translate(24.906,-163.583)"
                 id="g122" /></g></g><g
             id="g124"><path
               id="path126"
               style="fill:none;stroke:#000000;stroke-width:0.3985;stroke-linecap:butt;stroke-linejoin:miter;stroke-miterlimit:10;stroke-dasharray:none;stroke-opacity:1"
               d="m 28.39952,133.2299 c 0,2.75118 -12.71471,4.98139 -28.39952,4.98139 -15.68481,0 -28.39952,-2.23021 -28.39952,-4.98139 0,-2.75117 12.71471,-4.98138 28.39952,-4.98138 15.68481,0 28.39952,2.23021 28.39952,4.98138 z" /><g
               transform="translate(-20.081,132.019)"
               id="g128"><g
                 id="g130"><g
                   transform="translate(-9.314,-42.691)"
                   id="g132"><text
                     id="text134"
                     style="font-variant:normal;font-weight:normal;font-size:4.98129988px;font-family:CMR5;-inkscape-font-specification:CMR5;writing-mode:lr-tb;fill:#000000;fill-opacity:1;fill-rule:nonzero;stroke:none"
                     transform="matrix(1,0,0,-1,9.314,42.691)"><tspan
                       id="tspan136"
                       y="0"
                       x="0 3.735975 6.7800474 10.170321 15.635802 18.679874 22.241505 24.939875 28.330147 31.028517 33.034985 36.425259">Segmentation</tspan></text>
<g
                     transform="translate(9.314,42.691)"
                     id="g138" /></g></g><g
                 transform="translate(20.081,-132.019)"
                 id="g140" /></g></g><g
             id="g142"><g
               id="g144"><path
                 id="path146"
                 style="fill:#eee9e9;fill-opacity:1;fill-rule:nonzero;stroke:#000000;stroke-width:0.3985;stroke-linecap:butt;stroke-linejoin:miter;stroke-miterlimit:10;stroke-dasharray:none;stroke-opacity:1"
                 d="m 96.07837,145.79405 -50.42272,0 c -2.20094,0 -3.9851,-1.78416 -3.9851,-3.98511 l 0,-17.15808 c 0,-2.20094 1.78416,-3.9851 3.9851,-3.9851 l 50.42272,0 c 2.20094,0 3.98511,1.78416 3.98511,3.9851 l 0,17.15808 c 0,2.20095 -1.78417,3.98511 -3.98511,3.98511 z" /></g><g
               transform="translate(45.96,135.968)"
               id="g148"><g
                 transform="translate(11.738,0)"
                 id="g150"><g
                   transform="translate(-87.093,-46.64)"
                   id="g152"><text
                     id="text154"
                     style="font-variant:normal;font-weight:normal;font-size:7.97009993px;font-family:CMR8;-inkscape-font-specification:CMR8;writing-mode:lr-tb;fill:#000000;fill-opacity:1;fill-rule:nonzero;stroke:none"
                     transform="matrix(1,0,0,-1,87.093,46.64)"><tspan
                       id="tspan156"
                       y="0"
                       x="0 7.7541103 12.219757 16.924507 19.276484 21.864376">Modify</tspan><tspan
                       id="tspan158"
                       y="9.4650002"
                       x="-9.4209995 -5.1864858 -1.8860675 1.4071778 6.111928 10.346442 14.580956 17.881374 22.115889 26.820639 31.286285">orthography</tspan></text>
<g
                     transform="translate(75.355,46.64)"
                     id="g160" /></g></g><g
                 transform="translate(-45.96,-135.968)"
                 id="g162" /></g></g><g
             id="g164"><g
               id="g166"><path
                 id="path168"
                 style="fill:#fdf5ee;fill-opacity:1;fill-rule:nonzero;stroke:#000000;stroke-width:0.3985;stroke-linecap:butt;stroke-linejoin:miter;stroke-miterlimit:10;stroke-dasharray:none;stroke-opacity:1"
                 d="m 25.21135,114.56853 -50.4227,0 c -2.20095,0 -3.98511,-1.78417 -3.98511,-3.98511 l 0,-17.0695 c 0,-2.20095 1.78416,-3.98511 3.98511,-3.98511 l 50.4227,0 c 2.20095,0 3.98511,1.78416 3.98511,3.98511 l 0,17.0695 c 0,2.20094 -1.78416,3.98511 -3.98511,3.98511 z" /></g><g
               transform="translate(-24.906,104.831)"
               id="g170"><g
                 transform="translate(1.77,0)"
                 id="g172"><g
                   transform="translate(-6.259,-15.503)"
                   id="g174"><text
                     id="text176"
                     style="font-variant:normal;font-weight:normal;font-size:7.97009993px;font-family:CMR8;-inkscape-font-specification:CMR8;writing-mode:lr-tb;fill:#000000;fill-opacity:1;fill-rule:nonzero;stroke:none"
                     transform="matrix(1,0,0,-1,6.259,15.503)"><tspan
                       id="tspan178"
                       y="0"
                       x="0 6.4645481 10.459959 16.576214 21.280964 24.621233 27.914478 31.214897 34.978378 39.212891">Downstream</tspan><tspan
                       id="tspan180"
                       y="9.4650002"
                       x="1.001 5.2355142 9.9402637 14.645014 16.99699 19.348967 23.112448 27.346962 30.640207 32.992184 37.2267 41.93145">applications</tspan></text>
<g
                     transform="translate(4.489,15.503)"
                     id="g182" /></g></g><g
                 transform="translate(24.906,-104.831)"
                 id="g184" /></g></g><path
             id="path186"
             style="fill:none;stroke:#000000;stroke-width:0.3985;stroke-linecap:butt;stroke-linejoin:miter;stroke-miterlimit:10;stroke-dasharray:none;stroke-opacity:1"
             d="M 0,242.40216 0,232.3536" /><g
             transform="matrix(0,-1,1,0,0,232.15436)"
             id="g188"><g
               id="g190"><path
                 id="path192"
                 style="fill:none;stroke:#000000;stroke-width:0.3985;stroke-linecap:round;stroke-linejoin:round;stroke-miterlimit:10;stroke-dasharray:none;stroke-opacity:1"
                 d="M -2.07224,2.39104 C -1.69365,0.95639 -0.84999,0.27895 0,0 -0.84999,-0.27895 -1.69365,-0.95639 -2.07224,-2.39104" /></g></g><path
             id="path194"
             style="fill:none;stroke:#000000;stroke-width:0.3985;stroke-linecap:butt;stroke-linejoin:miter;stroke-miterlimit:10;stroke-dasharray:none;stroke-opacity:1"
             d="m 21.6909,226.77448 19.38188,0" /><g
             transform="translate(41.27203,226.77448)"
             id="g196"><g
               id="g198"><path
                 id="path200"
                 style="fill:none;stroke:#000000;stroke-width:0.3985;stroke-linecap:round;stroke-linejoin:round;stroke-miterlimit:10;stroke-dasharray:none;stroke-opacity:1"
                 d="M -2.07224,2.39104 C -1.69365,0.95639 -0.84999,0.27895 0,0 -0.84999,-0.27895 -1.69365,-0.95639 -2.07224,-2.39104" /></g></g><g
             id="g202"><g
               transform="translate(28.018,230.291)"
               id="g204"><g
                 id="g206"><g
                   transform="translate(-57.413,-140.963)"
                   id="g208"><text
                     id="text210"
                     style="font-variant:normal;font-weight:normal;font-size:4.98129988px;font-family:CMR5;-inkscape-font-specification:CMR5;writing-mode:lr-tb;fill:#000000;fill-opacity:1;fill-rule:nonzero;stroke:none"
                     transform="matrix(1,0,0,-1,57.413,140.963)"><tspan
                       id="tspan212"
                       y="0"
                       x="0 3.735975">no</tspan></text>
<g
                     transform="translate(57.413,140.963)"
                     id="g214" /></g></g><g
                 transform="translate(-28.018,-230.291)"
                 id="g216" /></g></g><path
             id="path218"
             style="fill:none;stroke:#000000;stroke-width:0.3985;stroke-linecap:butt;stroke-linejoin:miter;stroke-miterlimit:10;stroke-dasharray:none;stroke-opacity:1"
             d="M 0,221.59384 0,210.81467" /><g
             transform="matrix(0,-1,1,0,0,210.61542)"
             id="g220"><g
               id="g222"><path
                 id="path224"
                 style="fill:none;stroke:#000000;stroke-width:0.3985;stroke-linecap:round;stroke-linejoin:round;stroke-miterlimit:10;stroke-dasharray:none;stroke-opacity:1"
                 d="M -2.07224,2.39104 C -1.69365,0.95639 -0.84999,0.27895 0,0 -0.84999,-0.27895 -1.69365,-0.95639 -2.07224,-2.39104" /></g></g><g
             id="g226"><g
               transform="translate(3.52,215.414)"
               id="g228"><g
                 id="g230"><g
                   transform="translate(-32.915,-126.086)"
                   id="g232"><text
                     id="text234"
                     style="font-variant:normal;font-weight:normal;font-size:4.98129988px;font-family:CMR5;-inkscape-font-specification:CMR5;writing-mode:lr-tb;fill:#000000;fill-opacity:1;fill-rule:nonzero;stroke:none"
                     transform="matrix(1,0,0,-1,32.915,126.086)"><tspan
                       id="tspan236"
                       y="0"
                       x="0 3.3887784 6.4328508">yes</tspan></text>
<g
                     transform="translate(32.915,126.086)"
                     id="g238" /></g></g><g
                 transform="translate(-3.52,-215.414)"
                 id="g240" /></g></g><path
             id="path242"
             style="fill:none;stroke:#000000;stroke-width:0.3985;stroke-linecap:butt;stroke-linejoin:miter;stroke-miterlimit:10;stroke-dasharray:none;stroke-opacity:1"
             d="m 0,186.43915 0,-12.5197" /><g
             transform="matrix(0,-1,1,0,0,173.72018)"
             id="g244"><g
               id="g246"><path
                 id="path248"
                 style="fill:none;stroke:#000000;stroke-width:0.3985;stroke-linecap:round;stroke-linejoin:round;stroke-miterlimit:10;stroke-dasharray:none;stroke-opacity:1"
                 d="M -2.07224,2.39104 C -1.69365,0.95639 -0.84999,0.27895 0,0 -0.84999,-0.27895 -1.69365,-0.95639 -2.07224,-2.39104" /></g></g><path
             id="path250"
             style="fill:none;stroke:#000000;stroke-width:0.3985;stroke-linecap:butt;stroke-linejoin:miter;stroke-miterlimit:10;stroke-dasharray:none;stroke-opacity:1"
             d="M 0,149.63249 0,138.80905" /><g
             transform="matrix(0,-1,1,0,0,138.60979)"
             id="g252"><g
               id="g254"><path
                 id="path256"
                 style="fill:none;stroke:#000000;stroke-width:0.3985;stroke-linecap:round;stroke-linejoin:round;stroke-miterlimit:10;stroke-dasharray:none;stroke-opacity:1"
                 d="M -2.07224,2.39104 C -1.69365,0.95639 -0.84999,0.27895 0,0 -0.84999,-0.27895 -1.69365,-0.95639 -2.07224,-2.39104" /></g></g><path
             id="path258"
             style="fill:none;stroke:#000000;stroke-width:0.3985;stroke-linecap:butt;stroke-linejoin:miter;stroke-miterlimit:10;stroke-dasharray:none;stroke-opacity:1"
             d="m 28.59877,133.2299 12.47401,0" /><g
             transform="translate(41.27203,133.2299)"
             id="g260"><g
               id="g262"><path
                 id="path264"
                 style="fill:none;stroke:#000000;stroke-width:0.3985;stroke-linecap:round;stroke-linejoin:round;stroke-miterlimit:10;stroke-dasharray:none;stroke-opacity:1"
                 d="M -2.07224,2.39104 C -1.69365,0.95639 -0.84999,0.27895 0,0 -0.84999,-0.27895 -1.69365,-0.95639 -2.07224,-2.39104" /></g></g><g
             id="g266"><g
               transform="translate(29.604,136.748)"
               id="g268"><g
                 id="g270"><g
                   transform="translate(-58.999,-47.42)"
                   id="g272"><text
                     id="text274"
                     style="font-variant:normal;font-weight:normal;font-size:4.98129988px;font-family:CMR5;-inkscape-font-specification:CMR5;writing-mode:lr-tb;fill:#000000;fill-opacity:1;fill-rule:nonzero;stroke:none"
                     transform="matrix(1,0,0,-1,58.999,47.42)"><tspan
                       id="tspan276"
                       y="0"
                       x="0 3.735975 7.1262479">bad</tspan></text>
<g
                     transform="translate(58.999,47.42)"
                     id="g278" /></g></g><g
                 transform="translate(-29.604,-136.748)"
                 id="g280" /></g></g><path
             id="path282"
             style="fill:none;stroke:#000000;stroke-width:0.3985;stroke-linecap:butt;stroke-linejoin:miter;stroke-miterlimit:10;stroke-dasharray:none;stroke-opacity:1"
             d="m 70.867,145.9933 0,15.5834 -41.07278,0" /><g
             transform="matrix(-1,0,0,-1,29.59496,161.5767)"
             id="g284"><g
               id="g286"><path
                 id="path288"
                 style="fill:none;stroke:#000000;stroke-width:0.3985;stroke-linecap:round;stroke-linejoin:round;stroke-miterlimit:10;stroke-dasharray:none;stroke-opacity:1"
                 d="M -2.07224,2.39104 C -1.69365,0.95639 -0.84999,0.27895 0,0 -0.84999,-0.27895 -1.69365,-0.95639 -2.07224,-2.39104" /></g></g><g
             id="g290"><g
               transform="translate(60.61,166.063)"
               id="g292"><g
                 id="g294"><g
                   transform="translate(-90.005,-76.735)"
                   id="g296"><text
                     id="text298"
                     style="font-variant:normal;font-weight:normal;font-size:4.98129988px;font-family:CMR5;-inkscape-font-specification:CMR5;writing-mode:lr-tb;fill:#000000;fill-opacity:1;fill-rule:nonzero;stroke:none"
                     transform="matrix(1,0,0,-1,90.005,76.735)"><tspan
                       id="tspan300"
                       y="0"
                       x="0 3.735975 7.6462955 11.382271 14.772543 17.470913">update</tspan></text>
<g
                     transform="translate(90.005,76.735)"
                     id="g302" /></g></g><g
                 transform="translate(-60.61,-166.063)"
                 id="g304" /></g></g><path
             id="path306"
             style="fill:none;stroke:#000000;stroke-width:0.3985;stroke-linecap:butt;stroke-linejoin:miter;stroke-miterlimit:10;stroke-dasharray:none;stroke-opacity:1"
             d="M 0,128.04927 0,115.16629" /><g
             transform="matrix(0,-1,1,0,0,114.96704)"
             id="g308"><g
               id="g310"><path
                 id="path312"
                 style="fill:none;stroke:#000000;stroke-width:0.3985;stroke-linecap:round;stroke-linejoin:round;stroke-miterlimit:10;stroke-dasharray:none;stroke-opacity:1"
                 d="M -2.07224,2.39104 C -1.69365,0.95639 -0.84999,0.27895 0,0 -0.84999,-0.27895 -1.69365,-0.95639 -2.07224,-2.39104" /></g></g><g
             id="g314"><g
               transform="translate(-17.772,120.161)"
               id="g316"><g
                 id="g318"><g
                   transform="translate(-11.623,-30.833)"
                   id="g320"><text
                     id="text322"
                     style="font-variant:normal;font-weight:normal;font-size:4.98129988px;font-family:CMR5;-inkscape-font-specification:CMR5;writing-mode:lr-tb;fill:#000000;fill-opacity:1;fill-rule:nonzero;stroke:none"
                     transform="matrix(1,0,0,-1,11.623,30.833)"><tspan
                       id="tspan324"
                       y="0"
                       x="0 3.3902729 6.9548912 10.514528">good</tspan></text>
<g
                     transform="translate(11.623,30.833)"
                     id="g326" /></g></g><g
                 transform="translate(17.772,-120.161)"
                 id="g328" /></g></g><path
             id="path330"
             style="fill:none;stroke:#000000;stroke-width:0.3985;stroke-linecap:butt;stroke-linejoin:miter;stroke-miterlimit:10;stroke-dasharray:none;stroke-opacity:1"
             d="m 70.867,214.83025 0,-16.40259 -41.07278,0" /><g
             transform="matrix(-1,0,0,-1,29.59496,198.42766)"
             id="g332"><g
               id="g334"><path
                 id="path336"
                 style="fill:none;stroke:#000000;stroke-width:0.3985;stroke-linecap:round;stroke-linejoin:round;stroke-miterlimit:10;stroke-dasharray:none;stroke-opacity:1"
                 d="M -2.07224,2.39104 C -1.69365,0.95639 -0.84999,0.27895 0,0 -0.84999,-0.27895 -1.69365,-0.95639 -2.07224,-2.39104" /></g></g><g
             id="g338"><g
               transform="translate(60.869,191.446)"
               id="g340"><g
                 id="g342"><g
                   transform="translate(-90.264,-102.118)"
                   id="g344"><text
                     id="text346"
                     style="font-variant:normal;font-weight:normal;font-size:4.98129988px;font-family:CMR5;-inkscape-font-specification:CMR5;writing-mode:lr-tb;fill:#000000;fill-opacity:1;fill-rule:nonzero;stroke:none"
                     transform="matrix(1,0,0,-1,90.264,102.118)"><tspan
                       id="tspan348"
                       y="0"
                       x="0 3.735975 7.4719501 9.4784174 12.86869 16.258963">upload</tspan></text>
<g
                     transform="translate(90.264,102.118)"
                     id="g350" /></g></g><g
                 transform="translate(-60.869,-191.446)"
                 id="g352" /></g></g></g></g></g></g></svg>