<svg xmlns="http://www.w3.org/2000/svg" xmlns:xlink="http://www.w3.org/1999/xlink" width="2534" height="522" viewBox="0 0 2534 522">
  <defs>
    <clipPath id="clip-Web_1920_1">
      <rect width="2534" height="522"/>
    </clipPath>
  </defs>
  <g id="Web_1920_1" data-name="Web 1920 – 1" clip-path="url(#clip-Web_1920_1)">
    <rect width="2534" height="522" fill="#fff"/>
    <g id="Group_21" data-name="Group 21" transform="translate(-8 -32)">
      <g id="Group_20" data-name="Group 20">
        <g id="Rectangle_9" data-name="Rectangle 9" transform="translate(1792 52)" fill="#fff" stroke="#707070" stroke-width="2">
          <rect width="729" height="81" stroke="none"/>
          <rect x="1" y="1" width="727" height="79" fill="none"/>
        </g>
        <text id="STRUCTURE" transform="translate(2066 102)" fill="#020202" font-size="30" font-family="HelveticaNeue-Medium, Helvetica Neue" font-weight="500"><tspan x="0" y="0">STRUCTURE</tspan></text>
        <g id="Group_15" data-name="Group 15" transform="translate(2)">
          <g id="Rectangle_10" data-name="Rectangle 10" transform="translate(2066 247)" fill="none" stroke="#716f6f" stroke-width="1">
            <rect width="84" height="81" stroke="none"/>
            <rect x="0.5" y="0.5" width="83" height="80" fill="none"/>
          </g>
          <text id="_" data-name="+" transform="translate(2096 303)" fill="#020202" font-size="40" font-family="HelveticaNeue-Medium, Helvetica Neue" font-weight="500"><tspan x="0" y="0">+</tspan></text>
          <g id="Rectangle_10-2" data-name="Rectangle 10" transform="translate(2066 348)" fill="none" stroke="#716f6f" stroke-width="1">
            <rect width="84" height="81" stroke="none"/>
            <rect x="0.5" y="0.5" width="83" height="80" fill="none"/>
          </g>
          <text id="_2" data-name="+" transform="translate(2096 404)" fill="#020202" font-size="40" font-family="HelveticaNeue-Medium, Helvetica Neue" font-weight="500"><tspan x="0" y="0">+</tspan></text>
          <g id="Rectangle_10-3" data-name="Rectangle 10" transform="translate(2066 449)" fill="none" stroke="#716f6f" stroke-width="1">
            <rect width="84" height="81" stroke="none"/>
            <rect x="0.5" y="0.5" width="83" height="80" fill="none"/>
          </g>
          <text id="_3" data-name="+" transform="translate(2096 505)" fill="#020202" font-size="40" font-family="HelveticaNeue-Medium, Helvetica Neue" font-weight="500"><tspan x="0" y="0">+</tspan></text>
        </g>
        <g id="Group_19" data-name="Group 19">
          <text id="t" transform="translate(2473 303)" fill="#020202" font-size="40" font-family="HelveticaNeue-Medium, Helvetica Neue" font-weight="500"><tspan x="0" y="0">t</tspan></text>
          <g id="Rectangle_14" data-name="Rectangle 14" transform="translate(2437 247)" fill="none" stroke="#716f6f" stroke-width="1">
            <rect width="84" height="81" stroke="none"/>
            <rect x="0.5" y="0.5" width="83" height="80" fill="none"/>
          </g>
        </g>
        <g id="Group_12" data-name="Group 12">
          <g id="Rectangle_10-4" data-name="Rectangle 10" transform="translate(1792 247)" fill="none" stroke="#716f6f" stroke-width="1">
            <rect width="84" height="81" stroke="none"/>
            <rect x="0.5" y="0.5" width="83" height="80" fill="none"/>
          </g>
          <text id="i" transform="translate(1829 303)" fill="#020202" font-size="40" font-family="HelveticaNeue-Medium, Helvetica Neue" font-weight="500"><tspan x="0" y="0">i</tspan></text>
          <g id="Rectangle_10-5" data-name="Rectangle 10" transform="translate(1792 348)" fill="none" stroke="#716f6f" stroke-width="1">
            <rect width="84" height="81" stroke="none"/>
            <rect x="0.5" y="0.5" width="83" height="80" fill="none"/>
          </g>
          <text id="i-2" data-name="i" transform="translate(1829 404)" fill="#020202" font-size="40" font-family="HelveticaNeue-Medium, Helvetica Neue" font-weight="500"><tspan x="0" y="0">i</tspan></text>
          <g id="Rectangle_10-6" data-name="Rectangle 10" transform="translate(1792 449)" fill="none" stroke="#716f6f" stroke-width="1">
            <rect width="84" height="81" stroke="none"/>
            <rect x="0.5" y="0.5" width="83" height="80" fill="none"/>
          </g>
          <text id="i-3" data-name="i" transform="translate(1829 505)" fill="#020202" font-size="40" font-family="HelveticaNeue-Medium, Helvetica Neue" font-weight="500"><tspan x="0" y="0">i</tspan></text>
          <g id="Rectangle_14-2" data-name="Rectangle 14" transform="translate(1792 147)" fill="none" stroke="#716f6f" stroke-width="1">
            <rect width="84" height="81" stroke="none"/>
            <rect x="0.5" y="0.5" width="83" height="80" fill="none"/>
          </g>
          <text id="i-4" data-name="i" transform="translate(1829 203)" fill="#020202" font-size="40" font-family="HelveticaNeue-Medium, Helvetica Neue" font-weight="500"><tspan x="0" y="0">i</tspan></text>
        </g>
        <g id="Group_13" data-name="Group 13" transform="translate(0)">
          <g id="Rectangle_14-3" data-name="Rectangle 14" transform="translate(1884 247)" fill="none" stroke="#716f6f" stroke-width="1">
            <rect width="84" height="81" stroke="none"/>
            <rect x="0.5" y="0.5" width="83" height="80" fill="none"/>
          </g>
          <text id="n" transform="translate(1914 303)" fill="#020202" font-size="40" font-family="HelveticaNeue-Medium, Helvetica Neue" font-weight="500"><tspan x="0" y="0">n</tspan></text>
          <g id="Rectangle_14-4" data-name="Rectangle 14" transform="translate(1884 348)" fill="none" stroke="#716f6f" stroke-width="1">
            <rect width="84" height="81" stroke="none"/>
            <rect x="0.5" y="0.5" width="83" height="80" fill="none"/>
          </g>
          <text id="n-2" data-name="n" transform="translate(1914 404)" fill="#020202" font-size="40" font-family="HelveticaNeue-Medium, Helvetica Neue" font-weight="500"><tspan x="0" y="0">n</tspan></text>
          <g id="Rectangle_14-5" data-name="Rectangle 14" transform="translate(1884 449)" fill="none" stroke="#716f6f" stroke-width="1">
            <rect width="84" height="81" stroke="none"/>
            <rect x="0.5" y="0.5" width="83" height="80" fill="none"/>
          </g>
          <text id="n-3" data-name="n" transform="translate(1914 505)" fill="#020202" font-size="40" font-family="HelveticaNeue-Medium, Helvetica Neue" font-weight="500"><tspan x="0" y="0">n</tspan></text>
          <g id="Rectangle_22" data-name="Rectangle 22" transform="translate(1884 147)" fill="none" stroke="#716f6f" stroke-width="1">
            <rect width="84" height="81" stroke="none"/>
            <rect x="0.5" y="0.5" width="83" height="80" fill="none"/>
          </g>
          <text id="n-4" data-name="n" transform="translate(1914 203)" fill="#020202" font-size="40" font-family="HelveticaNeue-Medium, Helvetica Neue" font-weight="500"><tspan x="0" y="0">n</tspan></text>
        </g>
        <g id="Group_14" data-name="Group 14" transform="translate(1)">
          <g id="Rectangle_22-2" data-name="Rectangle 22" transform="translate(1975 247)" fill="none" stroke="#716f6f" stroke-width="1">
            <rect width="84" height="81" stroke="none"/>
            <rect x="0.5" y="0.5" width="83" height="80" fill="none"/>
          </g>
          <text id="t-2" data-name="t" transform="translate(2011 303)" fill="#020202" font-size="40" font-family="HelveticaNeue-Medium, Helvetica Neue" font-weight="500"><tspan x="0" y="0">t</tspan></text>
          <g id="Rectangle_22-3" data-name="Rectangle 22" transform="translate(1975 348)" fill="none" stroke="#716f6f" stroke-width="1">
            <rect width="84" height="81" stroke="none"/>
            <rect x="0.5" y="0.5" width="83" height="80" fill="none"/>
          </g>
          <text id="t-3" data-name="t" transform="translate(2011 404)" fill="#020202" font-size="40" font-family="HelveticaNeue-Medium, Helvetica Neue" font-weight="500"><tspan x="0" y="0">t</tspan></text>
          <g id="Rectangle_22-4" data-name="Rectangle 22" transform="translate(1975 449)" fill="none" stroke="#716f6f" stroke-width="1">
            <rect width="84" height="81" stroke="none"/>
            <rect x="0.5" y="0.5" width="83" height="80" fill="none"/>
          </g>
          <text id="t-4" data-name="t" transform="translate(2011 505)" fill="#020202" font-size="40" font-family="HelveticaNeue-Medium, Helvetica Neue" font-weight="500"><tspan x="0" y="0">t</tspan></text>
          <g id="Rectangle_10-7" data-name="Rectangle 10" transform="translate(1975 147)" fill="none" stroke="#716f6f" stroke-width="1">
            <rect width="84" height="81" stroke="none"/>
            <rect x="0.5" y="0.5" width="83" height="80" fill="none"/>
          </g>
          <text id="t-5" data-name="t" transform="translate(2011 203)" fill="#020202" font-size="40" font-family="HelveticaNeue-Medium, Helvetica Neue" font-weight="500"><tspan x="0" y="0">t</tspan></text>
        </g>
        <g id="Group_16" data-name="Group 16" transform="translate(4)">
          <g id="Rectangle_14-6" data-name="Rectangle 14" transform="translate(2157 247)" fill="none" stroke="#716f6f" stroke-width="1">
            <rect width="84" height="81" stroke="none"/>
            <rect x="0.5" y="0.5" width="83" height="80" fill="none"/>
          </g>
          <text id="i-5" data-name="i" transform="translate(2194 303)" fill="#020202" font-size="40" font-family="HelveticaNeue-Medium, Helvetica Neue" font-weight="500"><tspan x="0" y="0">i</tspan></text>
          <g id="Rectangle_14-7" data-name="Rectangle 14" transform="translate(2157 348)" fill="none" stroke="#716f6f" stroke-width="1">
            <rect width="84" height="81" stroke="none"/>
            <rect x="0.5" y="0.5" width="83" height="80" fill="none"/>
          </g>
          <text id="i-6" data-name="i" transform="translate(2194 400)" fill="#020202" font-size="40" font-family="HelveticaNeue-Medium, Helvetica Neue" font-weight="500"><tspan x="0" y="0">i</tspan></text>
          <g id="Rectangle_14-8" data-name="Rectangle 14" transform="translate(2157 449)" fill="none" stroke="#716f6f" stroke-width="1">
            <rect width="84" height="81" stroke="none"/>
            <rect x="0.5" y="0.5" width="83" height="80" fill="none"/>
          </g>
          <text id="i-7" data-name="i" transform="translate(2194 505)" fill="#020202" font-size="40" font-family="HelveticaNeue-Medium, Helvetica Neue" font-weight="500"><tspan x="0" y="0">i</tspan></text>
        </g>
        <g id="Group_17" data-name="Group 17" transform="translate(2)">
          <g id="Rectangle_22-5" data-name="Rectangle 22" transform="translate(2251 247)" fill="none" stroke="#716f6f" stroke-width="1">
            <rect width="84" height="81" stroke="none"/>
            <rect x="0.5" y="0.5" width="83" height="80" fill="none"/>
          </g>
          <text id="n-5" data-name="n" transform="translate(2282 303)" fill="#020202" font-size="40" font-family="HelveticaNeue-Medium, Helvetica Neue" font-weight="500"><tspan x="0" y="0">n</tspan></text>
          <g id="Rectangle_22-6" data-name="Rectangle 22" transform="translate(2251 348)" fill="none" stroke="#716f6f" stroke-width="1">
            <rect width="84" height="81" stroke="none"/>
            <rect x="0.5" y="0.5" width="83" height="80" fill="none"/>
          </g>
          <text id="n-6" data-name="n" transform="translate(2282 400)" fill="#020202" font-size="40" font-family="HelveticaNeue-Medium, Helvetica Neue" font-weight="500"><tspan x="0" y="0">n</tspan></text>
          <g id="Rectangle_22-7" data-name="Rectangle 22" transform="translate(2251 449)" fill="none" stroke="#716f6f" stroke-width="1">
            <rect width="84" height="81" stroke="none"/>
            <rect x="0.5" y="0.5" width="83" height="80" fill="none"/>
          </g>
          <text id="n-7" data-name="n" transform="translate(2282 505)" fill="#020202" font-size="40" font-family="HelveticaNeue-Medium, Helvetica Neue" font-weight="500"><tspan x="0" y="0">n</tspan></text>
        </g>
        <g id="Group_18" data-name="Group 18" transform="translate(2)">
          <g id="Rectangle_10-8" data-name="Rectangle 10" transform="translate(2343 247)" fill="none" stroke="#716f6f" stroke-width="1">
            <rect width="84" height="81" stroke="none"/>
            <rect x="0.5" y="0.5" width="83" height="80" fill="none"/>
          </g>
          <text id="c" transform="translate(2374 303)" fill="#020202" font-size="40" font-family="HelveticaNeue-Medium, Helvetica Neue" font-weight="500"><tspan x="0" y="0">c</tspan></text>
          <g id="Rectangle_10-9" data-name="Rectangle 10" transform="translate(2343 348)" fill="none" stroke="#716f6f" stroke-width="1">
            <rect width="84" height="81" stroke="none"/>
            <rect x="0.5" y="0.5" width="83" height="80" fill="none"/>
          </g>
          <text id="t-6" data-name="t" transform="translate(2379 400)" fill="#020202" font-size="40" font-family="HelveticaNeue-Medium, Helvetica Neue" font-weight="500"><tspan x="0" y="0">t</tspan></text>
          <g id="Rectangle_10-10" data-name="Rectangle 10" transform="translate(2343 449)" fill="none" stroke="#716f6f" stroke-width="1">
            <rect width="84" height="81" stroke="none"/>
            <rect x="0.5" y="0.5" width="83" height="80" fill="none"/>
          </g>
          <text id="t-7" data-name="t" transform="translate(2379 505)" fill="#020202" font-size="40" font-family="HelveticaNeue-Medium, Helvetica Neue" font-weight="500"><tspan x="0" y="0">t</tspan></text>
        </g>
      </g>
      <g id="Group_7" data-name="Group 7" transform="translate(-6)">
        <g id="Rectangle_1" data-name="Rectangle 1" transform="translate(1062 52)" fill="#fff" stroke="#707070" stroke-width="2">
          <rect width="708" height="81" stroke="none"/>
          <rect x="1" y="1" width="706" height="79" fill="none"/>
        </g>
        <text id="ALIGNMENT" transform="translate(1325 102)" fill="#020202" font-size="30" font-family="HelveticaNeue-Medium, Helvetica Neue" font-weight="500"><tspan x="0" y="0">ALIGNMENT</tspan></text>
        <g id="Group_3" data-name="Group 3" transform="translate(0 1)">
          <rect id="Rectangle_1-2" data-name="Rectangle 1" width="84" height="81" transform="translate(1062 146)" fill="#25c2d0"/>
          <rect id="Rectangle_1-3" data-name="Rectangle 1" width="84" height="81" transform="translate(1151 146)" fill="#f70000"/>
          <text id="o" transform="translate(1181 202)" fill="#fff" font-size="40" font-family="Monaco"><tspan x="0" y="0">o</tspan></text>
          <text id="n̥" transform="translate(1092 199)" fill="#fff" font-size="40" font-family="Monaco"><tspan x="0" y="0">n̥</tspan></text>
          <rect id="Rectangle_1-4" data-name="Rectangle 1" width="84" height="81" transform="translate(1242 146)" fill="#d1d1d1"/>
          <rect id="Rectangle_1-5" data-name="Rectangle 1" width="84" height="81" transform="translate(1333 146)" fill="#ff7791"/>
          <text id="_4" data-name="⁴³" transform="translate(1351 202)" fill="#fff" font-size="40" font-family="Monaco"><tspan x="0" y="0">⁴³</tspan></text>
          <text id="_-" data-name="-" transform="translate(1272 202)" fill="#fff" font-size="40" font-family="Monaco"><tspan x="0" y="0">-</tspan></text>
        </g>
        <rect id="Rectangle_1-6" data-name="Rectangle 1" width="84" height="81" transform="translate(1062 247)" fill="#25c2d0"/>
        <rect id="Rectangle_1-7" data-name="Rectangle 1" width="84" height="81" transform="translate(1151 247)" fill="#f70000"/>
        <text id="a" transform="translate(1181 303)" fill="#fff" font-size="40" font-family="Monaco"><tspan x="0" y="0">a</tspan></text>
        <text id="a-2" data-name="a" transform="translate(1185 400)" fill="#020202" font-size="30" font-family="HelveticaNeue, Helvetica Neue"><tspan x="0" y="0">a</tspan></text>
        <text id="a-3" data-name="a" transform="translate(1185 400)" fill="#020202" font-size="30" font-family="HelveticaNeue, Helvetica Neue"><tspan x="0" y="0">a</tspan></text>
        <text id="m" transform="translate(1092 303)" fill="#fff" font-size="40" font-family="Monaco"><tspan x="0" y="0">m</tspan></text>
        <rect id="Rectangle_1-8" data-name="Rectangle 1" width="84" height="81" transform="translate(1242 247)" fill="#ff7791"/>
        <rect id="Rectangle_1-9" data-name="Rectangle 1" width="84" height="81" transform="translate(1333 247)" fill="#e6dfdf"/>
        <text id="_5" data-name="+" transform="translate(1363 303)" fill="#fff" font-size="40" font-family="Monaco"><tspan x="0" y="0">+</tspan></text>
        <text id="_6" data-name="⁴²" transform="translate(1260 303)" fill="#fff" font-size="40" font-family="Monaco"><tspan x="0" y="0">⁴²</tspan></text>
        <rect id="Rectangle_1-10" data-name="Rectangle 1" width="84" height="81" transform="translate(1423 247)" fill="#25c2d0"/>
        <rect id="Rectangle_1-11" data-name="Rectangle 1" width="84" height="81" transform="translate(1514 247)" fill="#f70000"/>
        <text id="a-4" data-name="a" transform="translate(1544 303)" fill="#fff" font-size="40" font-family="Monaco"><tspan x="0" y="0">a</tspan></text>
        <text id="n̥-2" data-name="n̥" transform="translate(1453 300)" fill="#fff" font-size="40" font-family="Monaco"><tspan x="0" y="0">n̥</tspan></text>
        <rect id="Rectangle_1-12" data-name="Rectangle 1" width="84" height="81" transform="translate(1604 247)" fill="#25c2d0"/>
        <rect id="Rectangle_1-13" data-name="Rectangle 1" width="84" height="81" transform="translate(1693 247)" fill="#ff7791"/>
        <text id="_7" data-name="³³" transform="translate(1711 303)" fill="#fff" font-size="40" font-family="Monaco"><tspan x="0" y="0">³³</tspan></text>
        <text id="ŋ" transform="translate(1634 303)" fill="#fff" font-size="40" font-family="Monaco"><tspan x="0" y="0">ŋ</tspan></text>
        <rect id="Rectangle_1-14" data-name="Rectangle 1" width="84" height="81" transform="translate(1062 348)" fill="#a2ef56"/>
        <rect id="Rectangle_1-15" data-name="Rectangle 1" width="84" height="81" transform="translate(1151 348)" fill="#f70000"/>
        <text id="a-5" data-name="a" transform="translate(1181 404)" fill="#fff" font-size="40" font-family="Monaco"><tspan x="0" y="0">a</tspan></text>
        <text id="ʔ" transform="translate(1092 404)" fill="#fff" font-size="40" font-family="Monaco"><tspan x="0" y="0">ʔ</tspan></text>
        <rect id="Rectangle_1-16" data-name="Rectangle 1" width="84" height="81" transform="translate(1242 348)" fill="#ff7791"/>
        <rect id="Rectangle_1-17" data-name="Rectangle 1" width="84" height="81" transform="translate(1333 348)" fill="#e6dfdf"/>
        <text id="_8" data-name="+" transform="translate(1363 404)" fill="#fff" font-size="40" font-family="Monaco"><tspan x="0" y="0">+</tspan></text>
        <text id="_9" data-name="⁵³" transform="translate(1260 404)" fill="#fff" font-size="40" font-family="Monaco"><tspan x="0" y="0">⁵³</tspan></text>
        <rect id="Rectangle_1-18" data-name="Rectangle 1" width="84" height="81" transform="translate(1423 348)" fill="#25c2d0"/>
        <rect id="Rectangle_1-19" data-name="Rectangle 1" width="84" height="81" transform="translate(1514 348)" fill="#f70000"/>
        <text id="ai" transform="translate(1532 404)" fill="#fff" font-size="40" font-family="Monaco"><tspan x="0" y="0">ai</tspan></text>
        <text id="n-8" data-name="n" transform="translate(1453 404)" fill="#fff" font-size="40" font-family="Monaco"><tspan x="0" y="0">n</tspan></text>
        <rect id="Rectangle_1-20" data-name="Rectangle 1" width="84" height="81" transform="translate(1604 348)" fill="#d1d1d1"/>
        <rect id="Rectangle_1-21" data-name="Rectangle 1" width="84" height="81" transform="translate(1693 348)" fill="#ff7791"/>
        <text id="_10" data-name="⁴⁴" transform="translate(1711 404)" fill="#fff" font-size="40" font-family="Monaco"><tspan x="0" y="0">⁴⁴</tspan></text>
        <text id="_--2" data-name="-" transform="translate(1634 404)" fill="#fff" font-size="40" font-family="Monaco"><tspan x="0" y="0">-</tspan></text>
        <rect id="Rectangle_1-22" data-name="Rectangle 1" width="84" height="81" transform="translate(1062 449)" fill="#204ad3"/>
        <rect id="Rectangle_1-23" data-name="Rectangle 1" width="84" height="81" transform="translate(1151 449)" fill="#f70000"/>
        <text id="a-6" data-name="a" transform="translate(1181 505)" fill="#fff" font-size="40" font-family="Monaco"><tspan x="0" y="0">a</tspan></text>
        <text id="l" transform="translate(1092 505)" fill="#fff" font-size="40" font-family="Monaco"><tspan x="0" y="0">l</tspan></text>
        <rect id="Rectangle_1-24" data-name="Rectangle 1" width="84" height="81" transform="translate(1242 449)" fill="#ff7791"/>
        <rect id="Rectangle_1-25" data-name="Rectangle 1" width="84" height="81" transform="translate(1333 449)" fill="#e6dfdf"/>
        <text id="_11" data-name="+" transform="translate(1363 505)" fill="#fff" font-size="40" font-family="Monaco"><tspan x="0" y="0">+</tspan></text>
        <text id="_12" data-name="⁰/³" transform="translate(1248 505)" fill="#fff" font-size="40" font-family="Monaco"><tspan x="0" y="0">⁰/³</tspan></text>
        <rect id="Rectangle_1-26" data-name="Rectangle 1" width="84" height="81" transform="translate(1423 449)" fill="#25c2d0"/>
        <rect id="Rectangle_1-27" data-name="Rectangle 1" width="84" height="81" transform="translate(1514 449)" fill="#f70000"/>
        <text id="e" transform="translate(1544 505)" fill="#fff" font-size="40" font-family="Monaco"><tspan x="0" y="0">e</tspan></text>
        <text id="n̥-3" data-name="n̥" transform="translate(1453 502)" fill="#fff" font-size="40" font-family="Monaco"><tspan x="0" y="0">n̥</tspan></text>
        <rect id="Rectangle_1-28" data-name="Rectangle 1" width="84" height="81" transform="translate(1604 449)" fill="#d1d1d1"/>
        <rect id="Rectangle_1-29" data-name="Rectangle 1" width="84" height="81" transform="translate(1693 449)" fill="#ff7791"/>
        <text id="_13" data-name="³⁵" transform="translate(1711 505)" fill="#fff" font-size="40" font-family="Monaco"><tspan x="0" y="0">³⁵</tspan></text>
        <text id="_--3" data-name="-" transform="translate(1634 505)" fill="#fff" font-size="40" font-family="Monaco"><tspan x="0" y="0">-</tspan></text>
      </g>
      <g id="Group_8" data-name="Group 8" transform="translate(2)">
        <g id="Rectangle_1-30" data-name="Rectangle 1" transform="translate(860 52)" fill="#fff" stroke="#707070" stroke-width="2">
          <rect width="173" height="81" stroke="none"/>
          <rect x="1" y="1" width="171" height="79" fill="none"/>
        </g>
        <text id="COGIDS" transform="translate(888 102)" fill="#020202" font-size="30" font-family="HelveticaNeue-Medium, Helvetica Neue" font-weight="500"><tspan x="0" y="0">COGIDS</tspan></text>
        <g id="Rectangle_1-31" data-name="Rectangle 1" transform="translate(860 247)" fill="#fff" stroke="#707070" stroke-width="1">
          <rect width="84" height="81" stroke="none"/>
          <rect x="0.5" y="0.5" width="83" height="80" fill="none"/>
        </g>
        <g id="Rectangle_1-32" data-name="Rectangle 1" transform="translate(949 247)" fill="#fff" stroke="#707070" stroke-width="1">
          <rect width="84" height="81" stroke="none"/>
          <rect x="0.5" y="0.5" width="83" height="80" fill="none"/>
        </g>
        <text id="_2-2" data-name="2" transform="translate(892 295)" fill="#020202" font-size="40" font-family="HelveticaNeue, Helvetica Neue"><tspan x="0" y="0">2</tspan></text>
        <text id="_1" data-name="1" transform="translate(985 295)" fill="#020202" font-size="40" font-family="HelveticaNeue, Helvetica Neue"><tspan x="0" y="0">1</tspan></text>
        <g id="Group_2" data-name="Group 2" transform="translate(860 146)">
          <g id="Rectangle_1-33" data-name="Rectangle 1" fill="#fff" stroke="#707070" stroke-width="1">
            <rect width="84" height="81" stroke="none"/>
            <rect x="0.5" y="0.5" width="83" height="80" fill="none"/>
          </g>
          <g id="Rectangle_1-34" data-name="Rectangle 1" transform="translate(89)" fill="#fff" stroke="#707070" stroke-width="1">
            <rect width="84" height="81" stroke="none"/>
            <rect x="0.5" y="0.5" width="83" height="80" fill="none"/>
          </g>
          <text id="_1-2" data-name="1" transform="translate(34 52)" fill="#020202" font-size="40" font-family="HelveticaNeue, Helvetica Neue"><tspan x="0" y="0">1</tspan></text>
        </g>
        <g id="Rectangle_1-35" data-name="Rectangle 1" transform="translate(860 348)" fill="#fff" stroke="#707070" stroke-width="1">
          <rect width="84" height="81" stroke="none"/>
          <rect x="0.5" y="0.5" width="83" height="80" fill="none"/>
        </g>
        <g id="Rectangle_1-36" data-name="Rectangle 1" transform="translate(949 348)" fill="#fff" stroke="#707070" stroke-width="1">
          <rect width="84" height="81" stroke="none"/>
          <rect x="0.5" y="0.5" width="83" height="80" fill="none"/>
        </g>
        <text id="_3-2" data-name="3" transform="translate(892 396)" fill="#020202" font-size="40" font-family="HelveticaNeue, Helvetica Neue"><tspan x="0" y="0">3</tspan></text>
        <text id="_1-3" data-name="1" transform="translate(985 396)" fill="#020202" font-size="40" font-family="HelveticaNeue, Helvetica Neue"><tspan x="0" y="0">1</tspan></text>
        <g id="Rectangle_1-37" data-name="Rectangle 1" transform="translate(860 449)" fill="#fff" stroke="#707070" stroke-width="1">
          <rect width="84" height="81" stroke="none"/>
          <rect x="0.5" y="0.5" width="83" height="80" fill="none"/>
        </g>
        <g id="Rectangle_1-38" data-name="Rectangle 1" transform="translate(949 449)" fill="#fff" stroke="#707070" stroke-width="1">
          <rect width="84" height="81" stroke="none"/>
          <rect x="0.5" y="0.5" width="83" height="80" fill="none"/>
        </g>
        <text id="_4-2" data-name="4" transform="translate(892 497)" fill="#020202" font-size="40" font-family="HelveticaNeue, Helvetica Neue"><tspan x="0" y="0">4</tspan></text>
        <text id="_1-4" data-name="1" transform="translate(985 497)" fill="#020202" font-size="40" font-family="HelveticaNeue, Helvetica Neue"><tspan x="0" y="0">1</tspan></text>
      </g>
      <g id="Group_11" data-name="Group 11">
        <g id="Rectangle_1-39" data-name="Rectangle 1" transform="translate(30 52)" fill="#fff" stroke="#707070" stroke-width="2">
          <rect width="246" height="81" stroke="none"/>
          <rect x="1" y="1" width="244" height="79" fill="none"/>
        </g>
        <text id="DOCULECT" transform="translate(72 102)" fill="#020202" font-size="30" font-family="HelveticaNeue-Medium, Helvetica Neue" font-weight="500"><tspan x="0" y="0">DOCULECT</tspan></text>
        <g id="Rectangle_1-40" data-name="Rectangle 1" transform="translate(30 146)" fill="#fff" stroke="#707070" stroke-width="1">
          <rect width="246" height="81" stroke="none"/>
          <rect x="0.5" y="0.5" width="245" height="80" fill="none"/>
        </g>
        <text id="Chuanqiandian" transform="translate(52 194)" fill="#020202" font-size="30" font-family="HelveticaNeue, Helvetica Neue"><tspan x="0" y="0">Chuanqiandian</tspan></text>
        <g id="Group_1" data-name="Group 1" transform="translate(29.879 247)">
          <g id="Rectangle_1-41" data-name="Rectangle 1" transform="translate(0.121)" fill="#fff" stroke="#707070" stroke-width="1">
            <rect width="246" height="81" stroke="none"/>
            <rect x="0.5" y="0.5" width="245" height="80" fill="none"/>
          </g>
          <text id="Numao" transform="translate(75.121 48)" fill="#020202" font-size="30" font-family="HelveticaNeue, Helvetica Neue"><tspan x="0" y="0">Numao</tspan></text>
        </g>
        <g id="Rectangle_1-42" data-name="Rectangle 1" transform="translate(30 348)" fill="#fff" stroke="#707070" stroke-width="1">
          <rect width="246" height="81" stroke="none"/>
          <rect x="0.5" y="0.5" width="245" height="80" fill="none"/>
        </g>
        <text id="Zao_Min" data-name="Zao Min" transform="translate(99 396)" fill="#020202" font-size="30" font-family="HelveticaNeue, Helvetica Neue"><tspan x="0" y="0">Zao Min</tspan></text>
        <g id="Rectangle_1-43" data-name="Rectangle 1" transform="translate(30 449)" fill="#fff" stroke="#707070" stroke-width="1">
          <rect width="246" height="81" stroke="none"/>
          <rect x="0.5" y="0.5" width="245" height="80" fill="none"/>
        </g>
        <text id="Baheng_Eastern" data-name="Baheng, Eastern" transform="translate(42 497)" fill="#020202" font-size="30" font-family="HelveticaNeue, Helvetica Neue"><tspan x="0" y="0">Baheng, Eastern</tspan></text>
      </g>
      <g id="Group_10" data-name="Group 10" transform="translate(-1)">
        <g id="Rectangle_1-44" data-name="Rectangle 1" transform="translate(298 52)" fill="#fff" stroke="#707070" stroke-width="2">
          <rect width="165" height="81" stroke="none"/>
          <rect x="1" y="1" width="163" height="79" fill="none"/>
        </g>
        <text id="CONCEPT" transform="translate(309 102)" fill="#020202" font-size="30" font-family="HelveticaNeue-Medium, Helvetica Neue" font-weight="500"><tspan x="0" y="0">CONCEPT</tspan></text>
        <g id="Rectangle_1-45" data-name="Rectangle 1" transform="translate(298 146)" fill="#fff" stroke="#707070" stroke-width="1">
          <rect width="165" height="81" stroke="none"/>
          <rect x="0.5" y="0.5" width="164" height="80" fill="none"/>
        </g>
        <text id="SUN" transform="translate(349 198)" fill="#020202" font-size="30" font-family="HelveticaNeue, Helvetica Neue"><tspan x="0" y="0">SUN</tspan></text>
        <g id="Rectangle_1-46" data-name="Rectangle 1" transform="translate(298 247)" fill="#fff" stroke="#707070" stroke-width="1">
          <rect width="165" height="81" stroke="none"/>
          <rect x="0.5" y="0.5" width="164" height="80" fill="none"/>
        </g>
        <text id="SUN-2" data-name="SUN" transform="translate(349 299)" fill="#020202" font-size="30" font-family="HelveticaNeue, Helvetica Neue"><tspan x="0" y="0">SUN</tspan></text>
        <g id="Rectangle_1-47" data-name="Rectangle 1" transform="translate(298 348)" fill="#fff" stroke="#707070" stroke-width="1">
          <rect width="165" height="81" stroke="none"/>
          <rect x="0.5" y="0.5" width="164" height="80" fill="none"/>
        </g>
        <text id="SUN-3" data-name="SUN" transform="translate(349 400)" fill="#020202" font-size="30" font-family="HelveticaNeue, Helvetica Neue"><tspan x="0" y="0">SUN</tspan></text>
        <g id="Rectangle_1-48" data-name="Rectangle 1" transform="translate(298 449)" fill="#fff" stroke="#707070" stroke-width="1">
          <rect width="165" height="81" stroke="none"/>
          <rect x="0.5" y="0.5" width="164" height="80" fill="none"/>
        </g>
        <text id="SUN-4" data-name="SUN" transform="translate(349 501)" fill="#020202" font-size="30" font-family="HelveticaNeue, Helvetica Neue"><tspan x="0" y="0">SUN</tspan></text>
      </g>
      <g id="Group_9" data-name="Group 9" transform="translate(0)">
        <g id="Rectangle_1-49" data-name="Rectangle 1" transform="translate(483 52)" fill="#fff" stroke="#707070" stroke-width="2">
          <rect width="357" height="81" stroke="none"/>
          <rect x="1" y="1" width="355" height="79" fill="none"/>
        </g>
        <text id="TOKENS" transform="translate(601 102)" fill="#020202" font-size="30" font-family="HelveticaNeue-Medium, Helvetica Neue" font-weight="500"><tspan x="0" y="0">TOKENS</tspan></text>
        <g id="Rectangle_1-50" data-name="Rectangle 1" transform="translate(483 146)" fill="#fff" stroke="#707070" stroke-width="1">
          <rect width="357" height="81" stroke="none"/>
          <rect x="0.5" y="0.5" width="356" height="80" fill="none"/>
        </g>
        <text id="n̥_o_" data-name="n̥ o ⁴³" transform="translate(604 197)" fill="#020202" font-size="32" font-family="Monaco"><tspan x="0" y="0">n̥ o ⁴³</tspan></text>
        <g id="Rectangle_1-51" data-name="Rectangle 1" transform="translate(483 247)" fill="#fff" stroke="#707070" stroke-width="1">
          <rect width="357" height="81" stroke="none"/>
          <rect x="0.5" y="0.5" width="356" height="80" fill="none"/>
        </g>
        <text id="m_a_n̥_a_ŋ_" data-name="m a ⁴² + n̥ a ŋ ³³" transform="translate(662 298)" fill="#020202" font-size="32" font-family="Monaco"><tspan x="-163.227" y="0">m a ⁴² + n̥ a ŋ ³³</tspan></text>
        <g id="Rectangle_1-52" data-name="Rectangle 1" transform="translate(483 348)" fill="#fff" stroke="#707070" stroke-width="1">
          <rect width="357" height="81" stroke="none"/>
          <rect x="0.5" y="0.5" width="356" height="80" fill="none"/>
        </g>
        <text id="ʔ_a_n_ai_" data-name="ʔ a ⁵³ + n ai ⁴⁴" transform="translate(508 401)" fill="#020202" font-size="32" font-family="Monaco"><tspan x="0" y="0">ʔ a ⁵³ + n ai ⁴⁴</tspan></text>
        <g id="Rectangle_1-53" data-name="Rectangle 1" transform="translate(483 449)" fill="#fff" stroke="#707070" stroke-width="1">
          <rect width="357" height="81" stroke="none"/>
          <rect x="0.5" y="0.5" width="356" height="80" fill="none"/>
        </g>
        <text id="l_a_n̥_e_" data-name="l a ⁰/³ + n̥ e ³⁵" transform="translate(508 500)" fill="#020202" font-size="32" font-family="Monaco"><tspan x="0" y="0">l a ⁰/³ + n̥ e ³⁵</tspan></text>
      </g>
    </g>
  </g>
</svg>
