<svg xmlns="http://www.w3.org/2000/svg" xmlns:xlink="http://www.w3.org/1999/xlink" width="1662" height="538" viewBox="0 0 1662 538">
  <defs>
    <clipPath id="clip-Web_1920_3">
      <rect width="1662" height="538"/>
    </clipPath>
  </defs>
  <g id="Web_1920_3" data-name="Web 1920 – 3" clip-path="url(#clip-Web_1920_3)">
    <rect width="1662" height="538" fill="#fff"/>
    <g id="Group_26" data-name="Group 26" transform="translate(1 -83)">
      <g id="Rectangle_2" data-name="Rectangle 2" transform="translate(655 95)" fill="#fff" stroke="#707070" stroke-width="2">
        <rect width="988" height="98" stroke="none"/>
        <rect x="1" y="1" width="986" height="96" fill="none"/>
      </g>
      <text id="ALIGNMENT" transform="translate(1062 155)" fill="#020202" font-size="30" font-family="HelveticaNeue-Medium, Helvetica Neue" font-weight="500"><tspan x="0" y="0">ALIGNMENT</tspan></text>
      <g id="Group_22" data-name="Group 22" transform="translate(0 -4)">
        <g id="Rectangle_1" data-name="Rectangle 1" transform="translate(17 218)" fill="#fff" stroke="#707070" stroke-width="1">
          <rect width="246" height="81" stroke="none"/>
          <rect x="0.5" y="0.5" width="245" height="80" fill="none"/>
        </g>
        <text id="Chuanqiandian" transform="translate(39 266)" font-size="30" font-family="HelveticaNeue, Helvetica Neue"><tspan x="0" y="0">Chuanqiandian</tspan></text>
        <g id="Rectangle_1-2" data-name="Rectangle 1" transform="translate(281 218)" fill="#fff" stroke="#707070" stroke-width="1">
          <rect width="357" height="81" stroke="none"/>
          <rect x="0.5" y="0.5" width="356" height="80" fill="none"/>
        </g>
        <text id="n̥_o_" data-name="n̥ o ⁴³" transform="translate(406 268)" font-size="30" font-family="Monaco"><tspan x="0" y="0">n̥ o ⁴³</tspan></text>
        <g id="Rectangle_3" data-name="Rectangle 3" transform="translate(655 218)" fill="#fff" stroke="#707070" stroke-width="1">
          <rect width="84" height="81" stroke="none"/>
          <rect x="0.5" y="0.5" width="83" height="80" fill="none"/>
        </g>
        <g id="Rectangle_4" data-name="Rectangle 4" transform="translate(744 218)" fill="#fff" stroke="#707070" stroke-width="1">
          <rect width="84" height="81" stroke="none"/>
          <rect x="0.5" y="0.5" width="83" height="80" fill="none"/>
        </g>
        <g id="Rectangle_5" data-name="Rectangle 5" transform="translate(834 218)" fill="#fff" stroke="#707070" stroke-width="1">
          <rect width="84" height="81" stroke="none"/>
          <rect x="0.5" y="0.5" width="83" height="80" fill="none"/>
        </g>
        <g id="Rectangle_6" data-name="Rectangle 6" transform="translate(926 218)" fill="#fff" stroke="#707070" stroke-width="1">
          <rect width="84" height="81" stroke="none"/>
          <rect x="0.5" y="0.5" width="83" height="80" fill="none"/>
        </g>
        <g id="Rectangle_7" data-name="Rectangle 7" transform="translate(1020 218)" fill="#fff" stroke="#707070" stroke-width="1">
          <rect width="84" height="81" stroke="none"/>
          <rect x="0.5" y="0.5" width="83" height="80" fill="none"/>
        </g>
        <g id="Rectangle_8" data-name="Rectangle 8" transform="translate(1107 218)" fill="#fff" stroke="#707070" stroke-width="1">
          <rect width="84" height="81" stroke="none"/>
          <rect x="0.5" y="0.5" width="83" height="80" fill="none"/>
        </g>
        <path id="Path_1" data-name="Path 1" d="M0,0H84V81H0Z" transform="translate(1199 218)" fill="#25c2d0"/>
        <rect id="Rectangle_4-2" data-name="Rectangle 4" width="84" height="81" transform="translate(1288 218)" fill="#d1d1d1"/>
        <text id="_-" data-name="-" transform="translate(1318 274)" fill="#fff" font-size="40" font-family="Monaco"><tspan x="0" y="0">-</tspan></text>
        <text id="n̥" transform="translate(1230 273)" fill="#fff" font-size="40" font-family="HelveticaNeue, Helvetica Neue"><tspan x="0" y="0">n̥</tspan></text>
        <rect id="Rectangle_5-2" data-name="Rectangle 5" width="84" height="81" transform="translate(1377 218)" fill="#f70000"/>
        <rect id="Rectangle_6-2" data-name="Rectangle 6" width="84" height="81" transform="translate(1469 218)" fill="#d1d1d1"/>
        <text id="_--2" data-name="-" transform="translate(1499 274)" fill="#fff" font-size="40" font-family="Monaco"><tspan x="0" y="0">-</tspan></text>
        <text id="o" transform="translate(1407 274)" fill="#fff" font-size="40" font-family="Monaco"><tspan x="0" y="0">o</tspan></text>
        <rect id="Rectangle_7-2" data-name="Rectangle 7" width="84" height="81" transform="translate(1559 218)" fill="#ff7791"/>
        <text id="_" data-name="⁴³" transform="translate(1577 274)" fill="#fff" font-size="40" font-family="Monaco"><tspan x="0" y="0">⁴³</tspan></text>
      </g>
      <g id="Group_23" data-name="Group 23" transform="translate(0 -3)">
        <g id="Rectangle_1-3" data-name="Rectangle 1" transform="translate(17 319)" fill="#fff" stroke="#707070" stroke-width="1">
          <rect width="246" height="81" stroke="none"/>
          <rect x="0.5" y="0.5" width="245" height="80" fill="none"/>
        </g>
        <text id="Numao" transform="translate(92 367)" font-size="30" font-family="HelveticaNeue, Helvetica Neue"><tspan x="0" y="0">Numao</tspan></text>
        <g id="Rectangle_1-4" data-name="Rectangle 1" transform="translate(281 319)" fill="#fff" stroke="#707070" stroke-width="1">
          <rect width="357" height="81" stroke="none"/>
          <rect x="0.5" y="0.5" width="356" height="80" fill="none"/>
        </g>
        <text id="m_a_n̥_a_ŋ_" data-name="m a ⁴² + n̥ a ŋ ³³" transform="translate(460 369)" font-size="30" font-family="Monaco"><tspan x="-153.025" y="0">m a ⁴² + n̥ a ŋ ³³</tspan></text>
        <rect id="Rectangle_3-2" data-name="Rectangle 3" width="84" height="81" transform="translate(655 320)" fill="#25c2d0"/>
        <rect id="Rectangle_4-3" data-name="Rectangle 4" width="84" height="81" transform="translate(744 320)" fill="#d1d1d1"/>
        <text id="_--3" data-name="-" transform="translate(774 376)" fill="#fff" font-size="40" font-family="Monaco"><tspan x="0" y="0">-</tspan></text>
        <text id="m" transform="translate(680 375)" fill="#fff" font-size="40" font-family="HelveticaNeue, Helvetica Neue"><tspan x="0" y="0">m</tspan></text>
        <rect id="Rectangle_5-3" data-name="Rectangle 5" width="84" height="81" transform="translate(834 320)" fill="#f70000"/>
        <rect id="Rectangle_6-3" data-name="Rectangle 6" width="84" height="81" transform="translate(926 320)" fill="#d1d1d1"/>
        <text id="_--4" data-name="-" transform="translate(956 376)" fill="#fff" font-size="40" font-family="Monaco"><tspan x="0" y="0">-</tspan></text>
        <text id="a" transform="translate(864 376)" fill="#fff" font-size="40" font-family="Monaco"><tspan x="0" y="0">a</tspan></text>
        <rect id="Rectangle_7-3" data-name="Rectangle 7" width="84" height="81" transform="translate(1020 320)" fill="#ff7791"/>
        <rect id="Rectangle_8-2" data-name="Rectangle 8" width="84" height="81" transform="translate(1107 320)" fill="#e6dfdf"/>
        <text id="_2" data-name="+" transform="translate(1137 376)" fill="#fff" font-size="40" font-family="Monaco"><tspan x="0" y="0">+</tspan></text>
        <text id="_3" data-name="⁴²" transform="translate(1038 376)" fill="#fff" font-size="40" font-family="Monaco"><tspan x="0" y="0">⁴²</tspan></text>
        <rect id="Rectangle_3-3" data-name="Rectangle 3" width="84" height="81" transform="translate(1199 320)" fill="#25c2d0"/>
        <rect id="Rectangle_4-4" data-name="Rectangle 4" width="84" height="81" transform="translate(1288 320)" fill="#d1d1d1"/>
        <text id="_--5" data-name="-" transform="translate(1318 376)" fill="#fff" font-size="40" font-family="Monaco"><tspan x="0" y="0">-</tspan></text>
        <text id="n̥-2" data-name="n̥" transform="translate(1230 375)" fill="#fff" font-size="40" font-family="HelveticaNeue, Helvetica Neue"><tspan x="0" y="0">n̥</tspan></text>
        <rect id="Rectangle_5-4" data-name="Rectangle 5" width="84" height="81" transform="translate(1377 320)" fill="#f70000"/>
        <rect id="Rectangle_6-4" data-name="Rectangle 6" width="84" height="81" transform="translate(1469 320)" fill="#25c2d0"/>
        <text id="ŋ" transform="translate(1499 376)" fill="#fff" font-size="40" font-family="Monaco"><tspan x="0" y="0">ŋ</tspan></text>
        <text id="a-2" data-name="a" transform="translate(1407 376)" fill="#fff" font-size="40" font-family="Monaco"><tspan x="0" y="0">a</tspan></text>
        <rect id="Rectangle_7-4" data-name="Rectangle 7" width="84" height="81" transform="translate(1559 320)" fill="#ff7791"/>
        <text id="_4" data-name="³³" transform="translate(1577 376)" fill="#fff" font-size="40" font-family="Monaco"><tspan x="0" y="0">³³</tspan></text>
      </g>
      <g id="Group_24" data-name="Group 24" transform="translate(0 -1)">
        <rect id="Rectangle_3-4" data-name="Rectangle 3" width="84" height="81" transform="translate(655 420)" fill="#a2ef56"/>
        <rect id="Rectangle_4-5" data-name="Rectangle 4" width="84" height="81" transform="translate(744 420)" fill="#d1d1d1"/>
        <text id="_--6" data-name="-" transform="translate(774 476)" fill="#fff" font-size="40" font-family="Monaco"><tspan x="0" y="0">-</tspan></text>
        <text id="ʔ" transform="translate(686 475)" fill="#fff" font-size="40" font-family="HelveticaNeue, Helvetica Neue"><tspan x="0" y="0">ʔ</tspan></text>
        <rect id="Rectangle_5-5" data-name="Rectangle 5" width="84" height="81" transform="translate(834 420)" fill="#f70000"/>
        <rect id="Rectangle_6-5" data-name="Rectangle 6" width="84" height="81" transform="translate(926 420)" fill="#d1d1d1"/>
        <text id="_--7" data-name="-" transform="translate(956 476)" fill="#fff" font-size="40" font-family="Monaco"><tspan x="0" y="0">-</tspan></text>
        <text id="a-3" data-name="a" transform="translate(864 476)" fill="#fff" font-size="40" font-family="Monaco"><tspan x="0" y="0">a</tspan></text>
        <rect id="Rectangle_7-5" data-name="Rectangle 7" width="84" height="81" transform="translate(1020 420)" fill="#ff7791"/>
        <rect id="Rectangle_8-3" data-name="Rectangle 8" width="84" height="81" transform="translate(1107 420)" fill="#e6dfdf"/>
        <text id="_5" data-name="+" transform="translate(1137 476)" fill="#fff" font-size="40" font-family="Monaco"><tspan x="0" y="0">+</tspan></text>
        <text id="_6" data-name="⁵³" transform="translate(1038 476)" fill="#fff" font-size="40" font-family="Monaco"><tspan x="0" y="0">⁵³</tspan></text>
        <rect id="Rectangle_3-5" data-name="Rectangle 3" width="84" height="81" transform="translate(1199 420)" fill="#25c2d0"/>
        <rect id="Rectangle_4-6" data-name="Rectangle 4" width="84" height="81" transform="translate(1288 420)" fill="#d1d1d1"/>
        <text id="_--8" data-name="-" transform="translate(1318 476)" fill="#fff" font-size="40" font-family="Monaco"><tspan x="0" y="0">-</tspan></text>
        <text id="n" transform="translate(1230 475)" fill="#fff" font-size="40" font-family="HelveticaNeue, Helvetica Neue"><tspan x="0" y="0">n</tspan></text>
        <rect id="Rectangle_5-6" data-name="Rectangle 5" width="84" height="81" transform="translate(1377 420)" fill="#f70000"/>
        <rect id="Rectangle_6-6" data-name="Rectangle 6" width="84" height="81" transform="translate(1469 420)" fill="#d1d1d1"/>
        <text id="_--9" data-name="-" transform="translate(1499 476)" fill="#fff" font-size="40" font-family="Monaco"><tspan x="0" y="0">-</tspan></text>
        <text id="ai" transform="translate(1395 476)" fill="#fff" font-size="40" font-family="Monaco"><tspan x="0" y="0">ai</tspan></text>
        <rect id="Rectangle_7-6" data-name="Rectangle 7" width="84" height="81" transform="translate(1559 420)" fill="#ff7791"/>
        <text id="_7" data-name="⁴⁴" transform="translate(1577 476)" fill="#fff" font-size="40" font-family="Monaco"><tspan x="0" y="0">⁴⁴</tspan></text>
        <g id="Rectangle_1-5" data-name="Rectangle 1" transform="translate(17 420)" fill="#fff" stroke="#707070" stroke-width="1">
          <rect width="246" height="81" stroke="none"/>
          <rect x="0.5" y="0.5" width="245" height="80" fill="none"/>
        </g>
        <text id="Zao_Min" data-name="Zao Min" transform="translate(86 468)" font-size="30" font-family="HelveticaNeue, Helvetica Neue"><tspan x="0" y="0">Zao Min</tspan></text>
        <g id="Rectangle_1-6" data-name="Rectangle 1" transform="translate(281 420)" fill="#fff" stroke="#707070" stroke-width="1">
          <rect width="357" height="81" stroke="none"/>
          <rect x="0.5" y="0.5" width="356" height="80" fill="none"/>
        </g>
        <text id="ʔ_a_n_ai_" data-name="ʔ a ⁵³ + n ai ⁴⁴" transform="translate(316 472)" font-size="30" font-family="Monaco"><tspan x="0" y="0">ʔ a ⁵³ + n ai ⁴⁴</tspan></text>
      </g>
      <g id="Group_25" data-name="Group 25">
        <rect id="Rectangle_3-6" data-name="Rectangle 3" width="84" height="81" transform="translate(655 521)" fill="#204ad3"/>
        <rect id="Rectangle_4-7" data-name="Rectangle 4" width="84" height="81" transform="translate(744 521)" fill="#d1d1d1"/>
        <text id="_--10" data-name="-" transform="translate(774 577)" fill="#fff" font-size="40" font-family="Monaco"><tspan x="0" y="0">-</tspan></text>
        <text id="l" transform="translate(693 576)" fill="#fff" font-size="40" font-family="HelveticaNeue, Helvetica Neue"><tspan x="0" y="0">l</tspan></text>
        <rect id="Rectangle_5-7" data-name="Rectangle 5" width="84" height="81" transform="translate(834 521)" fill="#f70000"/>
        <rect id="Rectangle_6-7" data-name="Rectangle 6" width="84" height="81" transform="translate(926 521)" fill="#d1d1d1"/>
        <text id="_--11" data-name="-" transform="translate(956 577)" fill="#fff" font-size="40" font-family="Monaco"><tspan x="0" y="0">-</tspan></text>
        <text id="a-4" data-name="a" transform="translate(864 577)" fill="#fff" font-size="40" font-family="Monaco"><tspan x="0" y="0">a</tspan></text>
        <rect id="Rectangle_7-7" data-name="Rectangle 7" width="84" height="81" transform="translate(1020 521)" fill="#ff7791"/>
        <rect id="Rectangle_8-4" data-name="Rectangle 8" width="84" height="81" transform="translate(1107 521)" fill="#e6dfdf"/>
        <text id="_8" data-name="+" transform="translate(1137 577)" fill="#fff" font-size="40" font-family="Monaco"><tspan x="0" y="0">+</tspan></text>
        <text id="_9" data-name="⁰/³" transform="translate(1026 577)" fill="#fff" font-size="40" font-family="Monaco"><tspan x="0" y="0">⁰/³</tspan></text>
        <rect id="Rectangle_3-7" data-name="Rectangle 3" width="84" height="81" transform="translate(1199 521)" fill="#25c2d0"/>
        <rect id="Rectangle_4-8" data-name="Rectangle 4" width="84" height="81" transform="translate(1288 521)" fill="#d1d1d1"/>
        <text id="_--12" data-name="-" transform="translate(1318 577)" fill="#fff" font-size="40" font-family="Monaco"><tspan x="0" y="0">-</tspan></text>
        <text id="n̥-3" data-name="n̥" transform="translate(1230 576)" fill="#fff" font-size="40" font-family="HelveticaNeue, Helvetica Neue"><tspan x="0" y="0">n̥</tspan></text>
        <rect id="Rectangle_5-8" data-name="Rectangle 5" width="84" height="81" transform="translate(1377 521)" fill="#f70000"/>
        <path id="Path_2" data-name="Path 2" d="M0,0H84V81H0Z" transform="translate(1469 521)" fill="#d1d1d1"/>
        <text id="_--13" data-name="-" transform="translate(1499 577)" fill="#fff" font-size="40" font-family="Monaco"><tspan x="0" y="0">-</tspan></text>
        <text id="e" transform="translate(1407 577)" fill="#fff" font-size="40" font-family="Monaco"><tspan x="0" y="0">e</tspan></text>
        <rect id="Rectangle_7-8" data-name="Rectangle 7" width="84" height="81" transform="translate(1559 521)" fill="#ff7791"/>
        <text id="_10" data-name="³⁵" transform="translate(1577 577)" fill="#fff" font-size="40" font-family="Monaco"><tspan x="0" y="0">³⁵</tspan></text>
        <g id="Rectangle_1-7" data-name="Rectangle 1" transform="translate(17 521)" fill="#fff" stroke="#707070" stroke-width="1">
          <rect width="246" height="81" stroke="none"/>
          <rect x="0.5" y="0.5" width="245" height="80" fill="none"/>
        </g>
        <text id="Baheng_Eastern" data-name="Baheng, Eastern" transform="translate(29 569)" font-size="30" font-family="HelveticaNeue, Helvetica Neue"><tspan x="0" y="0">Baheng, Eastern</tspan></text>
        <g id="Rectangle_1-8" data-name="Rectangle 1" transform="translate(281 521)" fill="#fff" stroke="#707070" stroke-width="1">
          <rect width="357" height="81" stroke="none"/>
          <rect x="0.5" y="0.5" width="356" height="80" fill="none"/>
        </g>
        <text id="l_a_n̥_e_" data-name="l a ⁰/³ + n̥ e ³⁵" transform="translate(316 571)" font-size="30" font-family="Monaco"><tspan x="0" y="0">l a ⁰/³ + n̥ e ³⁵</tspan></text>
      </g>
    </g>
  </g>
</svg>
