<svg xmlns="http://www.w3.org/2000/svg" xmlns:xlink="http://www.w3.org/1999/xlink" width="1303" height="531" viewBox="0 0 1303 531">
  <defs>
    <clipPath id="clip-Figure-alignment_new">
      <rect width="1303" height="531"/>
    </clipPath>
  </defs>
  <g id="Figure-alignment_new" data-name="Figure-alignment new" clip-path="url(#clip-Figure-alignment_new)">
    <rect width="1303" height="531" fill="#fff"/>
    <g id="Group_19" data-name="Group 19" transform="translate(0 -20)">
      <g id="Group_17" data-name="Group 17" transform="translate(-5 62)">
        <g id="Group_16" data-name="Group 16" transform="translate(0 -10)">
          <g id="Rectangle_2" data-name="Rectangle 2" transform="translate(942 30)" fill="#fff" stroke="#000" stroke-width="2">
            <rect width="354" height="81" stroke="none"/>
            <rect x="1" y="1" width="352" height="79" fill="none"/>
          </g>
          <text id="ALIGNMENT" transform="translate(1032 81)" fill="#020202" font-size="30" font-family="HelveticaNeue, Helvetica Neue"><tspan x="0" y="0">ALIGNMENT</tspan></text>
          <g id="Group_11" data-name="Group 11" transform="translate(-53 -1)">
            <g id="Rectangle_1" data-name="Rectangle 1" transform="translate(71 31)" fill="#fff" stroke="#000" stroke-width="2">
              <rect width="246" height="81" stroke="none"/>
              <rect x="1" y="1" width="244" height="79" fill="none"/>
            </g>
            <text id="DOCULECT" transform="translate(114 79)" fill="#020202" font-size="30" font-family="HelveticaNeue, Helvetica Neue"><tspan x="0" y="0">DOCULECT</tspan></text>
          </g>
          <g id="Rectangle_1-2" data-name="Rectangle 1" transform="translate(299 30)" fill="#fff" stroke="#000" stroke-width="2">
            <rect width="357" height="81" stroke="none"/>
            <rect x="1" y="1" width="355" height="79" fill="none"/>
          </g>
          <text id="TOKENS" transform="translate(418 82)" fill="#020202" font-size="30" font-family="HelveticaNeue, Helvetica Neue"><tspan x="0" y="0">TOKENS</tspan></text>
          <text id="COGIDS" transform="translate(724 82)" fill="#020202" font-size="30" font-family="HelveticaNeue, Helvetica Neue"><tspan x="0" y="0">COGIDS</tspan></text>
          <g id="Rectangle_1-3" data-name="Rectangle 1" transform="translate(692 30)" fill="#fff" stroke="#000" stroke-width="2">
            <rect width="181" height="81" stroke="none"/>
            <rect x="1" y="1" width="179" height="79" fill="none"/>
          </g>
          <text id="COGIDS-2" data-name="COGIDS" transform="translate(725 82)" fill="#020202" font-size="30" font-family="HelveticaNeue, Helvetica Neue"><tspan x="0" y="0">COGIDS</tspan></text>
        </g>
        <g id="Group_15" data-name="Group 15" transform="translate(0 -17)">
          <path id="Path_1" data-name="Path 1" d="M0,0H84V81H0Z" transform="translate(942 132)" fill="#25c2d0"/>
          <text id="n̥" transform="translate(973 188)" fill="#fff" font-size="40" font-family="CharisSIL, Charis SIL"><tspan x="0" y="0">n̥</tspan></text>
          <rect id="Rectangle_6" data-name="Rectangle 6" width="84" height="81" transform="translate(1122 132)" fill="#d1d1d1"/>
          <text id="_-" data-name="-" transform="translate(1158 188)" fill="#fff" font-size="40" font-family="CharisSIL, Charis SIL"><tspan x="0" y="0">-</tspan></text>
          <rect id="Rectangle_5" data-name="Rectangle 5" width="84" height="81" transform="translate(1032 132)" fill="#f70000"/>
          <text id="o" transform="translate(1063 188)" fill="#fff" font-size="40" font-family="CharisSIL, Charis SIL"><tspan x="0" y="0">o</tspan></text>
          <rect id="Rectangle_7" data-name="Rectangle 7" width="84" height="81" transform="translate(1212 132)" fill="#ff7791"/>
          <text id="_" data-name="⁴³" transform="translate(1240 188)" fill="#fff" font-size="40" font-family="CharisSIL, Charis SIL"><tspan x="0" y="0">⁴³</tspan></text>
          <g id="Rectangle_1-4" data-name="Rectangle 1" transform="translate(18 132)" fill="#fff" stroke="#000" stroke-width="1">
            <rect width="246" height="81" stroke="none"/>
            <rect x="0.5" y="0.5" width="245" height="80" fill="none"/>
          </g>
          <text id="Chuanqiandian" transform="translate(40 184)" font-size="30" font-family="HelveticaNeue, Helvetica Neue"><tspan x="0" y="0">Chuanqiandian</tspan></text>
          <g id="Path_4" data-name="Path 4" transform="translate(299 132)" fill="#fff">
            <path d="M 356.5 80.5 L 0.5 80.5 L 0.5 0.5 L 356.5 0.5 L 356.5 80.5 Z" stroke="none"/>
            <path d="M 1 1 L 1 80 L 356 80 L 356 1 L 1 1 M 0 0 L 357 0 L 357 81 L 0 81 L 0 0 Z" stroke="none"/>
          </g>
          <text id="n̥_o_" data-name="n̥ o ⁴³" transform="translate(439 185)" fill="#f70000" font-size="32" font-family="CharisSIL, Charis SIL"><tspan x="0" y="0">n̥ o ⁴³</tspan></text>
          <g id="Group_2" data-name="Group 2" transform="translate(-254 11)">
            <g id="Rectangle_1-5" data-name="Rectangle 1" transform="translate(945 121)" fill="#fff" stroke="#000" stroke-width="1">
              <rect width="181" height="81" stroke="none"/>
              <rect x="0.5" y="0.5" width="180" height="80" fill="none"/>
            </g>
          </g>
          <g id="Group_4" data-name="Group 4" transform="translate(-460.295 10.705)" style="isolation: isolate">
            <g id="Path_3" data-name="Path 3" transform="translate(1175.295 137.295)" fill="#fff">
              <path d="M 25 49.5 C 21.69230079650879 49.5 18.48381042480469 48.85229110717773 15.46364974975586 47.57487106323242 C 12.54625988006592 46.3409309387207 9.926079750061035 44.57432174682617 7.675879955291748 42.32411956787109 C 5.425680160522461 40.07392120361328 3.659070014953613 37.45373916625977 2.425129890441895 34.53635025024414 C 1.147709965705872 31.51618957519531 0.5 28.30769920349121 0.5 25 C 0.5 21.69230079650879 1.147709965705872 18.48381042480469 2.425129890441895 15.46364974975586 C 3.659070014953613 12.5462703704834 5.425680160522461 9.926090240478516 7.675879955291748 7.67588996887207 C 9.926079750061035 5.425690174102783 12.54625988006592 3.659080028533936 15.46364974975586 2.425129890441895 C 18.48381042480469 1.147709965705872 21.69230079650879 0.5 25 0.5 C 28.30769920349121 0.5 31.51618957519531 1.147709965705872 34.53635025024414 2.425129890441895 C 37.45373916625977 3.659080028533936 40.07392120361328 5.425690174102783 42.32411956787109 7.67588996887207 C 44.57432174682617 9.926090240478516 46.3409309387207 12.5462703704834 47.57487106323242 15.46364974975586 C 48.85229110717773 18.48381042480469 49.5 21.69230079650879 49.5 25 C 49.5 28.30769920349121 48.85229110717773 31.51618957519531 47.57487106323242 34.53635025024414 C 46.3409309387207 37.45373916625977 44.57432174682617 40.07392120361328 42.32411956787109 42.32411956787109 C 40.07392120361328 44.57432174682617 37.45373916625977 46.3409309387207 34.53635025024414 47.57487106323242 C 31.51618957519531 48.85229110717773 28.30769920349121 49.5 25 49.5 Z" stroke="none"/>
              <path d="M 25 1 C 21.75958061218262 1 18.61661911010742 1.634418487548828 15.65842056274414 2.885631561279297 C 12.80064010620117 4.094371795654297 10.23387908935547 5.825000762939453 8.029441833496094 8.029441833496094 C 5.825000762939453 10.23387908935547 4.094371795654297 12.80064010620117 2.885631561279297 15.65842819213867 C 1.634418487548828 18.61661911010742 1 21.75958061218262 1 25 C 1 28.24041938781738 1.634418487548828 31.38338088989258 2.885631561279297 34.34157943725586 C 4.094371795654297 37.19935989379883 5.825000762939453 39.76612091064453 8.029441833496094 41.97055816650391 C 10.23387908935547 44.17499923706055 12.80064010620117 45.90563201904297 15.65842056274414 47.1143684387207 C 18.61661911010742 48.36558151245117 21.75958061218262 49 25 49 C 28.24041938781738 49 31.38338088989258 48.36558151245117 34.34157943725586 47.1143684387207 C 37.19935989379883 45.90563201904297 39.76612091064453 44.17499923706055 41.97055816650391 41.97055816650391 C 44.17499923706055 39.76612091064453 45.90563201904297 37.19935989379883 47.1143684387207 34.34157943725586 C 48.36558151245117 31.38338088989258 49 28.24041938781738 49 25 C 49 21.75958061218262 48.36558151245117 18.61661911010742 47.1143684387207 15.65842819213867 C 45.90563201904297 12.80064010620117 44.17499923706055 10.23387908935547 41.97055816650391 8.029441833496094 C 39.76612091064453 5.825000762939453 37.19935989379883 4.094371795654297 34.34157943725586 2.885631561279297 C 31.38338088989258 1.634418487548828 28.24041938781738 1 25 1 M 25 0 C 38.80712127685547 0 50 11.19289016723633 50 25 C 50 38.80712127685547 38.80712127685547 50 25 50 C 11.19287872314453 50 0 38.80712127685547 0 25 C 0 11.19289016723633 11.19287872314453 0 25 0 Z" stroke="none" fill="#101010"/>
            </g>
            <text id="_1" data-name="1" transform="translate(1192 173)" fill="#fc4a2a" font-size="30" font-family="HelveticaNeue, Helvetica Neue"><tspan x="0" y="0">1</tspan></text>
          </g>
        </g>
        <rect id="Rectangle_3" data-name="Rectangle 3" width="84" height="81" transform="translate(942 301)" fill="#25c2d0"/>
        <text id="n" transform="translate(973 357)" fill="#fff" font-size="40" font-family="CharisSIL, Charis SIL"><tspan x="0" y="0">n</tspan></text>
        <rect id="Rectangle_6-2" data-name="Rectangle 6" width="84" height="81" transform="translate(1122 301)" fill="#d1d1d1"/>
        <text id="_--2" data-name="-" transform="translate(1158 357)" fill="#fff" font-size="40" font-family="CharisSIL, Charis SIL"><tspan x="0" y="0">-</tspan></text>
        <rect id="Rectangle_5-2" data-name="Rectangle 5" width="84" height="81" transform="translate(1032 301)" fill="#f70000"/>
        <text id="ai" transform="translate(1058 357)" fill="#fff" font-size="40" font-family="CharisSIL, Charis SIL"><tspan x="0" y="0">ai</tspan></text>
        <rect id="Rectangle_7-2" data-name="Rectangle 7" width="84" height="81" transform="translate(1212 301)" fill="#ff7791"/>
        <text id="_2" data-name="⁴⁴" transform="translate(1240 357)" fill="#fff" font-size="40" font-family="CharisSIL, Charis SIL"><tspan x="0" y="0">⁴⁴</tspan></text>
        <g id="Rectangle_1-6" data-name="Rectangle 1" transform="translate(18 301)" fill="#fff" stroke="#000" stroke-width="1">
          <rect width="246" height="81" stroke="none"/>
          <rect x="0.5" y="0.5" width="245" height="80" fill="none"/>
        </g>
        <text id="ZaoMin" transform="translate(91 353)" font-size="30" font-family="HelveticaNeue, Helvetica Neue"><tspan x="0" y="0">ZaoMin</tspan></text>
        <g id="Rectangle_1-7" data-name="Rectangle 1" transform="translate(299 301)" fill="#fff" stroke="#000" stroke-width="1">
          <rect width="357" height="81" stroke="none"/>
          <rect x="0.5" y="0.5" width="356" height="80" fill="none"/>
        </g>
        <text id="ʔ_a_n_ai_" data-name="ʔ a ⁵³ + n ai ⁴⁴" transform="translate(373 353)" fill="#f70000" font-size="32" font-family="CharisSIL, Charis SIL"><tspan x="0" y="0" fill="#000">ʔ a ⁵³ +</tspan><tspan y="0" xml:space="preserve" fill="#f70000"> n ai ⁴⁴</tspan></text>
        <g id="Group_2-2" data-name="Group 2" transform="translate(-254 180)">
          <g id="Rectangle_1-8" data-name="Rectangle 1" transform="translate(945 121)" fill="#fff" stroke="#707070" stroke-width="1">
            <rect width="181" height="81" stroke="none"/>
            <rect x="0.5" y="0.5" width="180" height="80" fill="none"/>
          </g>
        </g>
        <g id="Group_4-2" data-name="Group 4" transform="translate(-460.295 178.705)">
          <g id="Path_3-2" data-name="Path 3" transform="translate(1175.295 137.295)" fill="#fff">
            <path d="M 25 49.5 C 21.69230079650879 49.5 18.48381042480469 48.85229110717773 15.46364974975586 47.57487106323242 C 12.54625988006592 46.3409309387207 9.926079750061035 44.57432174682617 7.675879955291748 42.32411956787109 C 5.425680160522461 40.07392120361328 3.659070014953613 37.45373916625977 2.425129890441895 34.53635025024414 C 1.147709965705872 31.51618957519531 0.5 28.30769920349121 0.5 25 C 0.5 21.69230079650879 1.147709965705872 18.48381042480469 2.425129890441895 15.46364974975586 C 3.659070014953613 12.5462703704834 5.425680160522461 9.926090240478516 7.675879955291748 7.67588996887207 C 9.926079750061035 5.425690174102783 12.54625988006592 3.659080028533936 15.46364974975586 2.425129890441895 C 18.48381042480469 1.147709965705872 21.69230079650879 0.5 25 0.5 C 28.30769920349121 0.5 31.51618957519531 1.147709965705872 34.53635025024414 2.425129890441895 C 37.45373916625977 3.659080028533936 40.07392120361328 5.425690174102783 42.32411956787109 7.67588996887207 C 44.57432174682617 9.926090240478516 46.3409309387207 12.5462703704834 47.57487106323242 15.46364974975586 C 48.85229110717773 18.48381042480469 49.5 21.69230079650879 49.5 25 C 49.5 28.30769920349121 48.85229110717773 31.51618957519531 47.57487106323242 34.53635025024414 C 46.3409309387207 37.45373916625977 44.57432174682617 40.07392120361328 42.32411956787109 42.32411956787109 C 40.07392120361328 44.57432174682617 37.45373916625977 46.3409309387207 34.53635025024414 47.57487106323242 C 31.51618957519531 48.85229110717773 28.30769920349121 49.5 25 49.5 Z" stroke="none"/>
            <path d="M 25 1 C 21.75958061218262 1 18.61661911010742 1.634418487548828 15.65842056274414 2.885631561279297 C 12.80064010620117 4.094371795654297 10.23387908935547 5.825000762939453 8.029441833496094 8.029441833496094 C 5.825000762939453 10.23387908935547 4.094371795654297 12.80064010620117 2.885631561279297 15.65842819213867 C 1.634418487548828 18.61661911010742 1 21.75958061218262 1 25 C 1 28.24041938781738 1.634418487548828 31.38338088989258 2.885631561279297 34.34157943725586 C 4.094371795654297 37.19935989379883 5.825000762939453 39.76612091064453 8.029441833496094 41.97055816650391 C 10.23387908935547 44.17499923706055 12.80064010620117 45.90563201904297 15.65842056274414 47.1143684387207 C 18.61661911010742 48.36558151245117 21.75958061218262 49 25 49 C 28.24041938781738 49 31.38338088989258 48.36558151245117 34.34157943725586 47.1143684387207 C 37.19935989379883 45.90563201904297 39.76612091064453 44.17499923706055 41.97055816650391 41.97055816650391 C 44.17499923706055 39.76612091064453 45.90563201904297 37.19935989379883 47.1143684387207 34.34157943725586 C 48.36558151245117 31.38338088989258 49 28.24041938781738 49 25 C 49 21.75958061218262 48.36558151245117 18.61661911010742 47.1143684387207 15.65842819213867 C 45.90563201904297 12.80064010620117 44.17499923706055 10.23387908935547 41.97055816650391 8.029441833496094 C 39.76612091064453 5.825000762939453 37.19935989379883 4.094371795654297 34.34157943725586 2.885631561279297 C 31.38338088989258 1.634418487548828 28.24041938781738 1 25 1 M 25 0 C 38.80712127685547 0 50 11.19289016723633 50 25 C 50 38.80712127685547 38.80712127685547 50 25 50 C 11.19287872314453 50 0 38.80712127685547 0 25 C 0 11.19289016723633 11.19287872314453 0 25 0 Z" stroke="none" fill="#101010"/>
          </g>
          <text id="_3" data-name="3" transform="translate(1192 173)" fill="#020202" font-size="30" font-family="HelveticaNeue, Helvetica Neue"><tspan x="0" y="0">3</tspan></text>
        </g>
        <g id="Group_7" data-name="Group 7" transform="translate(-377.295 178.705)" style="isolation: isolate">
          <g id="Path_3-3" data-name="Path 3" transform="translate(1175.295 137.295)" fill="#fff">
            <path d="M 25 49.5 C 21.69230079650879 49.5 18.48381042480469 48.85229110717773 15.46364974975586 47.57487106323242 C 12.54625988006592 46.3409309387207 9.926079750061035 44.57432174682617 7.675879955291748 42.32411956787109 C 5.425680160522461 40.07392120361328 3.659070014953613 37.45373916625977 2.425129890441895 34.53635025024414 C 1.147709965705872 31.51618957519531 0.5 28.30769920349121 0.5 25 C 0.5 21.69230079650879 1.147709965705872 18.48381042480469 2.425129890441895 15.46364974975586 C 3.659070014953613 12.5462703704834 5.425680160522461 9.926090240478516 7.675879955291748 7.67588996887207 C 9.926079750061035 5.425690174102783 12.54625988006592 3.659080028533936 15.46364974975586 2.425129890441895 C 18.48381042480469 1.147709965705872 21.69230079650879 0.5 25 0.5 C 28.30769920349121 0.5 31.51618957519531 1.147709965705872 34.53635025024414 2.425129890441895 C 37.45373916625977 3.659080028533936 40.07392120361328 5.425690174102783 42.32411956787109 7.67588996887207 C 44.57432174682617 9.926090240478516 46.3409309387207 12.5462703704834 47.57487106323242 15.46364974975586 C 48.85229110717773 18.48381042480469 49.5 21.69230079650879 49.5 25 C 49.5 28.30769920349121 48.85229110717773 31.51618957519531 47.57487106323242 34.53635025024414 C 46.3409309387207 37.45373916625977 44.57432174682617 40.07392120361328 42.32411956787109 42.32411956787109 C 40.07392120361328 44.57432174682617 37.45373916625977 46.3409309387207 34.53635025024414 47.57487106323242 C 31.51618957519531 48.85229110717773 28.30769920349121 49.5 25 49.5 Z" stroke="none"/>
            <path d="M 25 1 C 21.75958061218262 1 18.61661911010742 1.634418487548828 15.65842056274414 2.885631561279297 C 12.80064010620117 4.094371795654297 10.23387908935547 5.825000762939453 8.029441833496094 8.029441833496094 C 5.825000762939453 10.23387908935547 4.094371795654297 12.80064010620117 2.885631561279297 15.65842819213867 C 1.634418487548828 18.61661911010742 1 21.75958061218262 1 25 C 1 28.24041938781738 1.634418487548828 31.38338088989258 2.885631561279297 34.34157943725586 C 4.094371795654297 37.19935989379883 5.825000762939453 39.76612091064453 8.029441833496094 41.97055816650391 C 10.23387908935547 44.17499923706055 12.80064010620117 45.90563201904297 15.65842056274414 47.1143684387207 C 18.61661911010742 48.36558151245117 21.75958061218262 49 25 49 C 28.24041938781738 49 31.38338088989258 48.36558151245117 34.34157943725586 47.1143684387207 C 37.19935989379883 45.90563201904297 39.76612091064453 44.17499923706055 41.97055816650391 41.97055816650391 C 44.17499923706055 39.76612091064453 45.90563201904297 37.19935989379883 47.1143684387207 34.34157943725586 C 48.36558151245117 31.38338088989258 49 28.24041938781738 49 25 C 49 21.75958061218262 48.36558151245117 18.61661911010742 47.1143684387207 15.65842819213867 C 45.90563201904297 12.80064010620117 44.17499923706055 10.23387908935547 41.97055816650391 8.029441833496094 C 39.76612091064453 5.825000762939453 37.19935989379883 4.094371795654297 34.34157943725586 2.885631561279297 C 31.38338088989258 1.634418487548828 28.24041938781738 1 25 1 M 25 0 C 38.80712127685547 0 50 11.19289016723633 50 25 C 50 38.80712127685547 38.80712127685547 50 25 50 C 11.19287872314453 50 0 38.80712127685547 0 25 C 0 11.19289016723633 11.19287872314453 0 25 0 Z" stroke="none" fill="#101010"/>
          </g>
          <text id="_1-2" data-name="1" transform="translate(1192 173)" fill="#fc4a2a" font-size="30" font-family="HelveticaNeue, Helvetica Neue"><tspan x="0" y="0">1</tspan></text>
        </g>
        <rect id="Rectangle_3-2" data-name="Rectangle 3" width="84" height="81" transform="translate(942 208)" fill="#25c2d0"/>
        <text id="n̥-2" data-name="n̥" transform="translate(973 264)" fill="#fff" font-size="40" font-family="CharisSIL, Charis SIL"><tspan x="0" y="0">n̥</tspan></text>
        <rect id="Rectangle_6-3" data-name="Rectangle 6" width="84" height="81" transform="translate(1122 208)" fill="#25c2d0"/>
        <text id="ŋ" transform="translate(1153 264)" fill="#fff" font-size="40" font-family="CharisSIL, Charis SIL"><tspan x="0" y="0">ŋ</tspan></text>
        <rect id="Rectangle_5-3" data-name="Rectangle 5" width="84" height="81" transform="translate(1032 208)" fill="#f70000"/>
        <text id="a" transform="translate(1064 264)" fill="#fff" font-size="40" font-family="CharisSIL, Charis SIL"><tspan x="0" y="0">a</tspan></text>
        <rect id="Rectangle_7-3" data-name="Rectangle 7" width="84" height="81" transform="translate(1212 208)" fill="#ff7791"/>
        <text id="_3-2" data-name="³³" transform="translate(1240 264)" fill="#fff" font-size="40" font-family="CharisSIL, Charis SIL"><tspan x="0" y="0">³³</tspan></text>
        <g id="Rectangle_1-9" data-name="Rectangle 1" transform="translate(18 208)" fill="#fff" stroke="#000" stroke-width="1">
          <rect width="246" height="81" stroke="none"/>
          <rect x="0.5" y="0.5" width="245" height="80" fill="none"/>
        </g>
        <text id="Numao" transform="translate(93 260)" font-size="30" font-family="HelveticaNeue, Helvetica Neue"><tspan x="0" y="0">Numao</tspan></text>
        <g id="Rectangle_1-10" data-name="Rectangle 1" transform="translate(299 208)" fill="#fff" stroke="#000" stroke-width="1">
          <rect width="357" height="81" stroke="none"/>
          <rect x="0.5" y="0.5" width="356" height="80" fill="none"/>
        </g>
        <text id="m_a_n̥_a_ŋ_" data-name="m a ⁴² + n̥ a ŋ ³³" transform="translate(478 260)" fill="#f70000" font-size="32" font-family="CharisSIL, Charis SIL"><tspan x="-120.273" y="0" fill="#000">m a ⁴² + </tspan><tspan y="0" fill="#f70000">n̥ a ŋ ³³</tspan></text>
        <g id="Group_2-3" data-name="Group 2" transform="translate(-254 87)">
          <g id="Rectangle_1-11" data-name="Rectangle 1" transform="translate(945 121)" fill="#fff" stroke="#000" stroke-width="1">
            <rect width="181" height="81" stroke="none"/>
            <rect x="0.5" y="0.5" width="180" height="80" fill="none"/>
          </g>
        </g>
        <g id="Group_5" data-name="Group 5" transform="translate(-377.295 85.705)" style="isolation: isolate">
          <g id="Path_3-4" data-name="Path 3" transform="translate(1175.295 137.295)" fill="#fff">
            <path d="M 25 49.5 C 21.69230079650879 49.5 18.48381042480469 48.85229110717773 15.46364974975586 47.57487106323242 C 12.54625988006592 46.3409309387207 9.926079750061035 44.57432174682617 7.675879955291748 42.32411956787109 C 5.425680160522461 40.07392120361328 3.659070014953613 37.45373916625977 2.425129890441895 34.53635025024414 C 1.147709965705872 31.51618957519531 0.5 28.30769920349121 0.5 25 C 0.5 21.69230079650879 1.147709965705872 18.48381042480469 2.425129890441895 15.46364974975586 C 3.659070014953613 12.5462703704834 5.425680160522461 9.926090240478516 7.675879955291748 7.67588996887207 C 9.926079750061035 5.425690174102783 12.54625988006592 3.659080028533936 15.46364974975586 2.425129890441895 C 18.48381042480469 1.147709965705872 21.69230079650879 0.5 25 0.5 C 28.30769920349121 0.5 31.51618957519531 1.147709965705872 34.53635025024414 2.425129890441895 C 37.45373916625977 3.659080028533936 40.07392120361328 5.425690174102783 42.32411956787109 7.67588996887207 C 44.57432174682617 9.926090240478516 46.3409309387207 12.5462703704834 47.57487106323242 15.46364974975586 C 48.85229110717773 18.48381042480469 49.5 21.69230079650879 49.5 25 C 49.5 28.30769920349121 48.85229110717773 31.51618957519531 47.57487106323242 34.53635025024414 C 46.3409309387207 37.45373916625977 44.57432174682617 40.07392120361328 42.32411956787109 42.32411956787109 C 40.07392120361328 44.57432174682617 37.45373916625977 46.3409309387207 34.53635025024414 47.57487106323242 C 31.51618957519531 48.85229110717773 28.30769920349121 49.5 25 49.5 Z" stroke="none"/>
            <path d="M 25 1 C 21.75958061218262 1 18.61661911010742 1.634418487548828 15.65842056274414 2.885631561279297 C 12.80064010620117 4.094371795654297 10.23387908935547 5.825000762939453 8.029441833496094 8.029441833496094 C 5.825000762939453 10.23387908935547 4.094371795654297 12.80064010620117 2.885631561279297 15.65842819213867 C 1.634418487548828 18.61661911010742 1 21.75958061218262 1 25 C 1 28.24041938781738 1.634418487548828 31.38338088989258 2.885631561279297 34.34157943725586 C 4.094371795654297 37.19935989379883 5.825000762939453 39.76612091064453 8.029441833496094 41.97055816650391 C 10.23387908935547 44.17499923706055 12.80064010620117 45.90563201904297 15.65842056274414 47.1143684387207 C 18.61661911010742 48.36558151245117 21.75958061218262 49 25 49 C 28.24041938781738 49 31.38338088989258 48.36558151245117 34.34157943725586 47.1143684387207 C 37.19935989379883 45.90563201904297 39.76612091064453 44.17499923706055 41.97055816650391 41.97055816650391 C 44.17499923706055 39.76612091064453 45.90563201904297 37.19935989379883 47.1143684387207 34.34157943725586 C 48.36558151245117 31.38338088989258 49 28.24041938781738 49 25 C 49 21.75958061218262 48.36558151245117 18.61661911010742 47.1143684387207 15.65842819213867 C 45.90563201904297 12.80064010620117 44.17499923706055 10.23387908935547 41.97055816650391 8.029441833496094 C 39.76612091064453 5.825000762939453 37.19935989379883 4.094371795654297 34.34157943725586 2.885631561279297 C 31.38338088989258 1.634418487548828 28.24041938781738 1 25 1 M 25 0 C 38.80712127685547 0 50 11.19289016723633 50 25 C 50 38.80712127685547 38.80712127685547 50 25 50 C 11.19287872314453 50 0 38.80712127685547 0 25 C 0 11.19289016723633 11.19287872314453 0 25 0 Z" stroke="none" fill="#101010"/>
          </g>
          <text id="_1-3" data-name="1" transform="translate(1192 173)" fill="#fc4a2a" font-size="30" font-family="HelveticaNeue, Helvetica Neue"><tspan x="0" y="0">1</tspan></text>
        </g>
        <g id="Group_6" data-name="Group 6" transform="translate(-460.295 85.705)" style="isolation: isolate">
          <g id="Path_3-5" data-name="Path 3" transform="translate(1175.295 137.295)" fill="#fff">
            <path d="M 25 49.5 C 21.69230079650879 49.5 18.48381042480469 48.85229110717773 15.46364974975586 47.57487106323242 C 12.54625988006592 46.3409309387207 9.926079750061035 44.57432174682617 7.675879955291748 42.32411956787109 C 5.425680160522461 40.07392120361328 3.659070014953613 37.45373916625977 2.425129890441895 34.53635025024414 C 1.147709965705872 31.51618957519531 0.5 28.30769920349121 0.5 25 C 0.5 21.69230079650879 1.147709965705872 18.48381042480469 2.425129890441895 15.46364974975586 C 3.659070014953613 12.5462703704834 5.425680160522461 9.926090240478516 7.675879955291748 7.67588996887207 C 9.926079750061035 5.425690174102783 12.54625988006592 3.659080028533936 15.46364974975586 2.425129890441895 C 18.48381042480469 1.147709965705872 21.69230079650879 0.5 25 0.5 C 28.30769920349121 0.5 31.51618957519531 1.147709965705872 34.53635025024414 2.425129890441895 C 37.45373916625977 3.659080028533936 40.07392120361328 5.425690174102783 42.32411956787109 7.67588996887207 C 44.57432174682617 9.926090240478516 46.3409309387207 12.5462703704834 47.57487106323242 15.46364974975586 C 48.85229110717773 18.48381042480469 49.5 21.69230079650879 49.5 25 C 49.5 28.30769920349121 48.85229110717773 31.51618957519531 47.57487106323242 34.53635025024414 C 46.3409309387207 37.45373916625977 44.57432174682617 40.07392120361328 42.32411956787109 42.32411956787109 C 40.07392120361328 44.57432174682617 37.45373916625977 46.3409309387207 34.53635025024414 47.57487106323242 C 31.51618957519531 48.85229110717773 28.30769920349121 49.5 25 49.5 Z" stroke="none"/>
            <path d="M 25 1 C 21.75958061218262 1 18.61661911010742 1.634418487548828 15.65842056274414 2.885631561279297 C 12.80064010620117 4.094371795654297 10.23387908935547 5.825000762939453 8.029441833496094 8.029441833496094 C 5.825000762939453 10.23387908935547 4.094371795654297 12.80064010620117 2.885631561279297 15.65842819213867 C 1.634418487548828 18.61661911010742 1 21.75958061218262 1 25 C 1 28.24041938781738 1.634418487548828 31.38338088989258 2.885631561279297 34.34157943725586 C 4.094371795654297 37.19935989379883 5.825000762939453 39.76612091064453 8.029441833496094 41.97055816650391 C 10.23387908935547 44.17499923706055 12.80064010620117 45.90563201904297 15.65842056274414 47.1143684387207 C 18.61661911010742 48.36558151245117 21.75958061218262 49 25 49 C 28.24041938781738 49 31.38338088989258 48.36558151245117 34.34157943725586 47.1143684387207 C 37.19935989379883 45.90563201904297 39.76612091064453 44.17499923706055 41.97055816650391 41.97055816650391 C 44.17499923706055 39.76612091064453 45.90563201904297 37.19935989379883 47.1143684387207 34.34157943725586 C 48.36558151245117 31.38338088989258 49 28.24041938781738 49 25 C 49 21.75958061218262 48.36558151245117 18.61661911010742 47.1143684387207 15.65842819213867 C 45.90563201904297 12.80064010620117 44.17499923706055 10.23387908935547 41.97055816650391 8.029441833496094 C 39.76612091064453 5.825000762939453 37.19935989379883 4.094371795654297 34.34157943725586 2.885631561279297 C 31.38338088989258 1.634418487548828 28.24041938781738 1 25 1 M 25 0 C 38.80712127685547 0 50 11.19289016723633 50 25 C 50 38.80712127685547 38.80712127685547 50 25 50 C 11.19287872314453 50 0 38.80712127685547 0 25 C 0 11.19289016723633 11.19287872314453 0 25 0 Z" stroke="none" fill="#101010"/>
          </g>
          <text id="_2-2" data-name="2" transform="translate(1192 173)" font-size="30" font-family="HelveticaNeue, Helvetica Neue"><tspan x="0" y="0">2</tspan></text>
        </g>
        <rect id="Rectangle_3-3" data-name="Rectangle 3" width="84" height="81" transform="translate(942 394)" fill="#25c2d0"/>
        <text id="n̥-3" data-name="n̥" transform="translate(973 450)" fill="#fff" font-size="40" font-family="CharisSIL, Charis SIL"><tspan x="0" y="0">n̥</tspan></text>
        <path id="Path_2" data-name="Path 2" d="M0,0H84V81H0Z" transform="translate(1122 394)" fill="#d1d1d1"/>
        <text id="_--3" data-name="-" transform="translate(1158 450)" fill="#fff" font-size="40" font-family="CharisSIL, Charis SIL"><tspan x="0" y="0">-</tspan></text>
        <rect id="Rectangle_5-4" data-name="Rectangle 5" width="84" height="81" transform="translate(1032 394)" fill="#f70000"/>
        <text id="e" transform="translate(1064 450)" fill="#fff" font-size="40" font-family="CharisSIL, Charis SIL"><tspan x="0" y="0">e</tspan></text>
        <rect id="Rectangle_7-4" data-name="Rectangle 7" width="84" height="81" transform="translate(1212 394)" fill="#ff7791"/>
        <text id="_4" data-name="³⁵" transform="translate(1240 450)" fill="#fff" font-size="40" font-family="CharisSIL, Charis SIL"><tspan x="0" y="0">³⁵</tspan></text>
        <g id="Rectangle_1-12" data-name="Rectangle 1" transform="translate(18 394)" fill="#fff" stroke="#000" stroke-width="1">
          <rect width="246" height="81" stroke="none"/>
          <rect x="0.5" y="0.5" width="245" height="80" fill="none"/>
        </g>
        <text id="EasternBaheng" transform="translate(38 446)" font-size="30" font-family="HelveticaNeue, Helvetica Neue"><tspan x="0" y="0">EasternBaheng</tspan></text>
        <g id="Rectangle_1-13" data-name="Rectangle 1" transform="translate(299 394)" fill="#fff" stroke="#000" stroke-width="1">
          <rect width="357" height="81" stroke="none"/>
          <rect x="0.5" y="0.5" width="356" height="80" fill="none"/>
        </g>
        <text id="l_a_n̥_e_" data-name="l a ⁰/³ + n̥ e ³⁵" transform="translate(373 446)" fill="#f70000" font-size="32" font-family="CharisSIL, Charis SIL"><tspan x="0" y="0" fill="#000">l a ⁰/³ + </tspan><tspan y="0" fill="#f70000">n̥ e ³⁵</tspan></text>
        <g id="Group_2-4" data-name="Group 2" transform="translate(-254 273)">
          <g id="Rectangle_1-14" data-name="Rectangle 1" transform="translate(945 121)" fill="#fff" stroke="#000" stroke-width="1">
            <rect width="181" height="81" stroke="none"/>
            <rect x="0.5" y="0.5" width="180" height="80" fill="none"/>
          </g>
        </g>
        <g id="Group_10" data-name="Group 10" transform="translate(-377.295 271.705)" style="isolation: isolate">
          <g id="Path_3-6" data-name="Path 3" transform="translate(1175.295 137.295)" fill="#fff">
            <path d="M 25 49.5 C 21.69230079650879 49.5 18.48381042480469 48.85229110717773 15.46364974975586 47.57487106323242 C 12.54625988006592 46.3409309387207 9.926079750061035 44.57432174682617 7.675879955291748 42.32411956787109 C 5.425680160522461 40.07392120361328 3.659070014953613 37.45373916625977 2.425129890441895 34.53635025024414 C 1.147709965705872 31.51618957519531 0.5 28.30769920349121 0.5 25 C 0.5 21.69230079650879 1.147709965705872 18.48381042480469 2.425129890441895 15.46364974975586 C 3.659070014953613 12.5462703704834 5.425680160522461 9.926090240478516 7.675879955291748 7.67588996887207 C 9.926079750061035 5.425690174102783 12.54625988006592 3.659080028533936 15.46364974975586 2.425129890441895 C 18.48381042480469 1.147709965705872 21.69230079650879 0.5 25 0.5 C 28.30769920349121 0.5 31.51618957519531 1.147709965705872 34.53635025024414 2.425129890441895 C 37.45373916625977 3.659080028533936 40.07392120361328 5.425690174102783 42.32411956787109 7.67588996887207 C 44.57432174682617 9.926090240478516 46.3409309387207 12.5462703704834 47.57487106323242 15.46364974975586 C 48.85229110717773 18.48381042480469 49.5 21.69230079650879 49.5 25 C 49.5 28.30769920349121 48.85229110717773 31.51618957519531 47.57487106323242 34.53635025024414 C 46.3409309387207 37.45373916625977 44.57432174682617 40.07392120361328 42.32411956787109 42.32411956787109 C 40.07392120361328 44.57432174682617 37.45373916625977 46.3409309387207 34.53635025024414 47.57487106323242 C 31.51618957519531 48.85229110717773 28.30769920349121 49.5 25 49.5 Z" stroke="none"/>
            <path d="M 25 1 C 21.75958061218262 1 18.61661911010742 1.634418487548828 15.65842056274414 2.885631561279297 C 12.80064010620117 4.094371795654297 10.23387908935547 5.825000762939453 8.029441833496094 8.029441833496094 C 5.825000762939453 10.23387908935547 4.094371795654297 12.80064010620117 2.885631561279297 15.65842819213867 C 1.634418487548828 18.61661911010742 1 21.75958061218262 1 25 C 1 28.24041938781738 1.634418487548828 31.38338088989258 2.885631561279297 34.34157943725586 C 4.094371795654297 37.19935989379883 5.825000762939453 39.76612091064453 8.029441833496094 41.97055816650391 C 10.23387908935547 44.17499923706055 12.80064010620117 45.90563201904297 15.65842056274414 47.1143684387207 C 18.61661911010742 48.36558151245117 21.75958061218262 49 25 49 C 28.24041938781738 49 31.38338088989258 48.36558151245117 34.34157943725586 47.1143684387207 C 37.19935989379883 45.90563201904297 39.76612091064453 44.17499923706055 41.97055816650391 41.97055816650391 C 44.17499923706055 39.76612091064453 45.90563201904297 37.19935989379883 47.1143684387207 34.34157943725586 C 48.36558151245117 31.38338088989258 49 28.24041938781738 49 25 C 49 21.75958061218262 48.36558151245117 18.61661911010742 47.1143684387207 15.65842819213867 C 45.90563201904297 12.80064010620117 44.17499923706055 10.23387908935547 41.97055816650391 8.029441833496094 C 39.76612091064453 5.825000762939453 37.19935989379883 4.094371795654297 34.34157943725586 2.885631561279297 C 31.38338088989258 1.634418487548828 28.24041938781738 1 25 1 M 25 0 C 38.80712127685547 0 50 11.19289016723633 50 25 C 50 38.80712127685547 38.80712127685547 50 25 50 C 11.19287872314453 50 0 38.80712127685547 0 25 C 0 11.19289016723633 11.19287872314453 0 25 0 Z" stroke="none" fill="#101010"/>
          </g>
          <text id="_1-4" data-name="1" transform="translate(1192 173)" fill="#fc4a2a" font-size="30" font-family="HelveticaNeue, Helvetica Neue"><tspan x="0" y="0">1</tspan></text>
        </g>
        <g id="Group_8" data-name="Group 8" transform="translate(-460.295 271.705)">
          <g id="Path_3-7" data-name="Path 3" transform="translate(1175.295 137.295)" fill="#fff">
            <path d="M 25 49.5 C 21.69230079650879 49.5 18.48381042480469 48.85229110717773 15.46364974975586 47.57487106323242 C 12.54625988006592 46.3409309387207 9.926079750061035 44.57432174682617 7.675879955291748 42.32411956787109 C 5.425680160522461 40.07392120361328 3.659070014953613 37.45373916625977 2.425129890441895 34.53635025024414 C 1.147709965705872 31.51618957519531 0.5 28.30769920349121 0.5 25 C 0.5 21.69230079650879 1.147709965705872 18.48381042480469 2.425129890441895 15.46364974975586 C 3.659070014953613 12.5462703704834 5.425680160522461 9.926090240478516 7.675879955291748 7.67588996887207 C 9.926079750061035 5.425690174102783 12.54625988006592 3.659080028533936 15.46364974975586 2.425129890441895 C 18.48381042480469 1.147709965705872 21.69230079650879 0.5 25 0.5 C 28.30769920349121 0.5 31.51618957519531 1.147709965705872 34.53635025024414 2.425129890441895 C 37.45373916625977 3.659080028533936 40.07392120361328 5.425690174102783 42.32411956787109 7.67588996887207 C 44.57432174682617 9.926090240478516 46.3409309387207 12.5462703704834 47.57487106323242 15.46364974975586 C 48.85229110717773 18.48381042480469 49.5 21.69230079650879 49.5 25 C 49.5 28.30769920349121 48.85229110717773 31.51618957519531 47.57487106323242 34.53635025024414 C 46.3409309387207 37.45373916625977 44.57432174682617 40.07392120361328 42.32411956787109 42.32411956787109 C 40.07392120361328 44.57432174682617 37.45373916625977 46.3409309387207 34.53635025024414 47.57487106323242 C 31.51618957519531 48.85229110717773 28.30769920349121 49.5 25 49.5 Z" stroke="none"/>
            <path d="M 25 1 C 21.75958061218262 1 18.61661911010742 1.634418487548828 15.65842056274414 2.885631561279297 C 12.80064010620117 4.094371795654297 10.23387908935547 5.825000762939453 8.029441833496094 8.029441833496094 C 5.825000762939453 10.23387908935547 4.094371795654297 12.80064010620117 2.885631561279297 15.65842819213867 C 1.634418487548828 18.61661911010742 1 21.75958061218262 1 25 C 1 28.24041938781738 1.634418487548828 31.38338088989258 2.885631561279297 34.34157943725586 C 4.094371795654297 37.19935989379883 5.825000762939453 39.76612091064453 8.029441833496094 41.97055816650391 C 10.23387908935547 44.17499923706055 12.80064010620117 45.90563201904297 15.65842056274414 47.1143684387207 C 18.61661911010742 48.36558151245117 21.75958061218262 49 25 49 C 28.24041938781738 49 31.38338088989258 48.36558151245117 34.34157943725586 47.1143684387207 C 37.19935989379883 45.90563201904297 39.76612091064453 44.17499923706055 41.97055816650391 41.97055816650391 C 44.17499923706055 39.76612091064453 45.90563201904297 37.19935989379883 47.1143684387207 34.34157943725586 C 48.36558151245117 31.38338088989258 49 28.24041938781738 49 25 C 49 21.75958061218262 48.36558151245117 18.61661911010742 47.1143684387207 15.65842819213867 C 45.90563201904297 12.80064010620117 44.17499923706055 10.23387908935547 41.97055816650391 8.029441833496094 C 39.76612091064453 5.825000762939453 37.19935989379883 4.094371795654297 34.34157943725586 2.885631561279297 C 31.38338088989258 1.634418487548828 28.24041938781738 1 25 1 M 25 0 C 38.80712127685547 0 50 11.19289016723633 50 25 C 50 38.80712127685547 38.80712127685547 50 25 50 C 11.19287872314453 50 0 38.80712127685547 0 25 C 0 11.19289016723633 11.19287872314453 0 25 0 Z" stroke="none" fill="#101010"/>
          </g>
          <text id="_4-2" data-name="4" transform="translate(1192 173)" fill="#020202" font-size="30" font-family="HelveticaNeue, Helvetica Neue"><tspan x="0" y="0">4</tspan></text>
        </g>
        <line id="Line_2" data-name="Line 2" y2="455" transform="translate(907.5 20.5)" fill="none" stroke="#000" stroke-width="4"/>
      </g>
      <g id="Group_18" data-name="Group 18" transform="translate(0 20)">
        <text id="_a_" data-name="(a)" transform="translate(13 38)" fill="#020202" font-size="32" font-family="HelveticaNeue, Helvetica Neue"><tspan x="0" y="0">(a)</tspan></text>
        <text id="_b_" data-name="(b)" transform="translate(931 38)" fill="#020202" font-size="32" font-family="HelveticaNeue, Helvetica Neue"><tspan x="0" y="0">(b)</tspan></text>
      </g>
    </g>
  </g>
</svg>
