<svg xmlns="http://www.w3.org/2000/svg" xmlns:xlink="http://www.w3.org/1999/xlink" width="1603" height="559" viewBox="0 0 1603 559">
  <defs>
    <clipPath id="clip-Figure-templatealign_b_">
      <rect width="1603" height="559"/>
    </clipPath>
  </defs>
  <g id="Figure-templatealign_b_" data-name="Figure-templatealign(b) " clip-path="url(#clip-Figure-templatealign_b_)">
    <rect width="1603" height="559" fill="#fff"/>
    <path id="Path_7" data-name="Path 7" d="M5098.953,1937" transform="translate(-4336.705 -1399)" fill="none" stroke="#707070" stroke-width="1"/>
    <g id="Group_38" data-name="Group 38">
      <g id="Group_31" data-name="Group 31" transform="translate(-279 -22)">
        <g id="Rectangle_2" data-name="Rectangle 2" transform="translate(868 39)" fill="#fff" stroke="#000" stroke-width="2">
          <rect width="445" height="150" stroke="none"/>
          <rect x="1" y="1" width="443" height="148" fill="none"/>
        </g>
        <text id="TEMPLATE" transform="translate(1013 84)" fill="#020202" font-size="30" font-family="HelveticaNeue, Helvetica Neue"><tspan x="0" y="0">TEMPLATE</tspan></text>
        <g id="Rectangle_5" data-name="Rectangle 5" transform="translate(1049 108)" fill="#fff" stroke="#000" stroke-width="2">
          <rect width="84" height="81" stroke="none"/>
          <rect x="1" y="1" width="82" height="79" fill="none"/>
        </g>
        <text id="n" transform="translate(1082.5 159.5)" fill="#020202" stroke="#000" stroke-width="2" font-size="30" font-family="Monaco"><tspan x="0" y="0">n</tspan></text>
        <g id="Rectangle_4" data-name="Rectangle 4" transform="translate(958 108)" fill="#fff" stroke="#000" stroke-width="2">
          <rect width="84" height="81" stroke="none"/>
          <rect x="1" y="1" width="82" height="79" fill="none"/>
        </g>
        <text id="m" transform="translate(991.5 159.5)" fill="#020202" stroke="#000" stroke-width="2" font-size="30" font-family="Monaco"><tspan x="0" y="0">m</tspan></text>
        <g id="Rectangle_3" data-name="Rectangle 3" transform="translate(867 108)" fill="#fff" stroke="#000" stroke-width="2">
          <rect width="84" height="81" stroke="none"/>
          <rect x="1" y="1" width="82" height="79" fill="none"/>
        </g>
        <text id="i" transform="translate(905.5 160.5)" fill="#020202" stroke="#000" stroke-width="2" font-size="30" font-family="HelveticaNeue, Helvetica Neue"><tspan x="0" y="0">i</tspan></text>
        <g id="Rectangle_6" data-name="Rectangle 6" transform="translate(1139 108)" fill="#fff" stroke="#000" stroke-width="2">
          <rect width="84" height="81" stroke="none"/>
          <rect x="1" y="1" width="82" height="79" fill="none"/>
        </g>
        <text id="c" transform="translate(1172.5 159.5)" fill="#020202" stroke="#000" stroke-width="2" font-size="30" font-family="Monaco"><tspan x="0" y="0">c</tspan></text>
        <g id="Rectangle_7" data-name="Rectangle 7" transform="translate(1229 108)" fill="#fff" stroke="#000" stroke-width="2">
          <rect width="84" height="81" stroke="none"/>
          <rect x="1" y="1" width="82" height="79" fill="none"/>
        </g>
        <text id="t" transform="translate(1262.5 159.5)" fill="#020202" stroke="#000" stroke-width="2" font-size="30" font-family="Monaco"><tspan x="0" y="0">t</tspan></text>
        <rect id="Rectangle_5-2" data-name="Rectangle 5" width="84" height="81" transform="translate(1049 203)" fill="#f70000"/>
        <text id="o" transform="translate(1080 259)" fill="#fff" font-size="40" font-family="CharisSIL, Charis SIL"><tspan x="0" y="0">o</tspan></text>
        <rect id="Rectangle_4-2" data-name="Rectangle 4" width="84" height="81" transform="translate(958 203)" fill="#d1d1d1"/>
        <text id="_-" data-name="-" transform="translate(994 259)" fill="#fff" font-size="40" font-family="CharisSIL, Charis SIL"><tspan x="0" y="0">-</tspan></text>
        <path id="Path_1" data-name="Path 1" d="M0,0H84V81H0Z" transform="translate(867 203)" fill="#25c2d0"/>
        <text id="n̥" transform="translate(898 259)" fill="#fff" font-size="40" font-family="CharisSIL, Charis SIL"><tspan x="0" y="0">n̥</tspan></text>
        <rect id="Rectangle_6-2" data-name="Rectangle 6" width="84" height="81" transform="translate(1139 203)" fill="#d1d1d1"/>
        <text id="_--2" data-name="-" transform="translate(1175 259)" fill="#fff" font-size="40" font-family="CharisSIL, Charis SIL"><tspan x="0" y="0">-</tspan></text>
        <rect id="Rectangle_7-2" data-name="Rectangle 7" width="84" height="81" transform="translate(1229 203)" fill="#ff7791"/>
        <text id="_" data-name="⁴³" transform="translate(1257 259)" fill="#fff" font-size="40" font-family="CharisSIL, Charis SIL"><tspan x="0" y="0">⁴³</tspan></text>
        <rect id="Rectangle_5-3" data-name="Rectangle 5" width="84" height="81" transform="translate(1049 387)" fill="#f70000"/>
        <text id="ai" transform="translate(1075 443)" fill="#fff" font-size="40" font-family="CharisSIL, Charis SIL"><tspan x="0" y="0">ai</tspan></text>
        <rect id="Rectangle_4-3" data-name="Rectangle 4" width="84" height="81" transform="translate(958 387)" fill="#d1d1d1"/>
        <text id="_--3" data-name="-" transform="translate(994 443)" fill="#fff" font-size="40" font-family="CharisSIL, Charis SIL"><tspan x="0" y="0">-</tspan></text>
        <rect id="Rectangle_3-2" data-name="Rectangle 3" width="84" height="81" transform="translate(867 387)" fill="#25c2d0"/>
        <text id="n-2" data-name="n" transform="translate(898 443)" fill="#fff" font-size="40" font-family="CharisSIL, Charis SIL"><tspan x="0" y="0">n</tspan></text>
        <rect id="Rectangle_6-3" data-name="Rectangle 6" width="84" height="81" transform="translate(1139 387)" fill="#d1d1d1"/>
        <text id="_--4" data-name="-" transform="translate(1175 443)" fill="#fff" font-size="40" font-family="CharisSIL, Charis SIL"><tspan x="0" y="0">-</tspan></text>
        <rect id="Rectangle_7-3" data-name="Rectangle 7" width="84" height="81" transform="translate(1229 387)" fill="#ff7791"/>
        <text id="_2" data-name="⁴⁴" transform="translate(1257 443)" fill="#fff" font-size="40" font-family="CharisSIL, Charis SIL"><tspan x="0" y="0">⁴⁴</tspan></text>
        <rect id="Rectangle_5-4" data-name="Rectangle 5" width="84" height="81" transform="translate(1049 295)" fill="#f70000"/>
        <text id="a" transform="translate(1081 350)" fill="#fff" font-size="40" font-family="CharisSIL, Charis SIL"><tspan x="0" y="0">a</tspan></text>
        <rect id="Rectangle_4-4" data-name="Rectangle 4" width="84" height="81" transform="translate(958 295)" fill="#d1d1d1"/>
        <text id="_--5" data-name="-" transform="translate(994 350)" fill="#fff" font-size="40" font-family="CharisSIL, Charis SIL"><tspan x="0" y="0">-</tspan></text>
        <rect id="Rectangle_3-3" data-name="Rectangle 3" width="84" height="81" transform="translate(867 295)" fill="#25c2d0"/>
        <text id="n̥-2" data-name="n̥" transform="translate(898 350)" fill="#fff" font-size="40" font-family="CharisSIL, Charis SIL"><tspan x="0" y="0">n̥</tspan></text>
        <rect id="Rectangle_6-4" data-name="Rectangle 6" width="84" height="81" transform="translate(1139 295)" fill="#25c2d0"/>
        <text id="ŋ" transform="translate(1170 350)" fill="#fff" font-size="40" font-family="CharisSIL, Charis SIL"><tspan x="0" y="0">ŋ</tspan></text>
        <rect id="Rectangle_7-4" data-name="Rectangle 7" width="84" height="81" transform="translate(1229 295)" fill="#ff7791"/>
        <text id="_3" data-name="³³" transform="translate(1257 350)" fill="#fff" font-size="40" font-family="CharisSIL, Charis SIL"><tspan x="0" y="0">³³</tspan></text>
        <rect id="Rectangle_5-5" data-name="Rectangle 5" width="84" height="81" transform="translate(1049 479)" fill="#f70000"/>
        <text id="e" transform="translate(1081 534)" fill="#fff" font-size="40" font-family="CharisSIL, Charis SIL"><tspan x="0" y="0">e</tspan></text>
        <rect id="Rectangle_4-5" data-name="Rectangle 4" width="84" height="81" transform="translate(958 479)" fill="#d1d1d1"/>
        <text id="_--6" data-name="-" transform="translate(994 534)" fill="#fff" font-size="40" font-family="CharisSIL, Charis SIL"><tspan x="0" y="0">-</tspan></text>
        <rect id="Rectangle_3-4" data-name="Rectangle 3" width="84" height="81" transform="translate(867 479)" fill="#25c2d0"/>
        <text id="n̥-3" data-name="n̥" transform="translate(898 534)" fill="#fff" font-size="40" font-family="CharisSIL, Charis SIL"><tspan x="0" y="0">n̥</tspan></text>
        <path id="Path_2" data-name="Path 2" d="M0,0H84V81H0Z" transform="translate(1139 479)" fill="#d1d1d1"/>
        <text id="_--7" data-name="-" transform="translate(1175 534)" fill="#fff" font-size="40" font-family="CharisSIL, Charis SIL"><tspan x="0" y="0">-</tspan></text>
        <rect id="Rectangle_7-5" data-name="Rectangle 7" width="84" height="81" transform="translate(1229 479)" fill="#ff7791"/>
        <text id="_4" data-name="³⁵" transform="translate(1257 534)" fill="#fff" font-size="40" font-family="CharisSIL, Charis SIL"><tspan x="0" y="0">³⁵</tspan></text>
      </g>
      <g id="Group_37" data-name="Group 37" transform="translate(-67 -22)">
        <g id="Rectangle_2-2" data-name="Rectangle 2" transform="translate(86 108)" fill="#fff" stroke="#000" stroke-width="2">
          <rect width="385" height="81" stroke="none"/>
          <rect x="1" y="1" width="383" height="79" fill="none"/>
        </g>
        <text id="ALIGNMENT" transform="translate(193 161)" fill="#020202" font-size="30" font-family="HelveticaNeue, Helvetica Neue"><tspan x="0" y="0">ALIGNMENT</tspan></text>
        <g id="Group_33" data-name="Group 33" transform="translate(186.776 203)">
          <rect id="Rectangle_5-6" data-name="Rectangle 5" width="84" height="81" transform="translate(0.224)" fill="#f70000"/>
          <text id="o-2" data-name="o" transform="translate(31.224 56)" fill="#fff" font-size="40" font-family="CharisSIL, Charis SIL"><tspan x="0" y="0">o</tspan></text>
          <rect id="Rectangle_5-7" data-name="Rectangle 5" width="84" height="81" transform="translate(0.224 184)" fill="#f70000"/>
          <text id="ai-2" data-name="ai" transform="translate(26.224 240)" fill="#fff" font-size="40" font-family="CharisSIL, Charis SIL"><tspan x="0" y="0">ai</tspan></text>
          <rect id="Rectangle_5-8" data-name="Rectangle 5" width="84" height="81" transform="translate(0.224 92)" fill="#f70000"/>
          <text id="a-2" data-name="a" transform="translate(32.224 147)" fill="#fff" font-size="40" font-family="CharisSIL, Charis SIL"><tspan x="0" y="0">a</tspan></text>
          <rect id="Rectangle_5-9" data-name="Rectangle 5" width="84" height="81" transform="translate(0.224 276)" fill="#f70000"/>
          <text id="e-2" data-name="e" transform="translate(32.224 331)" fill="#fff" font-size="40" font-family="CharisSIL, Charis SIL"><tspan x="0" y="0">e</tspan></text>
        </g>
        <g id="Group_32" data-name="Group 32" transform="translate(86 203)">
          <path id="Path_1-2" data-name="Path 1" d="M0,0H84V81H0Z" fill="#25c2d0"/>
          <text id="n̥-4" data-name="n̥" transform="translate(31 56)" fill="#fff" font-size="40" font-family="CharisSIL, Charis SIL"><tspan x="0" y="0">n̥</tspan></text>
          <rect id="Rectangle_3-5" data-name="Rectangle 3" width="84" height="81" transform="translate(0 184)" fill="#25c2d0"/>
          <text id="n-3" data-name="n" transform="translate(31 240)" fill="#fff" font-size="40" font-family="CharisSIL, Charis SIL"><tspan x="0" y="0">n</tspan></text>
          <rect id="Rectangle_3-6" data-name="Rectangle 3" width="84" height="81" transform="translate(0 92)" fill="#25c2d0"/>
          <text id="n̥-5" data-name="n̥" transform="translate(31 147)" fill="#fff" font-size="40" font-family="CharisSIL, Charis SIL"><tspan x="0" y="0">n̥</tspan></text>
          <rect id="Rectangle_3-7" data-name="Rectangle 3" width="84" height="81" transform="translate(0 276)" fill="#25c2d0"/>
          <text id="n̥-6" data-name="n̥" transform="translate(31 331)" fill="#fff" font-size="40" font-family="CharisSIL, Charis SIL"><tspan x="0" y="0">n̥</tspan></text>
        </g>
        <g id="Group_34" data-name="Group 34" transform="translate(286.719 203)">
          <rect id="Rectangle_6-5" data-name="Rectangle 6" width="84" height="81" transform="translate(0.281)" fill="#d1d1d1"/>
          <text id="_--8" data-name="-" transform="translate(36.281 56)" fill="#fff" font-size="40" font-family="CharisSIL, Charis SIL"><tspan x="0" y="0">-</tspan></text>
          <rect id="Rectangle_6-6" data-name="Rectangle 6" width="84" height="81" transform="translate(0.281 184)" fill="#d1d1d1"/>
          <text id="_--9" data-name="-" transform="translate(36.281 240)" fill="#fff" font-size="40" font-family="CharisSIL, Charis SIL"><tspan x="0" y="0">-</tspan></text>
          <rect id="Rectangle_6-7" data-name="Rectangle 6" width="84" height="81" transform="translate(0.281 92)" fill="#25c2d0"/>
          <text id="ŋ-2" data-name="ŋ" transform="translate(31.281 147)" fill="#fff" font-size="40" font-family="CharisSIL, Charis SIL"><tspan x="0" y="0">ŋ</tspan></text>
          <path id="Path_2-2" data-name="Path 2" d="M0,0H84V81H0Z" transform="translate(0 276)" fill="#d1d1d1"/>
          <text id="_--10" data-name="-" transform="translate(36.281 331)" fill="#fff" font-size="40" font-family="CharisSIL, Charis SIL"><tspan x="0" y="0">-</tspan></text>
        </g>
        <g id="Group_35" data-name="Group 35" transform="translate(387.495 203)">
          <rect id="Rectangle_7-6" data-name="Rectangle 7" width="84" height="81" transform="translate(-0.495)" fill="#ff7791"/>
          <text id="_5" data-name="⁴³" transform="translate(27.505 56)" fill="#fff" font-size="40" font-family="CharisSIL, Charis SIL"><tspan x="0" y="0">⁴³</tspan></text>
          <rect id="Rectangle_7-7" data-name="Rectangle 7" width="84" height="81" transform="translate(-0.495 184)" fill="#ff7791"/>
          <text id="_6" data-name="⁴⁴" transform="translate(27.505 240)" fill="#fff" font-size="40" font-family="CharisSIL, Charis SIL"><tspan x="0" y="0">⁴⁴</tspan></text>
          <rect id="Rectangle_7-8" data-name="Rectangle 7" width="84" height="81" transform="translate(-0.495 92)" fill="#ff7791"/>
          <text id="_7" data-name="³³" transform="translate(27.505 147)" fill="#fff" font-size="40" font-family="CharisSIL, Charis SIL"><tspan x="0" y="0">³³</tspan></text>
          <rect id="Rectangle_7-9" data-name="Rectangle 7" width="84" height="81" transform="translate(-0.495 276)" fill="#ff7791"/>
          <text id="_8" data-name="³⁵" transform="translate(27.505 331)" fill="#fff" font-size="40" font-family="CharisSIL, Charis SIL"><tspan x="0" y="0">³⁵</tspan></text>
        </g>
      </g>
      <g id="Group_36" data-name="Group 36" transform="translate(-116 -22)">
        <g id="Rectangle_9" data-name="Rectangle 9" transform="translate(1333 108)" fill="#fff" stroke="#000" stroke-width="2">
          <rect width="360" height="81" stroke="none"/>
          <rect x="1" y="1" width="358" height="79" fill="none"/>
        </g>
        <text id="STRUCTURE" transform="translate(1424 160)" fill="#020202" font-size="30" font-family="HelveticaNeue, Helvetica Neue"><tspan x="0" y="0">STRUCTURE</tspan></text>
        <g id="Rectangle_14" data-name="Rectangle 14" transform="translate(1333 203)" fill="none" stroke="#000" stroke-width="1">
          <rect width="84" height="81" stroke="none"/>
          <rect x="0.5" y="0.5" width="83" height="80" fill="none"/>
        </g>
        <text id="i-2" data-name="i" transform="translate(1370 259)" fill="#020202" font-size="40" font-family="HelveticaNeue-Medium, Helvetica Neue" font-weight="500"><tspan x="0" y="0">i</tspan></text>
        <g id="Rectangle_22" data-name="Rectangle 22" transform="translate(1425 203)" fill="none" stroke="#000" stroke-width="1">
          <rect width="84" height="81" stroke="none"/>
          <rect x="0.5" y="0.5" width="83" height="80" fill="none"/>
        </g>
        <text id="n-4" data-name="n" transform="translate(1455 259)" fill="#020202" font-size="40" font-family="HelveticaNeue-Medium, Helvetica Neue" font-weight="500"><tspan x="0" y="0">n</tspan></text>
        <g id="Rectangle_10" data-name="Rectangle 10" transform="translate(1517 203)" fill="none" stroke="#000" stroke-width="1">
          <rect width="84" height="81" stroke="none"/>
          <rect x="0.5" y="0.5" width="83" height="80" fill="none"/>
        </g>
        <text id="t-2" data-name="t" transform="translate(1553 259)" fill="#020202" font-size="40" font-family="HelveticaNeue-Medium, Helvetica Neue" font-weight="500"><tspan x="0" y="0">t</tspan></text>
        <g id="Rectangle_14-2" data-name="Rectangle 14" transform="translate(1333 387)" fill="none" stroke="#000" stroke-width="1">
          <rect width="84" height="81" stroke="none"/>
          <rect x="0.5" y="0.5" width="83" height="80" fill="none"/>
        </g>
        <text id="i-3" data-name="i" transform="translate(1370 443)" fill="#020202" font-size="40" font-family="HelveticaNeue-Medium, Helvetica Neue" font-weight="500"><tspan x="0" y="0">i</tspan></text>
        <g id="Rectangle_22-2" data-name="Rectangle 22" transform="translate(1425 387)" fill="none" stroke="#000" stroke-width="1">
          <rect width="84" height="81" stroke="none"/>
          <rect x="0.5" y="0.5" width="83" height="80" fill="none"/>
        </g>
        <text id="n-5" data-name="n" transform="translate(1456 443)" fill="#020202" font-size="40" font-family="HelveticaNeue-Medium, Helvetica Neue" font-weight="500"><tspan x="0" y="0">n</tspan></text>
        <g id="Rectangle_10-2" data-name="Rectangle 10" transform="translate(1517 387)" fill="none" stroke="#000" stroke-width="1">
          <rect width="84" height="81" stroke="none"/>
          <rect x="0.5" y="0.5" width="83" height="80" fill="none"/>
        </g>
        <text id="t-3" data-name="t" transform="translate(1553 443)" fill="#020202" font-size="40" font-family="HelveticaNeue-Medium, Helvetica Neue" font-weight="500"><tspan x="0" y="0">t</tspan></text>
        <text id="t-4" data-name="t" transform="translate(1645 350)" fill="#020202" font-size="40" font-family="HelveticaNeue-Medium, Helvetica Neue" font-weight="500"><tspan x="0" y="0">t</tspan></text>
        <g id="Rectangle_14-3" data-name="Rectangle 14" transform="translate(1609 295)" fill="none" stroke="#000" stroke-width="1">
          <rect width="84" height="81" stroke="none"/>
          <rect x="0.5" y="0.5" width="83" height="80" fill="none"/>
        </g>
        <g id="Rectangle_14-4" data-name="Rectangle 14" transform="translate(1333 295)" fill="none" stroke="#000" stroke-width="1">
          <rect width="84" height="81" stroke="none"/>
          <rect x="0.5" y="0.5" width="83" height="80" fill="none"/>
        </g>
        <text id="i-4" data-name="i" transform="translate(1370 350)" fill="#020202" font-size="40" font-family="HelveticaNeue-Medium, Helvetica Neue" font-weight="500"><tspan x="0" y="0">i</tspan></text>
        <g id="Rectangle_22-3" data-name="Rectangle 22" transform="translate(1425 295)" fill="none" stroke="#000" stroke-width="1">
          <rect width="84" height="81" stroke="none"/>
          <rect x="0.5" y="0.5" width="83" height="80" fill="none"/>
        </g>
        <text id="n-6" data-name="n" transform="translate(1456 350)" fill="#020202" font-size="40" font-family="HelveticaNeue-Medium, Helvetica Neue" font-weight="500"><tspan x="0" y="0">n</tspan></text>
        <g id="Rectangle_10-3" data-name="Rectangle 10" transform="translate(1517 295)" fill="none" stroke="#000" stroke-width="1">
          <rect width="84" height="81" stroke="none"/>
          <rect x="0.5" y="0.5" width="83" height="80" fill="none"/>
        </g>
        <text id="c-2" data-name="c" transform="translate(1548 350)" fill="#020202" font-size="40" font-family="HelveticaNeue-Medium, Helvetica Neue" font-weight="500"><tspan x="0" y="0">c</tspan></text>
        <g id="Rectangle_14-5" data-name="Rectangle 14" transform="translate(1333 479)" fill="none" stroke="#000" stroke-width="1">
          <rect width="84" height="81" stroke="none"/>
          <rect x="0.5" y="0.5" width="83" height="80" fill="none"/>
        </g>
        <text id="i-5" data-name="i" transform="translate(1370 534)" fill="#020202" font-size="40" font-family="HelveticaNeue-Medium, Helvetica Neue" font-weight="500"><tspan x="0" y="0">i</tspan></text>
        <g id="Rectangle_22-4" data-name="Rectangle 22" transform="translate(1425 479)" fill="none" stroke="#000" stroke-width="1">
          <rect width="84" height="81" stroke="none"/>
          <rect x="0.5" y="0.5" width="83" height="80" fill="none"/>
        </g>
        <text id="n-7" data-name="n" transform="translate(1456 534)" fill="#020202" font-size="40" font-family="HelveticaNeue-Medium, Helvetica Neue" font-weight="500"><tspan x="0" y="0">n</tspan></text>
        <g id="Rectangle_10-4" data-name="Rectangle 10" transform="translate(1517 479)" fill="none" stroke="#000" stroke-width="1">
          <rect width="84" height="81" stroke="none"/>
          <rect x="0.5" y="0.5" width="83" height="80" fill="none"/>
        </g>
        <text id="t-5" data-name="t" transform="translate(1553 534)" fill="#020202" font-size="40" font-family="HelveticaNeue-Medium, Helvetica Neue" font-weight="500"><tspan x="0" y="0">t</tspan></text>
      </g>
      <path id="Union_2" data-name="Union 2" d="M140.836,323.419l-3.851-3.757a5.221,5.221,0,0,1,0-7.513l16.627-16.221H86.027a8.027,8.027,0,0,1,0-16.054h67.7l-16.746-16.337a5.221,5.221,0,0,1,0-7.513l3.851-3.757a5.541,5.541,0,0,1,7.7,0l30.2,29.462a9.046,9.046,0,0,1,0,12.227l-30.2,29.463a5.543,5.543,0,0,1-7.7,0Z" transform="translate(366.5 23.789)" fill="rgba(0,110,255,0)" stroke="#000" stroke-width="2"/>
      <path id="Union_3" data-name="Union 3" d="M140.836,323.419l-3.851-3.757a5.221,5.221,0,0,1,0-7.513l16.627-16.221H86.027a8.027,8.027,0,0,1,0-16.054h67.7l-16.746-16.337a5.221,5.221,0,0,1,0-7.513l3.851-3.757a5.541,5.541,0,0,1,7.7,0l30.2,29.462a9.046,9.046,0,0,1,0,12.227l-30.2,29.463a5.543,5.543,0,0,1-7.7,0Z" transform="translate(995.5 23.789)" fill="rgba(0,110,255,0)" stroke="#000" stroke-width="2"/>
      <line id="Line_3" data-name="Line 3" x2="83" y2="357" transform="translate(679.5 181.5)" fill="none" stroke="#f70000" stroke-width="4"/>
    </g>
  </g>
</svg>
