<svg xmlns="http://www.w3.org/2000/svg" xmlns:xlink="http://www.w3.org/1999/xlink" width="1950" height="513" viewBox="0 0 1950 513">
  <defs>
    <clipPath id="clip-Web_1920_2">
      <rect width="1950" height="513"/>
    </clipPath>
  </defs>
  <g id="Web_1920_2" data-name="Web 1920 – 2" clip-path="url(#clip-Web_1920_2)">
    <rect width="1950" height="513" fill="#fff"/>
    <g id="Group_68" data-name="Group 68">
      <g id="Rectangle_3" data-name="Rectangle 3" transform="translate(27 401)" fill="#fff" stroke="#000" stroke-width="1">
        <rect width="369" height="87" stroke="none"/>
        <rect x="0.5" y="0.5" width="368" height="86" fill="none"/>
      </g>
      <text id="Chuanqiandian" transform="translate(77 459)" font-size="40" font-family="HelveticaNeue, Helvetica Neue"><tspan x="0" y="0">Chuanqiandian</tspan></text>
      <g id="Rectangle_1" data-name="Rectangle 1" transform="translate(419 401)" fill="#fff" stroke="#000" stroke-width="1">
        <rect width="298" height="87" stroke="none"/>
        <rect x="0.5" y="0.5" width="297" height="86" fill="none"/>
      </g>
      <text id="Horn_of_cow_" data-name="Horn (of cow)" transform="translate(447 459)" font-size="40" font-family="HelveticaNeue, Helvetica Neue"><tspan x="0" y="0">Horn (of cow)</tspan></text>
      <g id="Rectangle_1-2" data-name="Rectangle 1" transform="translate(735 401)" fill="#fff" stroke="#000" stroke-width="1">
        <rect width="376" height="87" stroke="none"/>
        <rect x="0.5" y="0.5" width="375" height="86" fill="none"/>
      </g>
      <text id="k_o_" data-name="k o ⁴³" transform="translate(875 459)" font-size="40" font-family="CharisSIL, Charis SIL"><tspan x="0" y="0">k o ⁴³</tspan></text>
      <g id="Rectangle_1-3" data-name="Rectangle 1" transform="translate(1132 401)" fill="#fff" stroke="#000" stroke-width="1">
        <rect width="237" height="87" stroke="none"/>
        <rect x="0.5" y="0.5" width="236" height="86" fill="none"/>
      </g>
      <g id="Ellipse_1" data-name="Ellipse 1" transform="translate(1162 411)" fill="#fff" stroke="#000" stroke-width="1">
        <circle cx="33.5" cy="33.5" r="33.5" stroke="none"/>
        <circle cx="33.5" cy="33.5" r="33" fill="none"/>
      </g>
      <text id="_4" data-name="4" transform="translate(1187 456)" font-size="30" font-family="HelveticaNeue, Helvetica Neue"><tspan x="0" y="0">4</tspan></text>
      <g id="Rectangle_1-4" data-name="Rectangle 1" transform="translate(1387 401)" fill="#fff" stroke="#000" stroke-width="1">
        <rect width="237" height="87" stroke="none"/>
        <rect x="0.5" y="0.5" width="236" height="86" fill="none"/>
      </g>
      <g id="Ellipse_1-2" data-name="Ellipse 1" transform="translate(1416 411)" fill="#fff" stroke="#000" stroke-width="1">
        <circle cx="33.5" cy="33.5" r="33.5" stroke="none"/>
        <circle cx="33.5" cy="33.5" r="33" fill="none"/>
      </g>
      <text id="_4-2" data-name="4" transform="translate(1441 456)" font-size="30" font-family="HelveticaNeue, Helvetica Neue"><tspan x="0" y="0">4</tspan></text>
      <g id="Rectangle_1-5" data-name="Rectangle 1" transform="translate(27 20)" fill="#fff" stroke="#000" stroke-width="2">
        <rect width="369" height="87" stroke="none"/>
        <rect x="1" y="1" width="367" height="85" fill="none"/>
      </g>
      <text id="DOCULECT" transform="translate(104 78)" font-size="40" font-family="HelveticaNeue, Helvetica Neue"><tspan x="0" y="0">DOCULECT</tspan></text>
      <g id="Rectangle_1-6" data-name="Rectangle 1" transform="translate(415 20)" fill="#fff" stroke="#000" stroke-width="2">
        <rect width="302" height="87" stroke="none"/>
        <rect x="1" y="1" width="300" height="85" fill="none"/>
      </g>
      <text id="GLOSS" transform="translate(499 78)" font-size="40" font-family="HelveticaNeue, Helvetica Neue"><tspan x="0" y="0">GLOSS</tspan></text>
      <g id="Rectangle_1-7" data-name="Rectangle 1" transform="translate(735 20)" fill="#fff" stroke="#000" stroke-width="2">
        <rect width="376" height="87" stroke="none"/>
        <rect x="1" y="1" width="374" height="85" fill="none"/>
      </g>
      <text id="TOKEN" transform="translate(857 78)" font-size="40" font-family="HelveticaNeue, Helvetica Neue"><tspan x="0" y="0">TOKEN</tspan></text>
      <g id="Rectangle_1-8" data-name="Rectangle 1" transform="translate(1132 20)" fill="#fff" stroke="#000" stroke-width="2">
        <rect width="237" height="87" stroke="none"/>
        <rect x="1" y="1" width="235" height="85" fill="none"/>
      </g>
      <text id="COGIDS" transform="translate(1174 78)" font-size="40" font-family="HelveticaNeue, Helvetica Neue"><tspan x="0" y="0">COGIDS</tspan></text>
      <g id="Rectangle_1-9" data-name="Rectangle 1" transform="translate(1387 20)" fill="#fff" stroke="#000" stroke-width="2">
        <rect width="237" height="87" stroke="none"/>
        <rect x="1" y="1" width="235" height="85" fill="none"/>
      </g>
      <text id="CROSSIDS" transform="translate(1404 78)" font-size="40" font-family="HelveticaNeue, Helvetica Neue"><tspan x="0" y="0">CROSSIDS</tspan></text>
      <g id="Rectangle_5" data-name="Rectangle 5" transform="translate(1643 20)" fill="#fff" stroke="#000" stroke-width="2">
        <rect width="288" height="87" stroke="none"/>
        <rect x="1" y="1" width="286" height="85" fill="none"/>
      </g>
      <text id="ANNOTATION" transform="translate(1663 78)" font-size="40" font-family="HelveticaNeue, Helvetica Neue"><tspan x="0" y="0">ANNOTATION</tspan></text>
      <g id="Rectangle_3-2" data-name="Rectangle 3" transform="translate(27 123)" fill="#fff" stroke="#000" stroke-width="1">
        <rect width="369" height="87" stroke="none"/>
        <rect x="0.5" y="0.5" width="368" height="86" fill="none"/>
      </g>
      <text id="Dongnu" transform="translate(141 181)" font-size="40" font-family="HelveticaNeue, Helvetica Neue"><tspan x="0" y="0">Dongnu</tspan></text>
      <g id="Rectangle_1-10" data-name="Rectangle 1" transform="translate(419 123)" fill="#fff" stroke="#000" stroke-width="1">
        <rect width="298" height="87" stroke="none"/>
        <rect x="0.5" y="0.5" width="297" height="86" fill="none"/>
      </g>
      <text id="Horn_of_cow_2" data-name="Horn (of cow)" transform="translate(447 181)" font-size="40" font-family="HelveticaNeue, Helvetica Neue"><tspan x="0" y="0">Horn (of cow)</tspan></text>
      <g id="Rectangle_1-11" data-name="Rectangle 1" transform="translate(737 123)" fill="#fff" stroke="#000" stroke-width="1">
        <rect width="376" height="87" stroke="none"/>
        <rect x="0.5" y="0.5" width="375" height="86" fill="none"/>
      </g>
      <text id="k_j_o_n_v_ɔ_" data-name="k j o n ³³ + v ɔ ²³¹" transform="translate(763 182)" fill="#fc4a2a" font-size="40" font-family="CharisSIL, Charis SIL"><tspan x="0" y="0" fill="#000">k j o n ³³ + </tspan><tspan y="0" fill="#fc4a2a">v ɔ ²³¹</tspan></text>
      <g id="Rectangle_1-12" data-name="Rectangle 1" transform="translate(1132 123)" fill="#fff" stroke="#000" stroke-width="1">
        <rect width="237" height="87" stroke="none"/>
        <rect x="0.5" y="0.5" width="236" height="86" fill="none"/>
      </g>
      <g id="Ellipse_1-3" data-name="Ellipse 1" transform="translate(1162 133)" fill="#fff" stroke="#000" stroke-width="1">
        <circle cx="33.5" cy="33.5" r="33.5" stroke="none"/>
        <circle cx="33.5" cy="33.5" r="33" fill="none"/>
      </g>
      <text id="_1" data-name="1" transform="translate(1187 178)" font-size="30" font-family="HelveticaNeue, Helvetica Neue"><tspan x="0" y="0">1</tspan></text>
      <g id="Ellipse_1-4" data-name="Ellipse 1" transform="translate(1274 133)" fill="#fff" stroke="#000" stroke-width="1">
        <circle cx="33.5" cy="33.5" r="33.5" stroke="none"/>
        <circle cx="33.5" cy="33.5" r="33" fill="none"/>
      </g>
      <text id="_2" data-name="2" transform="translate(1298.5 177.507)" fill="#fc4a2a" font-size="30" font-family="HelveticaNeue, Helvetica Neue"><tspan x="0" y="0">2</tspan></text>
      <g id="Rectangle_1-13" data-name="Rectangle 1" transform="translate(1387 123)" fill="#fff" stroke="#000" stroke-width="1">
        <rect width="237" height="87" stroke="none"/>
        <rect x="0.5" y="0.5" width="236" height="86" fill="none"/>
      </g>
      <g id="Ellipse_1-5" data-name="Ellipse 1" transform="translate(1416 133)" fill="#fff" stroke="#000" stroke-width="1">
        <circle cx="33.5" cy="33.5" r="33.5" stroke="none"/>
        <circle cx="33.5" cy="33.5" r="33" fill="none"/>
      </g>
      <text id="_1-2" data-name="1" transform="translate(1441 178)" font-size="30" font-family="HelveticaNeue, Helvetica Neue"><tspan x="0" y="0">1</tspan></text>
      <g id="Ellipse_1-6" data-name="Ellipse 1" transform="translate(1528 133)" fill="#fff" stroke="#000" stroke-width="1">
        <circle cx="33.5" cy="33.5" r="33.5" stroke="none"/>
        <circle cx="33.5" cy="33.5" r="33" fill="none"/>
      </g>
      <text id="_5" data-name="5" transform="translate(1552.5 177.507)" fill="#fc4a2a" font-size="30" font-family="HelveticaNeue, Helvetica Neue"><tspan x="0" y="0">5</tspan></text>
      <g id="Rectangle_6" data-name="Rectangle 6" transform="translate(1643 123)" fill="#fff" stroke="#000" stroke-width="1">
        <rect width="288" height="87" stroke="none"/>
        <rect x="0.5" y="0.5" width="287" height="86" fill="none"/>
      </g>
      <text id="v_ɔ_" data-name="v ɔ ²³¹" transform="translate(1676 181)" fill="#fc4a2a" font-size="40" font-family="CharisSIL, Charis SIL"><tspan x="0" y="0">v ɔ ²³¹</tspan></text>
      <g id="Rectangle_7" data-name="Rectangle 7" transform="translate(1793 137)" fill="#fff" stroke="#000" stroke-width="1">
        <rect width="104" height="64" rx="20" stroke="none"/>
        <rect x="0.5" y="0.5" width="103" height="63" rx="19.5" fill="none"/>
      </g>
      <text id="bovine" transform="translate(1800 180)" font-size="30" font-family="HelveticaNeue, Helvetica Neue"><tspan x="0" y="0">bovine</tspan></text>
      <g id="Rectangle_3-3" data-name="Rectangle 3" transform="translate(27 216)" fill="#fff" stroke="#000" stroke-width="1">
        <rect width="369" height="87" stroke="none"/>
        <rect x="0.5" y="0.5" width="368" height="86" fill="none"/>
      </g>
      <text id="Nunu" transform="translate(165 274)" font-size="40" font-family="HelveticaNeue, Helvetica Neue"><tspan x="0" y="0">Nunu</tspan></text>
      <g id="Rectangle_1-14" data-name="Rectangle 1" transform="translate(419 216)" fill="#fff" stroke="#000" stroke-width="1">
        <rect width="298" height="87" stroke="none"/>
        <rect x="0.5" y="0.5" width="297" height="86" fill="none"/>
      </g>
      <text id="Horn_of_cow_3" data-name="Horn (of cow)" transform="translate(447 274)" font-size="40" font-family="HelveticaNeue, Helvetica Neue"><tspan x="0" y="0">Horn (of cow)</tspan></text>
      <g id="Rectangle_1-15" data-name="Rectangle 1" transform="translate(735 216)" fill="#fff" stroke="#000" stroke-width="1">
        <rect width="376" height="87" stroke="none"/>
        <rect x="0.5" y="0.5" width="375" height="86" fill="none"/>
      </g>
      <text id="k_o_ŋ_v_o_" data-name="k o ŋ ³² + v o ⁴⁴" transform="translate(779 274)" fill="#fc4a2a" font-size="40" font-family="CharisSIL, Charis SIL"><tspan x="0" y="0" fill="#000">k o ŋ ³² + </tspan><tspan y="0" fill="#fc4a2a">v o ⁴⁴</tspan></text>
      <g id="Rectangle_1-16" data-name="Rectangle 1" transform="translate(1132 216)" fill="#fff" stroke="#000" stroke-width="1">
        <rect width="237" height="87" stroke="none"/>
        <rect x="0.5" y="0.5" width="236" height="86" fill="none"/>
      </g>
      <g id="Ellipse_1-7" data-name="Ellipse 1" transform="translate(1162 226)" fill="#fff" stroke="#000" stroke-width="1">
        <circle cx="33.5" cy="33.5" r="33.5" stroke="none"/>
        <circle cx="33.5" cy="33.5" r="33" fill="none"/>
      </g>
      <text id="_1-3" data-name="1" transform="translate(1187 271)" font-size="30" font-family="HelveticaNeue, Helvetica Neue"><tspan x="0" y="0">1</tspan></text>
      <g id="Ellipse_1-8" data-name="Ellipse 1" transform="translate(1274 226)" fill="#fff" stroke="#000" stroke-width="1">
        <circle cx="33.5" cy="33.5" r="33.5" stroke="none"/>
        <circle cx="33.5" cy="33.5" r="33" fill="none"/>
      </g>
      <text id="_2-2" data-name="2" transform="translate(1298.5 271.171)" fill="#fc4a2a" font-size="30" font-family="HelveticaNeue, Helvetica Neue"><tspan x="0" y="0">2</tspan></text>
      <g id="Rectangle_1-17" data-name="Rectangle 1" transform="translate(1387 216)" fill="#fff" stroke="#000" stroke-width="1">
        <rect width="237" height="87" stroke="none"/>
        <rect x="0.5" y="0.5" width="236" height="86" fill="none"/>
      </g>
      <g id="Ellipse_1-9" data-name="Ellipse 1" transform="translate(1416 226)" fill="#fff" stroke="#000" stroke-width="1">
        <circle cx="33.5" cy="33.5" r="33.5" stroke="none"/>
        <circle cx="33.5" cy="33.5" r="33" fill="none"/>
      </g>
      <text id="_1-4" data-name="1" transform="translate(1441 271)" font-size="30" font-family="HelveticaNeue, Helvetica Neue"><tspan x="0" y="0">1</tspan></text>
      <g id="Ellipse_1-10" data-name="Ellipse 1" transform="translate(1528 226)" fill="#fff" stroke="#000" stroke-width="1">
        <circle cx="33.5" cy="33.5" r="33.5" stroke="none"/>
        <circle cx="33.5" cy="33.5" r="33" fill="none"/>
      </g>
      <text id="_5-2" data-name="5" transform="translate(1552.5 271.171)" fill="#fc4a2a" font-size="30" font-family="HelveticaNeue, Helvetica Neue"><tspan x="0" y="0">5</tspan></text>
      <g id="Rectangle_6-2" data-name="Rectangle 6" transform="translate(1643 216)" fill="#fff" stroke="#000" stroke-width="1">
        <rect width="288" height="87" stroke="none"/>
        <rect x="0.5" y="0.5" width="287" height="86" fill="none"/>
      </g>
      <text id="v_o_" data-name="v o ⁴⁴" transform="translate(1679 274)" fill="#fc4a2a" font-size="40" font-family="CharisSIL, Charis SIL"><tspan x="0" y="0">v o ⁴⁴</tspan></text>
      <g id="Rectangle_7-2" data-name="Rectangle 7" transform="translate(1793 229)" fill="#fff" stroke="#000" stroke-width="1">
        <rect width="104" height="64" rx="20" stroke="none"/>
        <rect x="0.5" y="0.5" width="103" height="63" rx="19.5" fill="none"/>
      </g>
      <text id="bovine-2" data-name="bovine" transform="translate(1800 273)" font-size="30" font-family="HelveticaNeue, Helvetica Neue"><tspan x="0" y="0">bovine</tspan></text>
      <g id="Rectangle_3-4" data-name="Rectangle 3" transform="translate(27 308)" fill="#fff" stroke="#000" stroke-width="1">
        <rect width="369" height="87" stroke="none"/>
        <rect x="0.5" y="0.5" width="368" height="86" fill="none"/>
      </g>
      <text id="Younuo" transform="translate(145 366)" font-size="40" font-family="HelveticaNeue, Helvetica Neue"><tspan x="0" y="0">Younuo</tspan></text>
      <g id="Rectangle_1-18" data-name="Rectangle 1" transform="translate(419 308)" fill="#fff" stroke="#000" stroke-width="1">
        <rect width="298" height="87" stroke="none"/>
        <rect x="0.5" y="0.5" width="297" height="86" fill="none"/>
      </g>
      <text id="Horn_of_cow_4" data-name="Horn (of cow)" transform="translate(447 366)" font-size="40" font-family="HelveticaNeue, Helvetica Neue"><tspan x="0" y="0">Horn (of cow)</tspan></text>
      <g id="Rectangle_1-19" data-name="Rectangle 1" transform="translate(735 308)" fill="#fff" stroke="#000" stroke-width="1">
        <rect width="376" height="87" stroke="none"/>
        <rect x="0.5" y="0.5" width="375" height="86" fill="none"/>
      </g>
      <text id="ŋ_u_k_u_" data-name="ŋ u ¹³ + k u ⁴⁴" transform="translate(797 367)" fill="#fc4a2a" font-size="40" font-family="CharisSIL, Charis SIL"><tspan x="0" y="0">ŋ u ¹³</tspan><tspan y="0" xml:space="preserve" fill="#000"> + k u ⁴⁴</tspan></text>
      <g id="Rectangle_1-20" data-name="Rectangle 1" transform="translate(1132 308)" fill="#fff" stroke="#000" stroke-width="1">
        <rect width="237" height="87" stroke="none"/>
        <rect x="0.5" y="0.5" width="236" height="86" fill="none"/>
      </g>
      <g id="Ellipse_1-11" data-name="Ellipse 1" transform="translate(1162 318)" fill="#fff" stroke="#000" stroke-width="1">
        <circle cx="33.5" cy="33.5" r="33.5" stroke="none"/>
        <circle cx="33.5" cy="33.5" r="33" fill="none"/>
      </g>
      <text id="_3" data-name="3" transform="translate(1187 363)" fill="#fc4a2a" font-size="30" font-family="HelveticaNeue, Helvetica Neue"><tspan x="0" y="0">3</tspan></text>
      <g id="Ellipse_2" data-name="Ellipse 2" transform="translate(1274 318)" fill="#fff" stroke="#000" stroke-width="1">
        <circle cx="33.5" cy="33.5" r="33.5" stroke="none"/>
        <circle cx="33.5" cy="33.5" r="33" fill="none"/>
      </g>
      <text id="_4-3" data-name="4" transform="translate(1298.5 362.754)" font-size="30" font-family="HelveticaNeue, Helvetica Neue"><tspan x="0" y="0">4</tspan></text>
      <g id="Rectangle_1-21" data-name="Rectangle 1" transform="translate(1387 308)" fill="#fff" stroke="#000" stroke-width="1">
        <rect width="237" height="87" stroke="none"/>
        <rect x="0.5" y="0.5" width="236" height="86" fill="none"/>
      </g>
      <g id="Ellipse_1-12" data-name="Ellipse 1" transform="translate(1416 318)" fill="#fff" stroke="#000" stroke-width="1">
        <circle cx="33.5" cy="33.5" r="33.5" stroke="none"/>
        <circle cx="33.5" cy="33.5" r="33" fill="none"/>
      </g>
      <text id="_6" data-name="6" transform="translate(1441 363)" fill="#fc4a2a" font-size="30" font-family="HelveticaNeue, Helvetica Neue"><tspan x="0" y="0">6</tspan></text>
      <g id="Ellipse_2-2" data-name="Ellipse 2" transform="translate(1528 318)" fill="#fff" stroke="#000" stroke-width="1">
        <circle cx="33.5" cy="33.5" r="33.5" stroke="none"/>
        <circle cx="33.5" cy="33.5" r="33" fill="none"/>
      </g>
      <text id="_4-4" data-name="4" transform="translate(1552.5 362.754)" font-size="30" font-family="HelveticaNeue, Helvetica Neue"><tspan x="0" y="0">4</tspan></text>
      <g id="Rectangle_6-3" data-name="Rectangle 6" transform="translate(1643 308)" fill="#fff" stroke="#000" stroke-width="1">
        <rect width="288" height="87" stroke="none"/>
        <rect x="0.5" y="0.5" width="287" height="86" fill="none"/>
      </g>
      <text id="ŋ_u_" data-name="ŋ u ¹³" transform="translate(1679 362)" fill="#fc4a2a" font-size="40" font-family="CharisSIL, Charis SIL"><tspan x="0" y="0">ŋ u ¹³</tspan></text>
      <g id="Rectangle_7-3" data-name="Rectangle 7" transform="translate(1793 325)" fill="#fff" stroke="#000" stroke-width="1">
        <rect width="104" height="64" rx="20" stroke="none"/>
        <rect x="0.5" y="0.5" width="103" height="63" rx="19.5" fill="none"/>
      </g>
      <text id="bovine-3" data-name="bovine" transform="translate(1800 368)" font-size="30" font-family="HelveticaNeue, Helvetica Neue"><tspan x="0" y="0">bovine</tspan></text>
    </g>
  </g>
</svg>
