<svg xmlns="http://www.w3.org/2000/svg" xmlns:xlink="http://www.w3.org/1999/xlink" width="1920" height="1080" viewBox="0 0 1920 1080">
  <defs>
    <clipPath id="clip-Web_1920_1">
      <rect width="1920" height="1080"/>
    </clipPath>
  </defs>
  <g id="Web_1920_1" data-name="Web 1920 – 1" clip-path="url(#clip-Web_1920_1)">
    <rect width="1920" height="1080" fill="#fff"/>
    <g id="Group_14" data-name="Group 14" transform="translate(48 8)">
      <g id="Group_13" data-name="Group 13">
        <g id="Group_5" data-name="Group 5" transform="translate(733.953 13.854)">
          <g id="Union_1" data-name="Union 1" transform="translate(574.844 174.297) rotate(180)" fill="none">
            <path d="M73.086,163.042,5.365,96.974A17.586,17.586,0,0,1,.033,83.266,17.587,17.587,0,0,1,5.365,69.557L73.086,3.489a12.43,12.43,0,0,1,17.27,0l8.636,8.424a11.711,11.711,0,0,1,0,16.849L67.592,59.4h727.8a17.87,17.87,0,1,1,0,35.741H55.292l43.7,42.633a11.711,11.711,0,0,1,0,16.849l-8.636,8.424a12.428,12.428,0,0,1-17.27,0Z" stroke="none"/>
            <path d="M 81.72136688232422 164.531982421875 C 84.45826721191406 164.531982421875 87.02886962890625 163.4944763183594 88.95977020263672 161.6105804443359 L 97.59516906738281 153.1867828369141 C 99.51226806640625 151.3159790039062 100.5680694580078 148.8324737548828 100.5680694580078 146.1937713623047 C 100.5680694580078 143.5549774169922 99.51226806640625 141.0714721679688 97.59536743164062 139.2008819580078 L 53.89546585083008 96.56787872314453 L 50.37796783447266 93.13627624511719 L 55.29206466674805 93.13627624511719 L 795.3894653320312 93.13627624511719 C 799.6285400390625 93.13627624511719 803.6139526367188 91.48548126220703 806.6114501953125 88.48787689208984 C 809.6090698242188 85.49037933349609 811.2598876953125 81.50497436523438 811.2598876953125 77.26587677001953 C 811.2598876953125 73.02677917480469 809.6090698242188 69.04137420654297 806.6114501953125 66.04387664794922 C 803.6139526367188 63.0462760925293 799.6285400390625 61.39547729492188 795.3894653320312 61.39547729492188 L 67.59206390380859 61.39547729492188 L 62.6779670715332 61.39547729492188 L 66.19546508789062 57.9638786315918 L 97.59516906738281 27.33077812194824 C 99.51226806640625 25.4599781036377 100.5680694580078 22.97647857666016 100.5680694580078 20.33777809143066 C 100.5680694580078 17.69897842407227 99.51226806640625 15.21547794342041 97.59536743164062 13.34487819671631 L 88.95986938476562 4.92097806930542 C 87.02896881103516 3.037477970123291 84.45826721191406 2.00017786026001 81.72136688232422 2.00017786026001 C 78.98446655273438 2.00017786026001 76.41376495361328 3.037477970123291 74.48286437988281 4.920877933502197 L 6.761466503143311 70.98897552490234 C 5.086466312408447 72.62307739257812 3.824166536331177 74.53977966308594 3.009666442871094 76.68567657470703 C 2.22356653213501 78.75698089599609 1.893566489219666 80.92977905273438 2.029066562652588 83.14377593994141 L 2.036466598510742 83.26587677001953 L 2.029066562652588 83.38797760009766 C 1.893566489219666 85.60187530517578 2.22356653213501 87.77468109130859 3.009666442871094 89.84597778320312 C 3.824166536331177 91.99167633056641 5.086466312408447 93.90827941894531 6.761466503143311 95.54248046875 L 74.48296356201172 161.6106719970703 C 76.41386413574219 163.4944763183594 78.98446655273438 164.531982421875 81.72136688232422 164.531982421875 M 81.72136688232422 166.531982421875 C 78.5960693359375 166.531982421875 75.47086334228516 165.3686828613281 73.08626556396484 163.0421752929688 L 5.364866733551025 96.97407531738281 C 1.508866548538208 93.21218109130859 -0.2684334814548492 88.1895751953125 0.03276650235056877 83.26587677001953 C -0.2684334814548492 78.34217834472656 1.508866548538208 73.31927490234375 5.364866733551025 69.55738067626953 L 73.08626556396484 3.489277839660645 C 75.47086334228516 1.163227915763855 78.59613800048828 0.000202941897441633 81.72138977050781 0.000202941897441633 C 84.84664154052734 0.000202941897441633 87.97186279296875 1.163227915763855 90.35636901855469 3.489277839660645 L 98.99196624755859 11.9132776260376 C 103.7600631713867 16.5662784576416 103.7600631713867 24.10917854309082 98.99196624755859 28.76217842102051 L 67.59206390380859 59.39547729492188 L 795.3894653320312 59.39547729492188 C 805.2588500976562 59.39547729492188 813.2598876953125 67.39647674560547 813.2598876953125 77.26587677001953 C 813.2598876953125 87.13527679443359 805.2588500976562 95.13627624511719 795.3894653320312 95.13627624511719 L 55.29206466674805 95.13627624511719 L 98.99196624755859 137.7692718505859 C 103.7600631713867 142.4222717285156 103.7600631713867 149.9651794433594 98.99196624755859 154.6181793212891 L 90.35636901855469 163.0421752929688 C 87.97186279296875 165.3686828613281 84.84666442871094 166.531982421875 81.72136688232422 166.531982421875 Z" stroke="none" fill="#707070"/>
          </g>
        </g>
      </g>
    </g>
    <g id="Group_32" data-name="Group 32" transform="translate(51 409)">
      <g id="Group_13-2" data-name="Group 13">
        <g id="Group_5-2" data-name="Group 5" transform="translate(733.953 13.854)">
          <g id="Union_1-2" data-name="Union 1" transform="translate(574.844 174.297) rotate(180)" fill="none">
            <path d="M73.086,163.042,5.365,96.974A17.586,17.586,0,0,1,.033,83.266,17.587,17.587,0,0,1,5.365,69.557L73.086,3.489a12.43,12.43,0,0,1,17.27,0l8.636,8.424a11.711,11.711,0,0,1,0,16.849L67.592,59.4h727.8a17.87,17.87,0,1,1,0,35.741H55.292l43.7,42.633a11.711,11.711,0,0,1,0,16.849l-8.636,8.424a12.428,12.428,0,0,1-17.27,0Z" stroke="none"/>
            <path d="M 81.72136688232422 164.531982421875 C 84.45826721191406 164.531982421875 87.02886962890625 163.4944763183594 88.95977020263672 161.6105804443359 L 97.59516906738281 153.1867828369141 C 99.51226806640625 151.3159790039062 100.5680694580078 148.8324737548828 100.5680694580078 146.1937713623047 C 100.5680694580078 143.5549774169922 99.51226806640625 141.0714721679688 97.59536743164062 139.2008819580078 L 53.89546585083008 96.56787872314453 L 50.37796783447266 93.13627624511719 L 55.29206466674805 93.13627624511719 L 795.3894653320312 93.13627624511719 C 799.6285400390625 93.13627624511719 803.6139526367188 91.48548126220703 806.6114501953125 88.48787689208984 C 809.6090698242188 85.49037933349609 811.2598876953125 81.50497436523438 811.2598876953125 77.26587677001953 C 811.2598876953125 73.02677917480469 809.6090698242188 69.04137420654297 806.6114501953125 66.04387664794922 C 803.6139526367188 63.0462760925293 799.6285400390625 61.39547729492188 795.3894653320312 61.39547729492188 L 67.59206390380859 61.39547729492188 L 62.6779670715332 61.39547729492188 L 66.19546508789062 57.9638786315918 L 97.59516906738281 27.33077812194824 C 99.51226806640625 25.4599781036377 100.5680694580078 22.97647857666016 100.5680694580078 20.33777809143066 C 100.5680694580078 17.69897842407227 99.51226806640625 15.21547794342041 97.59536743164062 13.34487819671631 L 88.95986938476562 4.92097806930542 C 87.02896881103516 3.037477970123291 84.45826721191406 2.00017786026001 81.72136688232422 2.00017786026001 C 78.98446655273438 2.00017786026001 76.41376495361328 3.037477970123291 74.48286437988281 4.920877933502197 L 6.761466503143311 70.98897552490234 C 5.086466312408447 72.62307739257812 3.824166536331177 74.53977966308594 3.009666442871094 76.68567657470703 C 2.22356653213501 78.75698089599609 1.893566489219666 80.92977905273438 2.029066562652588 83.14377593994141 L 2.036466598510742 83.26587677001953 L 2.029066562652588 83.38797760009766 C 1.893566489219666 85.60187530517578 2.22356653213501 87.77468109130859 3.009666442871094 89.84597778320312 C 3.824166536331177 91.99167633056641 5.086466312408447 93.90827941894531 6.761466503143311 95.54248046875 L 74.48296356201172 161.6106719970703 C 76.41386413574219 163.4944763183594 78.98446655273438 164.531982421875 81.72136688232422 164.531982421875 M 81.72136688232422 166.531982421875 C 78.5960693359375 166.531982421875 75.47086334228516 165.3686828613281 73.08626556396484 163.0421752929688 L 5.364866733551025 96.97407531738281 C 1.508866548538208 93.21218109130859 -0.2684334814548492 88.1895751953125 0.03276650235056877 83.26587677001953 C -0.2684334814548492 78.34217834472656 1.508866548538208 73.31927490234375 5.364866733551025 69.55738067626953 L 73.08626556396484 3.489277839660645 C 75.47086334228516 1.163227915763855 78.59613800048828 0.000202941897441633 81.72138977050781 0.000202941897441633 C 84.84664154052734 0.000202941897441633 87.97186279296875 1.163227915763855 90.35636901855469 3.489277839660645 L 98.99196624755859 11.9132776260376 C 103.7600631713867 16.5662784576416 103.7600631713867 24.10917854309082 98.99196624755859 28.76217842102051 L 67.59206390380859 59.39547729492188 L 795.3894653320312 59.39547729492188 C 805.2588500976562 59.39547729492188 813.2598876953125 67.39647674560547 813.2598876953125 77.26587677001953 C 813.2598876953125 87.13527679443359 805.2588500976562 95.13627624511719 795.3894653320312 95.13627624511719 L 55.29206466674805 95.13627624511719 L 98.99196624755859 137.7692718505859 C 103.7600631713867 142.4222717285156 103.7600631713867 149.9651794433594 98.99196624755859 154.6181793212891 L 90.35636901855469 163.0421752929688 C 87.97186279296875 165.3686828613281 84.84666442871094 166.531982421875 81.72136688232422 166.531982421875 Z" stroke="none" fill="#707070"/>
          </g>
        </g>
      </g>
    </g>
    <g id="Group_33" data-name="Group 33" transform="translate(48 810)">
      <g id="Group_13-3" data-name="Group 13">
        <g id="Group_5-3" data-name="Group 5" transform="translate(733.953 13.854)">
          <g id="Union_1-3" data-name="Union 1" transform="translate(574.844 174.297) rotate(180)" fill="none">
            <path d="M73.086,163.042,5.365,96.974A17.586,17.586,0,0,1,.033,83.266,17.587,17.587,0,0,1,5.365,69.557L73.086,3.489a12.43,12.43,0,0,1,17.27,0l8.636,8.424a11.711,11.711,0,0,1,0,16.849L67.592,59.4h727.8a17.87,17.87,0,1,1,0,35.741H55.292l43.7,42.633a11.711,11.711,0,0,1,0,16.849l-8.636,8.424a12.428,12.428,0,0,1-17.27,0Z" stroke="none"/>
            <path d="M 81.72136688232422 164.531982421875 C 84.45826721191406 164.531982421875 87.02886962890625 163.4944763183594 88.95977020263672 161.6105804443359 L 97.59516906738281 153.1867828369141 C 99.51226806640625 151.3159790039062 100.5680694580078 148.8324737548828 100.5680694580078 146.1937713623047 C 100.5680694580078 143.5549774169922 99.51226806640625 141.0714721679688 97.59536743164062 139.2008819580078 L 53.89546585083008 96.56787872314453 L 50.37796783447266 93.13627624511719 L 55.29206466674805 93.13627624511719 L 795.3894653320312 93.13627624511719 C 799.6285400390625 93.13627624511719 803.6139526367188 91.48548126220703 806.6114501953125 88.48787689208984 C 809.6090698242188 85.49037933349609 811.2598876953125 81.50497436523438 811.2598876953125 77.26587677001953 C 811.2598876953125 73.02677917480469 809.6090698242188 69.04137420654297 806.6114501953125 66.04387664794922 C 803.6139526367188 63.0462760925293 799.6285400390625 61.39547729492188 795.3894653320312 61.39547729492188 L 67.59206390380859 61.39547729492188 L 62.6779670715332 61.39547729492188 L 66.19546508789062 57.9638786315918 L 97.59516906738281 27.33077812194824 C 99.51226806640625 25.4599781036377 100.5680694580078 22.97647857666016 100.5680694580078 20.33777809143066 C 100.5680694580078 17.69897842407227 99.51226806640625 15.21547794342041 97.59536743164062 13.34487819671631 L 88.95986938476562 4.92097806930542 C 87.02896881103516 3.037477970123291 84.45826721191406 2.00017786026001 81.72136688232422 2.00017786026001 C 78.98446655273438 2.00017786026001 76.41376495361328 3.037477970123291 74.48286437988281 4.920877933502197 L 6.761466503143311 70.98897552490234 C 5.086466312408447 72.62307739257812 3.824166536331177 74.53977966308594 3.009666442871094 76.68567657470703 C 2.22356653213501 78.75698089599609 1.893566489219666 80.92977905273438 2.029066562652588 83.14377593994141 L 2.036466598510742 83.26587677001953 L 2.029066562652588 83.38797760009766 C 1.893566489219666 85.60187530517578 2.22356653213501 87.77468109130859 3.009666442871094 89.84597778320312 C 3.824166536331177 91.99167633056641 5.086466312408447 93.90827941894531 6.761466503143311 95.54248046875 L 74.48296356201172 161.6106719970703 C 76.41386413574219 163.4944763183594 78.98446655273438 164.531982421875 81.72136688232422 164.531982421875 M 81.72136688232422 166.531982421875 C 78.5960693359375 166.531982421875 75.47086334228516 165.3686828613281 73.08626556396484 163.0421752929688 L 5.364866733551025 96.97407531738281 C 1.508866548538208 93.21218109130859 -0.2684334814548492 88.1895751953125 0.03276650235056877 83.26587677001953 C -0.2684334814548492 78.34217834472656 1.508866548538208 73.31927490234375 5.364866733551025 69.55738067626953 L 73.08626556396484 3.489277839660645 C 75.47086334228516 1.163227915763855 78.59613800048828 0.000202941897441633 81.72138977050781 0.000202941897441633 C 84.84664154052734 0.000202941897441633 87.97186279296875 1.163227915763855 90.35636901855469 3.489277839660645 L 98.99196624755859 11.9132776260376 C 103.7600631713867 16.5662784576416 103.7600631713867 24.10917854309082 98.99196624755859 28.76217842102051 L 67.59206390380859 59.39547729492188 L 795.3894653320312 59.39547729492188 C 805.2588500976562 59.39547729492188 813.2598876953125 67.39647674560547 813.2598876953125 77.26587677001953 C 813.2598876953125 87.13527679443359 805.2588500976562 95.13627624511719 795.3894653320312 95.13627624511719 L 55.29206466674805 95.13627624511719 L 98.99196624755859 137.7692718505859 C 103.7600631713867 142.4222717285156 103.7600631713867 149.9651794433594 98.99196624755859 154.6181793212891 L 90.35636901855469 163.0421752929688 C 87.97186279296875 165.3686828613281 84.84666442871094 166.531982421875 81.72136688232422 166.531982421875 Z" stroke="none" fill="#707070"/>
          </g>
        </g>
      </g>
    </g>
    <g id="Group_19" data-name="Group 19" transform="translate(-30 -6)">
      <g id="Group_17" data-name="Group 17" transform="translate(761.389 212.619)">
        <g id="Group_13-4" data-name="Group 13" transform="translate(0 0)">
          <g id="Group_5-4" data-name="Group 5">
            <g id="Union_1-4" data-name="Union 1" transform="translate(0 0)" fill="none">
              <path d="M-442.2,224.033a17.829,17.829,0,0,1-13.708-5.2l-66.068-66.068a11.914,11.914,0,0,1,0-16.849l8.424-8.424a11.915,11.915,0,0,1,16.849,0l36.132,36.132V89.027A17.871,17.871,0,0,1-442.7,71.157a17.919,17.919,0,0,1,4,.45,18.008,18.008,0,0,1,2.758-.212H889.428V7.027a17.871,17.871,0,0,1,35.742,0V86.339a18.008,18.008,0,0,1,.238,2.926,18.283,18.283,0,0,1-18.109,18.11,18.007,18.007,0,0,1-2.927-.239h-1329.2v57.485L-387.7,127.49a11.914,11.914,0,0,1,16.848,0l8.425,8.424a11.881,11.881,0,0,1,3.489,8.425,11.88,11.88,0,0,1-3.489,8.424l-66.068,66.068a17.818,17.818,0,0,1-12.639,5.234Q-441.667,224.064-442.2,224.033Z" stroke="none"/>
              <path d="M -441.1313171386719 224.064453125 L -441.1313171386719 222.064453125 C -436.8904113769531 222.0642700195312 -432.904052734375 220.4135437011719 -429.9067687988281 217.416259765625 L -363.8391418457031 151.3484497070312 C -361.9666137695312 149.4751739501953 -360.9353332519531 146.9857177734375 -360.9353332519531 144.3384399414062 C -360.9353332519531 141.6906280517578 -361.9666137695312 139.2008056640625 -363.8387756347656 137.3278961181641 L -372.2637023925781 128.9037170410156 C -374.1358642578125 127.0315399169922 -376.6253356933594 126.0004501342773 -379.2734985351562 126.0004501342773 C -381.9215087890625 126.0004501342773 -384.4109497070312 127.0315399169922 -386.2833251953125 128.9037170410156 L -423.4164123535156 166.0362701416016 L -426.8305969238281 169.450439453125 L -426.8305969238281 164.6220855712891 L -426.8305969238281 107.1369934082031 L -426.8305969238281 105.1369934082031 L -424.8305969238281 105.1369934082031 L 904.372314453125 105.1369934082031 L 904.5357666015625 105.1369934082031 L 904.6972045898438 105.1635360717773 C 905.551025390625 105.304084777832 906.426513671875 105.375358581543 907.2990112304688 105.375358581543 C 909.4683227539062 105.375358581543 911.5699462890625 104.9458999633789 913.54541015625 104.0991744995117 C 915.4544677734375 103.2808074951172 917.1641235351562 102.1104431152344 918.62646484375 100.6206283569336 L 918.6395874023438 100.607177734375 L 918.65283203125 100.5940856933594 C 920.1428833007812 99.13172149658203 921.3134155273438 97.42208099365234 922.1317749023438 95.51299285888672 C 922.978515625 93.537353515625 923.407958984375 91.43535614013672 923.407958984375 89.26554107666016 C 923.407958984375 88.39372253417969 923.336669921875 87.51844787597656 923.1959228515625 86.66408538818359 L 923.1693725585938 86.50263214111328 L 923.1693725585938 86.33917236328125 L 923.1693725585938 7.02717399597168 C 923.1693725585938 2.788083076477051 921.5186767578125 -1.197371363639832 918.5210571289062 -4.194826126098633 C 915.5235595703125 -7.19246244430542 911.5381469726562 -8.843189239501953 907.2990112304688 -8.843189239501953 C 903.0595703125 -8.843189239501953 899.073974609375 -7.192280292510986 896.0761108398438 -4.194826126098633 C 893.0786743164062 -1.197371363639832 891.427734375 2.788083076477051 891.427734375 7.02717399597168 L 891.427734375 71.39517211914062 L 891.427734375 73.39517211914062 L 889.427734375 73.39517211914062 L -435.9402465820312 73.39517211914062 C -436.7616882324219 73.39517211914062 -437.5866088867188 73.45845031738281 -438.3920593261719 73.58317565917969 L -438.7707824707031 73.64189910888672 L -439.1444091796875 73.55644989013672 C -440.3034973144531 73.29117584228516 -441.500244140625 73.15663146972656 -442.7009582519531 73.15663146972656 C -446.9404296875 73.15663146972656 -450.9260559082031 74.80754089355469 -453.9238586425781 77.80517578125 C -456.9213256835938 80.80262756347656 -458.5722351074219 84.7880859375 -458.5722351074219 89.02717590332031 L -458.5722351074219 163.6219024658203 L -458.5722351074219 168.4502716064453 L -461.9864196777344 165.0360870361328 L -498.1187744140625 128.9039001464844 C -499.9913330078125 127.0315399169922 -502.48095703125 126.0004501342773 -505.1289672851562 126.0004501342773 C -507.7769775390625 126.0004501342773 -510.2667846679688 127.0315399169922 -512.1393432617188 128.9037170410156 L -520.5633544921875 137.3277130126953 C -522.4358520507812 139.200439453125 -523.4671630859375 141.6900787353516 -523.4671630859375 144.3382720947266 C -523.4671630859375 146.9864501953125 -522.4358520507812 149.4759063720703 -520.5633544921875 151.3482666015625 L -454.4951477050781 217.416259765625 C -451.4974975585938 220.4138946533203 -447.5116882324219 222.0646362304688 -443.2718811035156 222.0642700195312 C -442.9547729492188 222.0642700195312 -442.6347961425781 222.0548095703125 -442.3207702636719 222.0360870361328 L -442.2015075683594 222.02880859375 L -442.0824279785156 222.0360870361328 C -441.7660522460938 222.0548095703125 -441.4462280273438 222.064453125 -441.1313171386719 222.064453125 L -441.1313171386719 224.064453125 M -441.1313171386719 224.064453125 C -441.4882507324219 224.064453125 -441.8451538085938 224.0537261962891 -442.2015075683594 224.0324401855469 C -442.5576477050781 224.0536651611328 -442.9151611328125 224.0642852783203 -443.2718200683594 224.0643157958984 C -447.8460998535156 224.0645446777344 -452.41943359375 222.3203582763672 -455.9093322753906 218.8304443359375 L -521.9775390625 152.762451171875 C -526.6304321289062 148.1102600097656 -526.6304321289062 140.5664520263672 -521.9775390625 135.9135437011719 L -513.5535278320312 127.4895401000977 C -511.2269592285156 125.163444519043 -508.177978515625 124.0004043579102 -505.1289978027344 124.0004043579102 C -502.0800170898438 124.0004043579102 -499.0310668945312 125.163444519043 -496.70458984375 127.4895401000977 L -460.5722351074219 163.6219024658203 L -460.5722351074219 89.02717590332031 C -460.5722351074219 79.15772247314453 -452.5713195800781 71.15663146972656 -442.7009582519531 71.15663146972656 C -441.3246154785156 71.15663146972656 -439.9853210449219 71.31226348876953 -438.6982421875 71.6068115234375 C -437.79931640625 71.46753692626953 -436.8780517578125 71.39517211914062 -435.9402465820312 71.39517211914062 L 889.427734375 71.39517211914062 L 889.427734375 7.02717399597168 C 889.427734375 -2.842280387878418 897.4286499023438 -10.84318923950195 907.2990112304688 -10.84318923950195 C 917.1685180664062 -10.84318923950195 925.1693725585938 -2.842280387878418 925.1693725585938 7.02717399597168 L 925.1693725585938 86.33917236328125 C 925.3261108398438 87.29117584228516 925.407958984375 88.26917266845703 925.407958984375 89.26554107666016 C 925.407958984375 94.26153564453125 923.358154296875 98.77845001220703 920.0537719726562 102.0215377807617 C 916.8108520507812 105.3253555297852 912.2939453125 107.375358581543 907.2990112304688 107.375358581543 C 906.3026733398438 107.375358581543 905.324462890625 107.2937164306641 904.372314453125 107.1369934082031 L -424.8305969238281 107.1369934082031 L -424.8305969238281 164.6220855712891 L -387.697509765625 127.4895401000977 C -385.3714294433594 125.163444519043 -382.3224182128906 124.0004043579102 -379.2734375 124.0004043579102 C -376.2244567871094 124.0004043579102 -373.1755065917969 125.163444519043 -370.8495178222656 127.4895401000977 L -362.4245910644531 135.9135437011719 C -360.0989685058594 138.2400817871094 -358.9353332519531 141.2891693115234 -358.9353332519531 144.3384399414062 C -358.9353332519531 147.3866271972656 -360.0989685058594 150.4358978271484 -362.4245910644531 152.762451171875 L -428.4926147460938 218.8304443359375 C -431.982421875 222.3202667236328 -436.5571594238281 224.0642700195312 -441.1313171386719 224.064453125 Z" stroke="none" fill="#707070"/>
            </g>
          </g>
        </g>
      </g>
    </g>
    <g id="Group_29" data-name="Group 29" transform="translate(-30 395)">
      <g id="Group_17-2" data-name="Group 17" transform="translate(761.389 212.619)">
        <g id="Group_13-5" data-name="Group 13" transform="translate(0 0)">
          <g id="Group_5-5" data-name="Group 5">
            <g id="Union_1-5" data-name="Union 1" transform="translate(0 0)" fill="none">
              <path d="M-442.2,224.033a17.829,17.829,0,0,1-13.708-5.2l-66.068-66.068a11.914,11.914,0,0,1,0-16.849l8.424-8.424a11.915,11.915,0,0,1,16.849,0l36.132,36.132V89.027A17.871,17.871,0,0,1-442.7,71.157a17.919,17.919,0,0,1,4,.45,18.008,18.008,0,0,1,2.758-.212H889.428V7.027a17.871,17.871,0,0,1,35.742,0V86.339a18.008,18.008,0,0,1,.238,2.926,18.283,18.283,0,0,1-18.109,18.11,18.007,18.007,0,0,1-2.927-.239h-1329.2v57.485L-387.7,127.49a11.914,11.914,0,0,1,16.848,0l8.425,8.424a11.881,11.881,0,0,1,3.489,8.425,11.88,11.88,0,0,1-3.489,8.424l-66.068,66.068a17.818,17.818,0,0,1-12.639,5.234Q-441.667,224.064-442.2,224.033Z" stroke="none"/>
              <path d="M -441.1313171386719 224.064453125 L -441.1313171386719 222.064453125 C -436.8904113769531 222.0642700195312 -432.904052734375 220.4135437011719 -429.9067687988281 217.416259765625 L -363.8391418457031 151.3484497070312 C -361.9666137695312 149.4751739501953 -360.9353332519531 146.9857177734375 -360.9353332519531 144.3384399414062 C -360.9353332519531 141.6906280517578 -361.9666137695312 139.2008056640625 -363.8387756347656 137.3278961181641 L -372.2637023925781 128.9037170410156 C -374.1358642578125 127.0315399169922 -376.6253356933594 126.0004501342773 -379.2734985351562 126.0004501342773 C -381.9215087890625 126.0004501342773 -384.4109497070312 127.0315399169922 -386.2833251953125 128.9037170410156 L -423.4164123535156 166.0362701416016 L -426.8305969238281 169.450439453125 L -426.8305969238281 164.6220855712891 L -426.8305969238281 107.1369934082031 L -426.8305969238281 105.1369934082031 L -424.8305969238281 105.1369934082031 L 904.372314453125 105.1369934082031 L 904.5357666015625 105.1369934082031 L 904.6972045898438 105.1635360717773 C 905.551025390625 105.304084777832 906.426513671875 105.375358581543 907.2990112304688 105.375358581543 C 909.4683227539062 105.375358581543 911.5699462890625 104.9458999633789 913.54541015625 104.0991744995117 C 915.4544677734375 103.2808074951172 917.1641235351562 102.1104431152344 918.62646484375 100.6206283569336 L 918.6395874023438 100.607177734375 L 918.65283203125 100.5940856933594 C 920.1428833007812 99.13172149658203 921.3134155273438 97.42208099365234 922.1317749023438 95.51299285888672 C 922.978515625 93.537353515625 923.407958984375 91.43535614013672 923.407958984375 89.26554107666016 C 923.407958984375 88.39372253417969 923.336669921875 87.51844787597656 923.1959228515625 86.66408538818359 L 923.1693725585938 86.50263214111328 L 923.1693725585938 86.33917236328125 L 923.1693725585938 7.02717399597168 C 923.1693725585938 2.788083076477051 921.5186767578125 -1.197371363639832 918.5210571289062 -4.194826126098633 C 915.5235595703125 -7.19246244430542 911.5381469726562 -8.843189239501953 907.2990112304688 -8.843189239501953 C 903.0595703125 -8.843189239501953 899.073974609375 -7.192280292510986 896.0761108398438 -4.194826126098633 C 893.0786743164062 -1.197371363639832 891.427734375 2.788083076477051 891.427734375 7.02717399597168 L 891.427734375 71.39517211914062 L 891.427734375 73.39517211914062 L 889.427734375 73.39517211914062 L -435.9402465820312 73.39517211914062 C -436.7616882324219 73.39517211914062 -437.5866088867188 73.45845031738281 -438.3920593261719 73.58317565917969 L -438.7707824707031 73.64189910888672 L -439.1444091796875 73.55644989013672 C -440.3034973144531 73.29117584228516 -441.500244140625 73.15663146972656 -442.7009582519531 73.15663146972656 C -446.9404296875 73.15663146972656 -450.9260559082031 74.80754089355469 -453.9238586425781 77.80517578125 C -456.9213256835938 80.80262756347656 -458.5722351074219 84.7880859375 -458.5722351074219 89.02717590332031 L -458.5722351074219 163.6219024658203 L -458.5722351074219 168.4502716064453 L -461.9864196777344 165.0360870361328 L -498.1187744140625 128.9039001464844 C -499.9913330078125 127.0315399169922 -502.48095703125 126.0004501342773 -505.1289672851562 126.0004501342773 C -507.7769775390625 126.0004501342773 -510.2667846679688 127.0315399169922 -512.1393432617188 128.9037170410156 L -520.5633544921875 137.3277130126953 C -522.4358520507812 139.200439453125 -523.4671630859375 141.6900787353516 -523.4671630859375 144.3382720947266 C -523.4671630859375 146.9864501953125 -522.4358520507812 149.4759063720703 -520.5633544921875 151.3482666015625 L -454.4951477050781 217.416259765625 C -451.4974975585938 220.4138946533203 -447.5116882324219 222.0646362304688 -443.2718811035156 222.0642700195312 C -442.9547729492188 222.0642700195312 -442.6347961425781 222.0548095703125 -442.3207702636719 222.0360870361328 L -442.2015075683594 222.02880859375 L -442.0824279785156 222.0360870361328 C -441.7660522460938 222.0548095703125 -441.4462280273438 222.064453125 -441.1313171386719 222.064453125 L -441.1313171386719 224.064453125 M -441.1313171386719 224.064453125 C -441.4882507324219 224.064453125 -441.8451538085938 224.0537261962891 -442.2015075683594 224.0324401855469 C -442.5576477050781 224.0536651611328 -442.9151611328125 224.0642852783203 -443.2718200683594 224.0643157958984 C -447.8460998535156 224.0645446777344 -452.41943359375 222.3203582763672 -455.9093322753906 218.8304443359375 L -521.9775390625 152.762451171875 C -526.6304321289062 148.1102600097656 -526.6304321289062 140.5664520263672 -521.9775390625 135.9135437011719 L -513.5535278320312 127.4895401000977 C -511.2269592285156 125.163444519043 -508.177978515625 124.0004043579102 -505.1289978027344 124.0004043579102 C -502.0800170898438 124.0004043579102 -499.0310668945312 125.163444519043 -496.70458984375 127.4895401000977 L -460.5722351074219 163.6219024658203 L -460.5722351074219 89.02717590332031 C -460.5722351074219 79.15772247314453 -452.5713195800781 71.15663146972656 -442.7009582519531 71.15663146972656 C -441.3246154785156 71.15663146972656 -439.9853210449219 71.31226348876953 -438.6982421875 71.6068115234375 C -437.79931640625 71.46753692626953 -436.8780517578125 71.39517211914062 -435.9402465820312 71.39517211914062 L 889.427734375 71.39517211914062 L 889.427734375 7.02717399597168 C 889.427734375 -2.842280387878418 897.4286499023438 -10.84318923950195 907.2990112304688 -10.84318923950195 C 917.1685180664062 -10.84318923950195 925.1693725585938 -2.842280387878418 925.1693725585938 7.02717399597168 L 925.1693725585938 86.33917236328125 C 925.3261108398438 87.29117584228516 925.407958984375 88.26917266845703 925.407958984375 89.26554107666016 C 925.407958984375 94.26153564453125 923.358154296875 98.77845001220703 920.0537719726562 102.0215377807617 C 916.8108520507812 105.3253555297852 912.2939453125 107.375358581543 907.2990112304688 107.375358581543 C 906.3026733398438 107.375358581543 905.324462890625 107.2937164306641 904.372314453125 107.1369934082031 L -424.8305969238281 107.1369934082031 L -424.8305969238281 164.6220855712891 L -387.697509765625 127.4895401000977 C -385.3714294433594 125.163444519043 -382.3224182128906 124.0004043579102 -379.2734375 124.0004043579102 C -376.2244567871094 124.0004043579102 -373.1755065917969 125.163444519043 -370.8495178222656 127.4895401000977 L -362.4245910644531 135.9135437011719 C -360.0989685058594 138.2400817871094 -358.9353332519531 141.2891693115234 -358.9353332519531 144.3384399414062 C -358.9353332519531 147.3866271972656 -360.0989685058594 150.4358978271484 -362.4245910644531 152.762451171875 L -428.4926147460938 218.8304443359375 C -431.982421875 222.3202667236328 -436.5571594238281 224.0642700195312 -441.1313171386719 224.064453125 Z" stroke="none" fill="#707070"/>
            </g>
          </g>
        </g>
      </g>
    </g>
    <g id="Group_27" data-name="Group 27" transform="translate(-10)">
      <g id="Group_20" data-name="Group 20" transform="translate(-25 9)">
        <g id="Rectangle_6" data-name="Rectangle 6" transform="translate(58 36)" fill="#fff" stroke="#707070" stroke-width="4">
          <rect width="506" height="135" rx="25" stroke="none"/>
          <rect x="2" y="2" width="502" height="131" rx="23" fill="none"/>
        </g>
        <text id="Raw_Data" data-name="Raw Data" transform="translate(205 122)" fill="#707070" font-size="50" font-family="HelveticaNeue, Helvetica Neue"><tspan x="0" y="0">Raw Data</tspan></text>
      </g>
      <g id="Group_26" data-name="Group 26" transform="translate(1346 9)">
        <g id="Rectangle_6-2" data-name="Rectangle 6" transform="translate(58 36)" fill="#fff" stroke="#707070" stroke-width="4">
          <rect width="506" height="135" rx="25" stroke="none"/>
          <rect x="2" y="2" width="502" height="131" rx="23" fill="none"/>
        </g>
        <text id="Segmented_Data" data-name="Segmented Data" transform="translate(123 122)" fill="#707070" font-size="50" font-family="HelveticaNeue, Helvetica Neue"><tspan x="0" y="0">Segmented Data</tspan></text>
      </g>
    </g>
    <g id="Group_30" data-name="Group 30" transform="translate(-10 401)">
      <g id="Group_20-2" data-name="Group 20" transform="translate(-25 9)">
        <g id="Rectangle_6-3" data-name="Rectangle 6" transform="translate(58 36)" fill="#fff" stroke="#707070" stroke-width="4">
          <rect width="506" height="135" rx="25" stroke="none"/>
          <rect x="2" y="2" width="502" height="131" rx="23" fill="none"/>
        </g>
        <text id="Cognate_Sets" data-name="Cognate Sets" transform="translate(159 119)" fill="#707070" font-size="50" font-family="HelveticaNeue, Helvetica Neue"><tspan x="0" y="0">Cognate Sets</tspan></text>
      </g>
      <g id="Group_26-2" data-name="Group 26" transform="translate(1346 9)">
        <g id="Rectangle_6-4" data-name="Rectangle 6" transform="translate(58 36)" fill="#fff" stroke="#707070" stroke-width="4">
          <rect width="506" height="135" rx="25" stroke="none"/>
          <rect x="2" y="2" width="502" height="131" rx="23" fill="none"/>
        </g>
        <text id="Alignments" transform="translate(187 122)" fill="#707070" font-size="50" font-family="HelveticaNeue, Helvetica Neue"><tspan x="0" y="0">Alignments</tspan></text>
      </g>
    </g>
    <g id="Group_31" data-name="Group 31" transform="translate(-11 802)">
      <g id="Group_20-3" data-name="Group 20" transform="translate(-25 9)">
        <g id="Rectangle_6-5" data-name="Rectangle 6" transform="translate(58 36)" fill="#fff" stroke="#707070" stroke-width="4">
          <rect width="506" height="135" rx="25" stroke="none"/>
          <rect x="2" y="2" width="502" height="131" rx="23" fill="none"/>
        </g>
        <text id="Strict_Cognates" data-name="Strict Cognates" transform="translate(159 119)" fill="#707070" font-size="50" font-family="HelveticaNeue, Helvetica Neue"><tspan x="0" y="0">Strict Cognates</tspan></text>
      </g>
      <g id="Group_26-3" data-name="Group 26" transform="translate(1346 9)">
        <g id="Rectangle_6-6" data-name="Rectangle 6" transform="translate(58 36)" fill="#fff" stroke="#707070" stroke-width="4">
          <rect width="506" height="135" rx="25" stroke="none"/>
          <rect x="2" y="2" width="502" height="131" rx="23" fill="none"/>
        </g>
        <text id="Correspondence_Patterns" data-name="Correspondence
Patterns" transform="translate(125 92)" fill="#707070" font-size="50" font-family="HelveticaNeue, Helvetica Neue"><tspan x="0" y="0">Correspondence</tspan><tspan x="0" y="60">Patterns</tspan></text>
      </g>
    </g>
    <text id="_1_Lifting" data-name="(1) Lifting" transform="translate(547 78)" fill="#707070" font-size="50" font-family="HelveticaNeue, Helvetica Neue"><tspan x="0" y="0">(1) Lifting</tspan></text>
    <text id="_2_Cognates_inside_meaning_slots" data-name="(2) Cognates inside meaning slots" transform="translate(547 244)" fill="#707070" font-size="50" font-family="HelveticaNeue, Helvetica Neue"><tspan x="0" y="0">(2) Cognates inside meaning slots</tspan></text>
    <text id="_3_Phonetic_alignment_" data-name="(3) Phonetic alignment
" transform="translate(547 465)" fill="#707070" font-size="50" font-family="HelveticaNeue, Helvetica Neue"><tspan x="0" y="0">(3) Phonetic alignment</tspan><tspan x="0" y="60"></tspan></text>
    <text id="_4_Cognates_across_meaning_slots_" data-name="(4) Cognates across meaning slots
" transform="translate(547 645)" fill="#707070" font-size="50" font-family="HelveticaNeue, Helvetica Neue"><tspan x="0" y="0">(4) Cognates across meaning slots</tspan><tspan x="0" y="60"></tspan></text>
    <text id="_5_Correspondence_patterns_" data-name="(5) Correspondence patterns
" transform="translate(546 880)" fill="#707070" font-size="50" font-family="HelveticaNeue, Helvetica Neue"><tspan x="0" y="0">(5) Correspondence patterns</tspan><tspan x="0" y="60"></tspan></text>
  </g>
</svg>
