<svg xmlns="http://www.w3.org/2000/svg" xmlns:xlink="http://www.w3.org/1999/xlink" width="2129" height="1293" viewBox="0 0 2129 1293">
  <defs>
    <clipPath id="clip-Web_1920_2">
      <rect width="2129" height="1293"/>
    </clipPath>
  </defs>
  <g id="Web_1920_2" data-name="Web 1920 – 2" clip-path="url(#clip-Web_1920_2)">
    <rect width="2129" height="1293" fill="#fff"/>
    <g id="Group_36" data-name="Group 36">
      <g id="Group_33" data-name="Group 33" transform="translate(106 79)">
        <g id="Rectangle_2" data-name="Rectangle 2" transform="translate(884 23)" fill="#fff" stroke="#707070" stroke-width="2">
          <rect width="988" height="179" stroke="none"/>
          <rect x="1" y="1" width="986" height="177" fill="none"/>
        </g>
        <text id="TEMPLATE" transform="translate(1303 71)" fill="#020202" font-size="30" font-family="HelveticaNeue-Medium, Helvetica Neue" font-weight="500"><tspan x="0" y="0">TEMPLATE</tspan></text>
        <g id="Rectangle_3" data-name="Rectangle 3" transform="translate(884 121)" fill="#fff" stroke="#707070" stroke-width="2">
          <rect width="84" height="81" stroke="none"/>
          <rect x="1" y="1" width="82" height="79" fill="none"/>
        </g>
        <text id="i" transform="translate(922.5 173)" fill="#020202" stroke="#707070" stroke-width="2" font-size="30" font-family="HelveticaNeue, Helvetica Neue"><tspan x="0" y="0">i</tspan></text>
        <g id="Rectangle_5" data-name="Rectangle 5" transform="translate(1607 121)" fill="#fff" stroke="#707070" stroke-width="2">
          <rect width="84" height="81" stroke="none"/>
          <rect x="1" y="1" width="82" height="79" fill="none"/>
        </g>
        <text id="n" transform="translate(1639.5 173)" fill="#020202" stroke="#707070" stroke-width="2" font-size="30" font-family="Monaco"><tspan x="0" y="0">n</tspan></text>
        <g id="Rectangle_4" data-name="Rectangle 4" transform="translate(974 121)" fill="#fff" stroke="#707070" stroke-width="2">
          <rect width="84" height="81" stroke="none"/>
          <rect x="1" y="1" width="82" height="79" fill="none"/>
        </g>
        <text id="m" transform="translate(1006.5 173)" fill="#020202" stroke="#707070" stroke-width="2" font-size="30" font-family="Monaco"><tspan x="0" y="0">m</tspan></text>
        <g id="Rectangle_6" data-name="Rectangle 6" transform="translate(1155 121)" fill="#fff" stroke="#707070" stroke-width="2">
          <rect width="84" height="81" stroke="none"/>
          <rect x="1" y="1" width="82" height="79" fill="none"/>
        </g>
        <text id="c" transform="translate(1188.5 173)" fill="#020202" stroke="#707070" stroke-width="2" font-size="30" font-family="Monaco"><tspan x="0" y="0">c</tspan></text>
        <g id="Rectangle_5-2" data-name="Rectangle 5" transform="translate(1065 121)" fill="#fff" stroke="#707070" stroke-width="2">
          <rect width="84" height="81" stroke="none"/>
          <rect x="1" y="1" width="82" height="79" fill="none"/>
        </g>
        <text id="n-2" data-name="n" transform="translate(1098.5 173)" fill="#020202" stroke="#707070" stroke-width="2" font-size="30" font-family="Monaco"><tspan x="0" y="0">n</tspan></text>
        <g id="Rectangle_8" data-name="Rectangle 8" transform="translate(1336 121)" fill="#fff" stroke="#707070" stroke-width="2">
          <rect width="84" height="81" stroke="none"/>
          <rect x="1" y="1" width="82" height="79" fill="none"/>
        </g>
        <text id="_" data-name="+" transform="translate(1369.5 173)" fill="#020202" stroke="#707070" stroke-width="2" font-size="30" font-family="Monaco"><tspan x="0" y="0">+</tspan></text>
        <g id="Rectangle_7" data-name="Rectangle 7" transform="translate(1246 121)" fill="#fff" stroke="#707070" stroke-width="2">
          <rect width="84" height="81" stroke="none"/>
          <rect x="1" y="1" width="82" height="79" fill="none"/>
        </g>
        <text id="t" transform="translate(1278.5 173)" fill="#020202" stroke="#707070" stroke-width="2" font-size="30" font-family="Monaco"><tspan x="0" y="0">t</tspan></text>
        <g id="Rectangle_4-2" data-name="Rectangle 4" transform="translate(1517 121)" fill="#fff" stroke="#707070" stroke-width="2">
          <rect width="84" height="81" stroke="none"/>
          <rect x="1" y="1" width="82" height="79" fill="none"/>
        </g>
        <text id="m-2" data-name="m" transform="translate(1550.5 173)" fill="#020202" stroke="#707070" stroke-width="2" font-size="30" font-family="Monaco"><tspan x="0" y="0">m</tspan></text>
        <g id="Rectangle_3-2" data-name="Rectangle 3" transform="translate(1426 121)" fill="#fff" stroke="#707070" stroke-width="2">
          <rect width="84" height="81" stroke="none"/>
          <rect x="1" y="1" width="82" height="79" fill="none"/>
        </g>
        <text id="i-2" data-name="i" transform="translate(1464.5 173)" fill="#020202" stroke="#707070" stroke-width="2" font-size="30" font-family="HelveticaNeue, Helvetica Neue"><tspan x="0" y="0">i</tspan></text>
        <g id="Rectangle_6-2" data-name="Rectangle 6" transform="translate(1698 121)" fill="#fff" stroke="#707070" stroke-width="2">
          <rect width="84" height="81" stroke="none"/>
          <rect x="1" y="1" width="82" height="79" fill="none"/>
        </g>
        <text id="c-2" data-name="c" transform="translate(1731.5 173)" fill="#020202" stroke="#707070" stroke-width="2" font-size="30" font-family="Monaco"><tspan x="0" y="0">c</tspan></text>
        <g id="Rectangle_7-2" data-name="Rectangle 7" transform="translate(1788 121)" fill="#fff" stroke="#707070" stroke-width="2">
          <rect width="84" height="81" stroke="none"/>
          <rect x="1" y="1" width="82" height="79" fill="none"/>
        </g>
        <text id="t-2" data-name="t" transform="translate(1821.5 173)" fill="#020202" stroke="#707070" stroke-width="2" font-size="30" font-family="Monaco"><tspan x="0" y="0">t</tspan></text>
      </g>
      <g id="Group_34" data-name="Group 34" transform="translate(106 89)">
        <g id="Rectangle_3-3" data-name="Rectangle 3" transform="translate(884 243)" fill="#fff" stroke="#707070" stroke-width="1">
          <rect width="84" height="81" stroke="none"/>
          <rect x="0.5" y="0.5" width="83" height="80" fill="none"/>
        </g>
        <rect id="Rectangle_3-4" data-name="Rectangle 3" width="84" height="81" transform="translate(884 336)" fill="#25c2d0"/>
        <text id="m-3" data-name="m" transform="translate(909 391)" fill="#fff" font-size="40" font-family="HelveticaNeue, Helvetica Neue"><tspan x="0" y="0">m</tspan></text>
        <rect id="Rectangle_3-5" data-name="Rectangle 3" width="84" height="81" transform="translate(884 428)" fill="#a2ef56"/>
        <text id="ʔ" transform="translate(915 483)" fill="#fff" font-size="40" font-family="HelveticaNeue, Helvetica Neue"><tspan x="0" y="0">ʔ</tspan></text>
        <rect id="Rectangle_3-6" data-name="Rectangle 3" width="84" height="81" transform="translate(884 521)" fill="#204ad3"/>
        <text id="l" transform="translate(921 576)" fill="#fff" font-size="40" font-family="HelveticaNeue, Helvetica Neue"><tspan x="0" y="0">l</tspan></text>
        <rect id="Rectangle_5-3" data-name="Rectangle 5" width="84" height="81" transform="translate(1607 243)" fill="#f70000"/>
        <text id="o" transform="translate(1637 299)" fill="#fff" font-size="40" font-family="Monaco"><tspan x="0" y="0">o</tspan></text>
        <rect id="Rectangle_5-4" data-name="Rectangle 5" width="84" height="81" transform="translate(1607 336)" fill="#f70000"/>
        <text id="a" transform="translate(1637 392)" fill="#fff" font-size="40" font-family="Monaco"><tspan x="0" y="0">a</tspan></text>
        <rect id="Rectangle_5-5" data-name="Rectangle 5" width="84" height="81" transform="translate(1607 428)" fill="#f70000"/>
        <text id="ai" transform="translate(1625 484)" fill="#fff" font-size="40" font-family="Monaco"><tspan x="0" y="0">ai</tspan></text>
        <rect id="Rectangle_5-6" data-name="Rectangle 5" width="84" height="81" transform="translate(1607 521)" fill="#f70000"/>
        <text id="e" transform="translate(1637 577)" fill="#fff" font-size="40" font-family="Monaco"><tspan x="0" y="0">e</tspan></text>
        <g id="Rectangle_4-3" data-name="Rectangle 4" transform="translate(974 243)" fill="#fff" stroke="#707070" stroke-width="1">
          <rect width="84" height="81" stroke="none"/>
          <rect x="0.5" y="0.5" width="83" height="80" fill="none"/>
        </g>
        <rect id="Rectangle_4-4" data-name="Rectangle 4" width="84" height="81" transform="translate(974 336)" fill="#d1d1d1"/>
        <text id="_-" data-name="-" transform="translate(1004 392)" fill="#fff" font-size="40" font-family="Monaco"><tspan x="0" y="0">-</tspan></text>
        <rect id="Rectangle_4-5" data-name="Rectangle 4" width="84" height="81" transform="translate(974 428)" fill="#d1d1d1"/>
        <text id="_--2" data-name="-" transform="translate(1004 484)" fill="#fff" font-size="40" font-family="Monaco"><tspan x="0" y="0">-</tspan></text>
        <rect id="Rectangle_4-6" data-name="Rectangle 4" width="84" height="81" transform="translate(974 521)" fill="#d1d1d1"/>
        <text id="_--3" data-name="-" transform="translate(1004 577)" fill="#fff" font-size="40" font-family="Monaco"><tspan x="0" y="0">-</tspan></text>
        <g id="Rectangle_6-3" data-name="Rectangle 6" transform="translate(1155 243)" fill="#fff" stroke="#707070" stroke-width="1">
          <rect width="84" height="81" stroke="none"/>
          <rect x="0.5" y="0.5" width="83" height="80" fill="none"/>
        </g>
        <rect id="Rectangle_6-4" data-name="Rectangle 6" width="84" height="81" transform="translate(1155 336)" fill="#d1d1d1"/>
        <text id="_--4" data-name="-" transform="translate(1185 392)" fill="#fff" font-size="40" font-family="Monaco"><tspan x="0" y="0">-</tspan></text>
        <rect id="Rectangle_6-5" data-name="Rectangle 6" width="84" height="81" transform="translate(1155 428)" fill="#d1d1d1"/>
        <text id="_--5" data-name="-" transform="translate(1185 484)" fill="#fff" font-size="40" font-family="Monaco"><tspan x="0" y="0">-</tspan></text>
        <rect id="Rectangle_6-6" data-name="Rectangle 6" width="84" height="81" transform="translate(1155 521)" fill="#d1d1d1"/>
        <text id="_--6" data-name="-" transform="translate(1185 577)" fill="#fff" font-size="40" font-family="Monaco"><tspan x="0" y="0">-</tspan></text>
        <g id="Rectangle_5-7" data-name="Rectangle 5" transform="translate(1065 243)" fill="#fff" stroke="#707070" stroke-width="1">
          <rect width="84" height="81" stroke="none"/>
          <rect x="0.5" y="0.5" width="83" height="80" fill="none"/>
        </g>
        <rect id="Rectangle_5-8" data-name="Rectangle 5" width="84" height="81" transform="translate(1065 336)" fill="#f70000"/>
        <text id="a-2" data-name="a" transform="translate(1095 392)" fill="#fff" font-size="40" font-family="Monaco"><tspan x="0" y="0">a</tspan></text>
        <rect id="Rectangle_5-9" data-name="Rectangle 5" width="84" height="81" transform="translate(1065 428)" fill="#f70000"/>
        <text id="a-3" data-name="a" transform="translate(1095 484)" fill="#fff" font-size="40" font-family="Monaco"><tspan x="0" y="0">a</tspan></text>
        <rect id="Rectangle_5-10" data-name="Rectangle 5" width="84" height="81" transform="translate(1065 521)" fill="#f70000"/>
        <text id="a-4" data-name="a" transform="translate(1095 577)" fill="#fff" font-size="40" font-family="Monaco"><tspan x="0" y="0">a</tspan></text>
        <g id="Rectangle_8-2" data-name="Rectangle 8" transform="translate(1336 243)" fill="#fff" stroke="#707070" stroke-width="1">
          <rect width="84" height="81" stroke="none"/>
          <rect x="0.5" y="0.5" width="83" height="80" fill="none"/>
        </g>
        <rect id="Rectangle_8-3" data-name="Rectangle 8" width="84" height="81" transform="translate(1336 336)" fill="#e6dfdf"/>
        <text id="_2" data-name="+" transform="translate(1366 392)" fill="#fff" font-size="40" font-family="Monaco"><tspan x="0" y="0">+</tspan></text>
        <rect id="Rectangle_8-4" data-name="Rectangle 8" width="84" height="81" transform="translate(1336 428)" fill="#e6dfdf"/>
        <text id="_3" data-name="+" transform="translate(1366 484)" fill="#fff" font-size="40" font-family="Monaco"><tspan x="0" y="0">+</tspan></text>
        <rect id="Rectangle_8-5" data-name="Rectangle 8" width="84" height="81" transform="translate(1336 521)" fill="#e6dfdf"/>
        <text id="_4" data-name="+" transform="translate(1366 577)" fill="#fff" font-size="40" font-family="Monaco"><tspan x="0" y="0">+</tspan></text>
        <g id="Rectangle_7-3" data-name="Rectangle 7" transform="translate(1246 243)" fill="#fff" stroke="#707070" stroke-width="1">
          <rect width="84" height="81" stroke="none"/>
          <rect x="0.5" y="0.5" width="83" height="80" fill="none"/>
        </g>
        <rect id="Rectangle_7-4" data-name="Rectangle 7" width="84" height="81" transform="translate(1246 336)" fill="#ff7791"/>
        <text id="_5" data-name="⁴²" transform="translate(1264 392)" fill="#fff" font-size="40" font-family="Monaco"><tspan x="0" y="0">⁴²</tspan></text>
        <rect id="Rectangle_7-5" data-name="Rectangle 7" width="84" height="81" transform="translate(1246 428)" fill="#ff7791"/>
        <text id="_6" data-name="⁵³" transform="translate(1264 484)" fill="#fff" font-size="40" font-family="Monaco"><tspan x="0" y="0">⁵³</tspan></text>
        <rect id="Rectangle_7-6" data-name="Rectangle 7" width="84" height="81" transform="translate(1246 521)" fill="#ff7791"/>
        <text id="_7" data-name="⁰/³" transform="translate(1252 577)" fill="rgba(252,252,252,0.61)" font-size="40" font-family="Monaco"><tspan x="0" y="0">⁰/</tspan><tspan y="0" fill="#fff">³</tspan></text>
        <rect id="Rectangle_4-7" data-name="Rectangle 4" width="84" height="81" transform="translate(1517 243)" fill="#d1d1d1"/>
        <text id="_--7" data-name="-" transform="translate(1547 299)" fill="#fff" font-size="40" font-family="Monaco"><tspan x="0" y="0">-</tspan></text>
        <rect id="Rectangle_4-8" data-name="Rectangle 4" width="84" height="81" transform="translate(1517 336)" fill="#d1d1d1"/>
        <text id="_--8" data-name="-" transform="translate(1547 392)" fill="#fff" font-size="40" font-family="Monaco"><tspan x="0" y="0">-</tspan></text>
        <rect id="Rectangle_4-9" data-name="Rectangle 4" width="84" height="81" transform="translate(1517 428)" fill="#d1d1d1"/>
        <text id="_--9" data-name="-" transform="translate(1547 484)" fill="#fff" font-size="40" font-family="Monaco"><tspan x="0" y="0">-</tspan></text>
        <rect id="Rectangle_4-10" data-name="Rectangle 4" width="84" height="81" transform="translate(1517 521)" fill="#d1d1d1"/>
        <text id="_--10" data-name="-" transform="translate(1547 577)" fill="#fff" font-size="40" font-family="Monaco"><tspan x="0" y="0">-</tspan></text>
        <path id="Path_1" data-name="Path 1" d="M0,0H84V81H0Z" transform="translate(1426 243)" fill="#25c2d0"/>
        <text id="n̥" transform="translate(1457 298)" fill="#fff" font-size="40" font-family="HelveticaNeue, Helvetica Neue"><tspan x="0" y="0">n̥</tspan></text>
        <rect id="Rectangle_3-7" data-name="Rectangle 3" width="84" height="81" transform="translate(1426 336)" fill="#25c2d0"/>
        <text id="n̥-2" data-name="n̥" transform="translate(1457 391)" fill="#fff" font-size="40" font-family="HelveticaNeue, Helvetica Neue"><tspan x="0" y="0">n̥</tspan></text>
        <rect id="Rectangle_3-8" data-name="Rectangle 3" width="84" height="81" transform="translate(1426 428)" fill="#25c2d0"/>
        <text id="n-3" data-name="n" transform="translate(1457 483)" fill="#fff" font-size="40" font-family="HelveticaNeue, Helvetica Neue"><tspan x="0" y="0">n</tspan></text>
        <rect id="Rectangle_3-9" data-name="Rectangle 3" width="84" height="81" transform="translate(1426 521)" fill="#25c2d0"/>
        <text id="n̥-3" data-name="n̥" transform="translate(1457 576)" fill="#fff" font-size="40" font-family="HelveticaNeue, Helvetica Neue"><tspan x="0" y="0">n̥</tspan></text>
        <rect id="Rectangle_6-7" data-name="Rectangle 6" width="84" height="81" transform="translate(1698 243)" fill="#d1d1d1"/>
        <text id="_--11" data-name="-" transform="translate(1728 299)" fill="#fff" font-size="40" font-family="Monaco"><tspan x="0" y="0">-</tspan></text>
        <rect id="Rectangle_6-8" data-name="Rectangle 6" width="84" height="81" transform="translate(1698 336)" fill="#25c2d0"/>
        <text id="ŋ" transform="translate(1728 392)" fill="#fff" font-size="40" font-family="Monaco"><tspan x="0" y="0">ŋ</tspan></text>
        <rect id="Rectangle_6-9" data-name="Rectangle 6" width="84" height="81" transform="translate(1698 428)" fill="#d1d1d1"/>
        <text id="_--12" data-name="-" transform="translate(1728 484)" fill="#fff" font-size="40" font-family="Monaco"><tspan x="0" y="0">-</tspan></text>
        <path id="Path_2" data-name="Path 2" d="M0,0H84V81H0Z" transform="translate(1698 520.96)" fill="#d1d1d1"/>
        <text id="_--13" data-name="-" transform="translate(1728 577)" fill="#fff" font-size="40" font-family="Monaco"><tspan x="0" y="0">-</tspan></text>
        <rect id="Rectangle_7-7" data-name="Rectangle 7" width="84" height="81" transform="translate(1788 243)" fill="#ff7791"/>
        <text id="_8" data-name="⁴³" transform="translate(1806 299)" fill="#fff" font-size="40" font-family="Monaco"><tspan x="0" y="0">⁴³</tspan></text>
        <rect id="Rectangle_7-8" data-name="Rectangle 7" width="84" height="81" transform="translate(1788 336)" fill="#ff7791"/>
        <text id="_9" data-name="³³" transform="translate(1806 392)" fill="#fff" font-size="40" font-family="Monaco"><tspan x="0" y="0">³³</tspan></text>
        <rect id="Rectangle_7-9" data-name="Rectangle 7" width="84" height="81" transform="translate(1788 428)" fill="#ff7791"/>
        <text id="_10" data-name="⁴⁴" transform="translate(1806 484)" fill="#fff" font-size="40" font-family="Monaco"><tspan x="0" y="0">⁴⁴</tspan></text>
        <rect id="Rectangle_7-10" data-name="Rectangle 7" width="84" height="81" transform="translate(1788 521)" fill="#ff7791"/>
        <text id="_11" data-name="³⁵" transform="translate(1806 577)" fill="#fff" font-size="40" font-family="Monaco"><tspan x="0" y="0">³⁵</tspan></text>
        <g id="Rectangle_1" data-name="Rectangle 1" transform="translate(21 248)" fill="#fff" stroke="#707070" stroke-width="1">
          <rect width="246" height="81" stroke="none"/>
          <rect x="0.5" y="0.5" width="245" height="80" fill="none"/>
        </g>
        <text id="Chuanqiandian" transform="translate(36 300)" font-size="32" font-family="HelveticaNeue, Helvetica Neue"><tspan x="0" y="0">Chuanqiandian</tspan></text>
        <g id="Rectangle_1-2" data-name="Rectangle 1" transform="translate(21 341)" fill="#fff" stroke="#707070" stroke-width="1">
          <rect width="246" height="81" stroke="none"/>
          <rect x="0.5" y="0.5" width="245" height="80" fill="none"/>
        </g>
        <text id="Numao" transform="translate(92 393)" font-size="32" font-family="HelveticaNeue, Helvetica Neue"><tspan x="0" y="0">Numao</tspan></text>
        <g id="Rectangle_1-3" data-name="Rectangle 1" transform="translate(21 433)" fill="#fff" stroke="#707070" stroke-width="1">
          <rect width="246" height="81" stroke="none"/>
          <rect x="0.5" y="0.5" width="245" height="80" fill="none"/>
        </g>
        <text id="Zao_Min" data-name="Zao Min" transform="translate(85 485)" font-size="32" font-family="HelveticaNeue, Helvetica Neue"><tspan x="0" y="0">Zao Min</tspan></text>
        <g id="Rectangle_1-4" data-name="Rectangle 1" transform="translate(21 526)" fill="#fff" stroke="#707070" stroke-width="1">
          <rect width="246" height="81" stroke="none"/>
          <rect x="0.5" y="0.5" width="245" height="80" fill="none"/>
        </g>
        <text id="Baheng_Eastern" data-name="Baheng, Eastern" transform="translate(25 578)" font-size="32" font-family="HelveticaNeue, Helvetica Neue"><tspan x="0" y="0">Baheng, Eastern</tspan></text>
        <g id="Rectangle_1-5" data-name="Rectangle 1" transform="translate(286 248)" fill="#fff" stroke="#707070" stroke-width="1">
          <rect width="169" height="81" stroke="none"/>
          <rect x="0.5" y="0.5" width="168" height="80" fill="none"/>
        </g>
        <text id="SUN" transform="translate(339 300)" fill="#020202" font-size="30" font-family="HelveticaNeue-Medium, Helvetica Neue" font-weight="500"><tspan x="0" y="0">SUN</tspan></text>
        <g id="Rectangle_1-6" data-name="Rectangle 1" transform="translate(286 341)" fill="#fff" stroke="#707070" stroke-width="1">
          <rect width="169" height="81" stroke="none"/>
          <rect x="0.5" y="0.5" width="168" height="80" fill="none"/>
        </g>
        <text id="SUN-2" data-name="SUN" transform="translate(339 393)" fill="#020202" font-size="30" font-family="HelveticaNeue-Medium, Helvetica Neue" font-weight="500"><tspan x="0" y="0">SUN</tspan></text>
        <g id="Rectangle_1-7" data-name="Rectangle 1" transform="translate(286 433)" fill="#fff" stroke="#707070" stroke-width="1">
          <rect width="169" height="81" stroke="none"/>
          <rect x="0.5" y="0.5" width="168" height="80" fill="none"/>
        </g>
        <text id="SUN-3" data-name="SUN" transform="translate(339 485)" fill="#020202" font-size="30" font-family="HelveticaNeue-Medium, Helvetica Neue" font-weight="500"><tspan x="0" y="0">SUN</tspan></text>
        <g id="Rectangle_1-8" data-name="Rectangle 1" transform="translate(286 526)" fill="#fff" stroke="#707070" stroke-width="1">
          <rect width="169" height="81" stroke="none"/>
          <rect x="0.5" y="0.5" width="168" height="80" fill="none"/>
        </g>
        <text id="SUN-4" data-name="SUN" transform="translate(339 578)" fill="#020202" font-size="30" font-family="HelveticaNeue-Medium, Helvetica Neue" font-weight="500"><tspan x="0" y="0">SUN</tspan></text>
        <g id="Rectangle_1-9" data-name="Rectangle 1" transform="translate(469 248)" fill="#fff" stroke="#707070" stroke-width="1">
          <rect width="400" height="81" stroke="none"/>
          <rect x="0.5" y="0.5" width="399" height="80" fill="none"/>
        </g>
        <text id="n̥_o_" data-name="n̥ o ⁴³" transform="translate(612 298)" fill="#020202" font-size="32" font-family="Monaco"><tspan x="0" y="0">n̥ o ⁴³</tspan></text>
        <g id="Rectangle_1-10" data-name="Rectangle 1" transform="translate(469 341)" fill="#fff" stroke="#707070" stroke-width="1">
          <rect width="400" height="81" stroke="none"/>
          <rect x="0.5" y="0.5" width="399" height="80" fill="none"/>
        </g>
        <text id="m_a_n̥_a_ŋ_" data-name="m a ⁴² + n̥ a ŋ ³³" transform="translate(669 391)" fill="#020202" font-size="32" font-family="Monaco"><tspan x="-163.227" y="0">m a ⁴² + n̥ a ŋ ³³</tspan></text>
        <g id="Rectangle_1-11" data-name="Rectangle 1" transform="translate(469 433)" fill="#fff" stroke="#707070" stroke-width="1">
          <rect width="400" height="81" stroke="none"/>
          <rect x="0.5" y="0.5" width="399" height="80" fill="none"/>
        </g>
        <text id="ʔ_a_n_ai_" data-name="ʔ a ⁵³ + n ai ⁴⁴" transform="translate(516 484)" fill="#020202" font-size="32" font-family="Monaco"><tspan x="0" y="0">ʔ a ⁵³ + n ai ⁴⁴</tspan></text>
        <g id="Rectangle_1-12" data-name="Rectangle 1" transform="translate(469 526)" fill="#fff" stroke="#707070" stroke-width="1">
          <rect width="400" height="81" stroke="none"/>
          <rect x="0.5" y="0.5" width="399" height="80" fill="none"/>
        </g>
        <text id="l_a_n̥_e_" data-name="l a ⁰/³ + n̥ e ³⁵" transform="translate(516 576)" fill="#020202" font-size="32" font-family="Monaco"><tspan x="0" y="0">l a ⁰/³ + n̥ e ³⁵</tspan></text>
      </g>
      <g id="Group_35" data-name="Group 35" transform="translate(105 96)">
        <rect id="Rectangle_3-10" data-name="Rectangle 3" width="84" height="81" transform="translate(884 650)" fill="#25c2d0"/>
        <text id="_12" data-name="ȵ" transform="translate(908 706)" fill="#fff" font-size="40" font-family="LucidaGrande, Lucida Grande"><tspan x="0" y="0">ȵ</tspan></text>
        <rect id="Rectangle_4-11" data-name="Rectangle 4" width="84" height="81" transform="translate(884 741)" fill="#7320d3"/>
        <text id="t-3" data-name="t" transform="translate(914 796)" fill="#fff" font-size="40" font-family="Monaco"><tspan x="0" y="0">t</tspan></text>
        <rect id="Rectangle_23" data-name="Rectangle 23" width="84" height="81" transform="translate(884 831)" fill="#d1d1d1"/>
        <text id="_--14" data-name="-" transform="translate(914 886)" fill="#fff" font-size="40" font-family="Monaco"><tspan x="0" y="0">-</tspan></text>
        <rect id="Rectangle_6-10" data-name="Rectangle 6" width="84" height="81" transform="translate(884 922)" fill="#25c2d0"/>
        <text id="ŋ-2" data-name="ŋ" transform="translate(914 977)" fill="#fff" font-size="40" font-family="Monaco"><tspan x="0" y="0">ŋ</tspan></text>
        <rect id="Rectangle_5-11" data-name="Rectangle 5" width="84" height="81" transform="translate(1607 650)" fill="#f70000"/>
        <text id="o-2" data-name="o" transform="translate(1637 705)" fill="#fff" font-size="40" font-family="Monaco"><tspan x="0" y="0">o</tspan></text>
        <rect id="Rectangle_5-12" data-name="Rectangle 5" width="84" height="81" transform="translate(1607 741)" fill="#f70000"/>
        <text id="ɔ" transform="translate(1637 796)" fill="#fff" font-size="40" font-family="Monaco"><tspan x="0" y="0">ɔ</tspan></text>
        <rect id="Rectangle_5-13" data-name="Rectangle 5" width="84" height="81" transform="translate(1607 831)" fill="#f70000"/>
        <text id="a-5" data-name="a" transform="translate(1637 886)" fill="#fff" font-size="40" font-family="Monaco"><tspan x="0" y="0">a</tspan></text>
        <rect id="Rectangle_6-11" data-name="Rectangle 6" width="84" height="81" transform="translate(1607 922)" fill="#25c2d0"/>
        <text id="ŋ̩" transform="translate(1637 977)" fill="#fff" font-size="40" font-family="Monaco"><tspan x="0" y="0">ŋ̩</tspan></text>
        <rect id="Rectangle_4-12" data-name="Rectangle 4" width="84" height="81" transform="translate(974 650)" fill="#d205ed"/>
        <text id="u_w" data-name="u/w" transform="translate(980 705)" fill="rgba(252,252,252,0.61)" font-size="40" font-family="Monaco"><tspan x="0" y="0">u/</tspan><tspan y="0" fill="#fff">w</tspan></text>
        <rect id="Rectangle_4-13" data-name="Rectangle 4" width="84" height="81" transform="translate(974 741)" fill="#d1d1d1"/>
        <text id="_--15" data-name="-" transform="translate(1004 796)" fill="#fff" font-size="40" font-family="Monaco"><tspan x="0" y="0">-</tspan></text>
        <rect id="Rectangle_4-14" data-name="Rectangle 4" width="84" height="81" transform="translate(974 831)" fill="#d1d1d1"/>
        <text id="_--16" data-name="-" transform="translate(1004 886)" fill="#fff" font-size="40" font-family="Monaco"><tspan x="0" y="0">-</tspan></text>
        <rect id="Rectangle_4-15" data-name="Rectangle 4" width="84" height="81" transform="translate(974 922)" fill="#d1d1d1"/>
        <text id="_--17" data-name="-" transform="translate(1004 977)" fill="#fff" font-size="40" font-family="Monaco"><tspan x="0" y="0">-</tspan></text>
        <rect id="Rectangle_6-12" data-name="Rectangle 6" width="84" height="81" transform="translate(1155 650)" fill="#d1d1d1"/>
        <text id="_--18" data-name="-" transform="translate(1185 705)" fill="#fff" font-size="40" font-family="Monaco"><tspan x="0" y="0">-</tspan></text>
        <rect id="Rectangle_6-13" data-name="Rectangle 6" width="84" height="81" transform="translate(1155 741)" fill="#25c2d0"/>
        <text id="ŋ-3" data-name="ŋ" transform="translate(1185 796)" fill="#fff" font-size="40" font-family="Monaco"><tspan x="0" y="0">ŋ</tspan></text>
        <rect id="Rectangle_6-14" data-name="Rectangle 6" width="84" height="81" transform="translate(1155 831)" fill="#25c2d0"/>
        <text id="ŋ-4" data-name="ŋ" transform="translate(1185 886)" fill="#fff" font-size="40" font-family="Monaco"><tspan x="0" y="0">ŋ</tspan></text>
        <rect id="Rectangle_6-15" data-name="Rectangle 6" width="84" height="81" transform="translate(1155 831)" fill="#25c2d0"/>
        <text id="ŋ-5" data-name="ŋ" transform="translate(1185 886)" fill="#fff" font-size="40" font-family="Monaco"><tspan x="0" y="0">ŋ</tspan></text>
        <rect id="Rectangle_6-16" data-name="Rectangle 6" width="84" height="81" transform="translate(1155 922)" fill="#d1d1d1"/>
        <text id="_--19" data-name="-" transform="translate(1185 977)" fill="#fff" font-size="40" font-family="Monaco"><tspan x="0" y="0">-</tspan></text>
        <rect id="Rectangle_5-14" data-name="Rectangle 5" width="84" height="81" transform="translate(1065 650)" fill="#f70000"/>
        <text id="a-6" data-name="a" transform="translate(1095 705)" fill="#fff" font-size="40" font-family="Monaco"><tspan x="0" y="0">a</tspan></text>
        <rect id="Rectangle_5-15" data-name="Rectangle 5" width="84" height="81" transform="translate(1065 741)" fill="#f70000"/>
        <text id="o-3" data-name="o" transform="translate(1095 796)" fill="#fff" font-size="40" font-family="Monaco"><tspan x="0" y="0">o</tspan></text>
        <rect id="Rectangle_6-17" data-name="Rectangle 6" width="84" height="81" transform="translate(1065 831)" fill="#25c2d0"/>
        <text id="ŋ̥" transform="translate(1095 884)" fill="#fff" font-size="40" font-family="Monaco"><tspan x="0" y="0">ŋ̥</tspan></text>
        <rect id="Rectangle_5-16" data-name="Rectangle 5" width="84" height="81" transform="translate(1065 922)" fill="#f70000"/>
        <text id="e-2" data-name="e" transform="translate(1095 977)" fill="#fff" font-size="40" font-family="Monaco"><tspan x="0" y="0">e</tspan></text>
        <rect id="Rectangle_8-6" data-name="Rectangle 8" width="84" height="81" transform="translate(1336 650)" fill="#e6dfdf"/>
        <text id="_13" data-name="+" transform="translate(1366 705)" fill="#fff" font-size="40" font-family="Monaco"><tspan x="0" y="0">+</tspan></text>
        <rect id="Rectangle_8-7" data-name="Rectangle 8" width="84" height="81" transform="translate(1336 741)" fill="#e6dfdf"/>
        <text id="_14" data-name="+" transform="translate(1366 796)" fill="#fff" font-size="40" font-family="Monaco"><tspan x="0" y="0">+</tspan></text>
        <rect id="Rectangle_8-8" data-name="Rectangle 8" width="84" height="81" transform="translate(1336 831)" fill="#e6dfdf"/>
        <text id="_15" data-name="+" transform="translate(1366 886)" fill="#fff" font-size="40" font-family="Monaco"><tspan x="0" y="0">+</tspan></text>
        <rect id="Rectangle_8-9" data-name="Rectangle 8" width="84" height="81" transform="translate(1336 922)" fill="#e6dfdf"/>
        <text id="_16" data-name="+" transform="translate(1366 977)" fill="#fff" font-size="40" font-family="Monaco"><tspan x="0" y="0">+</tspan></text>
        <rect id="Rectangle_7-11" data-name="Rectangle 7" width="84" height="81" transform="translate(1246 650)" fill="#ff7791"/>
        <text id="_17" data-name="¹³" transform="translate(1264 705)" fill="#fff" font-size="40" font-family="Monaco"><tspan x="0" y="0">¹³</tspan></text>
        <rect id="Rectangle_7-12" data-name="Rectangle 7" width="84" height="81" transform="translate(1246 741)" fill="#ff7791"/>
        <text id="_18" data-name="³³" transform="translate(1264 796)" fill="#fff" font-size="40" font-family="Monaco"><tspan x="0" y="0">³³</tspan></text>
        <rect id="Rectangle_7-13" data-name="Rectangle 7" width="84" height="81" transform="translate(1246 831)" fill="#ff7791"/>
        <text id="_19" data-name="⁵³" transform="translate(1264 886)" fill="#fff" font-size="40" font-family="Monaco"><tspan x="0" y="0">⁵³</tspan></text>
        <rect id="Rectangle_7-14" data-name="Rectangle 7" width="84" height="81" transform="translate(1246 922)" fill="#ff7791"/>
        <text id="_20" data-name="³⁵" transform="translate(1264 977)" fill="#fff" font-size="40" font-family="Monaco"><tspan x="0" y="0">³⁵</tspan></text>
        <rect id="Rectangle_4-16" data-name="Rectangle 4" width="84" height="81" transform="translate(1517 650)" fill="#d1d1d1"/>
        <text id="_--20" data-name="-" transform="translate(1547 705)" fill="#fff" font-size="40" font-family="Monaco"><tspan x="0" y="0">-</tspan></text>
        <rect id="Rectangle_4-17" data-name="Rectangle 4" width="84" height="81" transform="translate(1517 741)" fill="#d1d1d1"/>
        <text id="_--21" data-name="-" transform="translate(1547 796)" fill="#fff" font-size="40" font-family="Monaco"><tspan x="0" y="0">-</tspan></text>
        <rect id="Rectangle_4-18" data-name="Rectangle 4" width="84" height="81" transform="translate(1517 831)" fill="#d1d1d1"/>
        <text id="_--22" data-name="-" transform="translate(1547 886)" fill="#fff" font-size="40" font-family="Monaco"><tspan x="0" y="0">-</tspan></text>
        <rect id="Rectangle_4-19" data-name="Rectangle 4" width="84" height="81" transform="translate(1517 922)" fill="#d1d1d1"/>
        <text id="_--23" data-name="-" transform="translate(1547 977)" fill="#fff" font-size="40" font-family="Monaco"><tspan x="0" y="0">-</tspan></text>
        <path id="Path_1-2" data-name="Path 1" d="M0,0H84V81H0Z" transform="translate(1426 650)" fill="#25c2d0"/>
        <text id="_21" data-name="ȵ" transform="translate(1450 706)" fill="#fff" font-size="40" font-family="LucidaGrande, Lucida Grande"><tspan x="0" y="0">ȵ</tspan></text>
        <rect id="Rectangle_3-11" data-name="Rectangle 3" width="84" height="81" transform="translate(1426 741)" fill="#7320d3"/>
        <text id="tɕ_" data-name="tɕʰ" transform="translate(1445 796)" fill="#fff" font-size="40" font-family="HelveticaNeue, Helvetica Neue"><tspan x="0" y="0">t</tspan><tspan y="0" font-family="LucidaGrande, Lucida Grande">ɕ</tspan><tspan y="0">ʰ</tspan></text>
        <rect id="Rectangle_3-12" data-name="Rectangle 3" width="84" height="81" transform="translate(1426 831)" fill="#25c2d0"/>
        <text id="d" transform="translate(1456 886)" fill="#fff" font-size="40" font-family="HelveticaNeue, Helvetica Neue"><tspan x="0" y="0">d</tspan></text>
        <rect id="Rectangle_4-20" data-name="Rectangle 4" width="84" height="81" transform="translate(1426 922)" fill="#d1d1d1"/>
        <text id="_--24" data-name="-" transform="translate(1456 977)" fill="#fff" font-size="40" font-family="Monaco"><tspan x="0" y="0">-</tspan></text>
        <rect id="Rectangle_6-18" data-name="Rectangle 6" width="84" height="81" transform="translate(1698 650)" fill="#d1d1d1"/>
        <text id="_--25" data-name="-" transform="translate(1728 705)" fill="#fff" font-size="40" font-family="Monaco"><tspan x="0" y="0">-</tspan></text>
        <rect id="Rectangle_6-19" data-name="Rectangle 6" width="84" height="81" transform="translate(1698 741)" fill="#d1d1d1"/>
        <text id="_--26" data-name="-" transform="translate(1728 796)" fill="#fff" font-size="40" font-family="Monaco"><tspan x="0" y="0">-</tspan></text>
        <rect id="Rectangle_6-20" data-name="Rectangle 6" width="84" height="81" transform="translate(1698 831)" fill="#25c2d0"/>
        <text id="n-4" data-name="n" transform="translate(1728 886)" fill="#fff" font-size="40" font-family="Monaco"><tspan x="0" y="0">n</tspan></text>
        <path id="Path_2-2" data-name="Path 2" d="M0,0H84V81H0Z" transform="translate(1698 922)" fill="#d1d1d1"/>
        <text id="_--27" data-name="-" transform="translate(1728 977)" fill="#fff" font-size="40" font-family="Monaco"><tspan x="0" y="0">-</tspan></text>
        <rect id="Rectangle_7-15" data-name="Rectangle 7" width="84" height="81" transform="translate(1788 650)" fill="#ff7791"/>
        <text id="_22" data-name="³¹" transform="translate(1806 705)" fill="#fff" font-size="40" font-family="Monaco"><tspan x="0" y="0">³¹</tspan></text>
        <rect id="Rectangle_7-16" data-name="Rectangle 7" width="84" height="81" transform="translate(1788 741)" fill="#ff7791"/>
        <text id="_23" data-name="¹³" transform="translate(1806 796)" fill="#fff" font-size="40" font-family="Monaco"><tspan x="0" y="0">¹³</tspan></text>
        <rect id="Rectangle_7-17" data-name="Rectangle 7" width="84" height="81" transform="translate(1788 831)" fill="#ff7791"/>
        <text id="_24" data-name="⁴⁴" transform="translate(1806 886)" fill="#fff" font-size="40" font-family="Monaco"><tspan x="0" y="0">⁴⁴</tspan></text>
        <rect id="Rectangle_7-18" data-name="Rectangle 7" width="84" height="81" transform="translate(1788 922)" fill="#ff7791"/>
        <text id="_25" data-name="³³" transform="translate(1806 977)" fill="#fff" font-size="40" font-family="Monaco"><tspan x="0" y="0">³³</tspan></text>
        <g id="Rectangle_1-13" data-name="Rectangle 1" transform="translate(21 650)" fill="#fff" stroke="#707070" stroke-width="1">
          <rect width="246" height="81" stroke="none"/>
          <rect x="0.5" y="0.5" width="245" height="80" fill="none"/>
        </g>
        <text id="Chuanqiandian-2" data-name="Chuanqiandian" transform="translate(36 702)" font-size="32" font-family="HelveticaNeue, Helvetica Neue"><tspan x="0" y="0">Chuanqiandian</tspan></text>
        <g id="Rectangle_1-14" data-name="Rectangle 1" transform="translate(21 741)" fill="#fff" stroke="#707070" stroke-width="1">
          <rect width="246" height="81" stroke="none"/>
          <rect x="0.5" y="0.5" width="245" height="80" fill="none"/>
        </g>
        <text id="Numao-2" data-name="Numao" transform="translate(92 793)" font-size="32" font-family="HelveticaNeue, Helvetica Neue"><tspan x="0" y="0">Numao</tspan></text>
        <g id="Rectangle_1-15" data-name="Rectangle 1" transform="translate(21 831)" fill="#fff" stroke="#707070" stroke-width="1">
          <rect width="246" height="81" stroke="none"/>
          <rect x="0.5" y="0.5" width="245" height="80" fill="none"/>
        </g>
        <text id="Zao_Min-2" data-name="Zao Min" transform="translate(85 883)" font-size="32" font-family="HelveticaNeue, Helvetica Neue"><tspan x="0" y="0">Zao Min</tspan></text>
        <g id="Rectangle_1-16" data-name="Rectangle 1" transform="translate(21 922)" fill="#fff" stroke="#707070" stroke-width="1">
          <rect width="246" height="81" stroke="none"/>
          <rect x="0.5" y="0.5" width="245" height="80" fill="none"/>
        </g>
        <text id="Baheng_Eastern-2" data-name="Baheng, Eastern" transform="translate(25 974)" font-size="32" font-family="HelveticaNeue, Helvetica Neue"><tspan x="0" y="0">Baheng, Eastern</tspan></text>
        <g id="Rectangle_1-17" data-name="Rectangle 1" transform="translate(286 650)" fill="#fff" stroke="#707070" stroke-width="1">
          <rect width="169" height="81" stroke="none"/>
          <rect x="0.5" y="0.5" width="168" height="80" fill="none"/>
        </g>
        <text id="CALF" transform="translate(332 702)" fill="#020202" font-size="30" font-family="HelveticaNeue-Medium, Helvetica Neue" font-weight="500"><tspan x="0" y="0">CALF</tspan></text>
        <g id="Rectangle_1-18" data-name="Rectangle 1" transform="translate(286 741)" fill="#fff" stroke="#707070" stroke-width="1">
          <rect width="169" height="81" stroke="none"/>
          <rect x="0.5" y="0.5" width="168" height="80" fill="none"/>
        </g>
        <text id="CALF-2" data-name="CALF" transform="translate(332 793)" fill="#020202" font-size="30" font-family="HelveticaNeue-Medium, Helvetica Neue" font-weight="500"><tspan x="0" y="0">CALF</tspan></text>
        <g id="Rectangle_1-19" data-name="Rectangle 1" transform="translate(286 831)" fill="#fff" stroke="#707070" stroke-width="1">
          <rect width="169" height="81" stroke="none"/>
          <rect x="0.5" y="0.5" width="168" height="80" fill="none"/>
        </g>
        <text id="CALF-3" data-name="CALF" transform="translate(332 883)" fill="#020202" font-size="30" font-family="HelveticaNeue-Medium, Helvetica Neue" font-weight="500"><tspan x="0" y="0">CALF</tspan></text>
        <g id="Rectangle_1-20" data-name="Rectangle 1" transform="translate(286 922)" fill="#fff" stroke="#707070" stroke-width="1">
          <rect width="169" height="81" stroke="none"/>
          <rect x="0.5" y="0.5" width="168" height="80" fill="none"/>
        </g>
        <text id="CALF-4" data-name="CALF" transform="translate(332 974)" fill="#020202" font-size="30" font-family="HelveticaNeue-Medium, Helvetica Neue" font-weight="500"><tspan x="0" y="0">CALF</tspan></text>
        <g id="Rectangle_1-21" data-name="Rectangle 1" transform="translate(471 650)" fill="#fff" stroke="#707070" stroke-width="1">
          <rect width="397" height="81" stroke="none"/>
          <rect x="0.5" y="0.5" width="396" height="80" fill="none"/>
        </g>
        <text id="_u_w_a_o_" data-name="ȵ u/w a ¹³ + ȵ o ³¹" transform="translate(477 701)" fill="#020202" font-size="32" font-family="LucidaGrande, Lucida Grande"><tspan x="0" y="0">ȵ</tspan><tspan y="0" xml:space="preserve" font-family="Monaco"> u/w a ¹³ + </tspan><tspan y="0">ȵ</tspan><tspan y="0" xml:space="preserve" font-family="Monaco"> o ³¹</tspan></text>
        <g id="Rectangle_1-22" data-name="Rectangle 1" transform="translate(471 741)" fill="#fff" stroke="#707070" stroke-width="1">
          <rect width="397" height="81" stroke="none"/>
          <rect x="0.5" y="0.5" width="396" height="80" fill="none"/>
        </g>
        <text id="t_o_ŋ_tɕ_ɔ_" data-name="t o ŋ ³³ + tɕʰ ɔ ¹³" transform="translate(669 792)" fill="#020202" font-size="32" font-family="Monaco"><tspan x="-181.742" y="0">t o ŋ ³³ + t</tspan><tspan y="0" font-family="LucidaGrande, Lucida Grande">ɕ</tspan><tspan y="0">ʰ ɔ ¹³</tspan></text>
        <g id="Rectangle_1-23" data-name="Rectangle 1" transform="translate(471 831)" fill="#fff" stroke="#707070" stroke-width="1">
          <rect width="397" height="81" stroke="none"/>
          <rect x="0.5" y="0.5" width="396" height="80" fill="none"/>
        </g>
        <text id="ŋ̥_ŋ_d_a_n_" data-name="ŋ̥ ŋ ⁵³ + d a n ⁴⁴" transform="translate(506 881)" fill="#020202" font-size="32" font-family="Monaco"><tspan x="0" y="0">ŋ̥ ŋ ⁵³ + d a n ⁴⁴</tspan></text>
        <g id="Rectangle_1-24" data-name="Rectangle 1" transform="translate(471 922)" fill="#fff" stroke="#707070" stroke-width="1">
          <rect width="397" height="81" stroke="none"/>
          <rect x="0.5" y="0.5" width="396" height="80" fill="none"/>
        </g>
        <text id="ŋ_e_ŋ̩_" data-name="ŋ e ³⁵ + ŋ̩ ³³" transform="translate(544 973)" fill="#020202" font-size="32" font-family="Monaco"><tspan x="0" y="0">ŋ e ³⁵ + ŋ̩ ³³</tspan></text>
      </g>
      <line id="Line_1" data-name="Line 1" x2="1903" transform="translate(99.5 720.5)" fill="none" stroke="#000" stroke-width="6"/>
    </g>
  </g>
</svg>
