<svg xmlns="http://www.w3.org/2000/svg" xmlns:xlink="http://www.w3.org/1999/xlink" width="1920" height="1015" viewBox="0 0 1920 1015">
  <defs>
    <clipPath id="clip-Web_1920_1">
      <rect width="1920" height="1015"/>
    </clipPath>
  </defs>
  <g id="Web_1920_1" data-name="Web 1920 – 1" clip-path="url(#clip-Web_1920_1)">
    <rect width="1920" height="1015" fill="#fff"/>
    <g id="Group_19" data-name="Group 19">
      <g id="Rectangle_6" data-name="Rectangle 6" transform="translate(22 45)" fill="#fff" stroke="#000" stroke-width="4">
        <rect width="506" height="135" rx="25" stroke="none"/>
        <rect x="2" y="2" width="502" height="131" rx="23" fill="none"/>
      </g>
      <text id="Raw_Data" data-name="Raw Data" transform="translate(169 131)" font-size="50" font-family="HelveticaNeue, Helvetica Neue"><tspan x="0" y="0">Raw Data</tspan></text>
      <g id="Rectangle_6-2" data-name="Rectangle 6" transform="translate(1393 45)" fill="#fff" stroke="#000" stroke-width="4">
        <rect width="506" height="135" rx="25" stroke="none"/>
        <rect x="2" y="2" width="502" height="131" rx="23" fill="none"/>
      </g>
      <text id="Segmented_Data" data-name="Segmented Data" transform="translate(1458 131)" font-size="50" font-family="HelveticaNeue, Helvetica Neue"><tspan x="0" y="0">Segmented Data</tspan></text>
      <text id="_1_Segment_raw_data" data-name="(1) Segment raw data" transform="translate(554 69)" font-size="50" font-family="HelveticaNeue, Helvetica Neue"><tspan x="0" y="0">(1) Segment raw data</tspan></text>
      <g id="Group_5" data-name="Group 5" transform="translate(792.416 22.235)" style="isolation: isolate">
        <path id="Union_1" data-name="Union 1" d="M73.086,163.042,5.365,96.974A17.586,17.586,0,0,1,.033,83.266,17.587,17.587,0,0,1,5.365,69.557L73.086,3.489a12.43,12.43,0,0,1,17.27,0l8.636,8.424a11.711,11.711,0,0,1,0,16.849L61.707,65.137H795.26a18,18,0,1,1,0,36H61.442l37.549,36.633a11.711,11.711,0,0,1,0,16.849l-8.636,8.424a12.428,12.428,0,0,1-17.27,0Z" transform="translate(574.844 174.297) rotate(180)" fill="rgba(0,110,255,0)" stroke="#000" stroke-width="2"/>
      </g>
      <g id="Component_1_1" data-name="Component 1 – 1" transform="translate(207.112 193)">
        <path id="Union_2" data-name="Union 2" d="M88.2,384.874a16.832,16.832,0,0,1-13-4.908L9.323,314.09a11.184,11.184,0,0,1,0-15.817l8.042-8.042a11.183,11.183,0,0,1,15.816,0L70.83,327.88V250.87a16.886,16.886,0,0,1,20.838-16.4,17.02,17.02,0,0,1,2.795-.23H1420.83V168.871a16.871,16.871,0,0,1,33.742,0v79.4a17,17,0,0,1,.239,2.842,17.1,17.1,0,0,1-19.957,16.87H104.572v60.9l38.649-38.649a11.184,11.184,0,0,1,15.817,0l8.042,8.042a11.183,11.183,0,0,1,0,15.817L101.2,379.967a16.826,16.826,0,0,1-11.93,4.942Q88.736,384.908,88.2,384.874Z" transform="translate(-6.047 -152)" fill="rgba(0,110,255,0)" stroke="#000" stroke-width="2"/>
      </g>
      <g id="Group_13" data-name="Group 13" transform="translate(58.463 418)" style="isolation: isolate">
        <g id="Group_5-2" data-name="Group 5" transform="translate(733.953 13.854)">
          <path id="Union_1-2" data-name="Union 1" d="M73.086,163.042,5.365,96.974A17.586,17.586,0,0,1,.033,83.266,17.587,17.587,0,0,1,5.365,69.557L73.086,3.489a12.43,12.43,0,0,1,17.27,0l8.636,8.424a11.711,11.711,0,0,1,0,16.849L61.707,65.137H795.26a18,18,0,1,1,0,36H61.442l37.549,36.633a11.711,11.711,0,0,1,0,16.849l-8.636,8.424a12.428,12.428,0,0,1-17.27,0Z" transform="translate(574.844 174.297) rotate(180)" fill="rgba(0,110,255,0)" stroke="#000" stroke-width="2"/>
        </g>
      </g>
      <g id="Rectangle_6-3" data-name="Rectangle 6" transform="translate(22 455)" fill="#fff" stroke="#000" stroke-width="4">
        <rect width="506" height="135" rx="25" stroke="none"/>
        <rect x="2" y="2" width="502" height="131" rx="23" fill="none"/>
      </g>
      <text id="Cognate_Sets" data-name="Cognate Sets" transform="translate(123 538)" font-size="50" font-family="HelveticaNeue, Helvetica Neue"><tspan x="0" y="0">Cognate Sets</tspan></text>
      <g id="Rectangle_6-4" data-name="Rectangle 6" transform="translate(1393 455)" fill="#fff" stroke="#000" stroke-width="4">
        <rect width="506" height="135" rx="25" stroke="none"/>
        <rect x="2" y="2" width="502" height="131" rx="23" fill="none"/>
      </g>
      <text id="Alignments" transform="translate(1522 541)" font-size="50" font-family="HelveticaNeue, Helvetica Neue"><tspan x="0" y="0">Alignments</tspan></text>
      <text id="_3_Phonetic_alignment_" data-name="(3) Phonetic alignment
" transform="translate(554 471)" font-size="50" font-family="HelveticaNeue, Helvetica Neue"><tspan x="0" y="0">(3) Phonetic alignment</tspan><tspan x="0" y="60"></tspan></text>
      <text id="_2_Cognates_inside_meaning_slots_" data-name="(2) Cognates inside meaning slots
" transform="translate(555 240)" font-size="50" font-family="HelveticaNeue, Helvetica Neue"><tspan x="0" y="0">(2) Cognates inside meaning slots</tspan><tspan x="0" y="60"></tspan></text>
      <g id="Group_17" data-name="Group 17" transform="translate(731.467 611.843)" style="isolation: isolate">
        <g id="Group_13-2" data-name="Group 13" transform="translate(0 0)" style="isolation: isolate">
          <g id="Group_5-3" data-name="Group 5">
            <path id="Union_1-3" data-name="Union 1" d="M-442.2,224.033a17.829,17.829,0,0,1-13.708-5.2l-66.068-66.068a11.914,11.914,0,0,1,0-16.849l8.424-8.424a11.915,11.915,0,0,1,16.849,0l36.132,36.132V89.027A17.871,17.871,0,0,1-442.7,71.157a17.919,17.919,0,0,1,4,.45,18.008,18.008,0,0,1,2.758-.212H889.428V7.027a17.871,17.871,0,0,1,35.742,0V86.339a18.008,18.008,0,0,1,.238,2.926,18.283,18.283,0,0,1-18.109,18.11,18.007,18.007,0,0,1-2.927-.239h-1329.2v57.485L-387.7,127.49a11.914,11.914,0,0,1,16.848,0l8.425,8.424a11.881,11.881,0,0,1,3.489,8.425,11.88,11.88,0,0,1-3.489,8.424l-66.068,66.068a17.818,17.818,0,0,1-12.639,5.234Q-441.667,224.064-442.2,224.033Z" transform="translate(0 0)" fill="none" stroke="#000" stroke-width="2"/>
          </g>
        </g>
      </g>
      <text id="_4_Cognates_across_meaning_slots_" data-name="(4) Cognates across meaning slots
" transform="translate(555 649.224)" font-size="50" font-family="HelveticaNeue, Helvetica Neue"><tspan x="0" y="0">(4) Cognates across meaning slots</tspan><tspan x="0" y="60"></tspan></text>
      <g id="Rectangle_6-5" data-name="Rectangle 6" transform="translate(22 855)" fill="#fff" stroke="#000" stroke-width="4">
        <rect width="506" height="135" rx="25" stroke="none"/>
        <rect x="2" y="2" width="502" height="131" rx="23" fill="none"/>
      </g>
      <text id="Strict_Cognates" data-name="Strict Cognates" transform="translate(123 938)" font-size="50" font-family="HelveticaNeue, Helvetica Neue"><tspan x="0" y="0">Strict Cognates</tspan></text>
      <g id="Rectangle_6-6" data-name="Rectangle 6" transform="translate(1393 855)" fill="#fff" stroke="#000" stroke-width="4">
        <rect width="506" height="135" rx="25" stroke="none"/>
        <rect x="2" y="2" width="502" height="131" rx="23" fill="none"/>
      </g>
      <text id="Correspondence_Patterns" data-name="Correspondence
Patterns" transform="translate(1460 911)" font-size="50" font-family="HelveticaNeue, Helvetica Neue"><tspan x="0" y="0">Correspondence</tspan><tspan x="0" y="60">Patterns</tspan></text>
      <text id="_5_Correspondence_patterns_" data-name="(5) Correspondence patterns
" transform="translate(555 880)" font-size="50" font-family="HelveticaNeue, Helvetica Neue"><tspan x="0" y="0">(5) Correspondence patterns</tspan><tspan x="0" y="60"></tspan></text>
      <g id="Group_13-3" data-name="Group 13" transform="translate(58.463 818.381)" style="isolation: isolate">
        <g id="Group_5-4" data-name="Group 5" transform="translate(733.953 13.854)">
          <path id="Union_1-4" data-name="Union 1" d="M73.086,163.042,5.365,96.974A17.586,17.586,0,0,1,.033,83.266,17.587,17.587,0,0,1,5.365,69.557L73.086,3.489a12.43,12.43,0,0,1,17.27,0l8.636,8.424a11.711,11.711,0,0,1,0,16.849L61.707,65.137H795.26a18,18,0,1,1,0,36H61.442l37.549,36.633a11.711,11.711,0,0,1,0,16.849l-8.636,8.424a12.428,12.428,0,0,1-17.27,0Z" transform="translate(574.844 174.297) rotate(180)" fill="rgba(0,110,255,0)" stroke="#000" stroke-width="2"/>
        </g>
      </g>
    </g>
  </g>
</svg>
