<svg xmlns="http://www.w3.org/2000/svg" xmlns:xlink="http://www.w3.org/1999/xlink" width="1745" height="574" viewBox="0 0 1745 574">
  <defs>
    <clipPath id="clip-Figure-templatealign_c_">
      <rect width="1745" height="574"/>
    </clipPath>
  </defs>
  <g id="Figure-templatealign_c_" data-name="Figure-templatealign(c)" clip-path="url(#clip-Figure-templatealign_c_)">
    <rect width="1745" height="574" fill="#fff"/>
    <rect id="Rectangle_5" data-name="Rectangle 5" width="84" height="81" transform="translate(1446.385 481)" fill="#f70000"/>
    <text id="e" transform="translate(1478.385 536)" fill="#fff" font-size="40" font-family="CharisSIL, Charis SIL"><tspan x="0" y="0">e</tspan></text>
    <rect id="Rectangle_4" data-name="Rectangle 4" width="84" height="81" transform="translate(1355.385 481)" fill="#d1d1d1"/>
    <text id="_-" data-name="-" transform="translate(1391.385 536)" fill="#fff" font-size="40" font-family="CharisSIL, Charis SIL"><tspan x="0" y="0">-</tspan></text>
    <rect id="Rectangle_3" data-name="Rectangle 3" width="84" height="81" transform="translate(1264.385 481)" fill="#25c2d0"/>
    <text id="n̥" transform="translate(1295.385 536)" fill="#fff" font-size="40" font-family="CharisSIL, Charis SIL"><tspan x="0" y="0">n̥</tspan></text>
    <path id="Path_2" data-name="Path 2" d="M0,0H84V81H0Z" transform="translate(1536 481)" fill="#d1d1d1"/>
    <text id="_--2" data-name="-" transform="translate(1572.385 536)" fill="#fff" font-size="40" font-family="CharisSIL, Charis SIL"><tspan x="0" y="0">-</tspan></text>
    <rect id="Rectangle_7" data-name="Rectangle 7" width="84" height="81" transform="translate(1626.385 481)" fill="#ff7791"/>
    <text id="_" data-name="³⁵" transform="translate(1654.385 536)" fill="#fff" font-size="40" font-family="CharisSIL, Charis SIL"><tspan x="0" y="0">³⁵</tspan></text>
    <g id="Group_44" data-name="Group 44">
      <g id="Rectangle_2" data-name="Rectangle 2" transform="translate(1265.385 40)" fill="#fff" stroke="#000" stroke-width="2">
        <rect width="445" height="151" stroke="none"/>
        <rect x="1" y="1" width="443" height="149" fill="none"/>
      </g>
      <text id="TEMPLATE" transform="translate(1410.385 88)" fill="#020202" font-size="30" font-family="HelveticaNeue, Helvetica Neue"><tspan x="0" y="0">TEMPLATE</tspan></text>
      <g id="Rectangle_5-2" data-name="Rectangle 5" transform="translate(1446.385 110)" fill="#fff" stroke="#000" stroke-width="2">
        <rect width="84" height="81" stroke="none"/>
        <rect x="1" y="1" width="82" height="79" fill="none"/>
      </g>
      <text id="n" transform="translate(1479.5 161.5)" fill="#020202" stroke="#000" stroke-width="2" font-size="30" font-family="Monaco"><tspan x="0" y="0">n</tspan></text>
      <g id="Rectangle_4-2" data-name="Rectangle 4" transform="translate(1355.385 110)" fill="#fff" stroke="#000" stroke-width="2">
        <rect width="84" height="81" stroke="none"/>
        <rect x="1" y="1" width="82" height="79" fill="none"/>
      </g>
      <text id="m" transform="translate(1388.5 161.5)" fill="#020202" stroke="#000" stroke-width="2" font-size="30" font-family="Monaco"><tspan x="0" y="0">m</tspan></text>
      <g id="Rectangle_3-2" data-name="Rectangle 3" transform="translate(1264.385 110)" fill="#fff" stroke="#000" stroke-width="2">
        <rect width="84" height="81" stroke="none"/>
        <rect x="1" y="1" width="82" height="79" fill="none"/>
      </g>
      <text id="i" transform="translate(1302.5 162.5)" fill="#020202" stroke="#000" stroke-width="2" font-size="30" font-family="HelveticaNeue, Helvetica Neue"><tspan x="0" y="0">i</tspan></text>
      <g id="Rectangle_6" data-name="Rectangle 6" transform="translate(1536.385 110)" fill="#fff" stroke="#000" stroke-width="2">
        <rect width="84" height="81" stroke="none"/>
        <rect x="1" y="1" width="82" height="79" fill="none"/>
      </g>
      <text id="c" transform="translate(1569.5 161.5)" fill="#020202" stroke="#000" stroke-width="2" font-size="30" font-family="Monaco"><tspan x="0" y="0">c</tspan></text>
      <g id="Rectangle_7-2" data-name="Rectangle 7" transform="translate(1626.385 110)" fill="#fff" stroke="#000" stroke-width="2">
        <rect width="84" height="81" stroke="none"/>
        <rect x="1" y="1" width="82" height="79" fill="none"/>
      </g>
      <text id="t" transform="translate(1659.5 161.5)" fill="#020202" stroke="#000" stroke-width="2" font-size="30" font-family="Monaco"><tspan x="0" y="0">t</tspan></text>
      <rect id="Rectangle_5-3" data-name="Rectangle 5" width="84" height="81" transform="translate(1446.385 205)" fill="#f70000"/>
      <text id="o" transform="translate(1477.385 261)" fill="#fff" font-size="40" font-family="CharisSIL, Charis SIL"><tspan x="0" y="0">o</tspan></text>
      <rect id="Rectangle_4-3" data-name="Rectangle 4" width="84" height="81" transform="translate(1355.385 205)" fill="#d1d1d1"/>
      <text id="_--3" data-name="-" transform="translate(1391.385 261)" fill="#fff" font-size="40" font-family="CharisSIL, Charis SIL"><tspan x="0" y="0">-</tspan></text>
      <path id="Path_1" data-name="Path 1" d="M0,0H84V81H0Z" transform="translate(1264 205)" fill="#25c2d0"/>
      <text id="n̥-2" data-name="n̥" transform="translate(1295.385 261)" fill="#fff" font-size="40" font-family="CharisSIL, Charis SIL"><tspan x="0" y="0">n̥</tspan></text>
      <rect id="Rectangle_6-2" data-name="Rectangle 6" width="84" height="81" transform="translate(1536.385 205)" fill="#d1d1d1"/>
      <text id="_--4" data-name="-" transform="translate(1572.385 261)" fill="#fff" font-size="40" font-family="CharisSIL, Charis SIL"><tspan x="0" y="0">-</tspan></text>
      <rect id="Rectangle_7-3" data-name="Rectangle 7" width="84" height="81" transform="translate(1626.385 205)" fill="#ff7791"/>
      <text id="_2" data-name="⁴³" transform="translate(1654.385 261)" fill="#fff" font-size="40" font-family="CharisSIL, Charis SIL"><tspan x="0" y="0">⁴³</tspan></text>
      <rect id="Rectangle_5-4" data-name="Rectangle 5" width="84" height="81" transform="translate(1446.385 389)" fill="#f70000"/>
      <text id="ai" transform="translate(1472.385 445)" fill="#fff" font-size="40" font-family="CharisSIL, Charis SIL"><tspan x="0" y="0">ai</tspan></text>
      <rect id="Rectangle_4-4" data-name="Rectangle 4" width="84" height="81" transform="translate(1355.385 389)" fill="#d1d1d1"/>
      <text id="_--5" data-name="-" transform="translate(1391.385 445)" fill="#fff" font-size="40" font-family="CharisSIL, Charis SIL"><tspan x="0" y="0">-</tspan></text>
      <rect id="Rectangle_3-3" data-name="Rectangle 3" width="84" height="81" transform="translate(1264.385 389)" fill="#25c2d0"/>
      <text id="n-2" data-name="n" transform="translate(1295.385 445)" fill="#fff" font-size="40" font-family="CharisSIL, Charis SIL"><tspan x="0" y="0">n</tspan></text>
      <rect id="Rectangle_6-3" data-name="Rectangle 6" width="84" height="81" transform="translate(1536.385 389)" fill="#d1d1d1"/>
      <text id="_--6" data-name="-" transform="translate(1572.385 445)" fill="#fff" font-size="40" font-family="CharisSIL, Charis SIL"><tspan x="0" y="0">-</tspan></text>
      <rect id="Rectangle_7-4" data-name="Rectangle 7" width="84" height="81" transform="translate(1626.385 389)" fill="#ff7791"/>
      <text id="_3" data-name="⁴⁴" transform="translate(1654.385 445)" fill="#fff" font-size="40" font-family="CharisSIL, Charis SIL"><tspan x="0" y="0">⁴⁴</tspan></text>
      <rect id="Rectangle_5-5" data-name="Rectangle 5" width="84" height="81" transform="translate(1446.385 297)" fill="#f70000"/>
      <text id="a" transform="translate(1478.385 352)" fill="#fff" font-size="40" font-family="CharisSIL, Charis SIL"><tspan x="0" y="0">a</tspan></text>
      <rect id="Rectangle_4-5" data-name="Rectangle 4" width="84" height="81" transform="translate(1355.385 297)" fill="#d1d1d1"/>
      <text id="_--7" data-name="-" transform="translate(1391.385 352)" fill="#fff" font-size="40" font-family="CharisSIL, Charis SIL"><tspan x="0" y="0">-</tspan></text>
      <rect id="Rectangle_3-4" data-name="Rectangle 3" width="84" height="81" transform="translate(1264.385 297)" fill="#25c2d0"/>
      <text id="n̥-3" data-name="n̥" transform="translate(1295.385 352)" fill="#fff" font-size="40" font-family="CharisSIL, Charis SIL"><tspan x="0" y="0">n̥</tspan></text>
      <rect id="Rectangle_6-4" data-name="Rectangle 6" width="84" height="81" transform="translate(1536.385 297)" fill="#25c2d0"/>
      <text id="ŋ" transform="translate(1567.385 352)" fill="#fff" font-size="40" font-family="CharisSIL, Charis SIL"><tspan x="0" y="0">ŋ</tspan></text>
      <rect id="Rectangle_7-5" data-name="Rectangle 7" width="84" height="81" transform="translate(1626.385 297)" fill="#ff7791"/>
      <text id="_4" data-name="³³" transform="translate(1654.385 352)" fill="#fff" font-size="40" font-family="CharisSIL, Charis SIL"><tspan x="0" y="0">³³</tspan></text>
      <g id="Group_43" data-name="Group 43" transform="translate(864.796 108)">
        <g id="Group_39" data-name="Group 39">
          <g id="Rectangle_9" data-name="Rectangle 9" transform="translate(0.204)" fill="#fff" stroke="#000" stroke-width="2">
            <rect width="360" height="81" stroke="none"/>
            <rect x="1" y="1" width="358" height="79" fill="none"/>
          </g>
          <text id="STRUCTURE" transform="translate(91.204 52)" fill="#020202" font-size="30" font-family="HelveticaNeue, Helvetica Neue"><tspan x="0" y="0">STRUCTURE</tspan></text>
          <g id="Rectangle_14" data-name="Rectangle 14" transform="translate(0.204 95)" fill="none" stroke="#000" stroke-width="1">
            <rect width="84" height="81" stroke="none"/>
            <rect x="0.5" y="0.5" width="83" height="80" fill="none"/>
          </g>
          <text id="i-2" data-name="i" transform="translate(37.204 151)" fill="#020202" font-size="40" font-family="HelveticaNeue-Medium, Helvetica Neue" font-weight="500"><tspan x="0" y="0">i</tspan></text>
          <g id="Rectangle_22" data-name="Rectangle 22" transform="translate(92.204 95)" fill="none" stroke="#000" stroke-width="1">
            <rect width="84" height="81" stroke="none"/>
            <rect x="0.5" y="0.5" width="83" height="80" fill="none"/>
          </g>
          <text id="n-3" data-name="n" transform="translate(122.204 151)" fill="#020202" font-size="40" font-family="HelveticaNeue-Medium, Helvetica Neue" font-weight="500"><tspan x="0" y="0">n</tspan></text>
          <g id="Rectangle_10" data-name="Rectangle 10" transform="translate(184.204 95)" fill="none" stroke="#000" stroke-width="1">
            <rect width="84" height="81" stroke="none"/>
            <rect x="0.5" y="0.5" width="83" height="80" fill="none"/>
          </g>
          <text id="t-2" data-name="t" transform="translate(220.204 151)" fill="#020202" font-size="40" font-family="HelveticaNeue-Medium, Helvetica Neue" font-weight="500"><tspan x="0" y="0">t</tspan></text>
          <g id="Group_25" data-name="Group 25" transform="translate(0 187)">
            <g id="Rectangle_14-2" data-name="Rectangle 14" transform="translate(0.204 92)" fill="none" stroke="#000" stroke-width="1">
              <rect width="84" height="81" stroke="none"/>
              <rect x="0.5" y="0.5" width="83" height="80" fill="none"/>
            </g>
            <text id="i-3" data-name="i" transform="translate(37.204 148)" fill="#020202" font-size="40" font-family="HelveticaNeue-Medium, Helvetica Neue" font-weight="500"><tspan x="0" y="0">i</tspan></text>
            <g id="Rectangle_22-2" data-name="Rectangle 22" transform="translate(92.204 92)" fill="none" stroke="#000" stroke-width="1">
              <rect width="84" height="81" stroke="none"/>
              <rect x="0.5" y="0.5" width="83" height="80" fill="none"/>
            </g>
            <text id="n-4" data-name="n" transform="translate(123.204 148)" fill="#020202" font-size="40" font-family="HelveticaNeue-Medium, Helvetica Neue" font-weight="500"><tspan x="0" y="0">n</tspan></text>
            <g id="Rectangle_10-2" data-name="Rectangle 10" transform="translate(184.204 92)" fill="none" stroke="#000" stroke-width="1">
              <rect width="84" height="81" stroke="none"/>
              <rect x="0.5" y="0.5" width="83" height="80" fill="none"/>
            </g>
            <text id="t-3" data-name="t" transform="translate(220.204 148)" fill="#020202" font-size="40" font-family="HelveticaNeue-Medium, Helvetica Neue" font-weight="500"><tspan x="0" y="0">t</tspan></text>
            <text id="t-4" data-name="t" transform="translate(312.204 55)" fill="#020202" font-size="40" font-family="HelveticaNeue-Medium, Helvetica Neue" font-weight="500"><tspan x="0" y="0">t</tspan></text>
            <g id="Rectangle_14-3" data-name="Rectangle 14" transform="translate(276.204)" fill="none" stroke="#000" stroke-width="1">
              <rect width="84" height="81" stroke="none"/>
              <rect x="0.5" y="0.5" width="83" height="80" fill="none"/>
            </g>
            <g id="Rectangle_14-4" data-name="Rectangle 14" transform="translate(0.204)" fill="none" stroke="#000" stroke-width="1">
              <rect width="84" height="81" stroke="none"/>
              <rect x="0.5" y="0.5" width="83" height="80" fill="none"/>
            </g>
            <text id="i-4" data-name="i" transform="translate(37.204 55)" fill="#020202" font-size="40" font-family="HelveticaNeue-Medium, Helvetica Neue" font-weight="500"><tspan x="0" y="0">i</tspan></text>
            <g id="Rectangle_22-3" data-name="Rectangle 22" transform="translate(92.204)" fill="none" stroke="#000" stroke-width="1">
              <rect width="84" height="81" stroke="none"/>
              <rect x="0.5" y="0.5" width="83" height="80" fill="none"/>
            </g>
            <text id="n-5" data-name="n" transform="translate(123.204 55)" fill="#020202" font-size="40" font-family="HelveticaNeue-Medium, Helvetica Neue" font-weight="500"><tspan x="0" y="0">n</tspan></text>
            <g id="Rectangle_10-3" data-name="Rectangle 10" transform="translate(184.204)" fill="none" stroke="#000" stroke-width="1">
              <rect width="84" height="81" stroke="none"/>
              <rect x="0.5" y="0.5" width="83" height="80" fill="none"/>
            </g>
            <text id="c-2" data-name="c" transform="translate(215.204 55)" fill="#020202" font-size="40" font-family="HelveticaNeue-Medium, Helvetica Neue" font-weight="500"><tspan x="0" y="0">c</tspan></text>
            <g id="Rectangle_14-5" data-name="Rectangle 14" transform="translate(0.204 184)" fill="none" stroke="#000" stroke-width="1">
              <rect width="84" height="81" stroke="none"/>
              <rect x="0.5" y="0.5" width="83" height="80" fill="none"/>
            </g>
            <text id="i-5" data-name="i" transform="translate(37.204 239)" fill="#020202" font-size="40" font-family="HelveticaNeue-Medium, Helvetica Neue" font-weight="500"><tspan x="0" y="0">i</tspan></text>
            <g id="Rectangle_22-4" data-name="Rectangle 22" transform="translate(92.204 184)" fill="none" stroke="#000" stroke-width="1">
              <rect width="84" height="81" stroke="none"/>
              <rect x="0.5" y="0.5" width="83" height="80" fill="none"/>
            </g>
            <text id="n-6" data-name="n" transform="translate(123.204 239)" fill="#020202" font-size="40" font-family="HelveticaNeue-Medium, Helvetica Neue" font-weight="500"><tspan x="0" y="0">n</tspan></text>
            <g id="Rectangle_10-4" data-name="Rectangle 10" transform="translate(184.204 184)" fill="none" stroke="#000" stroke-width="1">
              <rect width="84" height="81" stroke="none"/>
              <rect x="0.5" y="0.5" width="83" height="80" fill="none"/>
            </g>
            <text id="t-5" data-name="t" transform="translate(220.204 239)" fill="#020202" font-size="40" font-family="HelveticaNeue-Medium, Helvetica Neue" font-weight="500"><tspan x="0" y="0">t</tspan></text>
          </g>
        </g>
      </g>
      <g id="Group_40" data-name="Group 40" transform="translate(21 108)">
        <g id="Rectangle_1" data-name="Rectangle 1" fill="#fff" stroke="#000" stroke-width="2">
          <rect width="246" height="81" stroke="none"/>
          <rect x="1" y="1" width="244" height="79" fill="none"/>
        </g>
        <text id="DOCULECT" transform="translate(43 52)" fill="#020202" font-size="30" font-family="HelveticaNeue, Helvetica Neue"><tspan x="0" y="0">DOCULECT</tspan></text>
        <g id="Rectangle_1-2" data-name="Rectangle 1" transform="translate(0 95)" fill="#fff" stroke="#000" stroke-width="1">
          <rect width="246" height="81" stroke="none"/>
          <rect x="0.5" y="0.5" width="245" height="80" fill="none"/>
        </g>
        <text id="Chuanqiandian" transform="translate(22 147)" fill="#020202" font-size="30" font-family="HelveticaNeue, Helvetica Neue"><tspan x="0" y="0">Chuanqiandian</tspan></text>
        <g id="Rectangle_1-3" data-name="Rectangle 1" transform="translate(0 279)" fill="#fff" stroke="#000" stroke-width="1">
          <rect width="246" height="81" stroke="none"/>
          <rect x="0.5" y="0.5" width="245" height="80" fill="none"/>
        </g>
        <text id="ZaoMin" transform="translate(73 331)" fill="#020202" font-size="30" font-family="HelveticaNeue, Helvetica Neue"><tspan x="0" y="0">ZaoMin</tspan></text>
        <g id="Rectangle_1-4" data-name="Rectangle 1" transform="translate(0 187)" fill="#fff" stroke="#000" stroke-width="1">
          <rect width="246" height="81" stroke="none"/>
          <rect x="0.5" y="0.5" width="245" height="80" fill="none"/>
        </g>
        <text id="Numao" transform="translate(75 239)" fill="#020202" font-size="30" font-family="HelveticaNeue, Helvetica Neue"><tspan x="0" y="0">Numao</tspan></text>
        <g id="Rectangle_1-5" data-name="Rectangle 1" transform="translate(0 371)" fill="#fff" stroke="#000" stroke-width="1">
          <rect width="246" height="81" stroke="none"/>
          <rect x="0.5" y="0.5" width="245" height="80" fill="none"/>
        </g>
        <text id="EasternBaheng" transform="translate(20 423)" fill="#020202" font-size="30" font-family="HelveticaNeue, Helvetica Neue"><tspan x="0" y="0">EasternBaheng</tspan></text>
      </g>
      <g id="Group_41" data-name="Group 41" transform="translate(286.796 108)">
        <g id="Rectangle_1-6" data-name="Rectangle 1" transform="translate(0.204)" fill="#fff" stroke="#000" stroke-width="2">
          <rect width="357" height="81" stroke="none"/>
          <rect x="1" y="1" width="355" height="79" fill="none"/>
        </g>
        <text id="TOKENS" transform="translate(119.204 52)" fill="#020202" font-size="30" font-family="HelveticaNeue, Helvetica Neue"><tspan x="0" y="0">TOKENS</tspan></text>
        <g id="Rectangle_1-7" data-name="Rectangle 1" transform="translate(0.204 95)" fill="#fff" stroke="#000" stroke-width="1">
          <rect width="357" height="81" stroke="none"/>
          <rect x="0.5" y="0.5" width="356" height="80" fill="none"/>
        </g>
        <text id="n̥_o_" data-name="n̥ o ⁴³" transform="translate(140.204 148)" fill="#f70000" font-size="32" font-family="CharisSIL, Charis SIL"><tspan x="0" y="0">n̥ o ⁴³</tspan></text>
        <g id="Rectangle_1-8" data-name="Rectangle 1" transform="translate(0.204 279)" fill="#fff" stroke="#000" stroke-width="1">
          <rect width="357" height="81" stroke="none"/>
          <rect x="0.5" y="0.5" width="356" height="80" fill="none"/>
        </g>
        <text id="ʔ_a_n_ai_" data-name="ʔ a ⁵³ + n ai ⁴⁴" transform="translate(69.204 332)" fill="#020202" font-size="32" font-family="CharisSIL, Charis SIL"><tspan x="0" y="0">ʔ a ⁵³ +</tspan><tspan y="0" font-family="Monaco"> </tspan><tspan y="0" fill="#f70000">n ai ⁴⁴</tspan></text>
        <g id="Rectangle_1-9" data-name="Rectangle 1" transform="translate(0.204 187)" fill="#fff" stroke="#000" stroke-width="1">
          <rect width="357" height="81" stroke="none"/>
          <rect x="0.5" y="0.5" width="356" height="80" fill="none"/>
        </g>
        <text id="m_a_n̥_a_ŋ_" data-name="m a ⁴² + n̥ a ŋ ³³" transform="translate(179.204 239)" fill="#020202" font-size="32" font-family="CharisSIL, Charis SIL"><tspan x="-125.188" y="0">m a ⁴² +</tspan><tspan y="0" font-family="Monaco"> </tspan><tspan y="0" fill="#f70000">n̥ a ŋ ³³</tspan></text>
        <g id="Rectangle_1-10" data-name="Rectangle 1" transform="translate(0.204 371)" fill="#fff" stroke="#000" stroke-width="1">
          <rect width="357" height="81" stroke="none"/>
          <rect x="0.5" y="0.5" width="356" height="80" fill="none"/>
        </g>
        <text id="l_a_n̥_e_" data-name="l a ⁰/³ + n̥ e ³⁵" transform="translate(69.204 423)" fill="#020202" font-size="32" font-family="CharisSIL, Charis SIL"><tspan x="0" y="0">l a ⁰/³ +</tspan><tspan y="0" font-family="Monaco"> </tspan><tspan y="0" fill="#f70000">n̥ e ³⁵</tspan></text>
      </g>
      <g id="Group_42" data-name="Group 42" transform="translate(662.659 108)">
        <g id="Group_23" data-name="Group 23">
          <text id="COGIDS" transform="translate(33.342 52)" fill="#020202" font-size="30" font-family="HelveticaNeue, Helvetica Neue"><tspan x="0" y="0">COGIDS</tspan></text>
          <g id="Rectangle_1-11" data-name="Rectangle 1" transform="translate(1.342)" fill="#fff" stroke="#000" stroke-width="2">
            <rect width="181" height="81" stroke="none"/>
            <rect x="1" y="1" width="179" height="79" fill="none"/>
          </g>
          <text id="COGIDS-2" data-name="COGIDS" transform="translate(34.342 52)" fill="#020202" font-size="30" font-family="HelveticaNeue, Helvetica Neue"><tspan x="0" y="0">COGIDS</tspan></text>
          <g id="Group_2" data-name="Group 2" transform="translate(0 95)">
            <g id="Rectangle_1-12" data-name="Rectangle 1" transform="translate(0.342)" fill="#fff" stroke="#000" stroke-width="1">
              <rect width="181" height="81" stroke="none"/>
              <rect x="0.5" y="0.5" width="180" height="80" fill="none"/>
            </g>
          </g>
          <g id="Group_4" data-name="Group 4" transform="translate(24.207 111)" style="isolation: isolate">
            <g id="Path_3" data-name="Path 3" fill="#fff">
              <path d="M 25 49.5 C 21.69230079650879 49.5 18.48381042480469 48.85229110717773 15.46364974975586 47.57487106323242 C 12.54625988006592 46.3409309387207 9.926079750061035 44.57432174682617 7.675879955291748 42.32411956787109 C 5.425680160522461 40.07392120361328 3.659070014953613 37.45373916625977 2.425129890441895 34.53635025024414 C 1.147709965705872 31.51618957519531 0.5 28.30769920349121 0.5 25 C 0.5 21.69230079650879 1.147709965705872 18.48381042480469 2.425129890441895 15.46364974975586 C 3.659070014953613 12.5462703704834 5.425680160522461 9.926090240478516 7.675879955291748 7.67588996887207 C 9.926079750061035 5.425690174102783 12.54625988006592 3.659080028533936 15.46364974975586 2.425129890441895 C 18.48381042480469 1.147709965705872 21.69230079650879 0.5 25 0.5 C 28.30769920349121 0.5 31.51618957519531 1.147709965705872 34.53635025024414 2.425129890441895 C 37.45373916625977 3.659080028533936 40.07392120361328 5.425690174102783 42.32411956787109 7.67588996887207 C 44.57432174682617 9.926090240478516 46.3409309387207 12.5462703704834 47.57487106323242 15.46364974975586 C 48.85229110717773 18.48381042480469 49.5 21.69230079650879 49.5 25 C 49.5 28.30769920349121 48.85229110717773 31.51618957519531 47.57487106323242 34.53635025024414 C 46.3409309387207 37.45373916625977 44.57432174682617 40.07392120361328 42.32411956787109 42.32411956787109 C 40.07392120361328 44.57432174682617 37.45373916625977 46.3409309387207 34.53635025024414 47.57487106323242 C 31.51618957519531 48.85229110717773 28.30769920349121 49.5 25 49.5 Z" stroke="none"/>
              <path d="M 25 1 C 21.75958061218262 1 18.61661911010742 1.634418487548828 15.65842056274414 2.885631561279297 C 12.80064010620117 4.094371795654297 10.23387908935547 5.825000762939453 8.029441833496094 8.029441833496094 C 5.825000762939453 10.23387908935547 4.094371795654297 12.80064010620117 2.885631561279297 15.65842819213867 C 1.634418487548828 18.61661911010742 1 21.75958061218262 1 25 C 1 28.24041938781738 1.634418487548828 31.38338088989258 2.885631561279297 34.34157943725586 C 4.094371795654297 37.19935989379883 5.825000762939453 39.76612091064453 8.029441833496094 41.97055816650391 C 10.23387908935547 44.17499923706055 12.80064010620117 45.90563201904297 15.65842056274414 47.1143684387207 C 18.61661911010742 48.36558151245117 21.75958061218262 49 25 49 C 28.24041938781738 49 31.38338088989258 48.36558151245117 34.34157943725586 47.1143684387207 C 37.19935989379883 45.90563201904297 39.76612091064453 44.17499923706055 41.97055816650391 41.97055816650391 C 44.17499923706055 39.76612091064453 45.90563201904297 37.19935989379883 47.1143684387207 34.34157943725586 C 48.36558151245117 31.38338088989258 49 28.24041938781738 49 25 C 49 21.75958061218262 48.36558151245117 18.61661911010742 47.1143684387207 15.65842819213867 C 45.90563201904297 12.80064010620117 44.17499923706055 10.23387908935547 41.97055816650391 8.029441833496094 C 39.76612091064453 5.825000762939453 37.19935989379883 4.094371795654297 34.34157943725586 2.885631561279297 C 31.38338088989258 1.634418487548828 28.24041938781738 1 25 1 M 25 0 C 38.80712127685547 0 50 11.19289016723633 50 25 C 50 38.80712127685547 38.80712127685547 50 25 50 C 11.19287872314453 50 0 38.80712127685547 0 25 C 0 11.19289016723633 11.19287872314453 0 25 0 Z" stroke="none" fill="#101010"/>
            </g>
            <text id="_1" data-name="1" transform="translate(16.705 35.705)" fill="#fc4a2a" font-size="30" font-family="HelveticaNeue, Helvetica Neue"><tspan x="0" y="0">1</tspan></text>
          </g>
          <g id="Group_2-2" data-name="Group 2" transform="translate(0 279)">
            <g id="Rectangle_1-13" data-name="Rectangle 1" transform="translate(0.342)" fill="#fff" stroke="#000" stroke-width="1">
              <rect width="181" height="81" stroke="none"/>
              <rect x="0.5" y="0.5" width="180" height="80" fill="none"/>
            </g>
          </g>
          <g id="Group_4-2" data-name="Group 4" transform="translate(24.207 295)">
            <g id="Path_3-2" data-name="Path 3" fill="#fff">
              <path d="M 25 49.5 C 21.69230079650879 49.5 18.48381042480469 48.85229110717773 15.46364974975586 47.57487106323242 C 12.54625988006592 46.3409309387207 9.926079750061035 44.57432174682617 7.675879955291748 42.32411956787109 C 5.425680160522461 40.07392120361328 3.659070014953613 37.45373916625977 2.425129890441895 34.53635025024414 C 1.147709965705872 31.51618957519531 0.5 28.30769920349121 0.5 25 C 0.5 21.69230079650879 1.147709965705872 18.48381042480469 2.425129890441895 15.46364974975586 C 3.659070014953613 12.5462703704834 5.425680160522461 9.926090240478516 7.675879955291748 7.67588996887207 C 9.926079750061035 5.425690174102783 12.54625988006592 3.659080028533936 15.46364974975586 2.425129890441895 C 18.48381042480469 1.147709965705872 21.69230079650879 0.5 25 0.5 C 28.30769920349121 0.5 31.51618957519531 1.147709965705872 34.53635025024414 2.425129890441895 C 37.45373916625977 3.659080028533936 40.07392120361328 5.425690174102783 42.32411956787109 7.67588996887207 C 44.57432174682617 9.926090240478516 46.3409309387207 12.5462703704834 47.57487106323242 15.46364974975586 C 48.85229110717773 18.48381042480469 49.5 21.69230079650879 49.5 25 C 49.5 28.30769920349121 48.85229110717773 31.51618957519531 47.57487106323242 34.53635025024414 C 46.3409309387207 37.45373916625977 44.57432174682617 40.07392120361328 42.32411956787109 42.32411956787109 C 40.07392120361328 44.57432174682617 37.45373916625977 46.3409309387207 34.53635025024414 47.57487106323242 C 31.51618957519531 48.85229110717773 28.30769920349121 49.5 25 49.5 Z" stroke="none"/>
              <path d="M 25 1 C 21.75958061218262 1 18.61661911010742 1.634418487548828 15.65842056274414 2.885631561279297 C 12.80064010620117 4.094371795654297 10.23387908935547 5.825000762939453 8.029441833496094 8.029441833496094 C 5.825000762939453 10.23387908935547 4.094371795654297 12.80064010620117 2.885631561279297 15.65842819213867 C 1.634418487548828 18.61661911010742 1 21.75958061218262 1 25 C 1 28.24041938781738 1.634418487548828 31.38338088989258 2.885631561279297 34.34157943725586 C 4.094371795654297 37.19935989379883 5.825000762939453 39.76612091064453 8.029441833496094 41.97055816650391 C 10.23387908935547 44.17499923706055 12.80064010620117 45.90563201904297 15.65842056274414 47.1143684387207 C 18.61661911010742 48.36558151245117 21.75958061218262 49 25 49 C 28.24041938781738 49 31.38338088989258 48.36558151245117 34.34157943725586 47.1143684387207 C 37.19935989379883 45.90563201904297 39.76612091064453 44.17499923706055 41.97055816650391 41.97055816650391 C 44.17499923706055 39.76612091064453 45.90563201904297 37.19935989379883 47.1143684387207 34.34157943725586 C 48.36558151245117 31.38338088989258 49 28.24041938781738 49 25 C 49 21.75958061218262 48.36558151245117 18.61661911010742 47.1143684387207 15.65842819213867 C 45.90563201904297 12.80064010620117 44.17499923706055 10.23387908935547 41.97055816650391 8.029441833496094 C 39.76612091064453 5.825000762939453 37.19935989379883 4.094371795654297 34.34157943725586 2.885631561279297 C 31.38338088989258 1.634418487548828 28.24041938781738 1 25 1 M 25 0 C 38.80712127685547 0 50 11.19289016723633 50 25 C 50 38.80712127685547 38.80712127685547 50 25 50 C 11.19287872314453 50 0 38.80712127685547 0 25 C 0 11.19289016723633 11.19287872314453 0 25 0 Z" stroke="none" fill="#101010"/>
            </g>
            <text id="_3-2" data-name="3" transform="translate(16.705 35.705)" fill="#020202" font-size="30" font-family="HelveticaNeue, Helvetica Neue"><tspan x="0" y="0">3</tspan></text>
          </g>
          <g id="Group_7" data-name="Group 7" transform="translate(107.207 295)" style="isolation: isolate">
            <g id="Path_3-3" data-name="Path 3" fill="#fff">
              <path d="M 25 49.5 C 21.69230079650879 49.5 18.48381042480469 48.85229110717773 15.46364974975586 47.57487106323242 C 12.54625988006592 46.3409309387207 9.926079750061035 44.57432174682617 7.675879955291748 42.32411956787109 C 5.425680160522461 40.07392120361328 3.659070014953613 37.45373916625977 2.425129890441895 34.53635025024414 C 1.147709965705872 31.51618957519531 0.5 28.30769920349121 0.5 25 C 0.5 21.69230079650879 1.147709965705872 18.48381042480469 2.425129890441895 15.46364974975586 C 3.659070014953613 12.5462703704834 5.425680160522461 9.926090240478516 7.675879955291748 7.67588996887207 C 9.926079750061035 5.425690174102783 12.54625988006592 3.659080028533936 15.46364974975586 2.425129890441895 C 18.48381042480469 1.147709965705872 21.69230079650879 0.5 25 0.5 C 28.30769920349121 0.5 31.51618957519531 1.147709965705872 34.53635025024414 2.425129890441895 C 37.45373916625977 3.659080028533936 40.07392120361328 5.425690174102783 42.32411956787109 7.67588996887207 C 44.57432174682617 9.926090240478516 46.3409309387207 12.5462703704834 47.57487106323242 15.46364974975586 C 48.85229110717773 18.48381042480469 49.5 21.69230079650879 49.5 25 C 49.5 28.30769920349121 48.85229110717773 31.51618957519531 47.57487106323242 34.53635025024414 C 46.3409309387207 37.45373916625977 44.57432174682617 40.07392120361328 42.32411956787109 42.32411956787109 C 40.07392120361328 44.57432174682617 37.45373916625977 46.3409309387207 34.53635025024414 47.57487106323242 C 31.51618957519531 48.85229110717773 28.30769920349121 49.5 25 49.5 Z" stroke="none"/>
              <path d="M 25 1 C 21.75958061218262 1 18.61661911010742 1.634418487548828 15.65842056274414 2.885631561279297 C 12.80064010620117 4.094371795654297 10.23387908935547 5.825000762939453 8.029441833496094 8.029441833496094 C 5.825000762939453 10.23387908935547 4.094371795654297 12.80064010620117 2.885631561279297 15.65842819213867 C 1.634418487548828 18.61661911010742 1 21.75958061218262 1 25 C 1 28.24041938781738 1.634418487548828 31.38338088989258 2.885631561279297 34.34157943725586 C 4.094371795654297 37.19935989379883 5.825000762939453 39.76612091064453 8.029441833496094 41.97055816650391 C 10.23387908935547 44.17499923706055 12.80064010620117 45.90563201904297 15.65842056274414 47.1143684387207 C 18.61661911010742 48.36558151245117 21.75958061218262 49 25 49 C 28.24041938781738 49 31.38338088989258 48.36558151245117 34.34157943725586 47.1143684387207 C 37.19935989379883 45.90563201904297 39.76612091064453 44.17499923706055 41.97055816650391 41.97055816650391 C 44.17499923706055 39.76612091064453 45.90563201904297 37.19935989379883 47.1143684387207 34.34157943725586 C 48.36558151245117 31.38338088989258 49 28.24041938781738 49 25 C 49 21.75958061218262 48.36558151245117 18.61661911010742 47.1143684387207 15.65842819213867 C 45.90563201904297 12.80064010620117 44.17499923706055 10.23387908935547 41.97055816650391 8.029441833496094 C 39.76612091064453 5.825000762939453 37.19935989379883 4.094371795654297 34.34157943725586 2.885631561279297 C 31.38338088989258 1.634418487548828 28.24041938781738 1 25 1 M 25 0 C 38.80712127685547 0 50 11.19289016723633 50 25 C 50 38.80712127685547 38.80712127685547 50 25 50 C 11.19287872314453 50 0 38.80712127685547 0 25 C 0 11.19289016723633 11.19287872314453 0 25 0 Z" stroke="none" fill="#101010"/>
            </g>
            <text id="_1-2" data-name="1" transform="translate(16.705 35.705)" fill="#fc4a2a" font-size="30" font-family="HelveticaNeue, Helvetica Neue"><tspan x="0" y="0">1</tspan></text>
          </g>
          <g id="Group_2-3" data-name="Group 2" transform="translate(0 187)">
            <g id="Rectangle_1-14" data-name="Rectangle 1" transform="translate(0.342)" fill="#fff" stroke="#000" stroke-width="1">
              <rect width="181" height="81" stroke="none"/>
              <rect x="0.5" y="0.5" width="180" height="80" fill="none"/>
            </g>
          </g>
          <g id="Group_5" data-name="Group 5" transform="translate(107.207 202)" style="isolation: isolate">
            <g id="Path_3-4" data-name="Path 3" fill="#fff">
              <path d="M 25 49.5 C 21.69230079650879 49.5 18.48381042480469 48.85229110717773 15.46364974975586 47.57487106323242 C 12.54625988006592 46.3409309387207 9.926079750061035 44.57432174682617 7.675879955291748 42.32411956787109 C 5.425680160522461 40.07392120361328 3.659070014953613 37.45373916625977 2.425129890441895 34.53635025024414 C 1.147709965705872 31.51618957519531 0.5 28.30769920349121 0.5 25 C 0.5 21.69230079650879 1.147709965705872 18.48381042480469 2.425129890441895 15.46364974975586 C 3.659070014953613 12.5462703704834 5.425680160522461 9.926090240478516 7.675879955291748 7.67588996887207 C 9.926079750061035 5.425690174102783 12.54625988006592 3.659080028533936 15.46364974975586 2.425129890441895 C 18.48381042480469 1.147709965705872 21.69230079650879 0.5 25 0.5 C 28.30769920349121 0.5 31.51618957519531 1.147709965705872 34.53635025024414 2.425129890441895 C 37.45373916625977 3.659080028533936 40.07392120361328 5.425690174102783 42.32411956787109 7.67588996887207 C 44.57432174682617 9.926090240478516 46.3409309387207 12.5462703704834 47.57487106323242 15.46364974975586 C 48.85229110717773 18.48381042480469 49.5 21.69230079650879 49.5 25 C 49.5 28.30769920349121 48.85229110717773 31.51618957519531 47.57487106323242 34.53635025024414 C 46.3409309387207 37.45373916625977 44.57432174682617 40.07392120361328 42.32411956787109 42.32411956787109 C 40.07392120361328 44.57432174682617 37.45373916625977 46.3409309387207 34.53635025024414 47.57487106323242 C 31.51618957519531 48.85229110717773 28.30769920349121 49.5 25 49.5 Z" stroke="none"/>
              <path d="M 25 1 C 21.75958061218262 1 18.61661911010742 1.634418487548828 15.65842056274414 2.885631561279297 C 12.80064010620117 4.094371795654297 10.23387908935547 5.825000762939453 8.029441833496094 8.029441833496094 C 5.825000762939453 10.23387908935547 4.094371795654297 12.80064010620117 2.885631561279297 15.65842819213867 C 1.634418487548828 18.61661911010742 1 21.75958061218262 1 25 C 1 28.24041938781738 1.634418487548828 31.38338088989258 2.885631561279297 34.34157943725586 C 4.094371795654297 37.19935989379883 5.825000762939453 39.76612091064453 8.029441833496094 41.97055816650391 C 10.23387908935547 44.17499923706055 12.80064010620117 45.90563201904297 15.65842056274414 47.1143684387207 C 18.61661911010742 48.36558151245117 21.75958061218262 49 25 49 C 28.24041938781738 49 31.38338088989258 48.36558151245117 34.34157943725586 47.1143684387207 C 37.19935989379883 45.90563201904297 39.76612091064453 44.17499923706055 41.97055816650391 41.97055816650391 C 44.17499923706055 39.76612091064453 45.90563201904297 37.19935989379883 47.1143684387207 34.34157943725586 C 48.36558151245117 31.38338088989258 49 28.24041938781738 49 25 C 49 21.75958061218262 48.36558151245117 18.61661911010742 47.1143684387207 15.65842819213867 C 45.90563201904297 12.80064010620117 44.17499923706055 10.23387908935547 41.97055816650391 8.029441833496094 C 39.76612091064453 5.825000762939453 37.19935989379883 4.094371795654297 34.34157943725586 2.885631561279297 C 31.38338088989258 1.634418487548828 28.24041938781738 1 25 1 M 25 0 C 38.80712127685547 0 50 11.19289016723633 50 25 C 50 38.80712127685547 38.80712127685547 50 25 50 C 11.19287872314453 50 0 38.80712127685547 0 25 C 0 11.19289016723633 11.19287872314453 0 25 0 Z" stroke="none" fill="#101010"/>
            </g>
            <text id="_1-3" data-name="1" transform="translate(16.705 35.705)" fill="#fc4a2a" font-size="30" font-family="HelveticaNeue, Helvetica Neue"><tspan x="0" y="0">1</tspan></text>
          </g>
          <g id="Group_6" data-name="Group 6" transform="translate(24.207 202)" style="isolation: isolate">
            <g id="Path_3-5" data-name="Path 3" fill="#fff">
              <path d="M 25 49.5 C 21.69230079650879 49.5 18.48381042480469 48.85229110717773 15.46364974975586 47.57487106323242 C 12.54625988006592 46.3409309387207 9.926079750061035 44.57432174682617 7.675879955291748 42.32411956787109 C 5.425680160522461 40.07392120361328 3.659070014953613 37.45373916625977 2.425129890441895 34.53635025024414 C 1.147709965705872 31.51618957519531 0.5 28.30769920349121 0.5 25 C 0.5 21.69230079650879 1.147709965705872 18.48381042480469 2.425129890441895 15.46364974975586 C 3.659070014953613 12.5462703704834 5.425680160522461 9.926090240478516 7.675879955291748 7.67588996887207 C 9.926079750061035 5.425690174102783 12.54625988006592 3.659080028533936 15.46364974975586 2.425129890441895 C 18.48381042480469 1.147709965705872 21.69230079650879 0.5 25 0.5 C 28.30769920349121 0.5 31.51618957519531 1.147709965705872 34.53635025024414 2.425129890441895 C 37.45373916625977 3.659080028533936 40.07392120361328 5.425690174102783 42.32411956787109 7.67588996887207 C 44.57432174682617 9.926090240478516 46.3409309387207 12.5462703704834 47.57487106323242 15.46364974975586 C 48.85229110717773 18.48381042480469 49.5 21.69230079650879 49.5 25 C 49.5 28.30769920349121 48.85229110717773 31.51618957519531 47.57487106323242 34.53635025024414 C 46.3409309387207 37.45373916625977 44.57432174682617 40.07392120361328 42.32411956787109 42.32411956787109 C 40.07392120361328 44.57432174682617 37.45373916625977 46.3409309387207 34.53635025024414 47.57487106323242 C 31.51618957519531 48.85229110717773 28.30769920349121 49.5 25 49.5 Z" stroke="none"/>
              <path d="M 25 1 C 21.75958061218262 1 18.61661911010742 1.634418487548828 15.65842056274414 2.885631561279297 C 12.80064010620117 4.094371795654297 10.23387908935547 5.825000762939453 8.029441833496094 8.029441833496094 C 5.825000762939453 10.23387908935547 4.094371795654297 12.80064010620117 2.885631561279297 15.65842819213867 C 1.634418487548828 18.61661911010742 1 21.75958061218262 1 25 C 1 28.24041938781738 1.634418487548828 31.38338088989258 2.885631561279297 34.34157943725586 C 4.094371795654297 37.19935989379883 5.825000762939453 39.76612091064453 8.029441833496094 41.97055816650391 C 10.23387908935547 44.17499923706055 12.80064010620117 45.90563201904297 15.65842056274414 47.1143684387207 C 18.61661911010742 48.36558151245117 21.75958061218262 49 25 49 C 28.24041938781738 49 31.38338088989258 48.36558151245117 34.34157943725586 47.1143684387207 C 37.19935989379883 45.90563201904297 39.76612091064453 44.17499923706055 41.97055816650391 41.97055816650391 C 44.17499923706055 39.76612091064453 45.90563201904297 37.19935989379883 47.1143684387207 34.34157943725586 C 48.36558151245117 31.38338088989258 49 28.24041938781738 49 25 C 49 21.75958061218262 48.36558151245117 18.61661911010742 47.1143684387207 15.65842819213867 C 45.90563201904297 12.80064010620117 44.17499923706055 10.23387908935547 41.97055816650391 8.029441833496094 C 39.76612091064453 5.825000762939453 37.19935989379883 4.094371795654297 34.34157943725586 2.885631561279297 C 31.38338088989258 1.634418487548828 28.24041938781738 1 25 1 M 25 0 C 38.80712127685547 0 50 11.19289016723633 50 25 C 50 38.80712127685547 38.80712127685547 50 25 50 C 11.19287872314453 50 0 38.80712127685547 0 25 C 0 11.19289016723633 11.19287872314453 0 25 0 Z" stroke="none" fill="#101010"/>
            </g>
            <text id="_2-2" data-name="2" transform="translate(16.705 35.705)" font-size="30" font-family="HelveticaNeue, Helvetica Neue"><tspan x="0" y="0">2</tspan></text>
          </g>
          <g id="Group_2-4" data-name="Group 2" transform="translate(0 371)">
            <g id="Rectangle_1-15" data-name="Rectangle 1" transform="translate(0.342)" fill="#fff" stroke="#000" stroke-width="1">
              <rect width="181" height="81" stroke="none"/>
              <rect x="0.5" y="0.5" width="180" height="80" fill="none"/>
            </g>
          </g>
          <g id="Group_10" data-name="Group 10" transform="translate(107.207 386)" style="isolation: isolate">
            <g id="Path_3-6" data-name="Path 3" fill="#fff">
              <path d="M 25 49.5 C 21.69230079650879 49.5 18.48381042480469 48.85229110717773 15.46364974975586 47.57487106323242 C 12.54625988006592 46.3409309387207 9.926079750061035 44.57432174682617 7.675879955291748 42.32411956787109 C 5.425680160522461 40.07392120361328 3.659070014953613 37.45373916625977 2.425129890441895 34.53635025024414 C 1.147709965705872 31.51618957519531 0.5 28.30769920349121 0.5 25 C 0.5 21.69230079650879 1.147709965705872 18.48381042480469 2.425129890441895 15.46364974975586 C 3.659070014953613 12.5462703704834 5.425680160522461 9.926090240478516 7.675879955291748 7.67588996887207 C 9.926079750061035 5.425690174102783 12.54625988006592 3.659080028533936 15.46364974975586 2.425129890441895 C 18.48381042480469 1.147709965705872 21.69230079650879 0.5 25 0.5 C 28.30769920349121 0.5 31.51618957519531 1.147709965705872 34.53635025024414 2.425129890441895 C 37.45373916625977 3.659080028533936 40.07392120361328 5.425690174102783 42.32411956787109 7.67588996887207 C 44.57432174682617 9.926090240478516 46.3409309387207 12.5462703704834 47.57487106323242 15.46364974975586 C 48.85229110717773 18.48381042480469 49.5 21.69230079650879 49.5 25 C 49.5 28.30769920349121 48.85229110717773 31.51618957519531 47.57487106323242 34.53635025024414 C 46.3409309387207 37.45373916625977 44.57432174682617 40.07392120361328 42.32411956787109 42.32411956787109 C 40.07392120361328 44.57432174682617 37.45373916625977 46.3409309387207 34.53635025024414 47.57487106323242 C 31.51618957519531 48.85229110717773 28.30769920349121 49.5 25 49.5 Z" stroke="none"/>
              <path d="M 25 1 C 21.75958061218262 1 18.61661911010742 1.634418487548828 15.65842056274414 2.885631561279297 C 12.80064010620117 4.094371795654297 10.23387908935547 5.825000762939453 8.029441833496094 8.029441833496094 C 5.825000762939453 10.23387908935547 4.094371795654297 12.80064010620117 2.885631561279297 15.65842819213867 C 1.634418487548828 18.61661911010742 1 21.75958061218262 1 25 C 1 28.24041938781738 1.634418487548828 31.38338088989258 2.885631561279297 34.34157943725586 C 4.094371795654297 37.19935989379883 5.825000762939453 39.76612091064453 8.029441833496094 41.97055816650391 C 10.23387908935547 44.17499923706055 12.80064010620117 45.90563201904297 15.65842056274414 47.1143684387207 C 18.61661911010742 48.36558151245117 21.75958061218262 49 25 49 C 28.24041938781738 49 31.38338088989258 48.36558151245117 34.34157943725586 47.1143684387207 C 37.19935989379883 45.90563201904297 39.76612091064453 44.17499923706055 41.97055816650391 41.97055816650391 C 44.17499923706055 39.76612091064453 45.90563201904297 37.19935989379883 47.1143684387207 34.34157943725586 C 48.36558151245117 31.38338088989258 49 28.24041938781738 49 25 C 49 21.75958061218262 48.36558151245117 18.61661911010742 47.1143684387207 15.65842819213867 C 45.90563201904297 12.80064010620117 44.17499923706055 10.23387908935547 41.97055816650391 8.029441833496094 C 39.76612091064453 5.825000762939453 37.19935989379883 4.094371795654297 34.34157943725586 2.885631561279297 C 31.38338088989258 1.634418487548828 28.24041938781738 1 25 1 M 25 0 C 38.80712127685547 0 50 11.19289016723633 50 25 C 50 38.80712127685547 38.80712127685547 50 25 50 C 11.19287872314453 50 0 38.80712127685547 0 25 C 0 11.19289016723633 11.19287872314453 0 25 0 Z" stroke="none" fill="#101010"/>
            </g>
            <text id="_1-4" data-name="1" transform="translate(16.705 35.705)" fill="#fc4a2a" font-size="30" font-family="HelveticaNeue, Helvetica Neue"><tspan x="0" y="0">1</tspan></text>
          </g>
          <g id="Group_8" data-name="Group 8" transform="translate(24.207 386)">
            <g id="Path_3-7" data-name="Path 3" fill="#fff">
              <path d="M 25 49.5 C 21.69230079650879 49.5 18.48381042480469 48.85229110717773 15.46364974975586 47.57487106323242 C 12.54625988006592 46.3409309387207 9.926079750061035 44.57432174682617 7.675879955291748 42.32411956787109 C 5.425680160522461 40.07392120361328 3.659070014953613 37.45373916625977 2.425129890441895 34.53635025024414 C 1.147709965705872 31.51618957519531 0.5 28.30769920349121 0.5 25 C 0.5 21.69230079650879 1.147709965705872 18.48381042480469 2.425129890441895 15.46364974975586 C 3.659070014953613 12.5462703704834 5.425680160522461 9.926090240478516 7.675879955291748 7.67588996887207 C 9.926079750061035 5.425690174102783 12.54625988006592 3.659080028533936 15.46364974975586 2.425129890441895 C 18.48381042480469 1.147709965705872 21.69230079650879 0.5 25 0.5 C 28.30769920349121 0.5 31.51618957519531 1.147709965705872 34.53635025024414 2.425129890441895 C 37.45373916625977 3.659080028533936 40.07392120361328 5.425690174102783 42.32411956787109 7.67588996887207 C 44.57432174682617 9.926090240478516 46.3409309387207 12.5462703704834 47.57487106323242 15.46364974975586 C 48.85229110717773 18.48381042480469 49.5 21.69230079650879 49.5 25 C 49.5 28.30769920349121 48.85229110717773 31.51618957519531 47.57487106323242 34.53635025024414 C 46.3409309387207 37.45373916625977 44.57432174682617 40.07392120361328 42.32411956787109 42.32411956787109 C 40.07392120361328 44.57432174682617 37.45373916625977 46.3409309387207 34.53635025024414 47.57487106323242 C 31.51618957519531 48.85229110717773 28.30769920349121 49.5 25 49.5 Z" stroke="none"/>
              <path d="M 25 1 C 21.75958061218262 1 18.61661911010742 1.634418487548828 15.65842056274414 2.885631561279297 C 12.80064010620117 4.094371795654297 10.23387908935547 5.825000762939453 8.029441833496094 8.029441833496094 C 5.825000762939453 10.23387908935547 4.094371795654297 12.80064010620117 2.885631561279297 15.65842819213867 C 1.634418487548828 18.61661911010742 1 21.75958061218262 1 25 C 1 28.24041938781738 1.634418487548828 31.38338088989258 2.885631561279297 34.34157943725586 C 4.094371795654297 37.19935989379883 5.825000762939453 39.76612091064453 8.029441833496094 41.97055816650391 C 10.23387908935547 44.17499923706055 12.80064010620117 45.90563201904297 15.65842056274414 47.1143684387207 C 18.61661911010742 48.36558151245117 21.75958061218262 49 25 49 C 28.24041938781738 49 31.38338088989258 48.36558151245117 34.34157943725586 47.1143684387207 C 37.19935989379883 45.90563201904297 39.76612091064453 44.17499923706055 41.97055816650391 41.97055816650391 C 44.17499923706055 39.76612091064453 45.90563201904297 37.19935989379883 47.1143684387207 34.34157943725586 C 48.36558151245117 31.38338088989258 49 28.24041938781738 49 25 C 49 21.75958061218262 48.36558151245117 18.61661911010742 47.1143684387207 15.65842819213867 C 45.90563201904297 12.80064010620117 44.17499923706055 10.23387908935547 41.97055816650391 8.029441833496094 C 39.76612091064453 5.825000762939453 37.19935989379883 4.094371795654297 34.34157943725586 2.885631561279297 C 31.38338088989258 1.634418487548828 28.24041938781738 1 25 1 M 25 0 C 38.80712127685547 0 50 11.19289016723633 50 25 C 50 38.80712127685547 38.80712127685547 50 25 50 C 11.19287872314453 50 0 38.80712127685547 0 25 C 0 11.19289016723633 11.19287872314453 0 25 0 Z" stroke="none" fill="#101010"/>
            </g>
            <text id="_4-2" data-name="4" transform="translate(16.705 35.705)" fill="#020202" font-size="30" font-family="HelveticaNeue, Helvetica Neue"><tspan x="0" y="0">4</tspan></text>
          </g>
        </g>
      </g>
      <line id="Line_4" data-name="Line 4" x2="3" y2="520" transform="translate(1241.5 40.5)" fill="none" stroke="#000" stroke-width="4"/>
      <line id="Line_3" data-name="Line 3" x2="83" y2="357" transform="translate(1356.5 205.5)" fill="none" stroke="#f70000" stroke-width="4"/>
    </g>
  </g>
</svg>
