<svg xmlns="http://www.w3.org/2000/svg" xmlns:xlink="http://www.w3.org/1999/xlink" width="1439" height="502" viewBox="0 0 1439 502">
  <defs>
    <clipPath id="clip-figure-templatealign_a_new">
      <rect width="1439" height="502"/>
    </clipPath>
  </defs>
  <g id="figure-templatealign_a_new" data-name="figure-templatealign(a) new" clip-path="url(#clip-figure-templatealign_a_new)">
    <rect width="1439" height="502" fill="#fff"/>
    <g id="Group_28" data-name="Group 28">
      <g id="Rectangle_9" data-name="Rectangle 9" transform="translate(1054 21)" fill="#fff" stroke="#000" stroke-width="2">
        <rect width="360" height="81" stroke="none"/>
        <rect x="1" y="1" width="358" height="79" fill="none"/>
      </g>
      <text id="STRUCTURE" transform="translate(1145 73)" fill="#020202" font-size="30" font-family="HelveticaNeue, Helvetica Neue"><tspan x="0" y="0">STRUCTURE</tspan></text>
      <g id="Rectangle_1" data-name="Rectangle 1" transform="translate(22 21)" fill="#fff" stroke="#000" stroke-width="2">
        <rect width="246" height="81" stroke="none"/>
        <rect x="1" y="1" width="244" height="79" fill="none"/>
      </g>
      <text id="DOCULECT" transform="translate(65 73)" fill="#020202" font-size="30" font-family="HelveticaNeue, Helvetica Neue"><tspan x="0" y="0">DOCULECT</tspan></text>
      <g id="Rectangle_1-2" data-name="Rectangle 1" transform="translate(289 21)" fill="#fff" stroke="#000" stroke-width="2">
        <rect width="165" height="81" stroke="none"/>
        <rect x="1" y="1" width="163" height="79" fill="none"/>
      </g>
      <text id="CONCEPT" transform="translate(300 73)" fill="#020202" font-size="30" font-family="HelveticaNeue, Helvetica Neue"><tspan x="0" y="0">CONCEPT</tspan></text>
      <g id="Rectangle_1-3" data-name="Rectangle 1" transform="translate(475 21)" fill="#fff" stroke="#000" stroke-width="2">
        <rect width="357" height="81" stroke="none"/>
        <rect x="1" y="1" width="355" height="79" fill="none"/>
      </g>
      <text id="TOKENS" transform="translate(594 73)" fill="#020202" font-size="30" font-family="HelveticaNeue, Helvetica Neue"><tspan x="0" y="0">TOKENS</tspan></text>
      <text id="COGIDS" transform="translate(886 73)" fill="#020202" font-size="30" font-family="HelveticaNeue, Helvetica Neue"><tspan x="0" y="0">COGIDS</tspan></text>
      <g id="Rectangle_1-4" data-name="Rectangle 1" transform="translate(854 21)" fill="#fff" stroke="#000" stroke-width="2">
        <rect width="181" height="81" stroke="none"/>
        <rect x="1" y="1" width="179" height="79" fill="none"/>
      </g>
      <text id="COGIDS-2" data-name="COGIDS" transform="translate(887 73)" fill="#020202" font-size="30" font-family="HelveticaNeue, Helvetica Neue"><tspan x="0" y="0">COGIDS</tspan></text>
      <g id="Rectangle_14" data-name="Rectangle 14" transform="translate(1054 116)" fill="none" stroke="#000" stroke-width="1">
        <rect width="84" height="81" stroke="none"/>
        <rect x="0.5" y="0.5" width="83" height="80" fill="none"/>
      </g>
      <text id="i" transform="translate(1091 171)" fill="#020202" font-size="40" font-family="HelveticaNeue-Medium, Helvetica Neue" font-weight="500"><tspan x="0" y="0">i</tspan></text>
      <g id="Rectangle_22" data-name="Rectangle 22" transform="translate(1146 116)" fill="none" stroke="#000" stroke-width="1">
        <rect width="84" height="81" stroke="none"/>
        <rect x="0.5" y="0.5" width="83" height="80" fill="none"/>
      </g>
      <text id="n" transform="translate(1176 171)" fill="#020202" font-size="40" font-family="HelveticaNeue-Medium, Helvetica Neue" font-weight="500"><tspan x="0" y="0">n</tspan></text>
      <g id="Rectangle_10" data-name="Rectangle 10" transform="translate(1238 116)" fill="none" stroke="#000" stroke-width="1">
        <rect width="84" height="81" stroke="none"/>
        <rect x="0.5" y="0.5" width="83" height="80" fill="none"/>
      </g>
      <text id="t" transform="translate(1274 171)" fill="#020202" font-size="40" font-family="HelveticaNeue-Medium, Helvetica Neue" font-weight="500"><tspan x="0" y="0">t</tspan></text>
      <g id="Rectangle_1-5" data-name="Rectangle 1" transform="translate(22 116)" fill="#fff" stroke="#707070" stroke-width="1">
        <rect width="246" height="81" stroke="none"/>
        <rect x="0.5" y="0.5" width="245" height="80" fill="none"/>
      </g>
      <text id="Chuanqiandian" transform="translate(44 168)" fill="#020202" font-size="30" font-family="HelveticaNeue, Helvetica Neue"><tspan x="0" y="0">Chuanqiandian</tspan></text>
      <g id="Rectangle_1-6" data-name="Rectangle 1" transform="translate(289 116)" fill="#fff" stroke="#707070" stroke-width="1">
        <rect width="165" height="81" stroke="none"/>
        <rect x="0.5" y="0.5" width="164" height="80" fill="none"/>
      </g>
      <text id="SUN" transform="translate(340 168)" fill="#020202" font-size="30" font-family="HelveticaNeue, Helvetica Neue"><tspan x="0" y="0">SUN</tspan></text>
      <g id="Rectangle_1-7" data-name="Rectangle 1" transform="translate(475 116)" fill="#fff" stroke="#000" stroke-width="1">
        <rect width="357" height="81" stroke="none"/>
        <rect x="0.5" y="0.5" width="356" height="80" fill="none"/>
      </g>
      <text id="n̥_o_" data-name="n̥ o ⁴³" transform="translate(615 168)" fill="#f70000" font-size="32" font-family="CharisSIL, Charis SIL"><tspan x="0" y="0">n̥ o ⁴³</tspan></text>
      <g id="Group_2" data-name="Group 2" transform="translate(-92 -5)">
        <g id="Rectangle_1-8" data-name="Rectangle 1" transform="translate(945 121)" fill="#fff" stroke="#000" stroke-width="1">
          <rect width="181" height="81" stroke="none"/>
          <rect x="0.5" y="0.5" width="180" height="80" fill="none"/>
        </g>
      </g>
      <g id="Group_4" data-name="Group 4" transform="translate(-298.295 -6.295)" style="isolation: isolate">
        <g id="Path_3" data-name="Path 3" transform="translate(1175.295 137.295)" fill="#fff">
          <path d="M 25 49.5 C 21.69230079650879 49.5 18.48381042480469 48.85229110717773 15.46364974975586 47.57487106323242 C 12.54625988006592 46.3409309387207 9.926079750061035 44.57432174682617 7.675879955291748 42.32411956787109 C 5.425680160522461 40.07392120361328 3.659070014953613 37.45373916625977 2.425129890441895 34.53635025024414 C 1.147709965705872 31.51618957519531 0.5 28.30769920349121 0.5 25 C 0.5 21.69230079650879 1.147709965705872 18.48381042480469 2.425129890441895 15.46364974975586 C 3.659070014953613 12.5462703704834 5.425680160522461 9.926090240478516 7.675879955291748 7.67588996887207 C 9.926079750061035 5.425690174102783 12.54625988006592 3.659080028533936 15.46364974975586 2.425129890441895 C 18.48381042480469 1.147709965705872 21.69230079650879 0.5 25 0.5 C 28.30769920349121 0.5 31.51618957519531 1.147709965705872 34.53635025024414 2.425129890441895 C 37.45373916625977 3.659080028533936 40.07392120361328 5.425690174102783 42.32411956787109 7.67588996887207 C 44.57432174682617 9.926090240478516 46.3409309387207 12.5462703704834 47.57487106323242 15.46364974975586 C 48.85229110717773 18.48381042480469 49.5 21.69230079650879 49.5 25 C 49.5 28.30769920349121 48.85229110717773 31.51618957519531 47.57487106323242 34.53635025024414 C 46.3409309387207 37.45373916625977 44.57432174682617 40.07392120361328 42.32411956787109 42.32411956787109 C 40.07392120361328 44.57432174682617 37.45373916625977 46.3409309387207 34.53635025024414 47.57487106323242 C 31.51618957519531 48.85229110717773 28.30769920349121 49.5 25 49.5 Z" stroke="none"/>
          <path d="M 25 1 C 21.75958061218262 1 18.61661911010742 1.634418487548828 15.65842056274414 2.885631561279297 C 12.80064010620117 4.094371795654297 10.23387908935547 5.825000762939453 8.029441833496094 8.029441833496094 C 5.825000762939453 10.23387908935547 4.094371795654297 12.80064010620117 2.885631561279297 15.65842819213867 C 1.634418487548828 18.61661911010742 1 21.75958061218262 1 25 C 1 28.24041938781738 1.634418487548828 31.38338088989258 2.885631561279297 34.34157943725586 C 4.094371795654297 37.19935989379883 5.825000762939453 39.76612091064453 8.029441833496094 41.97055816650391 C 10.23387908935547 44.17499923706055 12.80064010620117 45.90563201904297 15.65842056274414 47.1143684387207 C 18.61661911010742 48.36558151245117 21.75958061218262 49 25 49 C 28.24041938781738 49 31.38338088989258 48.36558151245117 34.34157943725586 47.1143684387207 C 37.19935989379883 45.90563201904297 39.76612091064453 44.17499923706055 41.97055816650391 41.97055816650391 C 44.17499923706055 39.76612091064453 45.90563201904297 37.19935989379883 47.1143684387207 34.34157943725586 C 48.36558151245117 31.38338088989258 49 28.24041938781738 49 25 C 49 21.75958061218262 48.36558151245117 18.61661911010742 47.1143684387207 15.65842819213867 C 45.90563201904297 12.80064010620117 44.17499923706055 10.23387908935547 41.97055816650391 8.029441833496094 C 39.76612091064453 5.825000762939453 37.19935989379883 4.094371795654297 34.34157943725586 2.885631561279297 C 31.38338088989258 1.634418487548828 28.24041938781738 1 25 1 M 25 0 C 38.80712127685547 0 50 11.19289016723633 50 25 C 50 38.80712127685547 38.80712127685547 50 25 50 C 11.19287872314453 50 0 38.80712127685547 0 25 C 0 11.19289016723633 11.19287872314453 0 25 0 Z" stroke="none" fill="#101010"/>
        </g>
        <text id="_1" data-name="1" transform="translate(1192 173)" fill="#fc4a2a" font-size="30" font-family="HelveticaNeue, Helvetica Neue"><tspan x="0" y="0">1</tspan></text>
      </g>
      <g id="Rectangle_1-9" data-name="Rectangle 1" transform="translate(22 305)" fill="#fff" stroke="#000" stroke-width="1">
        <rect width="246" height="81" stroke="none"/>
        <rect x="0.5" y="0.5" width="245" height="80" fill="none"/>
      </g>
      <text id="ZaoMin" transform="translate(95 353)" fill="#020202" font-size="30" font-family="HelveticaNeue, Helvetica Neue"><tspan x="0" y="0">ZaoMin</tspan></text>
      <g id="Rectangle_1-10" data-name="Rectangle 1" transform="translate(289 305)" fill="#fff" stroke="#000" stroke-width="1">
        <rect width="165" height="81" stroke="none"/>
        <rect x="0.5" y="0.5" width="164" height="80" fill="none"/>
      </g>
      <text id="SUN-2" data-name="SUN" transform="translate(340 357)" fill="#020202" font-size="30" font-family="HelveticaNeue, Helvetica Neue"><tspan x="0" y="0">SUN</tspan></text>
      <g id="Rectangle_1-11" data-name="Rectangle 1" transform="translate(475 305)" fill="#fff" stroke="#000" stroke-width="1">
        <rect width="357" height="81" stroke="none"/>
        <rect x="0.5" y="0.5" width="356" height="80" fill="none"/>
      </g>
      <text id="ʔ_a_n_ai_" data-name="ʔ a ⁵³ + n ai ⁴⁴" transform="translate(544 358)" fill="#020202" font-size="32" font-family="CharisSIL, Charis SIL"><tspan x="0" y="0">ʔ a ⁵³ +</tspan><tspan y="0" font-family="Monaco"> </tspan><tspan y="0" fill="#f70000">n ai ⁴⁴</tspan></text>
      <g id="Group_2-2" data-name="Group 2" transform="translate(-92 184)">
        <g id="Rectangle_1-12" data-name="Rectangle 1" transform="translate(945 121)" fill="#fff" stroke="#000" stroke-width="1">
          <rect width="181" height="81" stroke="none"/>
          <rect x="0.5" y="0.5" width="180" height="80" fill="none"/>
        </g>
      </g>
      <g id="Group_4-2" data-name="Group 4" transform="translate(-298.295 182.705)">
        <g id="Path_3-2" data-name="Path 3" transform="translate(1175.295 137.295)" fill="#fff">
          <path d="M 25 49.5 C 21.69230079650879 49.5 18.48381042480469 48.85229110717773 15.46364974975586 47.57487106323242 C 12.54625988006592 46.3409309387207 9.926079750061035 44.57432174682617 7.675879955291748 42.32411956787109 C 5.425680160522461 40.07392120361328 3.659070014953613 37.45373916625977 2.425129890441895 34.53635025024414 C 1.147709965705872 31.51618957519531 0.5 28.30769920349121 0.5 25 C 0.5 21.69230079650879 1.147709965705872 18.48381042480469 2.425129890441895 15.46364974975586 C 3.659070014953613 12.5462703704834 5.425680160522461 9.926090240478516 7.675879955291748 7.67588996887207 C 9.926079750061035 5.425690174102783 12.54625988006592 3.659080028533936 15.46364974975586 2.425129890441895 C 18.48381042480469 1.147709965705872 21.69230079650879 0.5 25 0.5 C 28.30769920349121 0.5 31.51618957519531 1.147709965705872 34.53635025024414 2.425129890441895 C 37.45373916625977 3.659080028533936 40.07392120361328 5.425690174102783 42.32411956787109 7.67588996887207 C 44.57432174682617 9.926090240478516 46.3409309387207 12.5462703704834 47.57487106323242 15.46364974975586 C 48.85229110717773 18.48381042480469 49.5 21.69230079650879 49.5 25 C 49.5 28.30769920349121 48.85229110717773 31.51618957519531 47.57487106323242 34.53635025024414 C 46.3409309387207 37.45373916625977 44.57432174682617 40.07392120361328 42.32411956787109 42.32411956787109 C 40.07392120361328 44.57432174682617 37.45373916625977 46.3409309387207 34.53635025024414 47.57487106323242 C 31.51618957519531 48.85229110717773 28.30769920349121 49.5 25 49.5 Z" stroke="none"/>
          <path d="M 25 1 C 21.75958061218262 1 18.61661911010742 1.634418487548828 15.65842056274414 2.885631561279297 C 12.80064010620117 4.094371795654297 10.23387908935547 5.825000762939453 8.029441833496094 8.029441833496094 C 5.825000762939453 10.23387908935547 4.094371795654297 12.80064010620117 2.885631561279297 15.65842819213867 C 1.634418487548828 18.61661911010742 1 21.75958061218262 1 25 C 1 28.24041938781738 1.634418487548828 31.38338088989258 2.885631561279297 34.34157943725586 C 4.094371795654297 37.19935989379883 5.825000762939453 39.76612091064453 8.029441833496094 41.97055816650391 C 10.23387908935547 44.17499923706055 12.80064010620117 45.90563201904297 15.65842056274414 47.1143684387207 C 18.61661911010742 48.36558151245117 21.75958061218262 49 25 49 C 28.24041938781738 49 31.38338088989258 48.36558151245117 34.34157943725586 47.1143684387207 C 37.19935989379883 45.90563201904297 39.76612091064453 44.17499923706055 41.97055816650391 41.97055816650391 C 44.17499923706055 39.76612091064453 45.90563201904297 37.19935989379883 47.1143684387207 34.34157943725586 C 48.36558151245117 31.38338088989258 49 28.24041938781738 49 25 C 49 21.75958061218262 48.36558151245117 18.61661911010742 47.1143684387207 15.65842819213867 C 45.90563201904297 12.80064010620117 44.17499923706055 10.23387908935547 41.97055816650391 8.029441833496094 C 39.76612091064453 5.825000762939453 37.19935989379883 4.094371795654297 34.34157943725586 2.885631561279297 C 31.38338088989258 1.634418487548828 28.24041938781738 1 25 1 M 25 0 C 38.80712127685547 0 50 11.19289016723633 50 25 C 50 38.80712127685547 38.80712127685547 50 25 50 C 11.19287872314453 50 0 38.80712127685547 0 25 C 0 11.19289016723633 11.19287872314453 0 25 0 Z" stroke="none" fill="#101010"/>
        </g>
        <text id="_3" data-name="3" transform="translate(1192 173)" fill="#020202" font-size="30" font-family="HelveticaNeue, Helvetica Neue"><tspan x="0" y="0">3</tspan></text>
      </g>
      <g id="Group_7" data-name="Group 7" transform="translate(-215.295 182.705)" style="isolation: isolate">
        <g id="Path_3-3" data-name="Path 3" transform="translate(1175.295 137.295)" fill="#fff">
          <path d="M 25 49.5 C 21.69230079650879 49.5 18.48381042480469 48.85229110717773 15.46364974975586 47.57487106323242 C 12.54625988006592 46.3409309387207 9.926079750061035 44.57432174682617 7.675879955291748 42.32411956787109 C 5.425680160522461 40.07392120361328 3.659070014953613 37.45373916625977 2.425129890441895 34.53635025024414 C 1.147709965705872 31.51618957519531 0.5 28.30769920349121 0.5 25 C 0.5 21.69230079650879 1.147709965705872 18.48381042480469 2.425129890441895 15.46364974975586 C 3.659070014953613 12.5462703704834 5.425680160522461 9.926090240478516 7.675879955291748 7.67588996887207 C 9.926079750061035 5.425690174102783 12.54625988006592 3.659080028533936 15.46364974975586 2.425129890441895 C 18.48381042480469 1.147709965705872 21.69230079650879 0.5 25 0.5 C 28.30769920349121 0.5 31.51618957519531 1.147709965705872 34.53635025024414 2.425129890441895 C 37.45373916625977 3.659080028533936 40.07392120361328 5.425690174102783 42.32411956787109 7.67588996887207 C 44.57432174682617 9.926090240478516 46.3409309387207 12.5462703704834 47.57487106323242 15.46364974975586 C 48.85229110717773 18.48381042480469 49.5 21.69230079650879 49.5 25 C 49.5 28.30769920349121 48.85229110717773 31.51618957519531 47.57487106323242 34.53635025024414 C 46.3409309387207 37.45373916625977 44.57432174682617 40.07392120361328 42.32411956787109 42.32411956787109 C 40.07392120361328 44.57432174682617 37.45373916625977 46.3409309387207 34.53635025024414 47.57487106323242 C 31.51618957519531 48.85229110717773 28.30769920349121 49.5 25 49.5 Z" stroke="none"/>
          <path d="M 25 1 C 21.75958061218262 1 18.61661911010742 1.634418487548828 15.65842056274414 2.885631561279297 C 12.80064010620117 4.094371795654297 10.23387908935547 5.825000762939453 8.029441833496094 8.029441833496094 C 5.825000762939453 10.23387908935547 4.094371795654297 12.80064010620117 2.885631561279297 15.65842819213867 C 1.634418487548828 18.61661911010742 1 21.75958061218262 1 25 C 1 28.24041938781738 1.634418487548828 31.38338088989258 2.885631561279297 34.34157943725586 C 4.094371795654297 37.19935989379883 5.825000762939453 39.76612091064453 8.029441833496094 41.97055816650391 C 10.23387908935547 44.17499923706055 12.80064010620117 45.90563201904297 15.65842056274414 47.1143684387207 C 18.61661911010742 48.36558151245117 21.75958061218262 49 25 49 C 28.24041938781738 49 31.38338088989258 48.36558151245117 34.34157943725586 47.1143684387207 C 37.19935989379883 45.90563201904297 39.76612091064453 44.17499923706055 41.97055816650391 41.97055816650391 C 44.17499923706055 39.76612091064453 45.90563201904297 37.19935989379883 47.1143684387207 34.34157943725586 C 48.36558151245117 31.38338088989258 49 28.24041938781738 49 25 C 49 21.75958061218262 48.36558151245117 18.61661911010742 47.1143684387207 15.65842819213867 C 45.90563201904297 12.80064010620117 44.17499923706055 10.23387908935547 41.97055816650391 8.029441833496094 C 39.76612091064453 5.825000762939453 37.19935989379883 4.094371795654297 34.34157943725586 2.885631561279297 C 31.38338088989258 1.634418487548828 28.24041938781738 1 25 1 M 25 0 C 38.80712127685547 0 50 11.19289016723633 50 25 C 50 38.80712127685547 38.80712127685547 50 25 50 C 11.19287872314453 50 0 38.80712127685547 0 25 C 0 11.19289016723633 11.19287872314453 0 25 0 Z" stroke="none" fill="#101010"/>
        </g>
        <text id="_1-2" data-name="1" transform="translate(1192 173)" fill="#fc4a2a" font-size="30" font-family="HelveticaNeue, Helvetica Neue"><tspan x="0" y="0">1</tspan></text>
      </g>
      <g id="Rectangle_1-13" data-name="Rectangle 1" transform="translate(22 210)" fill="#fff" stroke="#000" stroke-width="1">
        <rect width="246" height="81" stroke="none"/>
        <rect x="0.5" y="0.5" width="245" height="80" fill="none"/>
      </g>
      <text id="Numao" transform="translate(97 262)" fill="#020202" font-size="30" font-family="HelveticaNeue, Helvetica Neue"><tspan x="0" y="0">Numao</tspan></text>
      <g id="Rectangle_1-14" data-name="Rectangle 1" transform="translate(289 210)" fill="#fff" stroke="#000" stroke-width="1">
        <rect width="165" height="81" stroke="none"/>
        <rect x="0.5" y="0.5" width="164" height="80" fill="none"/>
      </g>
      <text id="SUN-3" data-name="SUN" transform="translate(340 262)" fill="#020202" font-size="30" font-family="HelveticaNeue, Helvetica Neue"><tspan x="0" y="0">SUN</tspan></text>
      <g id="Rectangle_1-15" data-name="Rectangle 1" transform="translate(475 210)" fill="#fff" stroke="#000" stroke-width="1">
        <rect width="357" height="81" stroke="none"/>
        <rect x="0.5" y="0.5" width="356" height="80" fill="none"/>
      </g>
      <text id="m_a_n̥_a_ŋ_" data-name="m a ⁴² + n̥ a ŋ ³³" transform="translate(654 262)" fill="#020202" font-size="32" font-family="CharisSIL, Charis SIL"><tspan x="-125.188" y="0">m a ⁴² +</tspan><tspan y="0" font-family="Monaco"> </tspan><tspan y="0" fill="#f70000">n̥ a ŋ ³³</tspan></text>
      <g id="Group_2-3" data-name="Group 2" transform="translate(-92 89)">
        <g id="Rectangle_1-16" data-name="Rectangle 1" transform="translate(945 121)" fill="#fff" stroke="#000" stroke-width="1">
          <rect width="181" height="81" stroke="none"/>
          <rect x="0.5" y="0.5" width="180" height="80" fill="none"/>
        </g>
      </g>
      <g id="Group_5" data-name="Group 5" transform="translate(-215.295 87.705)" style="isolation: isolate">
        <g id="Path_3-4" data-name="Path 3" transform="translate(1175.295 137.295)" fill="#fff">
          <path d="M 25 49.5 C 21.69230079650879 49.5 18.48381042480469 48.85229110717773 15.46364974975586 47.57487106323242 C 12.54625988006592 46.3409309387207 9.926079750061035 44.57432174682617 7.675879955291748 42.32411956787109 C 5.425680160522461 40.07392120361328 3.659070014953613 37.45373916625977 2.425129890441895 34.53635025024414 C 1.147709965705872 31.51618957519531 0.5 28.30769920349121 0.5 25 C 0.5 21.69230079650879 1.147709965705872 18.48381042480469 2.425129890441895 15.46364974975586 C 3.659070014953613 12.5462703704834 5.425680160522461 9.926090240478516 7.675879955291748 7.67588996887207 C 9.926079750061035 5.425690174102783 12.54625988006592 3.659080028533936 15.46364974975586 2.425129890441895 C 18.48381042480469 1.147709965705872 21.69230079650879 0.5 25 0.5 C 28.30769920349121 0.5 31.51618957519531 1.147709965705872 34.53635025024414 2.425129890441895 C 37.45373916625977 3.659080028533936 40.07392120361328 5.425690174102783 42.32411956787109 7.67588996887207 C 44.57432174682617 9.926090240478516 46.3409309387207 12.5462703704834 47.57487106323242 15.46364974975586 C 48.85229110717773 18.48381042480469 49.5 21.69230079650879 49.5 25 C 49.5 28.30769920349121 48.85229110717773 31.51618957519531 47.57487106323242 34.53635025024414 C 46.3409309387207 37.45373916625977 44.57432174682617 40.07392120361328 42.32411956787109 42.32411956787109 C 40.07392120361328 44.57432174682617 37.45373916625977 46.3409309387207 34.53635025024414 47.57487106323242 C 31.51618957519531 48.85229110717773 28.30769920349121 49.5 25 49.5 Z" stroke="none"/>
          <path d="M 25 1 C 21.75958061218262 1 18.61661911010742 1.634418487548828 15.65842056274414 2.885631561279297 C 12.80064010620117 4.094371795654297 10.23387908935547 5.825000762939453 8.029441833496094 8.029441833496094 C 5.825000762939453 10.23387908935547 4.094371795654297 12.80064010620117 2.885631561279297 15.65842819213867 C 1.634418487548828 18.61661911010742 1 21.75958061218262 1 25 C 1 28.24041938781738 1.634418487548828 31.38338088989258 2.885631561279297 34.34157943725586 C 4.094371795654297 37.19935989379883 5.825000762939453 39.76612091064453 8.029441833496094 41.97055816650391 C 10.23387908935547 44.17499923706055 12.80064010620117 45.90563201904297 15.65842056274414 47.1143684387207 C 18.61661911010742 48.36558151245117 21.75958061218262 49 25 49 C 28.24041938781738 49 31.38338088989258 48.36558151245117 34.34157943725586 47.1143684387207 C 37.19935989379883 45.90563201904297 39.76612091064453 44.17499923706055 41.97055816650391 41.97055816650391 C 44.17499923706055 39.76612091064453 45.90563201904297 37.19935989379883 47.1143684387207 34.34157943725586 C 48.36558151245117 31.38338088989258 49 28.24041938781738 49 25 C 49 21.75958061218262 48.36558151245117 18.61661911010742 47.1143684387207 15.65842819213867 C 45.90563201904297 12.80064010620117 44.17499923706055 10.23387908935547 41.97055816650391 8.029441833496094 C 39.76612091064453 5.825000762939453 37.19935989379883 4.094371795654297 34.34157943725586 2.885631561279297 C 31.38338088989258 1.634418487548828 28.24041938781738 1 25 1 M 25 0 C 38.80712127685547 0 50 11.19289016723633 50 25 C 50 38.80712127685547 38.80712127685547 50 25 50 C 11.19287872314453 50 0 38.80712127685547 0 25 C 0 11.19289016723633 11.19287872314453 0 25 0 Z" stroke="none" fill="#101010"/>
        </g>
        <text id="_1-3" data-name="1" transform="translate(1192 173)" fill="#fc4a2a" font-size="30" font-family="HelveticaNeue, Helvetica Neue"><tspan x="0" y="0">1</tspan></text>
      </g>
      <g id="Group_6" data-name="Group 6" transform="translate(-298.295 87.705)" style="isolation: isolate">
        <g id="Path_3-5" data-name="Path 3" transform="translate(1175.295 137.295)" fill="#fff">
          <path d="M 25 49.5 C 21.69230079650879 49.5 18.48381042480469 48.85229110717773 15.46364974975586 47.57487106323242 C 12.54625988006592 46.3409309387207 9.926079750061035 44.57432174682617 7.675879955291748 42.32411956787109 C 5.425680160522461 40.07392120361328 3.659070014953613 37.45373916625977 2.425129890441895 34.53635025024414 C 1.147709965705872 31.51618957519531 0.5 28.30769920349121 0.5 25 C 0.5 21.69230079650879 1.147709965705872 18.48381042480469 2.425129890441895 15.46364974975586 C 3.659070014953613 12.5462703704834 5.425680160522461 9.926090240478516 7.675879955291748 7.67588996887207 C 9.926079750061035 5.425690174102783 12.54625988006592 3.659080028533936 15.46364974975586 2.425129890441895 C 18.48381042480469 1.147709965705872 21.69230079650879 0.5 25 0.5 C 28.30769920349121 0.5 31.51618957519531 1.147709965705872 34.53635025024414 2.425129890441895 C 37.45373916625977 3.659080028533936 40.07392120361328 5.425690174102783 42.32411956787109 7.67588996887207 C 44.57432174682617 9.926090240478516 46.3409309387207 12.5462703704834 47.57487106323242 15.46364974975586 C 48.85229110717773 18.48381042480469 49.5 21.69230079650879 49.5 25 C 49.5 28.30769920349121 48.85229110717773 31.51618957519531 47.57487106323242 34.53635025024414 C 46.3409309387207 37.45373916625977 44.57432174682617 40.07392120361328 42.32411956787109 42.32411956787109 C 40.07392120361328 44.57432174682617 37.45373916625977 46.3409309387207 34.53635025024414 47.57487106323242 C 31.51618957519531 48.85229110717773 28.30769920349121 49.5 25 49.5 Z" stroke="none"/>
          <path d="M 25 1 C 21.75958061218262 1 18.61661911010742 1.634418487548828 15.65842056274414 2.885631561279297 C 12.80064010620117 4.094371795654297 10.23387908935547 5.825000762939453 8.029441833496094 8.029441833496094 C 5.825000762939453 10.23387908935547 4.094371795654297 12.80064010620117 2.885631561279297 15.65842819213867 C 1.634418487548828 18.61661911010742 1 21.75958061218262 1 25 C 1 28.24041938781738 1.634418487548828 31.38338088989258 2.885631561279297 34.34157943725586 C 4.094371795654297 37.19935989379883 5.825000762939453 39.76612091064453 8.029441833496094 41.97055816650391 C 10.23387908935547 44.17499923706055 12.80064010620117 45.90563201904297 15.65842056274414 47.1143684387207 C 18.61661911010742 48.36558151245117 21.75958061218262 49 25 49 C 28.24041938781738 49 31.38338088989258 48.36558151245117 34.34157943725586 47.1143684387207 C 37.19935989379883 45.90563201904297 39.76612091064453 44.17499923706055 41.97055816650391 41.97055816650391 C 44.17499923706055 39.76612091064453 45.90563201904297 37.19935989379883 47.1143684387207 34.34157943725586 C 48.36558151245117 31.38338088989258 49 28.24041938781738 49 25 C 49 21.75958061218262 48.36558151245117 18.61661911010742 47.1143684387207 15.65842819213867 C 45.90563201904297 12.80064010620117 44.17499923706055 10.23387908935547 41.97055816650391 8.029441833496094 C 39.76612091064453 5.825000762939453 37.19935989379883 4.094371795654297 34.34157943725586 2.885631561279297 C 31.38338088989258 1.634418487548828 28.24041938781738 1 25 1 M 25 0 C 38.80712127685547 0 50 11.19289016723633 50 25 C 50 38.80712127685547 38.80712127685547 50 25 50 C 11.19287872314453 50 0 38.80712127685547 0 25 C 0 11.19289016723633 11.19287872314453 0 25 0 Z" stroke="none" fill="#101010"/>
        </g>
        <text id="_2" data-name="2" transform="translate(1192 173)" font-size="30" font-family="HelveticaNeue, Helvetica Neue"><tspan x="0" y="0">2</tspan></text>
      </g>
      <g id="Group_27" data-name="Group 27" transform="translate(-369)">
        <g id="Rectangle_14-2" data-name="Rectangle 14" transform="translate(1423 305)" fill="none" stroke="#000" stroke-width="1">
          <rect width="84" height="81" stroke="none"/>
          <rect x="0.5" y="0.5" width="83" height="80" fill="none"/>
        </g>
        <text id="i-2" data-name="i" transform="translate(1460 360)" fill="#020202" font-size="40" font-family="HelveticaNeue-Medium, Helvetica Neue" font-weight="500"><tspan x="0" y="0">i</tspan></text>
        <g id="Rectangle_22-2" data-name="Rectangle 22" transform="translate(1515 305)" fill="none" stroke="#000" stroke-width="1">
          <rect width="84" height="81" stroke="none"/>
          <rect x="0.5" y="0.5" width="83" height="80" fill="none"/>
        </g>
        <text id="n-2" data-name="n" transform="translate(1546 360)" fill="#020202" font-size="40" font-family="HelveticaNeue-Medium, Helvetica Neue" font-weight="500"><tspan x="0" y="0">n</tspan></text>
        <g id="Rectangle_10-2" data-name="Rectangle 10" transform="translate(1607 305)" fill="none" stroke="#000" stroke-width="1">
          <rect width="84" height="81" stroke="none"/>
          <rect x="0.5" y="0.5" width="83" height="80" fill="none"/>
        </g>
        <text id="t-2" data-name="t" transform="translate(1643 360)" fill="#020202" font-size="40" font-family="HelveticaNeue-Medium, Helvetica Neue" font-weight="500"><tspan x="0" y="0">t</tspan></text>
        <text id="t-3" data-name="t" transform="translate(1735 265)" fill="#020202" font-size="40" font-family="HelveticaNeue-Medium, Helvetica Neue" font-weight="500"><tspan x="0" y="0">t</tspan></text>
        <g id="Rectangle_14-3" data-name="Rectangle 14" transform="translate(1699 210)" fill="none" stroke="#000" stroke-width="1">
          <rect width="84" height="81" stroke="none"/>
          <rect x="0.5" y="0.5" width="83" height="80" fill="none"/>
        </g>
        <g id="Rectangle_14-4" data-name="Rectangle 14" transform="translate(1423 210)" fill="none" stroke="#000" stroke-width="1">
          <rect width="84" height="81" stroke="none"/>
          <rect x="0.5" y="0.5" width="83" height="80" fill="none"/>
        </g>
        <text id="i-3" data-name="i" transform="translate(1460 265)" fill="#020202" font-size="40" font-family="HelveticaNeue-Medium, Helvetica Neue" font-weight="500"><tspan x="0" y="0">i</tspan></text>
        <g id="Rectangle_22-3" data-name="Rectangle 22" transform="translate(1515 210)" fill="none" stroke="#000" stroke-width="1">
          <rect width="84" height="81" stroke="none"/>
          <rect x="0.5" y="0.5" width="83" height="80" fill="none"/>
        </g>
        <text id="n-3" data-name="n" transform="translate(1546 265)" fill="#020202" font-size="40" font-family="HelveticaNeue-Medium, Helvetica Neue" font-weight="500"><tspan x="0" y="0">n</tspan></text>
        <g id="Rectangle_10-3" data-name="Rectangle 10" transform="translate(1607 210)" fill="none" stroke="#000" stroke-width="1">
          <rect width="84" height="81" stroke="none"/>
          <rect x="0.5" y="0.5" width="83" height="80" fill="none"/>
        </g>
        <text id="c" transform="translate(1638 265)" fill="#020202" font-size="40" font-family="HelveticaNeue-Medium, Helvetica Neue" font-weight="500"><tspan x="0" y="0">c</tspan></text>
        <g id="Rectangle_14-5" data-name="Rectangle 14" transform="translate(1423 399)" fill="none" stroke="#000" stroke-width="1">
          <rect width="84" height="81" stroke="none"/>
          <rect x="0.5" y="0.5" width="83" height="80" fill="none"/>
        </g>
        <text id="i-4" data-name="i" transform="translate(1460 455)" fill="#020202" font-size="40" font-family="HelveticaNeue-Medium, Helvetica Neue" font-weight="500"><tspan x="0" y="0">i</tspan></text>
        <g id="Rectangle_22-4" data-name="Rectangle 22" transform="translate(1515 399)" fill="none" stroke="#000" stroke-width="1">
          <rect width="84" height="81" stroke="none"/>
          <rect x="0.5" y="0.5" width="83" height="80" fill="none"/>
        </g>
        <text id="n-4" data-name="n" transform="translate(1546 455)" fill="#020202" font-size="40" font-family="HelveticaNeue-Medium, Helvetica Neue" font-weight="500"><tspan x="0" y="0">n</tspan></text>
        <g id="Rectangle_10-4" data-name="Rectangle 10" transform="translate(1607 399)" fill="none" stroke="#000" stroke-width="1">
          <rect width="84" height="81" stroke="none"/>
          <rect x="0.5" y="0.5" width="83" height="80" fill="none"/>
        </g>
        <text id="t-4" data-name="t" transform="translate(1643 455)" fill="#020202" font-size="40" font-family="HelveticaNeue-Medium, Helvetica Neue" font-weight="500"><tspan x="0" y="0">t</tspan></text>
      </g>
      <g id="Rectangle_1-17" data-name="Rectangle 1" transform="translate(22 399)" fill="#fff" stroke="#000" stroke-width="1">
        <rect width="246" height="81" stroke="none"/>
        <rect x="0.5" y="0.5" width="245" height="80" fill="none"/>
      </g>
      <text id="EasternBaheng" transform="translate(42 447)" fill="#020202" font-size="30" font-family="HelveticaNeue, Helvetica Neue"><tspan x="0" y="0">EasternBaheng</tspan></text>
      <g id="Rectangle_1-18" data-name="Rectangle 1" transform="translate(289 399)" fill="#fff" stroke="#000" stroke-width="1">
        <rect width="165" height="81" stroke="none"/>
        <rect x="0.5" y="0.5" width="164" height="80" fill="none"/>
      </g>
      <text id="SUN-4" data-name="SUN" transform="translate(340 451)" fill="#020202" font-size="30" font-family="HelveticaNeue, Helvetica Neue"><tspan x="0" y="0">SUN</tspan></text>
      <g id="Rectangle_1-19" data-name="Rectangle 1" transform="translate(475 399)" fill="#fff" stroke="#000" stroke-width="1">
        <rect width="357" height="81" stroke="none"/>
        <rect x="0.5" y="0.5" width="356" height="80" fill="none"/>
      </g>
      <text id="l_a_n̥_e_" data-name="l a ⁰/³ + n̥ e ³⁵" transform="translate(544 450)" fill="#020202" font-size="32" font-family="CharisSIL, Charis SIL"><tspan x="0" y="0">l a ⁰/³ +</tspan><tspan y="0" font-family="Monaco"> </tspan><tspan y="0" fill="#f70000">n̥ e ³⁵</tspan></text>
      <g id="Group_2-4" data-name="Group 2" transform="translate(-92 278)">
        <g id="Rectangle_1-20" data-name="Rectangle 1" transform="translate(945 121)" fill="#fff" stroke="#000" stroke-width="1">
          <rect width="181" height="81" stroke="none"/>
          <rect x="0.5" y="0.5" width="180" height="80" fill="none"/>
        </g>
      </g>
      <g id="Group_10" data-name="Group 10" transform="translate(-215.295 277.705)" style="isolation: isolate">
        <g id="Path_3-6" data-name="Path 3" transform="translate(1175.295 137.295)" fill="#fff">
          <path d="M 25 49.5 C 21.69230079650879 49.5 18.48381042480469 48.85229110717773 15.46364974975586 47.57487106323242 C 12.54625988006592 46.3409309387207 9.926079750061035 44.57432174682617 7.675879955291748 42.32411956787109 C 5.425680160522461 40.07392120361328 3.659070014953613 37.45373916625977 2.425129890441895 34.53635025024414 C 1.147709965705872 31.51618957519531 0.5 28.30769920349121 0.5 25 C 0.5 21.69230079650879 1.147709965705872 18.48381042480469 2.425129890441895 15.46364974975586 C 3.659070014953613 12.5462703704834 5.425680160522461 9.926090240478516 7.675879955291748 7.67588996887207 C 9.926079750061035 5.425690174102783 12.54625988006592 3.659080028533936 15.46364974975586 2.425129890441895 C 18.48381042480469 1.147709965705872 21.69230079650879 0.5 25 0.5 C 28.30769920349121 0.5 31.51618957519531 1.147709965705872 34.53635025024414 2.425129890441895 C 37.45373916625977 3.659080028533936 40.07392120361328 5.425690174102783 42.32411956787109 7.67588996887207 C 44.57432174682617 9.926090240478516 46.3409309387207 12.5462703704834 47.57487106323242 15.46364974975586 C 48.85229110717773 18.48381042480469 49.5 21.69230079650879 49.5 25 C 49.5 28.30769920349121 48.85229110717773 31.51618957519531 47.57487106323242 34.53635025024414 C 46.3409309387207 37.45373916625977 44.57432174682617 40.07392120361328 42.32411956787109 42.32411956787109 C 40.07392120361328 44.57432174682617 37.45373916625977 46.3409309387207 34.53635025024414 47.57487106323242 C 31.51618957519531 48.85229110717773 28.30769920349121 49.5 25 49.5 Z" stroke="none"/>
          <path d="M 25 1 C 21.75958061218262 1 18.61661911010742 1.634418487548828 15.65842056274414 2.885631561279297 C 12.80064010620117 4.094371795654297 10.23387908935547 5.825000762939453 8.029441833496094 8.029441833496094 C 5.825000762939453 10.23387908935547 4.094371795654297 12.80064010620117 2.885631561279297 15.65842819213867 C 1.634418487548828 18.61661911010742 1 21.75958061218262 1 25 C 1 28.24041938781738 1.634418487548828 31.38338088989258 2.885631561279297 34.34157943725586 C 4.094371795654297 37.19935989379883 5.825000762939453 39.76612091064453 8.029441833496094 41.97055816650391 C 10.23387908935547 44.17499923706055 12.80064010620117 45.90563201904297 15.65842056274414 47.1143684387207 C 18.61661911010742 48.36558151245117 21.75958061218262 49 25 49 C 28.24041938781738 49 31.38338088989258 48.36558151245117 34.34157943725586 47.1143684387207 C 37.19935989379883 45.90563201904297 39.76612091064453 44.17499923706055 41.97055816650391 41.97055816650391 C 44.17499923706055 39.76612091064453 45.90563201904297 37.19935989379883 47.1143684387207 34.34157943725586 C 48.36558151245117 31.38338088989258 49 28.24041938781738 49 25 C 49 21.75958061218262 48.36558151245117 18.61661911010742 47.1143684387207 15.65842819213867 C 45.90563201904297 12.80064010620117 44.17499923706055 10.23387908935547 41.97055816650391 8.029441833496094 C 39.76612091064453 5.825000762939453 37.19935989379883 4.094371795654297 34.34157943725586 2.885631561279297 C 31.38338088989258 1.634418487548828 28.24041938781738 1 25 1 M 25 0 C 38.80712127685547 0 50 11.19289016723633 50 25 C 50 38.80712127685547 38.80712127685547 50 25 50 C 11.19287872314453 50 0 38.80712127685547 0 25 C 0 11.19289016723633 11.19287872314453 0 25 0 Z" stroke="none" fill="#101010"/>
        </g>
        <text id="_1-4" data-name="1" transform="translate(1192 173)" fill="#fc4a2a" font-size="30" font-family="HelveticaNeue, Helvetica Neue"><tspan x="0" y="0">1</tspan></text>
      </g>
      <g id="Group_8" data-name="Group 8" transform="translate(-298.295 277.705)">
        <g id="Path_3-7" data-name="Path 3" transform="translate(1175.295 137.295)" fill="#fff">
          <path d="M 25 49.5 C 21.69230079650879 49.5 18.48381042480469 48.85229110717773 15.46364974975586 47.57487106323242 C 12.54625988006592 46.3409309387207 9.926079750061035 44.57432174682617 7.675879955291748 42.32411956787109 C 5.425680160522461 40.07392120361328 3.659070014953613 37.45373916625977 2.425129890441895 34.53635025024414 C 1.147709965705872 31.51618957519531 0.5 28.30769920349121 0.5 25 C 0.5 21.69230079650879 1.147709965705872 18.48381042480469 2.425129890441895 15.46364974975586 C 3.659070014953613 12.5462703704834 5.425680160522461 9.926090240478516 7.675879955291748 7.67588996887207 C 9.926079750061035 5.425690174102783 12.54625988006592 3.659080028533936 15.46364974975586 2.425129890441895 C 18.48381042480469 1.147709965705872 21.69230079650879 0.5 25 0.5 C 28.30769920349121 0.5 31.51618957519531 1.147709965705872 34.53635025024414 2.425129890441895 C 37.45373916625977 3.659080028533936 40.07392120361328 5.425690174102783 42.32411956787109 7.67588996887207 C 44.57432174682617 9.926090240478516 46.3409309387207 12.5462703704834 47.57487106323242 15.46364974975586 C 48.85229110717773 18.48381042480469 49.5 21.69230079650879 49.5 25 C 49.5 28.30769920349121 48.85229110717773 31.51618957519531 47.57487106323242 34.53635025024414 C 46.3409309387207 37.45373916625977 44.57432174682617 40.07392120361328 42.32411956787109 42.32411956787109 C 40.07392120361328 44.57432174682617 37.45373916625977 46.3409309387207 34.53635025024414 47.57487106323242 C 31.51618957519531 48.85229110717773 28.30769920349121 49.5 25 49.5 Z" stroke="none"/>
          <path d="M 25 1 C 21.75958061218262 1 18.61661911010742 1.634418487548828 15.65842056274414 2.885631561279297 C 12.80064010620117 4.094371795654297 10.23387908935547 5.825000762939453 8.029441833496094 8.029441833496094 C 5.825000762939453 10.23387908935547 4.094371795654297 12.80064010620117 2.885631561279297 15.65842819213867 C 1.634418487548828 18.61661911010742 1 21.75958061218262 1 25 C 1 28.24041938781738 1.634418487548828 31.38338088989258 2.885631561279297 34.34157943725586 C 4.094371795654297 37.19935989379883 5.825000762939453 39.76612091064453 8.029441833496094 41.97055816650391 C 10.23387908935547 44.17499923706055 12.80064010620117 45.90563201904297 15.65842056274414 47.1143684387207 C 18.61661911010742 48.36558151245117 21.75958061218262 49 25 49 C 28.24041938781738 49 31.38338088989258 48.36558151245117 34.34157943725586 47.1143684387207 C 37.19935989379883 45.90563201904297 39.76612091064453 44.17499923706055 41.97055816650391 41.97055816650391 C 44.17499923706055 39.76612091064453 45.90563201904297 37.19935989379883 47.1143684387207 34.34157943725586 C 48.36558151245117 31.38338088989258 49 28.24041938781738 49 25 C 49 21.75958061218262 48.36558151245117 18.61661911010742 47.1143684387207 15.65842819213867 C 45.90563201904297 12.80064010620117 44.17499923706055 10.23387908935547 41.97055816650391 8.029441833496094 C 39.76612091064453 5.825000762939453 37.19935989379883 4.094371795654297 34.34157943725586 2.885631561279297 C 31.38338088989258 1.634418487548828 28.24041938781738 1 25 1 M 25 0 C 38.80712127685547 0 50 11.19289016723633 50 25 C 50 38.80712127685547 38.80712127685547 50 25 50 C 11.19287872314453 50 0 38.80712127685547 0 25 C 0 11.19289016723633 11.19287872314453 0 25 0 Z" stroke="none" fill="#101010"/>
        </g>
        <text id="_4" data-name="4" transform="translate(1192 173)" fill="#020202" font-size="30" font-family="HelveticaNeue, Helvetica Neue"><tspan x="0" y="0">4</tspan></text>
      </g>
    </g>
  </g>
</svg>
