<svg xmlns="http://www.w3.org/2000/svg" xmlns:xlink="http://www.w3.org/1999/xlink" width="1408" height="535" viewBox="0 0 1408 535">
  <defs>
    <clipPath id="clip-Web_1920_1">
      <rect width="1408" height="535"/>
    </clipPath>
  </defs>
  <g id="Web_1920_1" data-name="Web 1920 – 1" clip-path="url(#clip-Web_1920_1)">
    <rect width="1408" height="535" fill="#fff"/>
    <g id="Group_4" data-name="Group 4">
      <g id="Group_2" data-name="Group 2" transform="translate(-23 -176)">
        <g id="Rectangle_1" data-name="Rectangle 1" transform="translate(94 207)" fill="#fff" stroke="#707070" stroke-width="2">
          <rect width="246" height="81" stroke="none"/>
          <rect x="1" y="1" width="244" height="79" fill="none"/>
        </g>
        <text id="DOCULECT" transform="translate(137 255)" fill="#020202" font-size="30" font-family="HelveticaNeue, Helvetica Neue"><tspan x="0" y="0">DOCULECT</tspan></text>
        <g id="Rectangle_1-2" data-name="Rectangle 1" transform="translate(370 207)" fill="#fff" stroke="#707070" stroke-width="2">
          <rect width="181" height="81" stroke="none"/>
          <rect x="1" y="1" width="179" height="79" fill="none"/>
        </g>
        <text id="CONCEPT" transform="translate(389 255)" fill="#020202" font-size="30" font-family="HelveticaNeue, Helvetica Neue"><tspan x="0" y="0">CONCEPT</tspan></text>
        <g id="Rectangle_1-3" data-name="Rectangle 1" transform="translate(581 207)" fill="#fff" stroke="#707070" stroke-width="2">
          <rect width="357" height="81" stroke="none"/>
          <rect x="1" y="1" width="355" height="79" fill="none"/>
        </g>
        <text id="TOKENS" transform="translate(700 259)" fill="#020202" font-size="30" font-family="HelveticaNeue, Helvetica Neue"><tspan x="0" y="0">TOKENS</tspan></text>
        <g id="Rectangle_1-4" data-name="Rectangle 1" transform="translate(968 207)" fill="#fff" stroke="#707070" stroke-width="2">
          <rect width="181" height="81" stroke="none"/>
          <rect x="1" y="1" width="179" height="79" fill="none"/>
        </g>
        <text id="COGID" transform="translate(1011 255)" fill="#020202" font-size="30" font-family="HelveticaNeue, Helvetica Neue"><tspan x="0" y="0">COGID</tspan></text>
        <g id="Rectangle_1-5" data-name="Rectangle 1" transform="translate(1179 207)" fill="#fff" stroke="#707070" stroke-width="2">
          <rect width="181" height="81" stroke="none"/>
          <rect x="1" y="1" width="179" height="79" fill="none"/>
        </g>
        <text id="COGIDS" transform="translate(1212 255)" fill="#020202" font-size="30" font-family="HelveticaNeue, Helvetica Neue"><tspan x="0" y="0">COGIDS</tspan></text>
        <g id="Rectangle_1-6" data-name="Rectangle 1" transform="translate(94 297)" fill="#fff" stroke="#707070" stroke-width="1">
          <rect width="246" height="81" stroke="none"/>
          <rect x="0.5" y="0.5" width="245" height="80" fill="none"/>
        </g>
        <text id="Chuanqiandian" transform="translate(116 345)" fill="#020202" font-size="30" font-family="HelveticaNeue, Helvetica Neue"><tspan x="0" y="0">Chuanqiandian</tspan></text>
        <g id="Rectangle_1-7" data-name="Rectangle 1" transform="translate(370 297)" fill="#fff" stroke="#707070" stroke-width="1">
          <rect width="181" height="81" stroke="none"/>
          <rect x="0.5" y="0.5" width="180" height="80" fill="none"/>
        </g>
        <text id="SUN" transform="translate(429 345)" fill="#020202" font-size="30" font-family="HelveticaNeue, Helvetica Neue"><tspan x="0" y="0">SUN</tspan></text>
        <g id="Rectangle_1-8" data-name="Rectangle 1" transform="translate(581 297)" fill="#fff" stroke="#707070" stroke-width="1">
          <rect width="357" height="81" stroke="none"/>
          <rect x="0.5" y="0.5" width="356" height="80" fill="none"/>
        </g>
        <text id="n̥_o_" data-name="n̥ o ⁴³" transform="translate(706 347)" fill="#fc4a2a" font-size="30" font-family="Monaco"><tspan x="0" y="0">n̥ o ⁴³</tspan></text>
        <g id="Rectangle_1-9" data-name="Rectangle 1" transform="translate(968 297)" fill="#fff" stroke="#707070" stroke-width="1">
          <rect width="181" height="81" stroke="none"/>
          <rect x="0.5" y="0.5" width="180" height="80" fill="none"/>
        </g>
        <text id="_1" data-name="1" transform="translate(1050 345)" fill="#020202" font-size="30" font-family="HelveticaNeue, Helvetica Neue"><tspan x="0" y="0">1</tspan></text>
        <g id="Group_1" data-name="Group 1" transform="translate(93.879 398)">
          <g id="Rectangle_1-10" data-name="Rectangle 1" transform="translate(0.121)" fill="#fff" stroke="#707070" stroke-width="1">
            <rect width="246" height="81" stroke="none"/>
            <rect x="0.5" y="0.5" width="245" height="80" fill="none"/>
          </g>
          <text id="Numao" transform="translate(75.121 48)" fill="#020202" font-size="30" font-family="HelveticaNeue, Helvetica Neue"><tspan x="0" y="0">Numao</tspan></text>
        </g>
        <g id="Rectangle_1-11" data-name="Rectangle 1" transform="translate(370 398)" fill="#fff" stroke="#707070" stroke-width="1">
          <rect width="181" height="81" stroke="none"/>
          <rect x="0.5" y="0.5" width="180" height="80" fill="none"/>
        </g>
        <text id="SUN-2" data-name="SUN" transform="translate(429 446)" fill="#020202" font-size="30" font-family="HelveticaNeue, Helvetica Neue"><tspan x="0" y="0">SUN</tspan></text>
        <g id="Rectangle_1-12" data-name="Rectangle 1" transform="translate(581 398)" fill="#fff" stroke="#707070" stroke-width="1">
          <rect width="357" height="81" stroke="none"/>
          <rect x="0.5" y="0.5" width="356" height="80" fill="none"/>
        </g>
        <text id="m_a_n̥_a_ŋ_" data-name="m a ⁴² + n̥ a ŋ ³³" transform="translate(760 448)" fill="#020202" font-size="30" font-family="Monaco"><tspan x="-153.025" y="0">m a ⁴² +</tspan><tspan y="0" fill="#707070"> </tspan><tspan y="0" fill="#fc4a2a">n̥ a ŋ ³³</tspan></text>
        <g id="Rectangle_1-13" data-name="Rectangle 1" transform="translate(968 398)" fill="#fff" stroke="#707070" stroke-width="1">
          <rect width="181" height="81" stroke="none"/>
          <rect x="0.5" y="0.5" width="180" height="80" fill="none"/>
        </g>
        <text id="_2" data-name="2" transform="translate(1050 446)" fill="#020202" font-size="30" font-family="HelveticaNeue, Helvetica Neue"><tspan x="0" y="0">2</tspan></text>
        <g id="Rectangle_1-14" data-name="Rectangle 1" transform="translate(1179 398)" fill="#fff" stroke="#707070" stroke-width="1">
          <rect width="84" height="81" stroke="none"/>
          <rect x="0.5" y="0.5" width="83" height="80" fill="none"/>
        </g>
        <g id="Rectangle_1-15" data-name="Rectangle 1" transform="translate(1276 398)" fill="#fff" stroke="#707070" stroke-width="1">
          <rect width="84" height="81" stroke="none"/>
          <rect x="0.5" y="0.5" width="83" height="80" fill="none"/>
        </g>
        <text id="_2-2" data-name="2" transform="translate(1213 446)" fill="#020202" font-size="30" font-family="HelveticaNeue, Helvetica Neue"><tspan x="0" y="0">2</tspan></text>
        <text id="_1-2" data-name="1" transform="translate(1310 446)" fill="#020202" font-size="30" font-family="HelveticaNeue, Helvetica Neue"><tspan x="0" y="0">1</tspan></text>
        <g id="Rectangle_1-16" data-name="Rectangle 1" transform="translate(1179 297)" fill="#fff" stroke="#707070" stroke-width="1">
          <rect width="84" height="81" stroke="none"/>
          <rect x="0.5" y="0.5" width="83" height="80" fill="none"/>
        </g>
        <g id="Rectangle_1-17" data-name="Rectangle 1" transform="translate(1276 297)" fill="#fff" stroke="#707070" stroke-width="1">
          <rect width="84" height="81" stroke="none"/>
          <rect x="0.5" y="0.5" width="83" height="80" fill="none"/>
        </g>
        <text id="_1-3" data-name="1" transform="translate(1310 345)" fill="#020202" font-size="30" font-family="HelveticaNeue, Helvetica Neue"><tspan x="0" y="0">1</tspan></text>
        <g id="Rectangle_1-18" data-name="Rectangle 1" transform="translate(1179 499)" fill="#fff" stroke="#707070" stroke-width="1">
          <rect width="84" height="81" stroke="none"/>
          <rect x="0.5" y="0.5" width="83" height="80" fill="none"/>
        </g>
        <g id="Rectangle_1-19" data-name="Rectangle 1" transform="translate(1276 499)" fill="#fff" stroke="#707070" stroke-width="1">
          <rect width="84" height="81" stroke="none"/>
          <rect x="0.5" y="0.5" width="83" height="80" fill="none"/>
        </g>
        <text id="_3" data-name="3" transform="translate(1213 547)" fill="#020202" font-size="30" font-family="HelveticaNeue, Helvetica Neue"><tspan x="0" y="0">3</tspan></text>
        <text id="_1-4" data-name="1" transform="translate(1310 547)" fill="#020202" font-size="30" font-family="HelveticaNeue, Helvetica Neue"><tspan x="0" y="0">1</tspan></text>
        <g id="Rectangle_1-20" data-name="Rectangle 1" transform="translate(1179 600)" fill="#fff" stroke="#707070" stroke-width="1">
          <rect width="84" height="81" stroke="none"/>
          <rect x="0.5" y="0.5" width="83" height="80" fill="none"/>
        </g>
        <g id="Rectangle_1-21" data-name="Rectangle 1" transform="translate(1276 600)" fill="#fff" stroke="#707070" stroke-width="1">
          <rect width="84" height="81" stroke="none"/>
          <rect x="0.5" y="0.5" width="83" height="80" fill="none"/>
        </g>
        <text id="_4" data-name="4" transform="translate(1213 648)" fill="#020202" font-size="30" font-family="HelveticaNeue, Helvetica Neue"><tspan x="0" y="0">4</tspan></text>
        <text id="_1-5" data-name="1" transform="translate(1310 648)" fill="#020202" font-size="30" font-family="HelveticaNeue, Helvetica Neue"><tspan x="0" y="0">1</tspan></text>
        <g id="Rectangle_1-22" data-name="Rectangle 1" transform="translate(94 499)" fill="#fff" stroke="#707070" stroke-width="1">
          <rect width="246" height="81" stroke="none"/>
          <rect x="0.5" y="0.5" width="245" height="80" fill="none"/>
        </g>
        <text id="Zao_Min" data-name="Zao Min" transform="translate(163 547)" fill="#020202" font-size="30" font-family="HelveticaNeue, Helvetica Neue"><tspan x="0" y="0">Zao Min</tspan></text>
        <g id="Rectangle_1-23" data-name="Rectangle 1" transform="translate(370 499)" fill="#fff" stroke="#707070" stroke-width="1">
          <rect width="181" height="81" stroke="none"/>
          <rect x="0.5" y="0.5" width="180" height="80" fill="none"/>
        </g>
        <text id="SUN-3" data-name="SUN" transform="translate(429 547)" fill="#020202" font-size="30" font-family="HelveticaNeue, Helvetica Neue"><tspan x="0" y="0">SUN</tspan></text>
        <g id="Rectangle_1-24" data-name="Rectangle 1" transform="translate(581 499)" fill="#fff" stroke="#707070" stroke-width="1">
          <rect width="357" height="81" stroke="none"/>
          <rect x="0.5" y="0.5" width="356" height="80" fill="none"/>
        </g>
        <text id="ʔ_a_n_ai_" data-name="ʔ a ⁵³ + n ai ⁴⁴" transform="translate(616 551)" fill="#020202" font-size="30" font-family="Monaco"><tspan x="0" y="0">ʔ a ⁵³ +</tspan><tspan y="0" fill="#707070"> </tspan><tspan y="0" fill="#fc4a2a">n ai ⁴⁴</tspan></text>
        <g id="Rectangle_1-25" data-name="Rectangle 1" transform="translate(968 499)" fill="#fff" stroke="#707070" stroke-width="1">
          <rect width="181" height="81" stroke="none"/>
          <rect x="0.5" y="0.5" width="180" height="80" fill="none"/>
        </g>
        <text id="_3-2" data-name="3" transform="translate(1050 547)" fill="#020202" font-size="30" font-family="HelveticaNeue, Helvetica Neue"><tspan x="0" y="0">3</tspan></text>
        <g id="Rectangle_1-26" data-name="Rectangle 1" transform="translate(94 600)" fill="#fff" stroke="#707070" stroke-width="1">
          <rect width="246" height="81" stroke="none"/>
          <rect x="0.5" y="0.5" width="245" height="80" fill="none"/>
        </g>
        <text id="Baheng_Eastern" data-name="Baheng, Eastern" transform="translate(106 648)" fill="#020202" font-size="30" font-family="HelveticaNeue, Helvetica Neue"><tspan x="0" y="0">Baheng, Eastern</tspan></text>
        <g id="Rectangle_1-27" data-name="Rectangle 1" transform="translate(370 600)" fill="#fff" stroke="#707070" stroke-width="1">
          <rect width="181" height="81" stroke="none"/>
          <rect x="0.5" y="0.5" width="180" height="80" fill="none"/>
        </g>
        <text id="SUN-4" data-name="SUN" transform="translate(429 648)" fill="#020202" font-size="30" font-family="HelveticaNeue, Helvetica Neue"><tspan x="0" y="0">SUN</tspan></text>
        <g id="Rectangle_1-28" data-name="Rectangle 1" transform="translate(581 600)" fill="#fff" stroke="#707070" stroke-width="1">
          <rect width="357" height="81" stroke="none"/>
          <rect x="0.5" y="0.5" width="356" height="80" fill="none"/>
        </g>
        <text id="l_a_n̥_e_" data-name="l a ⁰/³ + n̥ e ³⁵" transform="translate(616 650)" fill="#020202" font-size="30" font-family="Monaco"><tspan x="0" y="0">l a ⁰/³ +</tspan><tspan y="0" fill="#707070"> </tspan><tspan y="0" fill="#fc4a2a">n̥ e ³⁵</tspan></text>
        <g id="Rectangle_1-29" data-name="Rectangle 1" transform="translate(968 600)" fill="#fff" stroke="#707070" stroke-width="1">
          <rect width="181" height="81" stroke="none"/>
          <rect x="0.5" y="0.5" width="180" height="80" fill="none"/>
        </g>
        <text id="_4-2" data-name="4" transform="translate(1050 648)" fill="#020202" font-size="30" font-family="HelveticaNeue, Helvetica Neue"><tspan x="0" y="0">4</tspan></text>
      </g>
      <g id="Group_3" data-name="Group 3" transform="translate(-23 -176)">
        <g id="Rectangle_1-30" data-name="Rectangle 1" transform="translate(94 207)" fill="#fff" stroke="#707070" stroke-width="2">
          <rect width="246" height="81" stroke="none"/>
          <rect x="1" y="1" width="244" height="79" fill="none"/>
        </g>
        <text id="DOCULECT-2" data-name="DOCULECT" transform="translate(137 255)" fill="#020202" font-size="30" font-family="HelveticaNeue, Helvetica Neue"><tspan x="0" y="0">DOCULECT</tspan></text>
        <g id="Rectangle_1-31" data-name="Rectangle 1" transform="translate(370 207)" fill="#fff" stroke="#707070" stroke-width="2">
          <rect width="181" height="81" stroke="none"/>
          <rect x="1" y="1" width="179" height="79" fill="none"/>
        </g>
        <text id="CONCEPT-2" data-name="CONCEPT" transform="translate(389 255)" fill="#020202" font-size="30" font-family="HelveticaNeue, Helvetica Neue"><tspan x="0" y="0">CONCEPT</tspan></text>
        <g id="Rectangle_1-32" data-name="Rectangle 1" transform="translate(581 207)" fill="#fff" stroke="#707070" stroke-width="2">
          <rect width="357" height="81" stroke="none"/>
          <rect x="1" y="1" width="355" height="79" fill="none"/>
        </g>
        <text id="TOKENS-2" data-name="TOKENS" transform="translate(700 259)" fill="#020202" font-size="30" font-family="HelveticaNeue, Helvetica Neue"><tspan x="0" y="0">TOKENS</tspan></text>
        <g id="Rectangle_1-33" data-name="Rectangle 1" transform="translate(968 207)" fill="#fff" stroke="#707070" stroke-width="2">
          <rect width="181" height="81" stroke="none"/>
          <rect x="1" y="1" width="179" height="79" fill="none"/>
        </g>
        <text id="COGID-2" data-name="COGID" transform="translate(1011 255)" fill="#020202" font-size="30" font-family="HelveticaNeue, Helvetica Neue"><tspan x="0" y="0">COGID</tspan></text>
        <g id="Rectangle_1-34" data-name="Rectangle 1" transform="translate(1179 207)" fill="#fff" stroke="#707070" stroke-width="2">
          <rect width="181" height="81" stroke="none"/>
          <rect x="1" y="1" width="179" height="79" fill="none"/>
        </g>
        <text id="COGIDS-2" data-name="COGIDS" transform="translate(1212 255)" fill="#020202" font-size="30" font-family="HelveticaNeue, Helvetica Neue"><tspan x="0" y="0">COGIDS</tspan></text>
        <g id="Rectangle_1-35" data-name="Rectangle 1" transform="translate(94 297)" fill="#fff" stroke="#707070" stroke-width="1">
          <rect width="246" height="81" stroke="none"/>
          <rect x="0.5" y="0.5" width="245" height="80" fill="none"/>
        </g>
        <text id="Chuanqiandian-2" data-name="Chuanqiandian" transform="translate(116 345)" fill="#020202" font-size="30" font-family="HelveticaNeue, Helvetica Neue"><tspan x="0" y="0">Chuanqiandian</tspan></text>
        <g id="Rectangle_1-36" data-name="Rectangle 1" transform="translate(370 297)" fill="#fff" stroke="#707070" stroke-width="1">
          <rect width="181" height="81" stroke="none"/>
          <rect x="0.5" y="0.5" width="180" height="80" fill="none"/>
        </g>
        <text id="SUN-5" data-name="SUN" transform="translate(429 345)" fill="#020202" font-size="30" font-family="HelveticaNeue, Helvetica Neue"><tspan x="0" y="0">SUN</tspan></text>
        <g id="Rectangle_1-37" data-name="Rectangle 1" transform="translate(581 297)" fill="#fff" stroke="#707070" stroke-width="1">
          <rect width="357" height="81" stroke="none"/>
          <rect x="0.5" y="0.5" width="356" height="80" fill="none"/>
        </g>
        <text id="n̥_o_2" data-name="n̥ o ⁴³" transform="translate(706 347)" fill="#fc4a2a" font-size="30" font-family="Monaco"><tspan x="0" y="0">n̥ o ⁴³</tspan></text>
        <g id="Rectangle_1-38" data-name="Rectangle 1" transform="translate(968 297)" fill="#fff" stroke="#707070" stroke-width="1">
          <rect width="181" height="81" stroke="none"/>
          <rect x="0.5" y="0.5" width="180" height="80" fill="none"/>
        </g>
        <text id="_1-6" data-name="1" transform="translate(1050 345)" fill="#020202" font-size="30" font-family="HelveticaNeue, Helvetica Neue"><tspan x="0" y="0">1</tspan></text>
        <g id="Group_1-2" data-name="Group 1" transform="translate(93.879 398)">
          <g id="Rectangle_1-39" data-name="Rectangle 1" transform="translate(0.121)" fill="#fff" stroke="#707070" stroke-width="1">
            <rect width="246" height="81" stroke="none"/>
            <rect x="0.5" y="0.5" width="245" height="80" fill="none"/>
          </g>
          <text id="Numao-2" data-name="Numao" transform="translate(75.121 48)" fill="#020202" font-size="30" font-family="HelveticaNeue, Helvetica Neue"><tspan x="0" y="0">Numao</tspan></text>
        </g>
        <g id="Rectangle_1-40" data-name="Rectangle 1" transform="translate(370 398)" fill="#fff" stroke="#707070" stroke-width="1">
          <rect width="181" height="81" stroke="none"/>
          <rect x="0.5" y="0.5" width="180" height="80" fill="none"/>
        </g>
        <text id="SUN-6" data-name="SUN" transform="translate(429 446)" fill="#020202" font-size="30" font-family="HelveticaNeue, Helvetica Neue"><tspan x="0" y="0">SUN</tspan></text>
        <g id="Rectangle_1-41" data-name="Rectangle 1" transform="translate(581 398)" fill="#fff" stroke="#707070" stroke-width="1">
          <rect width="357" height="81" stroke="none"/>
          <rect x="0.5" y="0.5" width="356" height="80" fill="none"/>
        </g>
        <text id="m_a_n̥_a_ŋ_2" data-name="m a ⁴² + n̥ a ŋ ³³" transform="translate(760 448)" fill="#020202" font-size="30" font-family="Monaco"><tspan x="-153.025" y="0">m a ⁴² +</tspan><tspan y="0" fill="#707070"> </tspan><tspan y="0" fill="#fc4a2a">n̥ a ŋ ³³</tspan></text>
        <g id="Rectangle_1-42" data-name="Rectangle 1" transform="translate(968 398)" fill="#fff" stroke="#707070" stroke-width="1">
          <rect width="181" height="81" stroke="none"/>
          <rect x="0.5" y="0.5" width="180" height="80" fill="none"/>
        </g>
        <text id="_2-3" data-name="2" transform="translate(1050 446)" fill="#020202" font-size="30" font-family="HelveticaNeue, Helvetica Neue"><tspan x="0" y="0">2</tspan></text>
        <g id="Rectangle_1-43" data-name="Rectangle 1" transform="translate(1179 398)" fill="#fff" stroke="#707070" stroke-width="1">
          <rect width="84" height="81" stroke="none"/>
          <rect x="0.5" y="0.5" width="83" height="80" fill="none"/>
        </g>
        <g id="Rectangle_1-44" data-name="Rectangle 1" transform="translate(1276 398)" fill="#fff" stroke="#707070" stroke-width="1">
          <rect width="84" height="81" stroke="none"/>
          <rect x="0.5" y="0.5" width="83" height="80" fill="none"/>
        </g>
        <text id="_2-4" data-name="2" transform="translate(1213 446)" fill="#020202" font-size="30" font-family="HelveticaNeue, Helvetica Neue"><tspan x="0" y="0">2</tspan></text>
        <text id="_1-7" data-name="1" transform="translate(1310 446)" fill="#020202" font-size="30" font-family="HelveticaNeue, Helvetica Neue"><tspan x="0" y="0">1</tspan></text>
        <g id="Rectangle_1-45" data-name="Rectangle 1" transform="translate(1179 297)" fill="#fff" stroke="#707070" stroke-width="1">
          <rect width="84" height="81" stroke="none"/>
          <rect x="0.5" y="0.5" width="83" height="80" fill="none"/>
        </g>
        <g id="Rectangle_1-46" data-name="Rectangle 1" transform="translate(1276 297)" fill="#fff" stroke="#707070" stroke-width="1">
          <rect width="84" height="81" stroke="none"/>
          <rect x="0.5" y="0.5" width="83" height="80" fill="none"/>
        </g>
        <text id="_1-8" data-name="1" transform="translate(1213 345)" fill="#020202" font-size="30" font-family="HelveticaNeue, Helvetica Neue"><tspan x="0" y="0">1</tspan></text>
        <g id="Rectangle_1-47" data-name="Rectangle 1" transform="translate(1179 499)" fill="#fff" stroke="#707070" stroke-width="1">
          <rect width="84" height="81" stroke="none"/>
          <rect x="0.5" y="0.5" width="83" height="80" fill="none"/>
        </g>
        <g id="Rectangle_1-48" data-name="Rectangle 1" transform="translate(1276 499)" fill="#fff" stroke="#707070" stroke-width="1">
          <rect width="84" height="81" stroke="none"/>
          <rect x="0.5" y="0.5" width="83" height="80" fill="none"/>
        </g>
        <text id="_3-3" data-name="3" transform="translate(1213 547)" fill="#020202" font-size="30" font-family="HelveticaNeue, Helvetica Neue"><tspan x="0" y="0">3</tspan></text>
        <text id="_1-9" data-name="1" transform="translate(1310 547)" fill="#020202" font-size="30" font-family="HelveticaNeue, Helvetica Neue"><tspan x="0" y="0">1</tspan></text>
        <g id="Rectangle_1-49" data-name="Rectangle 1" transform="translate(1179 600)" fill="#fff" stroke="#707070" stroke-width="1">
          <rect width="84" height="81" stroke="none"/>
          <rect x="0.5" y="0.5" width="83" height="80" fill="none"/>
        </g>
        <g id="Rectangle_1-50" data-name="Rectangle 1" transform="translate(1276 600)" fill="#fff" stroke="#707070" stroke-width="1">
          <rect width="84" height="81" stroke="none"/>
          <rect x="0.5" y="0.5" width="83" height="80" fill="none"/>
        </g>
        <text id="_4-3" data-name="4" transform="translate(1213 648)" fill="#020202" font-size="30" font-family="HelveticaNeue, Helvetica Neue"><tspan x="0" y="0">4</tspan></text>
        <text id="_1-10" data-name="1" transform="translate(1310 648)" fill="#020202" font-size="30" font-family="HelveticaNeue, Helvetica Neue"><tspan x="0" y="0">1</tspan></text>
        <g id="Rectangle_1-51" data-name="Rectangle 1" transform="translate(94 499)" fill="#fff" stroke="#707070" stroke-width="1">
          <rect width="246" height="81" stroke="none"/>
          <rect x="0.5" y="0.5" width="245" height="80" fill="none"/>
        </g>
        <text id="Zao_Min-2" data-name="Zao Min" transform="translate(163 547)" fill="#020202" font-size="30" font-family="HelveticaNeue, Helvetica Neue"><tspan x="0" y="0">Zao Min</tspan></text>
        <g id="Rectangle_1-52" data-name="Rectangle 1" transform="translate(370 499)" fill="#fff" stroke="#707070" stroke-width="1">
          <rect width="181" height="81" stroke="none"/>
          <rect x="0.5" y="0.5" width="180" height="80" fill="none"/>
        </g>
        <text id="SUN-7" data-name="SUN" transform="translate(429 547)" fill="#020202" font-size="30" font-family="HelveticaNeue, Helvetica Neue"><tspan x="0" y="0">SUN</tspan></text>
        <g id="Rectangle_1-53" data-name="Rectangle 1" transform="translate(581 499)" fill="#fff" stroke="#707070" stroke-width="1">
          <rect width="357" height="81" stroke="none"/>
          <rect x="0.5" y="0.5" width="356" height="80" fill="none"/>
        </g>
        <text id="ʔ_a_n_ai_2" data-name="ʔ a ⁵³ + n ai ⁴⁴" transform="translate(616 551)" fill="#020202" font-size="30" font-family="Monaco"><tspan x="0" y="0">ʔ a ⁵³ +</tspan><tspan y="0" fill="#707070"> </tspan><tspan y="0" fill="#fc4a2a">n ai ⁴⁴</tspan></text>
        <g id="Rectangle_1-54" data-name="Rectangle 1" transform="translate(968 499)" fill="#fff" stroke="#707070" stroke-width="1">
          <rect width="181" height="81" stroke="none"/>
          <rect x="0.5" y="0.5" width="180" height="80" fill="none"/>
        </g>
        <text id="_3-4" data-name="3" transform="translate(1050 547)" fill="#020202" font-size="30" font-family="HelveticaNeue, Helvetica Neue"><tspan x="0" y="0">3</tspan></text>
        <g id="Rectangle_1-55" data-name="Rectangle 1" transform="translate(94 600)" fill="#fff" stroke="#707070" stroke-width="1">
          <rect width="246" height="81" stroke="none"/>
          <rect x="0.5" y="0.5" width="245" height="80" fill="none"/>
        </g>
        <text id="Baheng_Eastern-2" data-name="Baheng, Eastern" transform="translate(106 648)" fill="#020202" font-size="30" font-family="HelveticaNeue, Helvetica Neue"><tspan x="0" y="0">Baheng, Eastern</tspan></text>
        <g id="Rectangle_1-56" data-name="Rectangle 1" transform="translate(370 600)" fill="#fff" stroke="#707070" stroke-width="1">
          <rect width="181" height="81" stroke="none"/>
          <rect x="0.5" y="0.5" width="180" height="80" fill="none"/>
        </g>
        <text id="SUN-8" data-name="SUN" transform="translate(429 648)" fill="#020202" font-size="30" font-family="HelveticaNeue, Helvetica Neue"><tspan x="0" y="0">SUN</tspan></text>
        <g id="Rectangle_1-57" data-name="Rectangle 1" transform="translate(581 600)" fill="#fff" stroke="#707070" stroke-width="1">
          <rect width="357" height="81" stroke="none"/>
          <rect x="0.5" y="0.5" width="356" height="80" fill="none"/>
        </g>
        <text id="l_a_n̥_e_2" data-name="l a ⁰/³ + n̥ e ³⁵" transform="translate(616 650)" fill="#020202" font-size="30" font-family="Monaco"><tspan x="0" y="0">l a ⁰/³ +</tspan><tspan y="0" fill="#707070"> </tspan><tspan y="0" fill="#fc4a2a">n̥ e ³⁵</tspan></text>
        <g id="Rectangle_1-58" data-name="Rectangle 1" transform="translate(968 600)" fill="#fff" stroke="#707070" stroke-width="1">
          <rect width="181" height="81" stroke="none"/>
          <rect x="0.5" y="0.5" width="180" height="80" fill="none"/>
        </g>
        <text id="_4-4" data-name="4" transform="translate(1050 648)" fill="#020202" font-size="30" font-family="HelveticaNeue, Helvetica Neue"><tspan x="0" y="0">4</tspan></text>
      </g>
    </g>
  </g>
</svg>
